<?xml version="1.0" encoding="utf-8"?>
<!-- Generator: Adobe Illustrator 23.0.1, SVG Export Plug-In . SVG Version: 6.00 Build 0)  -->
<svg version="1.1" id="Layer_1" xmlns="http://www.w3.org/2000/svg" xmlns:xlink="http://www.w3.org/1999/xlink" x="0px" y="0px"
	 width="1024px" height="768px" viewBox="0 0 1024 768" style="enable-background:new 0 0 1024 768;" xml:space="preserve">
<style type="text/css">
	.st0{fill:#FFFFFF;}
</style>
<path class="st0" d="M343.9,376.1l-41.8-74.9c-0.5-0.9-1.5-1.5-2.5-1.5h-7.5c-1.6,0-2.9,1.3-2.9,2.9v86.8c0,1.6,1.3,2.9,2.9,2.9h5.3
	c1.6,0,2.9-1.3,2.9-2.9l0-72.8l41.8,74.3c0.5,0.9,1.5,1.5,2.5,1.5h7.5c1.6,0,2.9-1.3,2.9-2.9v-86.8c0-1.6-1.3-2.9-2.9-2.9h-5.3
	c-1.6,0-2.9,1.3-2.9,2.9L343.9,376.1z"/>
<path class="st0" d="M420.4,312.3h-0.6c-1.3,4.8-21,65.7-24.8,78c-0.4,1.2-1.5,2-2.8,2h-5.8c-2,0-3.4-2-2.8-3.8l29.4-86.8
	c0.4-1.2,1.5-2,2.8-2h9.1c1.2,0,2.4,0.8,2.8,2l29.4,86.8c0.6,1.9-0.8,3.8-2.8,3.8h-6.4c-1.3,0-2.4-0.8-2.8-2
	C441.4,378,421.8,317.1,420.4,312.3z"/>
<path class="st0" d="M485.6,389.4v-86.8c0-1.6,1.3-2.9,2.9-2.9h5.9c1.6,0,2.9,1.3,2.9,2.9v86.8c0,1.6-1.3,2.9-2.9,2.9h-5.9
	C486.9,392.3,485.6,391,485.6,389.4z"/>
<path class="st0" d="M648.6,389.4v-54.8c0-1.6,1.3-2.9,2.9-2.9h5.9c1.6,0,2.9,1.3,2.9,2.9v54.8c0,1.6-1.3,2.9-2.9,2.9h-5.9
	C649.9,392.3,648.6,391,648.6,389.4z"/>
<path class="st0" d="M609.4,389.5v-7.3c0-1.6,1.3-2.9,2.9-2.9h5.9c1.6,0,2.9,1.3,2.9,2.9v7.3c0,1.6-1.3,2.9-2.9,2.9h-5.9
	C610.7,392.4,609.4,391.1,609.4,389.5z"/>
<path class="st0" d="M648.6,318.8v-7.3c0-1.6,1.3-2.9,2.9-2.9h5.9c1.6,0,2.9,1.3,2.9,2.9v7.3c0,1.6-1.3,2.9-2.9,2.9h-5.9
	C649.9,321.7,648.6,320.4,648.6,318.8z"/>
<path class="st0" d="M559.1,394c-6.5,0-12.5-1.2-18.1-3.7c-4.7-2.1-8.8-4.8-12.5-8.1c-1.1-1-1.2-2.8-0.2-4l3.3-3.8
	c1-1.2,2.9-1.4,4.1-0.3c2.8,2.6,6,4.7,9.6,6.4c4.5,2.1,9.1,3.2,13.9,3.2c6.1,0,10.9-1.4,14.3-4.2c3.4-2.8,5.1-6.4,5.1-10.9
	c0-2.4-0.4-4.4-1.2-6c-0.8-1.6-1.9-3.1-3.2-4.2c-1.4-1.2-3-2.2-4.9-3.2c-1.9-0.9-3.9-1.9-6.1-3l-13.3-5.8c-2.2-0.9-4.4-2.1-6.6-3.4
	c-2.3-1.3-4.3-2.9-6.1-4.8c-1.8-1.9-3.2-4.1-4.4-6.7c-1.1-2.6-1.7-5.6-1.7-9c0-3.5,0.7-6.7,2.2-9.7s3.5-5.6,6.1-7.8
	c2.6-2.2,5.6-3.9,9.2-5.2c3.5-1.2,7.4-1.8,11.6-1.8c5.6,0,10.7,1.1,15.4,3.2c3.8,1.7,7.1,3.8,10,6.4c1.2,1,1.2,2.8,0.2,4l-2.7,3.3
	c-1,1.2-2.8,1.3-4,0.3c-2.2-1.8-4.6-3.3-7.2-4.5c-3.4-1.6-7.3-2.3-11.6-2.3c-5.2,0-9.3,1.2-12.5,3.6c-3.2,2.4-4.7,5.7-4.7,10
	c0,2.3,0.4,4.2,1.3,5.7c0.9,1.6,2.1,2.9,3.6,4.1s3.2,2.2,4.9,3.1c1.8,0.9,3.6,1.7,5.5,2.5l13.1,5.6c2.6,1.1,5.1,2.4,7.5,3.9
	s4.4,3.2,6.1,5.1s3,4.2,4,6.8c1,2.6,1.5,5.6,1.5,9c0,3.7-0.7,7.1-2.2,10.3c-1.5,3.2-3.6,6-6.3,8.4c-2.7,2.4-6,4.3-9.9,5.6
	C568.4,393.3,564,394,559.1,394z"/>
<g>
	<path class="st0" d="M711.3,393.6c-3.8,0-7.4-0.7-10.8-2.2c-3.4-1.4-6.4-3.5-9-6.3c-2.6-2.7-4.7-6.1-6.3-10.1
		c-1.6-4-2.3-8.5-2.3-13.6c0-5.1,0.8-9.7,2.3-13.7c1.6-4,3.6-7.4,6.3-10.2c2.6-2.8,5.6-4.9,9-6.3c3.4-1.4,7-2.2,10.8-2.2
		s7.4,0.7,10.8,2.2c3.4,1.4,6.4,3.5,9,6.3c2.6,2.8,4.7,6.2,6.3,10.2c1.6,4,2.3,8.6,2.3,13.7c0,5.1-0.8,9.6-2.3,13.6
		c-1.6,4-3.6,7.4-6.3,10.1c-2.6,2.7-5.6,4.8-9,6.3S715.1,393.6,711.3,393.6z M711.3,385c2.6,0,5-0.6,7.2-1.7
		c2.2-1.1,4.1-2.7,5.6-4.8c1.6-2.1,2.8-4.5,3.6-7.4c0.8-2.9,1.3-6.1,1.3-9.6s-0.4-6.8-1.3-9.7c-0.8-2.9-2-5.4-3.6-7.5
		c-1.6-2.1-3.4-3.7-5.6-4.9c-2.2-1.1-4.6-1.7-7.2-1.7c-2.6,0-5,0.6-7.2,1.7c-2.2,1.1-4.1,2.8-5.6,4.9c-1.6,2.1-2.8,4.6-3.6,7.5
		c-0.8,2.9-1.3,6.1-1.3,9.7s0.4,6.8,1.3,9.6c0.8,2.9,2,5.3,3.6,7.4c1.6,2.1,3.4,3.7,5.6,4.8C706.3,384.4,708.7,385,711.3,385z"/>
</g>
</svg>
