<svg width="208" height="200" viewBox="0 0 208 200" fill="none" xmlns="http://www.w3.org/2000/svg">
<g clip-path="url(#clip0_179_16666)">
<path d="M104 88L112 96" stroke="#FC873C" stroke-width="2.5"/>
<path d="M104 96L112 88" stroke="#FC873C" stroke-width="2.5"/>
</g>
<g clip-path="url(#clip1_179_16666)">
<path d="M112 80L120 88" stroke="#FC873C" stroke-width="2.5"/>
<path d="M112 88L120 80" stroke="#FC873C" stroke-width="2.5"/>
</g>
<g clip-path="url(#clip2_179_16666)">
<path d="M120 72L128 80" stroke="#FC873C" stroke-width="2.5"/>
<path d="M120 80L128 72" stroke="#FC873C" stroke-width="2.5"/>
</g>
<g clip-path="url(#clip3_179_16666)">
<path d="M136 56L144 64" stroke="#FC873C" stroke-width="2.5"/>
<path d="M136 64L144 56" stroke="#FC873C" stroke-width="2.5"/>
</g>
<g clip-path="url(#clip4_179_16666)">
<path d="M144 48L152 56" stroke="#FC873C" stroke-width="2.5"/>
<path d="M144 56L152 48" stroke="#FC873C" stroke-width="2.5"/>
</g>
<g clip-path="url(#clip5_179_16666)">
<path d="M152 40L160 48" stroke="#FC873C" stroke-width="2.5"/>
<path d="M152 48L160 40" stroke="#FC873C" stroke-width="2.5"/>
</g>
<g clip-path="url(#clip6_179_16666)">
<path d="M160 32L168 40" stroke="#FC873C" stroke-width="2.5"/>
<path d="M160 40L168 32" stroke="#FC873C" stroke-width="2.5"/>
</g>
<g clip-path="url(#clip7_179_16666)">
<path d="M168 24L176 32" stroke="#FC873C" stroke-width="2.5"/>
<path d="M168 32L176 24" stroke="#FC873C" stroke-width="2.5"/>
</g>
<g clip-path="url(#clip8_179_16666)">
<path d="M176 16L184 24" stroke="#FC873C" stroke-width="2.5"/>
<path d="M176 24L184 16" stroke="#FC873C" stroke-width="2.5"/>
</g>
<g clip-path="url(#clip9_179_16666)">
<path d="M184 8L192 16" stroke="#FC873C" stroke-width="2.5"/>
<path d="M184 16L192 8" stroke="#FC873C" stroke-width="2.5"/>
</g>
<g clip-path="url(#clip10_179_16666)">
<path d="M104 104L112 112" stroke="#FEDB59" stroke-width="2.5"/>
<path d="M104 112L112 104" stroke="#FEDB59" stroke-width="2.5"/>
</g>
<g clip-path="url(#clip11_179_16666)">
<path d="M48 128L56 136" stroke="#FEDB59" stroke-width="2.5"/>
<path d="M48 136L56 128" stroke="#FEDB59" stroke-width="2.5"/>
</g>
<g clip-path="url(#clip12_179_16666)">
<path d="M48 152L56 160" stroke="#FEDB59" stroke-width="2.5"/>
<path d="M48 160L56 152" stroke="#FEDB59" stroke-width="2.5"/>
</g>
<g clip-path="url(#clip13_179_16666)">
<path d="M48 176L56 184" stroke="#D6B743" stroke-width="2.5"/>
<path d="M48 184L56 176" stroke="#D6B743" stroke-width="2.5"/>
</g>
<g clip-path="url(#clip14_179_16666)">
<path d="M40 168L48 176" stroke="#FEDB59" stroke-width="2.5"/>
<path d="M40 176L48 168" stroke="#FEDB59" stroke-width="2.5"/>
</g>
<g clip-path="url(#clip15_179_16666)">
<path d="M16 152L24 160" stroke="#D6B743" stroke-width="2.5"/>
<path d="M16 160L24 152" stroke="#D6B743" stroke-width="2.5"/>
</g>
<g clip-path="url(#clip16_179_16666)">
<path d="M104 96L112 104" stroke="#FC873C" stroke-width="2.5"/>
<path d="M104 104L112 96" stroke="#FC873C" stroke-width="2.5"/>
</g>
<g clip-path="url(#clip17_179_16666)">
<path d="M104 112L112 120" stroke="#FEDB59" stroke-width="2.5"/>
<path d="M104 120L112 112" stroke="#FEDB59" stroke-width="2.5"/>
</g>
<g clip-path="url(#clip18_179_16666)">
<path d="M64 144L72 152" stroke="#FEDB59" stroke-width="2.5"/>
<path d="M64 152L72 144" stroke="#FEDB59" stroke-width="2.5"/>
</g>
<g clip-path="url(#clip19_179_16666)">
<path d="M32 168L40 176" stroke="#FEDB59" stroke-width="2.5"/>
<path d="M32 176L40 168" stroke="#FEDB59" stroke-width="2.5"/>
</g>
<g clip-path="url(#clip20_179_16666)">
<path d="M32 144L40 152" stroke="#FEDB59" stroke-width="2.5"/>
<path d="M32 152L40 144" stroke="#FEDB59" stroke-width="2.5"/>
</g>
<g clip-path="url(#clip21_179_16666)">
<path d="M40 136L48 144" stroke="#D6B743" stroke-width="2.5"/>
<path d="M40 144L48 136" stroke="#D6B743" stroke-width="2.5"/>
</g>
<g clip-path="url(#clip22_179_16666)">
<path d="M80 112L88 120" stroke="#FEDB59" stroke-width="2.5"/>
<path d="M80 120L88 112" stroke="#FEDB59" stroke-width="2.5"/>
</g>
<g clip-path="url(#clip23_179_16666)">
<path d="M48 136L56 144" stroke="#FEDB59" stroke-width="2.5"/>
<path d="M48 144L56 136" stroke="#FEDB59" stroke-width="2.5"/>
</g>
<g clip-path="url(#clip24_179_16666)">
<path d="M48 120L56 128" stroke="#FEDB59" stroke-width="2.5"/>
<path d="M48 128L56 120" stroke="#FEDB59" stroke-width="2.5"/>
</g>
<g clip-path="url(#clip25_179_16666)">
<path d="M48 160L56 168" stroke="#FEDB59" stroke-width="2.5"/>
<path d="M48 168L56 160" stroke="#FEDB59" stroke-width="2.5"/>
</g>
<g clip-path="url(#clip26_179_16666)">
<path d="M48 184L56 192" stroke="#FEDB59" stroke-width="2.5"/>
<path d="M48 192L56 184" stroke="#FEDB59" stroke-width="2.5"/>
</g>
<g clip-path="url(#clip27_179_16666)">
<path d="M40 176L48 184" stroke="#FEDB59" stroke-width="2.5"/>
<path d="M40 184L48 176" stroke="#FEDB59" stroke-width="2.5"/>
</g>
<g clip-path="url(#clip28_179_16666)">
<path d="M16 160L24 168" stroke="#FEDB59" stroke-width="2.5"/>
<path d="M16 168L24 160" stroke="#FEDB59" stroke-width="2.5"/>
</g>
<g clip-path="url(#clip29_179_16666)">
<path d="M16 136L24 144" stroke="#FEDB59" stroke-width="2.5"/>
<path d="M16 144L24 136" stroke="#FEDB59" stroke-width="2.5"/>
</g>
<g clip-path="url(#clip30_179_16666)">
<path d="M72 120L80 128" stroke="#FEDB59" stroke-width="2.5"/>
<path d="M72 128L80 120" stroke="#FEDB59" stroke-width="2.5"/>
</g>
<g clip-path="url(#clip31_179_16666)">
<path d="M40 144L48 152" stroke="#FEDB59" stroke-width="2.5"/>
<path d="M40 152L48 144" stroke="#FEDB59" stroke-width="2.5"/>
</g>
<g clip-path="url(#clip32_179_16666)">
<path d="M8 144L16 152" stroke="#FEDB59" stroke-width="2.5"/>
<path d="M8 152L16 144" stroke="#FEDB59" stroke-width="2.5"/>
</g>
<g clip-path="url(#clip33_179_16666)">
<path d="M0 152L8 160" stroke="#FEDB59" stroke-width="2.5"/>
<path d="M0 160L8 152" stroke="#FEDB59" stroke-width="2.5"/>
</g>
<g clip-path="url(#clip34_179_16666)">
<path d="M8 152L16 160" stroke="#FEDB59" stroke-width="2.5"/>
<path d="M8 160L16 152" stroke="#FEDB59" stroke-width="2.5"/>
</g>
<g clip-path="url(#clip35_179_16666)">
<path d="M112 88L120 96" stroke="#FC873C" stroke-width="2.5"/>
<path d="M112 96L120 88" stroke="#FC873C" stroke-width="2.5"/>
</g>
<g clip-path="url(#clip36_179_16666)">
<path d="M120 80L128 88" stroke="#FC873C" stroke-width="2.5"/>
<path d="M120 88L128 80" stroke="#FC873C" stroke-width="2.5"/>
</g>
<g clip-path="url(#clip37_179_16666)">
<path d="M128 72L136 80" stroke="#FC873C" stroke-width="2.5"/>
<path d="M128 80L136 72" stroke="#FC873C" stroke-width="2.5"/>
</g>
<g clip-path="url(#clip38_179_16666)">
<path d="M144 56L152 64" stroke="#FC873C" stroke-width="2.5"/>
<path d="M144 64L152 56" stroke="#FC873C" stroke-width="2.5"/>
</g>
<g clip-path="url(#clip39_179_16666)">
<path d="M152 48L160 56" stroke="#FC873C" stroke-width="2.5"/>
<path d="M152 56L160 48" stroke="#FC873C" stroke-width="2.5"/>
</g>
<g clip-path="url(#clip40_179_16666)">
<path d="M160 40L168 48" stroke="#FC873C" stroke-width="2.5"/>
<path d="M160 48L168 40" stroke="#FC873C" stroke-width="2.5"/>
</g>
<g clip-path="url(#clip41_179_16666)">
<path d="M168 32L176 40" stroke="#FC873C" stroke-width="2.5"/>
<path d="M168 40L176 32" stroke="#FC873C" stroke-width="2.5"/>
</g>
<g clip-path="url(#clip42_179_16666)">
<path d="M176 24L184 32" stroke="#FC873C" stroke-width="2.5"/>
<path d="M176 32L184 24" stroke="#FC873C" stroke-width="2.5"/>
</g>
<g clip-path="url(#clip43_179_16666)">
<path d="M184 16L192 24" stroke="#FC873C" stroke-width="2.5"/>
<path d="M184 24L192 16" stroke="#FC873C" stroke-width="2.5"/>
</g>
<g clip-path="url(#clip44_179_16666)">
<path d="M192 8L200 16" stroke="#FC873C" stroke-width="2.5"/>
<path d="M192 16L200 8" stroke="#FC873C" stroke-width="2.5"/>
</g>
<g clip-path="url(#clip45_179_16666)">
<path d="M192 0L200 8" stroke="#FC873C" stroke-width="2.5"/>
<path d="M192 8L200 2.73828e-07" stroke="#FC873C" stroke-width="2.5"/>
</g>
<g clip-path="url(#clip46_179_16666)">
<path d="M128 64L136 72" stroke="#FC873C" stroke-width="2.5"/>
<path d="M128 72L136 64" stroke="#FC873C" stroke-width="2.5"/>
</g>
<g clip-path="url(#clip47_179_16666)">
<path d="M88 88L96 96" stroke="#FEDB59" stroke-width="2.5"/>
<path d="M88 96L96 88" stroke="#FEDB59" stroke-width="2.5"/>
</g>
<g clip-path="url(#clip48_179_16666)">
<path d="M88 104L96 112" stroke="#FEDB59" stroke-width="2.5"/>
<path d="M88 112L96 104" stroke="#FEDB59" stroke-width="2.5"/>
</g>
<g clip-path="url(#clip49_179_16666)">
<path d="M56 128L64 136" stroke="#FEDB59" stroke-width="2.5"/>
<path d="M56 136L64 128" stroke="#FEDB59" stroke-width="2.5"/>
</g>
<g clip-path="url(#clip50_179_16666)">
<path d="M56 112L64 120" stroke="#FEDB59" stroke-width="2.5"/>
<path d="M56 120L64 112" stroke="#FEDB59" stroke-width="2.5"/>
</g>
<g clip-path="url(#clip51_179_16666)">
<path d="M56 152L64 160" stroke="#FEDB59" stroke-width="2.5"/>
<path d="M56 160L64 152" stroke="#FEDB59" stroke-width="2.5"/>
</g>
<g clip-path="url(#clip52_179_16666)">
<path d="M56 176L64 184" stroke="#FEDB59" stroke-width="2.5"/>
<path d="M56 184L64 176" stroke="#FEDB59" stroke-width="2.5"/>
</g>
<g clip-path="url(#clip53_179_16666)">
<path d="M80 128L88 136" stroke="#FEDB59" stroke-width="2.5"/>
<path d="M80 136L88 128" stroke="#FEDB59" stroke-width="2.5"/>
</g>
<g clip-path="url(#clip54_179_16666)">
<path d="M72 128L80 136" stroke="#FEDB59" stroke-width="2.5"/>
<path d="M72 136L80 128" stroke="#FEDB59" stroke-width="2.5"/>
</g>
<g clip-path="url(#clip55_179_16666)">
<path d="M64 152L72 160" stroke="#D6B743" stroke-width="2.5"/>
<path d="M64 160L72 152" stroke="#D6B743" stroke-width="2.5"/>
</g>
<g clip-path="url(#clip56_179_16666)">
<path d="M24 152L32 160" stroke="#FEDB59" stroke-width="2.5"/>
<path d="M24 160L32 152" stroke="#FEDB59" stroke-width="2.5"/>
</g>
<g clip-path="url(#clip57_179_16666)">
<path d="M24 128L32 136" stroke="#FEDB59" stroke-width="2.5"/>
<path d="M24 136L32 128" stroke="#FEDB59" stroke-width="2.5"/>
</g>
<g clip-path="url(#clip58_179_16666)">
<path d="M112 96L120 104" stroke="#FC873C" stroke-width="2.5"/>
<path d="M112 104L120 96" stroke="#FC873C" stroke-width="2.5"/>
</g>
<g clip-path="url(#clip59_179_16666)">
<path d="M112 112L120 120" stroke="#FEDB59" stroke-width="2.5"/>
<path d="M112 120L120 112" stroke="#FEDB59" stroke-width="2.5"/>
</g>
<g clip-path="url(#clip60_179_16666)">
<path d="M88 96L96 104" stroke="#FEDB59" stroke-width="2.5"/>
<path d="M88 104L96 96" stroke="#FEDB59" stroke-width="2.5"/>
</g>
<g clip-path="url(#clip61_179_16666)">
<path d="M88 112L96 120" stroke="#7B6F6C" stroke-width="2.5"/>
<path d="M88 120L96 112" stroke="#7B6F6C" stroke-width="2.5"/>
</g>
<g clip-path="url(#clip62_179_16666)">
<path d="M56 136L64 144" stroke="#FEDB59" stroke-width="2.5"/>
<path d="M56 144L64 136" stroke="#FEDB59" stroke-width="2.5"/>
</g>
<g clip-path="url(#clip63_179_16666)">
<path d="M56 120L64 128" stroke="#FEDB59" stroke-width="2.5"/>
<path d="M56 128L64 120" stroke="#FEDB59" stroke-width="2.5"/>
</g>
<g clip-path="url(#clip64_179_16666)">
<path d="M56 160L64 168" stroke="#D6B743" stroke-width="2.5"/>
<path d="M56 168L64 160" stroke="#D6B743" stroke-width="2.5"/>
</g>
<g clip-path="url(#clip65_179_16666)">
<path d="M56 184L64 192" stroke="#FEDB59" stroke-width="2.5"/>
<path d="M56 192L64 184" stroke="#FEDB59" stroke-width="2.5"/>
</g>
<g clip-path="url(#clip66_179_16666)">
<path d="M80 136L88 144" stroke="#FEDB59" stroke-width="2.5"/>
<path d="M80 144L88 136" stroke="#FEDB59" stroke-width="2.5"/>
</g>
<g clip-path="url(#clip67_179_16666)">
<path d="M72 136L80 144" stroke="#FEDB59" stroke-width="2.5"/>
<path d="M72 144L80 136" stroke="#FEDB59" stroke-width="2.5"/>
</g>
<g clip-path="url(#clip68_179_16666)">
<path d="M64 160L72 168" stroke="#FEDB59" stroke-width="2.5"/>
<path d="M64 168L72 160" stroke="#FEDB59" stroke-width="2.5"/>
</g>
<g clip-path="url(#clip69_179_16666)">
<path d="M24 160L32 168" stroke="#FEDB59" stroke-width="2.5"/>
<path d="M24 168L32 160" stroke="#FEDB59" stroke-width="2.5"/>
</g>
<g clip-path="url(#clip70_179_16666)">
<path d="M24 136L32 144" stroke="#FEDB59" stroke-width="2.5"/>
<path d="M24 144L32 136" stroke="#FEDB59" stroke-width="2.5"/>
</g>
<g clip-path="url(#clip71_179_16666)">
<path d="M80 120L88 128" stroke="#FEDB59" stroke-width="2.5"/>
<path d="M80 128L88 120" stroke="#FEDB59" stroke-width="2.5"/>
</g>
<g clip-path="url(#clip72_179_16666)">
<path d="M48 144L56 152" stroke="#FEDB59" stroke-width="2.5"/>
<path d="M48 152L56 144" stroke="#FEDB59" stroke-width="2.5"/>
</g>
<g clip-path="url(#clip73_179_16666)">
<path d="M48 168L56 176" stroke="#FEDB59" stroke-width="2.5"/>
<path d="M48 176L56 168" stroke="#FEDB59" stroke-width="2.5"/>
</g>
<g clip-path="url(#clip74_179_16666)">
<path d="M40 160L48 168" stroke="#FEDB59" stroke-width="2.5"/>
<path d="M40 168L48 160" stroke="#FEDB59" stroke-width="2.5"/>
</g>
<g clip-path="url(#clip75_179_16666)">
<path d="M40 152L48 160" stroke="#FEDB59" stroke-width="2.5"/>
<path d="M40 160L48 152" stroke="#FEDB59" stroke-width="2.5"/>
</g>
<g clip-path="url(#clip76_179_16666)">
<path d="M48 192L56 200" stroke="#FEDB59" stroke-width="2.5"/>
<path d="M48 200L56 192" stroke="#FEDB59" stroke-width="2.5"/>
</g>
<g clip-path="url(#clip77_179_16666)">
<path d="M40 184L48 192" stroke="#D6B743" stroke-width="2.5"/>
<path d="M40 192L48 184" stroke="#D6B743" stroke-width="2.5"/>
</g>
<g clip-path="url(#clip78_179_16666)">
<path d="M32 176L40 184" stroke="#FEDB59" stroke-width="2.5"/>
<path d="M32 184L40 176" stroke="#FEDB59" stroke-width="2.5"/>
</g>
<g clip-path="url(#clip79_179_16666)">
<path d="M24 176L32 184" stroke="#FEDB59" stroke-width="2.5"/>
<path d="M24 184L32 176" stroke="#FEDB59" stroke-width="2.5"/>
</g>
<g clip-path="url(#clip80_179_16666)">
<path d="M16 168L24 176" stroke="#FEDB59" stroke-width="2.5"/>
<path d="M16 176L24 168" stroke="#FEDB59" stroke-width="2.5"/>
</g>
<g clip-path="url(#clip81_179_16666)">
<path d="M16 144L24 152" stroke="#FEDB59" stroke-width="2.5"/>
<path d="M16 152L24 144" stroke="#FEDB59" stroke-width="2.5"/>
</g>
<g clip-path="url(#clip82_179_16666)">
<path d="M120 88L128 96" stroke="#FC873C" stroke-width="2.5"/>
<path d="M120 96L128 88" stroke="#FC873C" stroke-width="2.5"/>
</g>
<g clip-path="url(#clip83_179_16666)">
<path d="M128 80L136 88" stroke="#FC873C" stroke-width="2.5"/>
<path d="M128 88L136 80" stroke="#FC873C" stroke-width="2.5"/>
</g>
<g clip-path="url(#clip84_179_16666)">
<path d="M136 72L144 80" stroke="#FC873C" stroke-width="2.5"/>
<path d="M136 80L144 72" stroke="#FC873C" stroke-width="2.5"/>
</g>
<g clip-path="url(#clip85_179_16666)">
<path d="M152 56L160 64" stroke="#FC873C" stroke-width="2.5"/>
<path d="M152 64L160 56" stroke="#FC873C" stroke-width="2.5"/>
</g>
<g clip-path="url(#clip86_179_16666)">
<path d="M144 64L152 72" stroke="#FC873C" stroke-width="2.5"/>
<path d="M144 72L152 64" stroke="#FC873C" stroke-width="2.5"/>
</g>
<g clip-path="url(#clip87_179_16666)">
<path d="M160 48L168 56" stroke="#FC873C" stroke-width="2.5"/>
<path d="M160 56L168 48" stroke="#FC873C" stroke-width="2.5"/>
</g>
<g clip-path="url(#clip88_179_16666)">
<path d="M168 40L176 48" stroke="#FC873C" stroke-width="2.5"/>
<path d="M168 48L176 40" stroke="#FC873C" stroke-width="2.5"/>
</g>
<g clip-path="url(#clip89_179_16666)">
<path d="M176 32L184 40" stroke="#FC873C" stroke-width="2.5"/>
<path d="M176 40L184 32" stroke="#FC873C" stroke-width="2.5"/>
</g>
<g clip-path="url(#clip90_179_16666)">
<path d="M184 24L192 32" stroke="#FC873C" stroke-width="2.5"/>
<path d="M184 32L192 24" stroke="#FC873C" stroke-width="2.5"/>
</g>
<g clip-path="url(#clip91_179_16666)">
<path d="M192 16L200 24" stroke="#FC873C" stroke-width="2.5"/>
<path d="M192 24L200 16" stroke="#FC873C" stroke-width="2.5"/>
</g>
<g clip-path="url(#clip92_179_16666)">
<path d="M200 8L208 16" stroke="#FC873C" stroke-width="2.5"/>
<path d="M200 16L208 8" stroke="#FC873C" stroke-width="2.5"/>
</g>
<g clip-path="url(#clip93_179_16666)">
<path d="M200 0L208 8" stroke="#FC873C" stroke-width="2.5"/>
<path d="M200 8L208 2.73828e-07" stroke="#FC873C" stroke-width="2.5"/>
</g>
<g clip-path="url(#clip94_179_16666)">
<path d="M136 64L144 72" stroke="#FC873C" stroke-width="2.5"/>
<path d="M136 72L144 64" stroke="#FC873C" stroke-width="2.5"/>
</g>
<g clip-path="url(#clip95_179_16666)">
<path d="M96 104L104 112" stroke="#FEDB59" stroke-width="2.5"/>
<path d="M96 112L104 104" stroke="#FEDB59" stroke-width="2.5"/>
</g>
<g clip-path="url(#clip96_179_16666)">
<path d="M64 128L72 136" stroke="#FEDB59" stroke-width="2.5"/>
<path d="M64 136L72 128" stroke="#FEDB59" stroke-width="2.5"/>
</g>
<g clip-path="url(#clip97_179_16666)">
<path d="M64 112L72 120" stroke="#FEDB59" stroke-width="2.5"/>
<path d="M64 120L72 112" stroke="#FEDB59" stroke-width="2.5"/>
</g>
<g clip-path="url(#clip98_179_16666)">
<path d="M72 112L80 120" stroke="#FEDB59" stroke-width="2.5"/>
<path d="M72 120L80 112" stroke="#FEDB59" stroke-width="2.5"/>
</g>
<g clip-path="url(#clip99_179_16666)">
<path d="M72 152L80 160" stroke="#FEDB59" stroke-width="2.5"/>
<path d="M72 160L80 152" stroke="#FEDB59" stroke-width="2.5"/>
</g>
<g clip-path="url(#clip100_179_16666)">
<path d="M32 152L40 160" stroke="#FEDB59" stroke-width="2.5"/>
<path d="M32 160L40 152" stroke="#FEDB59" stroke-width="2.5"/>
</g>
<g clip-path="url(#clip101_179_16666)">
<path d="M32 128L40 136" stroke="#FEDB59" stroke-width="2.5"/>
<path d="M32 136L40 128" stroke="#FEDB59" stroke-width="2.5"/>
</g>
<g clip-path="url(#clip102_179_16666)">
<path d="M40 120L48 128" stroke="#FEDB59" stroke-width="2.5"/>
<path d="M40 128L48 120" stroke="#FEDB59" stroke-width="2.5"/>
</g>
<g clip-path="url(#clip103_179_16666)">
<path d="M96 96L104 104" stroke="#FEDB59" stroke-width="2.5"/>
<path d="M96 104L104 96" stroke="#FEDB59" stroke-width="2.5"/>
</g>
<g clip-path="url(#clip104_179_16666)">
<path d="M96 112L104 120" stroke="#FEDB59" stroke-width="2.5"/>
<path d="M96 120L104 112" stroke="#FEDB59" stroke-width="2.5"/>
</g>
<g clip-path="url(#clip105_179_16666)">
<path d="M64 136L72 144" stroke="#FEDB59" stroke-width="2.5"/>
<path d="M64 144L72 136" stroke="#FEDB59" stroke-width="2.5"/>
</g>
<g clip-path="url(#clip106_179_16666)">
<path d="M64 120L72 128" stroke="#FEDB59" stroke-width="2.5"/>
<path d="M64 128L72 120" stroke="#FEDB59" stroke-width="2.5"/>
</g>
<g clip-path="url(#clip107_179_16666)">
<path d="M72 160L80 168" stroke="#FEDB59" stroke-width="2.5"/>
<path d="M72 168L80 160" stroke="#FEDB59" stroke-width="2.5"/>
</g>
<g clip-path="url(#clip108_179_16666)">
<path d="M32 160L40 168" stroke="#D6B743" stroke-width="2.5"/>
<path d="M32 168L40 160" stroke="#D6B743" stroke-width="2.5"/>
</g>
<g clip-path="url(#clip109_179_16666)">
<path d="M32 136L40 144" stroke="#D6B743" stroke-width="2.5"/>
<path d="M32 144L40 136" stroke="#D6B743" stroke-width="2.5"/>
</g>
<g clip-path="url(#clip110_179_16666)">
<path d="M40 128L48 136" stroke="#FEDB59" stroke-width="2.5"/>
<path d="M40 136L48 128" stroke="#FEDB59" stroke-width="2.5"/>
</g>
<g clip-path="url(#clip111_179_16666)">
<path d="M88 120L96 128" stroke="#FEDB59" stroke-width="2.5"/>
<path d="M88 128L96 120" stroke="#FEDB59" stroke-width="2.5"/>
</g>
<g clip-path="url(#clip112_179_16666)">
<path d="M56 144L64 152" stroke="#FEDB59" stroke-width="2.5"/>
<path d="M56 152L64 144" stroke="#FEDB59" stroke-width="2.5"/>
</g>
<g clip-path="url(#clip113_179_16666)">
<path d="M56 168L64 176" stroke="#D6B743" stroke-width="2.5"/>
<path d="M56 176L64 168" stroke="#D6B743" stroke-width="2.5"/>
</g>
<g clip-path="url(#clip114_179_16666)">
<path d="M8 160L16 168" stroke="#D6B743" stroke-width="2.5"/>
<path d="M8 168L16 160" stroke="#D6B743" stroke-width="2.5"/>
</g>
<g clip-path="url(#clip115_179_16666)">
<path d="M80 144L88 152" stroke="#FEDB59" stroke-width="2.5"/>
<path d="M80 152L88 144" stroke="#FEDB59" stroke-width="2.5"/>
</g>
<g clip-path="url(#clip116_179_16666)">
<path d="M72 144L80 152" stroke="#FEDB59" stroke-width="2.5"/>
<path d="M72 152L80 144" stroke="#FEDB59" stroke-width="2.5"/>
</g>
<g clip-path="url(#clip117_179_16666)">
<path d="M64 168L72 176" stroke="#FEDB59" stroke-width="2.5"/>
<path d="M64 176L72 168" stroke="#FEDB59" stroke-width="2.5"/>
</g>
<g clip-path="url(#clip118_179_16666)">
<path d="M64 176L72 184" stroke="#FEDB59" stroke-width="2.5"/>
<path d="M64 184L72 176" stroke="#FEDB59" stroke-width="2.5"/>
</g>
<g clip-path="url(#clip119_179_16666)">
<path d="M24 168L32 176" stroke="#D6B743" stroke-width="2.5"/>
<path d="M24 176L32 168" stroke="#D6B743" stroke-width="2.5"/>
</g>
<g clip-path="url(#clip120_179_16666)">
<path d="M24 144L32 152" stroke="#D6B743" stroke-width="2.5"/>
<path d="M24 152L32 144" stroke="#D6B743" stroke-width="2.5"/>
</g>
<defs>
<clipPath id="clip0_179_16666">
<rect width="8" height="8" fill="white" transform="translate(104 88)"/>
</clipPath>
<clipPath id="clip1_179_16666">
<rect width="8" height="8" fill="white" transform="translate(112 80)"/>
</clipPath>
<clipPath id="clip2_179_16666">
<rect width="8" height="8" fill="white" transform="translate(120 72)"/>
</clipPath>
<clipPath id="clip3_179_16666">
<rect width="8" height="8" fill="white" transform="translate(136 56)"/>
</clipPath>
<clipPath id="clip4_179_16666">
<rect width="8" height="8" fill="white" transform="translate(144 48)"/>
</clipPath>
<clipPath id="clip5_179_16666">
<rect width="8" height="8" fill="white" transform="translate(152 40)"/>
</clipPath>
<clipPath id="clip6_179_16666">
<rect width="8" height="8" fill="white" transform="translate(160 32)"/>
</clipPath>
<clipPath id="clip7_179_16666">
<rect width="8" height="8" fill="white" transform="translate(168 24)"/>
</clipPath>
<clipPath id="clip8_179_16666">
<rect width="8" height="8" fill="white" transform="translate(176 16)"/>
</clipPath>
<clipPath id="clip9_179_16666">
<rect width="8" height="8" fill="white" transform="translate(184 8)"/>
</clipPath>
<clipPath id="clip10_179_16666">
<rect width="8" height="8" fill="white" transform="translate(104 104)"/>
</clipPath>
<clipPath id="clip11_179_16666">
<rect width="8" height="8" fill="white" transform="translate(48 128)"/>
</clipPath>
<clipPath id="clip12_179_16666">
<rect width="8" height="8" fill="white" transform="translate(48 152)"/>
</clipPath>
<clipPath id="clip13_179_16666">
<rect width="8" height="8" fill="white" transform="translate(48 176)"/>
</clipPath>
<clipPath id="clip14_179_16666">
<rect width="8" height="8" fill="white" transform="translate(40 168)"/>
</clipPath>
<clipPath id="clip15_179_16666">
<rect width="8" height="8" fill="white" transform="translate(16 152)"/>
</clipPath>
<clipPath id="clip16_179_16666">
<rect width="8" height="8" fill="white" transform="translate(104 96)"/>
</clipPath>
<clipPath id="clip17_179_16666">
<rect width="8" height="8" fill="white" transform="translate(104 112)"/>
</clipPath>
<clipPath id="clip18_179_16666">
<rect width="8" height="8" fill="white" transform="translate(64 144)"/>
</clipPath>
<clipPath id="clip19_179_16666">
<rect width="8" height="8" fill="white" transform="translate(32 168)"/>
</clipPath>
<clipPath id="clip20_179_16666">
<rect width="8" height="8" fill="white" transform="translate(32 144)"/>
</clipPath>
<clipPath id="clip21_179_16666">
<rect width="8" height="8" fill="white" transform="translate(40 136)"/>
</clipPath>
<clipPath id="clip22_179_16666">
<rect width="8" height="8" fill="white" transform="translate(80 112)"/>
</clipPath>
<clipPath id="clip23_179_16666">
<rect width="8" height="8" fill="white" transform="translate(48 136)"/>
</clipPath>
<clipPath id="clip24_179_16666">
<rect width="8" height="8" fill="white" transform="translate(48 120)"/>
</clipPath>
<clipPath id="clip25_179_16666">
<rect width="8" height="8" fill="white" transform="translate(48 160)"/>
</clipPath>
<clipPath id="clip26_179_16666">
<rect width="8" height="8" fill="white" transform="translate(48 184)"/>
</clipPath>
<clipPath id="clip27_179_16666">
<rect width="8" height="8" fill="white" transform="translate(40 176)"/>
</clipPath>
<clipPath id="clip28_179_16666">
<rect width="8" height="8" fill="white" transform="translate(16 160)"/>
</clipPath>
<clipPath id="clip29_179_16666">
<rect width="8" height="8" fill="white" transform="translate(16 136)"/>
</clipPath>
<clipPath id="clip30_179_16666">
<rect width="8" height="8" fill="white" transform="translate(72 120)"/>
</clipPath>
<clipPath id="clip31_179_16666">
<rect width="8" height="8" fill="white" transform="translate(40 144)"/>
</clipPath>
<clipPath id="clip32_179_16666">
<rect width="8" height="8" fill="white" transform="translate(8 144)"/>
</clipPath>
<clipPath id="clip33_179_16666">
<rect width="8" height="8" fill="white" transform="translate(0 152)"/>
</clipPath>
<clipPath id="clip34_179_16666">
<rect width="8" height="8" fill="white" transform="translate(8 152)"/>
</clipPath>
<clipPath id="clip35_179_16666">
<rect width="8" height="8" fill="white" transform="translate(112 88)"/>
</clipPath>
<clipPath id="clip36_179_16666">
<rect width="8" height="8" fill="white" transform="translate(120 80)"/>
</clipPath>
<clipPath id="clip37_179_16666">
<rect width="8" height="8" fill="white" transform="translate(128 72)"/>
</clipPath>
<clipPath id="clip38_179_16666">
<rect width="8" height="8" fill="white" transform="translate(144 56)"/>
</clipPath>
<clipPath id="clip39_179_16666">
<rect width="8" height="8" fill="white" transform="translate(152 48)"/>
</clipPath>
<clipPath id="clip40_179_16666">
<rect width="8" height="8" fill="white" transform="translate(160 40)"/>
</clipPath>
<clipPath id="clip41_179_16666">
<rect width="8" height="8" fill="white" transform="translate(168 32)"/>
</clipPath>
<clipPath id="clip42_179_16666">
<rect width="8" height="8" fill="white" transform="translate(176 24)"/>
</clipPath>
<clipPath id="clip43_179_16666">
<rect width="8" height="8" fill="white" transform="translate(184 16)"/>
</clipPath>
<clipPath id="clip44_179_16666">
<rect width="8" height="8" fill="white" transform="translate(192 8)"/>
</clipPath>
<clipPath id="clip45_179_16666">
<rect width="8" height="8" fill="white" transform="translate(192)"/>
</clipPath>
<clipPath id="clip46_179_16666">
<rect width="8" height="8" fill="white" transform="translate(128 64)"/>
</clipPath>
<clipPath id="clip47_179_16666">
<rect width="8" height="8" fill="white" transform="translate(88 88)"/>
</clipPath>
<clipPath id="clip48_179_16666">
<rect width="8" height="8" fill="white" transform="translate(88 104)"/>
</clipPath>
<clipPath id="clip49_179_16666">
<rect width="8" height="8" fill="white" transform="translate(56 128)"/>
</clipPath>
<clipPath id="clip50_179_16666">
<rect width="8" height="8" fill="white" transform="translate(56 112)"/>
</clipPath>
<clipPath id="clip51_179_16666">
<rect width="8" height="8" fill="white" transform="translate(56 152)"/>
</clipPath>
<clipPath id="clip52_179_16666">
<rect width="8" height="8" fill="white" transform="translate(56 176)"/>
</clipPath>
<clipPath id="clip53_179_16666">
<rect width="8" height="8" fill="white" transform="translate(80 128)"/>
</clipPath>
<clipPath id="clip54_179_16666">
<rect width="8" height="8" fill="white" transform="translate(72 128)"/>
</clipPath>
<clipPath id="clip55_179_16666">
<rect width="8" height="8" fill="white" transform="translate(64 152)"/>
</clipPath>
<clipPath id="clip56_179_16666">
<rect width="8" height="8" fill="white" transform="translate(24 152)"/>
</clipPath>
<clipPath id="clip57_179_16666">
<rect width="8" height="8" fill="white" transform="translate(24 128)"/>
</clipPath>
<clipPath id="clip58_179_16666">
<rect width="8" height="8" fill="white" transform="translate(112 96)"/>
</clipPath>
<clipPath id="clip59_179_16666">
<rect width="8" height="8" fill="white" transform="translate(112 112)"/>
</clipPath>
<clipPath id="clip60_179_16666">
<rect width="8" height="8" fill="white" transform="translate(88 96)"/>
</clipPath>
<clipPath id="clip61_179_16666">
<rect width="8" height="8" fill="white" transform="translate(88 112)"/>
</clipPath>
<clipPath id="clip62_179_16666">
<rect width="8" height="8" fill="white" transform="translate(56 136)"/>
</clipPath>
<clipPath id="clip63_179_16666">
<rect width="8" height="8" fill="white" transform="translate(56 120)"/>
</clipPath>
<clipPath id="clip64_179_16666">
<rect width="8" height="8" fill="white" transform="translate(56 160)"/>
</clipPath>
<clipPath id="clip65_179_16666">
<rect width="8" height="8" fill="white" transform="translate(56 184)"/>
</clipPath>
<clipPath id="clip66_179_16666">
<rect width="8" height="8" fill="white" transform="translate(80 136)"/>
</clipPath>
<clipPath id="clip67_179_16666">
<rect width="8" height="8" fill="white" transform="translate(72 136)"/>
</clipPath>
<clipPath id="clip68_179_16666">
<rect width="8" height="8" fill="white" transform="translate(64 160)"/>
</clipPath>
<clipPath id="clip69_179_16666">
<rect width="8" height="8" fill="white" transform="translate(24 160)"/>
</clipPath>
<clipPath id="clip70_179_16666">
<rect width="8" height="8" fill="white" transform="translate(24 136)"/>
</clipPath>
<clipPath id="clip71_179_16666">
<rect width="8" height="8" fill="white" transform="translate(80 120)"/>
</clipPath>
<clipPath id="clip72_179_16666">
<rect width="8" height="8" fill="white" transform="translate(48 144)"/>
</clipPath>
<clipPath id="clip73_179_16666">
<rect width="8" height="8" fill="white" transform="translate(48 168)"/>
</clipPath>
<clipPath id="clip74_179_16666">
<rect width="8" height="8" fill="white" transform="translate(40 160)"/>
</clipPath>
<clipPath id="clip75_179_16666">
<rect width="8" height="8" fill="white" transform="translate(40 152)"/>
</clipPath>
<clipPath id="clip76_179_16666">
<rect width="8" height="8" fill="white" transform="translate(48 192)"/>
</clipPath>
<clipPath id="clip77_179_16666">
<rect width="8" height="8" fill="white" transform="translate(40 184)"/>
</clipPath>
<clipPath id="clip78_179_16666">
<rect width="8" height="8" fill="white" transform="translate(32 176)"/>
</clipPath>
<clipPath id="clip79_179_16666">
<rect width="8" height="8" fill="white" transform="translate(24 176)"/>
</clipPath>
<clipPath id="clip80_179_16666">
<rect width="8" height="8" fill="white" transform="translate(16 168)"/>
</clipPath>
<clipPath id="clip81_179_16666">
<rect width="8" height="8" fill="white" transform="translate(16 144)"/>
</clipPath>
<clipPath id="clip82_179_16666">
<rect width="8" height="8" fill="white" transform="translate(120 88)"/>
</clipPath>
<clipPath id="clip83_179_16666">
<rect width="8" height="8" fill="white" transform="translate(128 80)"/>
</clipPath>
<clipPath id="clip84_179_16666">
<rect width="8" height="8" fill="white" transform="translate(136 72)"/>
</clipPath>
<clipPath id="clip85_179_16666">
<rect width="8" height="8" fill="white" transform="translate(152 56)"/>
</clipPath>
<clipPath id="clip86_179_16666">
<rect width="8" height="8" fill="white" transform="translate(144 64)"/>
</clipPath>
<clipPath id="clip87_179_16666">
<rect width="8" height="8" fill="white" transform="translate(160 48)"/>
</clipPath>
<clipPath id="clip88_179_16666">
<rect width="8" height="8" fill="white" transform="translate(168 40)"/>
</clipPath>
<clipPath id="clip89_179_16666">
<rect width="8" height="8" fill="white" transform="translate(176 32)"/>
</clipPath>
<clipPath id="clip90_179_16666">
<rect width="8" height="8" fill="white" transform="translate(184 24)"/>
</clipPath>
<clipPath id="clip91_179_16666">
<rect width="8" height="8" fill="white" transform="translate(192 16)"/>
</clipPath>
<clipPath id="clip92_179_16666">
<rect width="8" height="8" fill="white" transform="translate(200 8)"/>
</clipPath>
<clipPath id="clip93_179_16666">
<rect width="8" height="8" fill="white" transform="translate(200)"/>
</clipPath>
<clipPath id="clip94_179_16666">
<rect width="8" height="8" fill="white" transform="translate(136 64)"/>
</clipPath>
<clipPath id="clip95_179_16666">
<rect width="8" height="8" fill="white" transform="translate(96 104)"/>
</clipPath>
<clipPath id="clip96_179_16666">
<rect width="8" height="8" fill="white" transform="translate(64 128)"/>
</clipPath>
<clipPath id="clip97_179_16666">
<rect width="8" height="8" fill="white" transform="translate(64 112)"/>
</clipPath>
<clipPath id="clip98_179_16666">
<rect width="8" height="8" fill="white" transform="translate(72 112)"/>
</clipPath>
<clipPath id="clip99_179_16666">
<rect width="8" height="8" fill="white" transform="translate(72 152)"/>
</clipPath>
<clipPath id="clip100_179_16666">
<rect width="8" height="8" fill="white" transform="translate(32 152)"/>
</clipPath>
<clipPath id="clip101_179_16666">
<rect width="8" height="8" fill="white" transform="translate(32 128)"/>
</clipPath>
<clipPath id="clip102_179_16666">
<rect width="8" height="8" fill="white" transform="translate(40 120)"/>
</clipPath>
<clipPath id="clip103_179_16666">
<rect width="8" height="8" fill="white" transform="translate(96 96)"/>
</clipPath>
<clipPath id="clip104_179_16666">
<rect width="8" height="8" fill="white" transform="translate(96 112)"/>
</clipPath>
<clipPath id="clip105_179_16666">
<rect width="8" height="8" fill="white" transform="translate(64 136)"/>
</clipPath>
<clipPath id="clip106_179_16666">
<rect width="8" height="8" fill="white" transform="translate(64 120)"/>
</clipPath>
<clipPath id="clip107_179_16666">
<rect width="8" height="8" fill="white" transform="translate(72 160)"/>
</clipPath>
<clipPath id="clip108_179_16666">
<rect width="8" height="8" fill="white" transform="translate(32 160)"/>
</clipPath>
<clipPath id="clip109_179_16666">
<rect width="8" height="8" fill="white" transform="translate(32 136)"/>
</clipPath>
<clipPath id="clip110_179_16666">
<rect width="8" height="8" fill="white" transform="translate(40 128)"/>
</clipPath>
<clipPath id="clip111_179_16666">
<rect width="8" height="8" fill="white" transform="translate(88 120)"/>
</clipPath>
<clipPath id="clip112_179_16666">
<rect width="8" height="8" fill="white" transform="translate(56 144)"/>
</clipPath>
<clipPath id="clip113_179_16666">
<rect width="8" height="8" fill="white" transform="translate(56 168)"/>
</clipPath>
<clipPath id="clip114_179_16666">
<rect width="8" height="8" fill="white" transform="translate(8 160)"/>
</clipPath>
<clipPath id="clip115_179_16666">
<rect width="8" height="8" fill="white" transform="translate(80 144)"/>
</clipPath>
<clipPath id="clip116_179_16666">
<rect width="8" height="8" fill="white" transform="translate(72 144)"/>
</clipPath>
<clipPath id="clip117_179_16666">
<rect width="8" height="8" fill="white" transform="translate(64 168)"/>
</clipPath>
<clipPath id="clip118_179_16666">
<rect width="8" height="8" fill="white" transform="translate(64 176)"/>
</clipPath>
<clipPath id="clip119_179_16666">
<rect width="8" height="8" fill="white" transform="translate(24 168)"/>
</clipPath>
<clipPath id="clip120_179_16666">
<rect width="8" height="8" fill="white" transform="translate(24 144)"/>
</clipPath>
</defs>
</svg>
