<svg width="92" height="144" viewBox="0 0 92 144" fill="none" xmlns="http://www.w3.org/2000/svg">
<g clip-path="url(#clip0_96_40348)">
<path d="M0 72L8 80" stroke="#A568CA" stroke-width="2.5"/>
<path d="M0 80L8 72" stroke="#A568CA" stroke-width="2.5"/>
</g>
<g clip-path="url(#clip1_96_40348)">
<path d="M16 72L24 80" stroke="#D564C6" stroke-width="2.5"/>
<path d="M16 80L24 72" stroke="#D564C6" stroke-width="2.5"/>
</g>
<g clip-path="url(#clip2_96_40348)">
<path d="M8 40L16 48" stroke="#EC580F" stroke-width="2.5"/>
<path d="M8 48L16 40" stroke="#EC580F" stroke-width="2.5"/>
</g>
<g clip-path="url(#clip3_96_40348)">
<path d="M0 104L8 112" stroke="#A568CA" stroke-width="2.5"/>
<path d="M0 112L8 104" stroke="#A568CA" stroke-width="2.5"/>
</g>
<g clip-path="url(#clip4_96_40348)">
<path d="M16 104L24 112" stroke="#9B3AA2" stroke-width="2.5"/>
<path d="M16 112L24 104" stroke="#9B3AA2" stroke-width="2.5"/>
</g>
<g clip-path="url(#clip5_96_40348)">
<path d="M0 136L8 144" stroke="#A568CA" stroke-width="2.5"/>
<path d="M0 144L8 136" stroke="#A568CA" stroke-width="2.5"/>
</g>
<g clip-path="url(#clip6_96_40348)">
<path d="M16 136L24 144" stroke="#9B3AA2" stroke-width="2.5"/>
<path d="M16 144L24 136" stroke="#9B3AA2" stroke-width="2.5"/>
</g>
<g clip-path="url(#clip7_96_40348)">
<path d="M0 88L8 96" stroke="#A568CA" stroke-width="2.5"/>
<path d="M0 96L8 88" stroke="#A568CA" stroke-width="2.5"/>
</g>
<g clip-path="url(#clip8_96_40348)">
<path d="M16 88L24 96" stroke="#9B3AA2" stroke-width="2.5"/>
<path d="M16 96L24 88" stroke="#9B3AA2" stroke-width="2.5"/>
</g>
<g clip-path="url(#clip9_96_40348)">
<path d="M0 120L8 128" stroke="#A568CA" stroke-width="2.5"/>
<path d="M0 128L8 120" stroke="#A568CA" stroke-width="2.5"/>
</g>
<g clip-path="url(#clip10_96_40348)">
<path d="M16 120L24 128" stroke="#9B3AA2" stroke-width="2.5"/>
<path d="M16 128L24 120" stroke="#9B3AA2" stroke-width="2.5"/>
</g>
<g clip-path="url(#clip11_96_40348)">
<path d="M8 72L16 80" stroke="#9B3AA2" stroke-width="2.5"/>
<path d="M8 80L16 72" stroke="#9B3AA2" stroke-width="2.5"/>
</g>
<g clip-path="url(#clip12_96_40348)">
<path d="M24 72L32 80" stroke="#D564C6" stroke-width="2.5"/>
<path d="M24 80L32 72" stroke="#D564C6" stroke-width="2.5"/>
</g>
<g clip-path="url(#clip13_96_40348)">
<path d="M16 40L24 48" stroke="#F8C152" stroke-width="2.5"/>
<path d="M16 48L24 40" stroke="#F8C152" stroke-width="2.5"/>
</g>
<g clip-path="url(#clip14_96_40348)">
<path d="M16 32L24 40" stroke="#EF9400" stroke-width="2.5"/>
<path d="M16 40L24 32" stroke="#EF9400" stroke-width="2.5"/>
</g>
<g clip-path="url(#clip15_96_40348)">
<path d="M16 24L24 32" stroke="#EC580F" stroke-width="2.5"/>
<path d="M16 32L24 24" stroke="#EC580F" stroke-width="2.5"/>
</g>
<g clip-path="url(#clip16_96_40348)">
<path d="M32 72L40 80" stroke="#D564C6" stroke-width="2.5"/>
<path d="M32 80L40 72" stroke="#D564C6" stroke-width="2.5"/>
</g>
<g clip-path="url(#clip17_96_40348)">
<path d="M24 40L32 48" stroke="#EC580F" stroke-width="2.5"/>
<path d="M24 48L32 40" stroke="#EC580F" stroke-width="2.5"/>
</g>
<g clip-path="url(#clip18_96_40348)">
<path d="M24 32L32 40" stroke="#EC580F" stroke-width="2.5"/>
<path d="M24 40L32 32" stroke="#EC580F" stroke-width="2.5"/>
</g>
<g clip-path="url(#clip19_96_40348)">
<path d="M16 56L24 64" stroke="#7C061E" stroke-width="2.5"/>
<path d="M16 64L24 56" stroke="#7C061E" stroke-width="2.5"/>
</g>
<g clip-path="url(#clip20_96_40348)">
<path d="M8 104L16 112" stroke="#9B3AA2" stroke-width="2.5"/>
<path d="M8 112L16 104" stroke="#9B3AA2" stroke-width="2.5"/>
</g>
<g clip-path="url(#clip21_96_40348)">
<path d="M24 104L32 112" stroke="#9B3AA2" stroke-width="2.5"/>
<path d="M24 112L32 104" stroke="#9B3AA2" stroke-width="2.5"/>
</g>
<g clip-path="url(#clip22_96_40348)">
<path d="M32 104L40 112" stroke="#9B3AA2" stroke-width="2.5"/>
<path d="M32 112L40 104" stroke="#9B3AA2" stroke-width="2.5"/>
</g>
<g clip-path="url(#clip23_96_40348)">
<path d="M8 136L16 144" stroke="#9B3AA2" stroke-width="2.5"/>
<path d="M8 144L16 136" stroke="#9B3AA2" stroke-width="2.5"/>
</g>
<g clip-path="url(#clip24_96_40348)">
<path d="M24 136L32 144" stroke="#9B3AA2" stroke-width="2.5"/>
<path d="M24 144L32 136" stroke="#9B3AA2" stroke-width="2.5"/>
</g>
<g clip-path="url(#clip25_96_40348)">
<path d="M32 136L40 144" stroke="#9B3AA2" stroke-width="2.5"/>
<path d="M32 144L40 136" stroke="#9B3AA2" stroke-width="2.5"/>
</g>
<g clip-path="url(#clip26_96_40348)">
<path d="M8 88L16 96" stroke="#9B3AA2" stroke-width="2.5"/>
<path d="M8 96L16 88" stroke="#9B3AA2" stroke-width="2.5"/>
</g>
<g clip-path="url(#clip27_96_40348)">
<path d="M24 88L32 96" stroke="#D564C6" stroke-width="2.5"/>
<path d="M24 96L32 88" stroke="#D564C6" stroke-width="2.5"/>
</g>
<g clip-path="url(#clip28_96_40348)">
<path d="M32 88L40 96" stroke="#9B3AA2" stroke-width="2.5"/>
<path d="M32 96L40 88" stroke="#9B3AA2" stroke-width="2.5"/>
</g>
<g clip-path="url(#clip29_96_40348)">
<path d="M8 120L16 128" stroke="#9B3AA2" stroke-width="2.5"/>
<path d="M8 128L16 120" stroke="#9B3AA2" stroke-width="2.5"/>
</g>
<g clip-path="url(#clip30_96_40348)">
<path d="M24 120L32 128" stroke="#D564C6" stroke-width="2.5"/>
<path d="M24 128L32 120" stroke="#D564C6" stroke-width="2.5"/>
</g>
<g clip-path="url(#clip31_96_40348)">
<path d="M32 120L40 128" stroke="#9B3AA2" stroke-width="2.5"/>
<path d="M32 128L40 120" stroke="#9B3AA2" stroke-width="2.5"/>
</g>
<g clip-path="url(#clip32_96_40348)">
<path d="M0 80L8 88" stroke="#A568CA" stroke-width="2.5"/>
<path d="M0 88L8 80" stroke="#A568CA" stroke-width="2.5"/>
</g>
<g clip-path="url(#clip33_96_40348)">
<path d="M16 80L24 88" stroke="#9B3AA2" stroke-width="2.5"/>
<path d="M16 88L24 80" stroke="#9B3AA2" stroke-width="2.5"/>
</g>
<g clip-path="url(#clip34_96_40348)">
<path d="M8 48L16 56" stroke="#EC580F" stroke-width="2.5"/>
<path d="M8 56L16 48" stroke="#EC580F" stroke-width="2.5"/>
</g>
<g clip-path="url(#clip35_96_40348)">
<path d="M0 112L8 120" stroke="#A568CA" stroke-width="2.5"/>
<path d="M0 120L8 112" stroke="#A568CA" stroke-width="2.5"/>
</g>
<g clip-path="url(#clip36_96_40348)">
<path d="M16 112L24 120" stroke="#9B3AA2" stroke-width="2.5"/>
<path d="M16 120L24 112" stroke="#9B3AA2" stroke-width="2.5"/>
</g>
<g clip-path="url(#clip37_96_40348)">
<path d="M0 96L8 104" stroke="#A568CA" stroke-width="2.5"/>
<path d="M0 104L8 96" stroke="#A568CA" stroke-width="2.5"/>
</g>
<g clip-path="url(#clip38_96_40348)">
<path d="M16 96L24 104" stroke="#9B3AA2" stroke-width="2.5"/>
<path d="M16 104L24 96" stroke="#9B3AA2" stroke-width="2.5"/>
</g>
<g clip-path="url(#clip39_96_40348)">
<path d="M0 128L8 136" stroke="#A568CA" stroke-width="2.5"/>
<path d="M0 136L8 128" stroke="#A568CA" stroke-width="2.5"/>
</g>
<g clip-path="url(#clip40_96_40348)">
<path d="M16 128L24 136" stroke="#9B3AA2" stroke-width="2.5"/>
<path d="M16 136L24 128" stroke="#9B3AA2" stroke-width="2.5"/>
</g>
<g clip-path="url(#clip41_96_40348)">
<path d="M8 80L16 88" stroke="#9B3AA2" stroke-width="2.5"/>
<path d="M8 88L16 80" stroke="#9B3AA2" stroke-width="2.5"/>
</g>
<g clip-path="url(#clip42_96_40348)">
<path d="M24 80L32 88" stroke="#D564C6" stroke-width="2.5"/>
<path d="M24 88L32 80" stroke="#D564C6" stroke-width="2.5"/>
</g>
<g clip-path="url(#clip43_96_40348)">
<path d="M16 48L24 56" stroke="#EF9400" stroke-width="2.5"/>
<path d="M16 56L24 48" stroke="#EF9400" stroke-width="2.5"/>
</g>
<g clip-path="url(#clip44_96_40348)">
<path d="M32 80L40 88" stroke="#9B3AA2" stroke-width="2.5"/>
<path d="M32 88L40 80" stroke="#9B3AA2" stroke-width="2.5"/>
</g>
<g clip-path="url(#clip45_96_40348)">
<path d="M24 48L32 56" stroke="#EC580F" stroke-width="2.5"/>
<path d="M24 56L32 48" stroke="#EC580F" stroke-width="2.5"/>
</g>
<g clip-path="url(#clip46_96_40348)">
<path d="M16 64L24 72" stroke="#7C061E" stroke-width="2.5"/>
<path d="M16 72L24 64" stroke="#7C061E" stroke-width="2.5"/>
</g>
<g clip-path="url(#clip47_96_40348)">
<path d="M8 112L16 120" stroke="#9B3AA2" stroke-width="2.5"/>
<path d="M8 120L16 112" stroke="#9B3AA2" stroke-width="2.5"/>
</g>
<g clip-path="url(#clip48_96_40348)">
<path d="M24 112L32 120" stroke="#D564C6" stroke-width="2.5"/>
<path d="M24 120L32 112" stroke="#D564C6" stroke-width="2.5"/>
</g>
<g clip-path="url(#clip49_96_40348)">
<path d="M32 112L40 120" stroke="#9B3AA2" stroke-width="2.5"/>
<path d="M32 120L40 112" stroke="#9B3AA2" stroke-width="2.5"/>
</g>
<g clip-path="url(#clip50_96_40348)">
<path d="M8 96L16 104" stroke="#9B3AA2" stroke-width="2.5"/>
<path d="M8 104L16 96" stroke="#9B3AA2" stroke-width="2.5"/>
</g>
<g clip-path="url(#clip51_96_40348)">
<path d="M24 96L32 104" stroke="#D564C6" stroke-width="2.5"/>
<path d="M24 104L32 96" stroke="#D564C6" stroke-width="2.5"/>
</g>
<g clip-path="url(#clip52_96_40348)">
<path d="M32 96L40 104" stroke="#9B3AA2" stroke-width="2.5"/>
<path d="M32 104L40 96" stroke="#9B3AA2" stroke-width="2.5"/>
</g>
<g clip-path="url(#clip53_96_40348)">
<path d="M8 128L16 136" stroke="#9B3AA2" stroke-width="2.5"/>
<path d="M8 136L16 128" stroke="#9B3AA2" stroke-width="2.5"/>
</g>
<g clip-path="url(#clip54_96_40348)">
<path d="M24 128L32 136" stroke="#9B3AA2" stroke-width="2.5"/>
<path d="M24 136L32 128" stroke="#9B3AA2" stroke-width="2.5"/>
</g>
<g clip-path="url(#clip55_96_40348)">
<path d="M32 128L40 136" stroke="#9B3AA2" stroke-width="2.5"/>
<path d="M32 136L40 128" stroke="#9B3AA2" stroke-width="2.5"/>
</g>
<g clip-path="url(#clip56_96_40348)">
<path d="M52 48L60 56" stroke="#A568CA" stroke-width="2.5"/>
<path d="M52 56L60 48" stroke="#A568CA" stroke-width="2.5"/>
</g>
<g clip-path="url(#clip57_96_40348)">
<path d="M68 48L76 56" stroke="#D564C6" stroke-width="2.5"/>
<path d="M68 56L76 48" stroke="#D564C6" stroke-width="2.5"/>
</g>
<g clip-path="url(#clip58_96_40348)">
<path d="M60 16L68 24" stroke="#EC580F" stroke-width="2.5"/>
<path d="M60 24L68 16" stroke="#EC580F" stroke-width="2.5"/>
</g>
<g clip-path="url(#clip59_96_40348)">
<path d="M52 80L60 88" stroke="#A568CA" stroke-width="2.5"/>
<path d="M52 88L60 80" stroke="#A568CA" stroke-width="2.5"/>
</g>
<g clip-path="url(#clip60_96_40348)">
<path d="M68 80L76 88" stroke="#9B3AA2" stroke-width="2.5"/>
<path d="M68 88L76 80" stroke="#9B3AA2" stroke-width="2.5"/>
</g>
<g clip-path="url(#clip61_96_40348)">
<path d="M52 112L60 120" stroke="#A568CA" stroke-width="2.5"/>
<path d="M52 120L60 112" stroke="#A568CA" stroke-width="2.5"/>
</g>
<g clip-path="url(#clip62_96_40348)">
<path d="M68 112L76 120" stroke="#9B3AA2" stroke-width="2.5"/>
<path d="M68 120L76 112" stroke="#9B3AA2" stroke-width="2.5"/>
</g>
<g clip-path="url(#clip63_96_40348)">
<path d="M52 64L60 72" stroke="#A568CA" stroke-width="2.5"/>
<path d="M52 72L60 64" stroke="#A568CA" stroke-width="2.5"/>
</g>
<g clip-path="url(#clip64_96_40348)">
<path d="M68 64L76 72" stroke="#9B3AA2" stroke-width="2.5"/>
<path d="M68 72L76 64" stroke="#9B3AA2" stroke-width="2.5"/>
</g>
<g clip-path="url(#clip65_96_40348)">
<path d="M52 96L60 104" stroke="#A568CA" stroke-width="2.5"/>
<path d="M52 104L60 96" stroke="#A568CA" stroke-width="2.5"/>
</g>
<g clip-path="url(#clip66_96_40348)">
<path d="M68 96L76 104" stroke="#9B3AA2" stroke-width="2.5"/>
<path d="M68 104L76 96" stroke="#9B3AA2" stroke-width="2.5"/>
</g>
<g clip-path="url(#clip67_96_40348)">
<path d="M52 128L60 136" stroke="#A568CA" stroke-width="2.5"/>
<path d="M52 136L60 128" stroke="#A568CA" stroke-width="2.5"/>
</g>
<g clip-path="url(#clip68_96_40348)">
<path d="M68 128L76 136" stroke="#9B3AA2" stroke-width="2.5"/>
<path d="M68 136L76 128" stroke="#9B3AA2" stroke-width="2.5"/>
</g>
<g clip-path="url(#clip69_96_40348)">
<path d="M60 48L68 56" stroke="#9B3AA2" stroke-width="2.5"/>
<path d="M60 56L68 48" stroke="#9B3AA2" stroke-width="2.5"/>
</g>
<g clip-path="url(#clip70_96_40348)">
<path d="M76 48L84 56" stroke="#D564C6" stroke-width="2.5"/>
<path d="M76 56L84 48" stroke="#D564C6" stroke-width="2.5"/>
</g>
<g clip-path="url(#clip71_96_40348)">
<path d="M68 16L76 24" stroke="#F8C152" stroke-width="2.5"/>
<path d="M68 24L76 16" stroke="#F8C152" stroke-width="2.5"/>
</g>
<g clip-path="url(#clip72_96_40348)">
<path d="M68 8L76 16" stroke="#EF9400" stroke-width="2.5"/>
<path d="M68 16L76 8" stroke="#EF9400" stroke-width="2.5"/>
</g>
<g clip-path="url(#clip73_96_40348)">
<path d="M68 0L76 8" stroke="#EC580F" stroke-width="2.5"/>
<path d="M68 8L76 2.73828e-07" stroke="#EC580F" stroke-width="2.5"/>
</g>
<g clip-path="url(#clip74_96_40348)">
<path d="M84 48L92 56" stroke="#9B3AA2" stroke-width="2.5"/>
<path d="M84 56L92 48" stroke="#9B3AA2" stroke-width="2.5"/>
</g>
<g clip-path="url(#clip75_96_40348)">
<path d="M76 16L84 24" stroke="#EC580F" stroke-width="2.5"/>
<path d="M76 24L84 16" stroke="#EC580F" stroke-width="2.5"/>
</g>
<g clip-path="url(#clip76_96_40348)">
<path d="M76 8L84 16" stroke="#EC580F" stroke-width="2.5"/>
<path d="M76 16L84 8" stroke="#EC580F" stroke-width="2.5"/>
</g>
<g clip-path="url(#clip77_96_40348)">
<path d="M68 32L76 40" stroke="#7C061E" stroke-width="2.5"/>
<path d="M68 40L76 32" stroke="#7C061E" stroke-width="2.5"/>
</g>
<g clip-path="url(#clip78_96_40348)">
<path d="M60 80L68 88" stroke="#9B3AA2" stroke-width="2.5"/>
<path d="M60 88L68 80" stroke="#9B3AA2" stroke-width="2.5"/>
</g>
<g clip-path="url(#clip79_96_40348)">
<path d="M76 80L84 88" stroke="#9B3AA2" stroke-width="2.5"/>
<path d="M76 88L84 80" stroke="#9B3AA2" stroke-width="2.5"/>
</g>
<g clip-path="url(#clip80_96_40348)">
<path d="M84 80L92 88" stroke="#9B3AA2" stroke-width="2.5"/>
<path d="M84 88L92 80" stroke="#9B3AA2" stroke-width="2.5"/>
</g>
<g clip-path="url(#clip81_96_40348)">
<path d="M60 112L68 120" stroke="#9B3AA2" stroke-width="2.5"/>
<path d="M60 120L68 112" stroke="#9B3AA2" stroke-width="2.5"/>
</g>
<g clip-path="url(#clip82_96_40348)">
<path d="M76 112L84 120" stroke="#9B3AA2" stroke-width="2.5"/>
<path d="M76 120L84 112" stroke="#9B3AA2" stroke-width="2.5"/>
</g>
<g clip-path="url(#clip83_96_40348)">
<path d="M84 112L92 120" stroke="#9B3AA2" stroke-width="2.5"/>
<path d="M84 120L92 112" stroke="#9B3AA2" stroke-width="2.5"/>
</g>
<g clip-path="url(#clip84_96_40348)">
<path d="M60 64L68 72" stroke="#9B3AA2" stroke-width="2.5"/>
<path d="M60 72L68 64" stroke="#9B3AA2" stroke-width="2.5"/>
</g>
<g clip-path="url(#clip85_96_40348)">
<path d="M76 64L84 72" stroke="#D564C6" stroke-width="2.5"/>
<path d="M76 72L84 64" stroke="#D564C6" stroke-width="2.5"/>
</g>
<g clip-path="url(#clip86_96_40348)">
<path d="M84 64L92 72" stroke="#9B3AA2" stroke-width="2.5"/>
<path d="M84 72L92 64" stroke="#9B3AA2" stroke-width="2.5"/>
</g>
<g clip-path="url(#clip87_96_40348)">
<path d="M60 96L68 104" stroke="#9B3AA2" stroke-width="2.5"/>
<path d="M60 104L68 96" stroke="#9B3AA2" stroke-width="2.5"/>
</g>
<g clip-path="url(#clip88_96_40348)">
<path d="M76 96L84 104" stroke="#9B3AA2" stroke-width="2.5"/>
<path d="M76 104L84 96" stroke="#9B3AA2" stroke-width="2.5"/>
</g>
<g clip-path="url(#clip89_96_40348)">
<path d="M84 96L92 104" stroke="#9B3AA2" stroke-width="2.5"/>
<path d="M84 104L92 96" stroke="#9B3AA2" stroke-width="2.5"/>
</g>
<g clip-path="url(#clip90_96_40348)">
<path d="M60 128L68 136" stroke="#9B3AA2" stroke-width="2.5"/>
<path d="M60 136L68 128" stroke="#9B3AA2" stroke-width="2.5"/>
</g>
<g clip-path="url(#clip91_96_40348)">
<path d="M76 128L84 136" stroke="#9B3AA2" stroke-width="2.5"/>
<path d="M76 136L84 128" stroke="#9B3AA2" stroke-width="2.5"/>
</g>
<g clip-path="url(#clip92_96_40348)">
<path d="M84 128L92 136" stroke="#9B3AA2" stroke-width="2.5"/>
<path d="M84 136L92 128" stroke="#9B3AA2" stroke-width="2.5"/>
</g>
<g clip-path="url(#clip93_96_40348)">
<path d="M52 56L60 64" stroke="#A568CA" stroke-width="2.5"/>
<path d="M52 64L60 56" stroke="#A568CA" stroke-width="2.5"/>
</g>
<g clip-path="url(#clip94_96_40348)">
<path d="M68 56L76 64" stroke="#9B3AA2" stroke-width="2.5"/>
<path d="M68 64L76 56" stroke="#9B3AA2" stroke-width="2.5"/>
</g>
<g clip-path="url(#clip95_96_40348)">
<path d="M60 24L68 32" stroke="#EC580F" stroke-width="2.5"/>
<path d="M60 32L68 24" stroke="#EC580F" stroke-width="2.5"/>
</g>
<g clip-path="url(#clip96_96_40348)">
<path d="M52 88L60 96" stroke="#A568CA" stroke-width="2.5"/>
<path d="M52 96L60 88" stroke="#A568CA" stroke-width="2.5"/>
</g>
<g clip-path="url(#clip97_96_40348)">
<path d="M68 88L76 96" stroke="#9B3AA2" stroke-width="2.5"/>
<path d="M68 96L76 88" stroke="#9B3AA2" stroke-width="2.5"/>
</g>
<g clip-path="url(#clip98_96_40348)">
<path d="M52 120L60 128" stroke="#A568CA" stroke-width="2.5"/>
<path d="M52 128L60 120" stroke="#A568CA" stroke-width="2.5"/>
</g>
<g clip-path="url(#clip99_96_40348)">
<path d="M68 120L76 128" stroke="#9B3AA2" stroke-width="2.5"/>
<path d="M68 128L76 120" stroke="#9B3AA2" stroke-width="2.5"/>
</g>
<g clip-path="url(#clip100_96_40348)">
<path d="M52 72L60 80" stroke="#A568CA" stroke-width="2.5"/>
<path d="M52 80L60 72" stroke="#A568CA" stroke-width="2.5"/>
</g>
<g clip-path="url(#clip101_96_40348)">
<path d="M68 72L76 80" stroke="#9B3AA2" stroke-width="2.5"/>
<path d="M68 80L76 72" stroke="#9B3AA2" stroke-width="2.5"/>
</g>
<g clip-path="url(#clip102_96_40348)">
<path d="M52 104L60 112" stroke="#A568CA" stroke-width="2.5"/>
<path d="M52 112L60 104" stroke="#A568CA" stroke-width="2.5"/>
</g>
<g clip-path="url(#clip103_96_40348)">
<path d="M68 104L76 112" stroke="#9B3AA2" stroke-width="2.5"/>
<path d="M68 112L76 104" stroke="#9B3AA2" stroke-width="2.5"/>
</g>
<g clip-path="url(#clip104_96_40348)">
<path d="M52 136L60 144" stroke="#A568CA" stroke-width="2.5"/>
<path d="M52 144L60 136" stroke="#A568CA" stroke-width="2.5"/>
</g>
<g clip-path="url(#clip105_96_40348)">
<path d="M68 136L76 144" stroke="#9B3AA2" stroke-width="2.5"/>
<path d="M68 144L76 136" stroke="#9B3AA2" stroke-width="2.5"/>
</g>
<g clip-path="url(#clip106_96_40348)">
<path d="M60 56L68 64" stroke="#9B3AA2" stroke-width="2.5"/>
<path d="M60 64L68 56" stroke="#9B3AA2" stroke-width="2.5"/>
</g>
<g clip-path="url(#clip107_96_40348)">
<path d="M76 56L84 64" stroke="#D564C6" stroke-width="2.5"/>
<path d="M76 64L84 56" stroke="#D564C6" stroke-width="2.5"/>
</g>
<g clip-path="url(#clip108_96_40348)">
<path d="M68 24L76 32" stroke="#EF9400" stroke-width="2.5"/>
<path d="M68 32L76 24" stroke="#EF9400" stroke-width="2.5"/>
</g>
<g clip-path="url(#clip109_96_40348)">
<path d="M84 56L92 64" stroke="#9B3AA2" stroke-width="2.5"/>
<path d="M84 64L92 56" stroke="#9B3AA2" stroke-width="2.5"/>
</g>
<g clip-path="url(#clip110_96_40348)">
<path d="M76 24L84 32" stroke="#EC580F" stroke-width="2.5"/>
<path d="M76 32L84 24" stroke="#EC580F" stroke-width="2.5"/>
</g>
<g clip-path="url(#clip111_96_40348)">
<path d="M68 40L76 48" stroke="#7C061E" stroke-width="2.5"/>
<path d="M68 48L76 40" stroke="#7C061E" stroke-width="2.5"/>
</g>
<g clip-path="url(#clip112_96_40348)">
<path d="M60 88L68 96" stroke="#9B3AA2" stroke-width="2.5"/>
<path d="M60 96L68 88" stroke="#9B3AA2" stroke-width="2.5"/>
</g>
<g clip-path="url(#clip113_96_40348)">
<path d="M76 88L84 96" stroke="#9B3AA2" stroke-width="2.5"/>
<path d="M76 96L84 88" stroke="#9B3AA2" stroke-width="2.5"/>
</g>
<g clip-path="url(#clip114_96_40348)">
<path d="M84 88L92 96" stroke="#9B3AA2" stroke-width="2.5"/>
<path d="M84 96L92 88" stroke="#9B3AA2" stroke-width="2.5"/>
</g>
<g clip-path="url(#clip115_96_40348)">
<path d="M60 120L68 128" stroke="#9B3AA2" stroke-width="2.5"/>
<path d="M60 128L68 120" stroke="#9B3AA2" stroke-width="2.5"/>
</g>
<g clip-path="url(#clip116_96_40348)">
<path d="M76 120L84 128" stroke="#9B3AA2" stroke-width="2.5"/>
<path d="M76 128L84 120" stroke="#9B3AA2" stroke-width="2.5"/>
</g>
<g clip-path="url(#clip117_96_40348)">
<path d="M84 120L92 128" stroke="#9B3AA2" stroke-width="2.5"/>
<path d="M84 128L92 120" stroke="#9B3AA2" stroke-width="2.5"/>
</g>
<g clip-path="url(#clip118_96_40348)">
<path d="M60 72L68 80" stroke="#9B3AA2" stroke-width="2.5"/>
<path d="M60 80L68 72" stroke="#9B3AA2" stroke-width="2.5"/>
</g>
<g clip-path="url(#clip119_96_40348)">
<path d="M76 72L84 80" stroke="#9B3AA2" stroke-width="2.5"/>
<path d="M76 80L84 72" stroke="#9B3AA2" stroke-width="2.5"/>
</g>
<g clip-path="url(#clip120_96_40348)">
<path d="M84 72L92 80" stroke="#9B3AA2" stroke-width="2.5"/>
<path d="M84 80L92 72" stroke="#9B3AA2" stroke-width="2.5"/>
</g>
<g clip-path="url(#clip121_96_40348)">
<path d="M60 104L68 112" stroke="#9B3AA2" stroke-width="2.5"/>
<path d="M60 112L68 104" stroke="#9B3AA2" stroke-width="2.5"/>
</g>
<g clip-path="url(#clip122_96_40348)">
<path d="M76 104L84 112" stroke="#9B3AA2" stroke-width="2.5"/>
<path d="M76 112L84 104" stroke="#9B3AA2" stroke-width="2.5"/>
</g>
<g clip-path="url(#clip123_96_40348)">
<path d="M84 104L92 112" stroke="#9B3AA2" stroke-width="2.5"/>
<path d="M84 112L92 104" stroke="#9B3AA2" stroke-width="2.5"/>
</g>
<g clip-path="url(#clip124_96_40348)">
<path d="M60 136L68 144" stroke="#9B3AA2" stroke-width="2.5"/>
<path d="M60 144L68 136" stroke="#9B3AA2" stroke-width="2.5"/>
</g>
<g clip-path="url(#clip125_96_40348)">
<path d="M76 136L84 144" stroke="#9B3AA2" stroke-width="2.5"/>
<path d="M76 144L84 136" stroke="#9B3AA2" stroke-width="2.5"/>
</g>
<g clip-path="url(#clip126_96_40348)">
<path d="M84 136L92 144" stroke="#9B3AA2" stroke-width="2.5"/>
<path d="M84 144L92 136" stroke="#9B3AA2" stroke-width="2.5"/>
</g>
<defs>
<clipPath id="clip0_96_40348">
<rect width="8" height="8" fill="white" transform="translate(0 72)"/>
</clipPath>
<clipPath id="clip1_96_40348">
<rect width="8" height="8" fill="white" transform="translate(16 72)"/>
</clipPath>
<clipPath id="clip2_96_40348">
<rect width="8" height="8" fill="white" transform="translate(8 40)"/>
</clipPath>
<clipPath id="clip3_96_40348">
<rect width="8" height="8" fill="white" transform="translate(0 104)"/>
</clipPath>
<clipPath id="clip4_96_40348">
<rect width="8" height="8" fill="white" transform="translate(16 104)"/>
</clipPath>
<clipPath id="clip5_96_40348">
<rect width="8" height="8" fill="white" transform="translate(0 136)"/>
</clipPath>
<clipPath id="clip6_96_40348">
<rect width="8" height="8" fill="white" transform="translate(16 136)"/>
</clipPath>
<clipPath id="clip7_96_40348">
<rect width="8" height="8" fill="white" transform="translate(0 88)"/>
</clipPath>
<clipPath id="clip8_96_40348">
<rect width="8" height="8" fill="white" transform="translate(16 88)"/>
</clipPath>
<clipPath id="clip9_96_40348">
<rect width="8" height="8" fill="white" transform="translate(0 120)"/>
</clipPath>
<clipPath id="clip10_96_40348">
<rect width="8" height="8" fill="white" transform="translate(16 120)"/>
</clipPath>
<clipPath id="clip11_96_40348">
<rect width="8" height="8" fill="white" transform="translate(8 72)"/>
</clipPath>
<clipPath id="clip12_96_40348">
<rect width="8" height="8" fill="white" transform="translate(24 72)"/>
</clipPath>
<clipPath id="clip13_96_40348">
<rect width="8" height="8" fill="white" transform="translate(16 40)"/>
</clipPath>
<clipPath id="clip14_96_40348">
<rect width="8" height="8" fill="white" transform="translate(16 32)"/>
</clipPath>
<clipPath id="clip15_96_40348">
<rect width="8" height="8" fill="white" transform="translate(16 24)"/>
</clipPath>
<clipPath id="clip16_96_40348">
<rect width="8" height="8" fill="white" transform="translate(32 72)"/>
</clipPath>
<clipPath id="clip17_96_40348">
<rect width="8" height="8" fill="white" transform="translate(24 40)"/>
</clipPath>
<clipPath id="clip18_96_40348">
<rect width="8" height="8" fill="white" transform="translate(24 32)"/>
</clipPath>
<clipPath id="clip19_96_40348">
<rect width="8" height="8" fill="white" transform="translate(16 56)"/>
</clipPath>
<clipPath id="clip20_96_40348">
<rect width="8" height="8" fill="white" transform="translate(8 104)"/>
</clipPath>
<clipPath id="clip21_96_40348">
<rect width="8" height="8" fill="white" transform="translate(24 104)"/>
</clipPath>
<clipPath id="clip22_96_40348">
<rect width="8" height="8" fill="white" transform="translate(32 104)"/>
</clipPath>
<clipPath id="clip23_96_40348">
<rect width="8" height="8" fill="white" transform="translate(8 136)"/>
</clipPath>
<clipPath id="clip24_96_40348">
<rect width="8" height="8" fill="white" transform="translate(24 136)"/>
</clipPath>
<clipPath id="clip25_96_40348">
<rect width="8" height="8" fill="white" transform="translate(32 136)"/>
</clipPath>
<clipPath id="clip26_96_40348">
<rect width="8" height="8" fill="white" transform="translate(8 88)"/>
</clipPath>
<clipPath id="clip27_96_40348">
<rect width="8" height="8" fill="white" transform="translate(24 88)"/>
</clipPath>
<clipPath id="clip28_96_40348">
<rect width="8" height="8" fill="white" transform="translate(32 88)"/>
</clipPath>
<clipPath id="clip29_96_40348">
<rect width="8" height="8" fill="white" transform="translate(8 120)"/>
</clipPath>
<clipPath id="clip30_96_40348">
<rect width="8" height="8" fill="white" transform="translate(24 120)"/>
</clipPath>
<clipPath id="clip31_96_40348">
<rect width="8" height="8" fill="white" transform="translate(32 120)"/>
</clipPath>
<clipPath id="clip32_96_40348">
<rect width="8" height="8" fill="white" transform="translate(0 80)"/>
</clipPath>
<clipPath id="clip33_96_40348">
<rect width="8" height="8" fill="white" transform="translate(16 80)"/>
</clipPath>
<clipPath id="clip34_96_40348">
<rect width="8" height="8" fill="white" transform="translate(8 48)"/>
</clipPath>
<clipPath id="clip35_96_40348">
<rect width="8" height="8" fill="white" transform="translate(0 112)"/>
</clipPath>
<clipPath id="clip36_96_40348">
<rect width="8" height="8" fill="white" transform="translate(16 112)"/>
</clipPath>
<clipPath id="clip37_96_40348">
<rect width="8" height="8" fill="white" transform="translate(0 96)"/>
</clipPath>
<clipPath id="clip38_96_40348">
<rect width="8" height="8" fill="white" transform="translate(16 96)"/>
</clipPath>
<clipPath id="clip39_96_40348">
<rect width="8" height="8" fill="white" transform="translate(0 128)"/>
</clipPath>
<clipPath id="clip40_96_40348">
<rect width="8" height="8" fill="white" transform="translate(16 128)"/>
</clipPath>
<clipPath id="clip41_96_40348">
<rect width="8" height="8" fill="white" transform="translate(8 80)"/>
</clipPath>
<clipPath id="clip42_96_40348">
<rect width="8" height="8" fill="white" transform="translate(24 80)"/>
</clipPath>
<clipPath id="clip43_96_40348">
<rect width="8" height="8" fill="white" transform="translate(16 48)"/>
</clipPath>
<clipPath id="clip44_96_40348">
<rect width="8" height="8" fill="white" transform="translate(32 80)"/>
</clipPath>
<clipPath id="clip45_96_40348">
<rect width="8" height="8" fill="white" transform="translate(24 48)"/>
</clipPath>
<clipPath id="clip46_96_40348">
<rect width="8" height="8" fill="white" transform="translate(16 64)"/>
</clipPath>
<clipPath id="clip47_96_40348">
<rect width="8" height="8" fill="white" transform="translate(8 112)"/>
</clipPath>
<clipPath id="clip48_96_40348">
<rect width="8" height="8" fill="white" transform="translate(24 112)"/>
</clipPath>
<clipPath id="clip49_96_40348">
<rect width="8" height="8" fill="white" transform="translate(32 112)"/>
</clipPath>
<clipPath id="clip50_96_40348">
<rect width="8" height="8" fill="white" transform="translate(8 96)"/>
</clipPath>
<clipPath id="clip51_96_40348">
<rect width="8" height="8" fill="white" transform="translate(24 96)"/>
</clipPath>
<clipPath id="clip52_96_40348">
<rect width="8" height="8" fill="white" transform="translate(32 96)"/>
</clipPath>
<clipPath id="clip53_96_40348">
<rect width="8" height="8" fill="white" transform="translate(8 128)"/>
</clipPath>
<clipPath id="clip54_96_40348">
<rect width="8" height="8" fill="white" transform="translate(24 128)"/>
</clipPath>
<clipPath id="clip55_96_40348">
<rect width="8" height="8" fill="white" transform="translate(32 128)"/>
</clipPath>
<clipPath id="clip56_96_40348">
<rect width="8" height="8" fill="white" transform="translate(52 48)"/>
</clipPath>
<clipPath id="clip57_96_40348">
<rect width="8" height="8" fill="white" transform="translate(68 48)"/>
</clipPath>
<clipPath id="clip58_96_40348">
<rect width="8" height="8" fill="white" transform="translate(60 16)"/>
</clipPath>
<clipPath id="clip59_96_40348">
<rect width="8" height="8" fill="white" transform="translate(52 80)"/>
</clipPath>
<clipPath id="clip60_96_40348">
<rect width="8" height="8" fill="white" transform="translate(68 80)"/>
</clipPath>
<clipPath id="clip61_96_40348">
<rect width="8" height="8" fill="white" transform="translate(52 112)"/>
</clipPath>
<clipPath id="clip62_96_40348">
<rect width="8" height="8" fill="white" transform="translate(68 112)"/>
</clipPath>
<clipPath id="clip63_96_40348">
<rect width="8" height="8" fill="white" transform="translate(52 64)"/>
</clipPath>
<clipPath id="clip64_96_40348">
<rect width="8" height="8" fill="white" transform="translate(68 64)"/>
</clipPath>
<clipPath id="clip65_96_40348">
<rect width="8" height="8" fill="white" transform="translate(52 96)"/>
</clipPath>
<clipPath id="clip66_96_40348">
<rect width="8" height="8" fill="white" transform="translate(68 96)"/>
</clipPath>
<clipPath id="clip67_96_40348">
<rect width="8" height="8" fill="white" transform="translate(52 128)"/>
</clipPath>
<clipPath id="clip68_96_40348">
<rect width="8" height="8" fill="white" transform="translate(68 128)"/>
</clipPath>
<clipPath id="clip69_96_40348">
<rect width="8" height="8" fill="white" transform="translate(60 48)"/>
</clipPath>
<clipPath id="clip70_96_40348">
<rect width="8" height="8" fill="white" transform="translate(76 48)"/>
</clipPath>
<clipPath id="clip71_96_40348">
<rect width="8" height="8" fill="white" transform="translate(68 16)"/>
</clipPath>
<clipPath id="clip72_96_40348">
<rect width="8" height="8" fill="white" transform="translate(68 8)"/>
</clipPath>
<clipPath id="clip73_96_40348">
<rect width="8" height="8" fill="white" transform="translate(68)"/>
</clipPath>
<clipPath id="clip74_96_40348">
<rect width="8" height="8" fill="white" transform="translate(84 48)"/>
</clipPath>
<clipPath id="clip75_96_40348">
<rect width="8" height="8" fill="white" transform="translate(76 16)"/>
</clipPath>
<clipPath id="clip76_96_40348">
<rect width="8" height="8" fill="white" transform="translate(76 8)"/>
</clipPath>
<clipPath id="clip77_96_40348">
<rect width="8" height="8" fill="white" transform="translate(68 32)"/>
</clipPath>
<clipPath id="clip78_96_40348">
<rect width="8" height="8" fill="white" transform="translate(60 80)"/>
</clipPath>
<clipPath id="clip79_96_40348">
<rect width="8" height="8" fill="white" transform="translate(76 80)"/>
</clipPath>
<clipPath id="clip80_96_40348">
<rect width="8" height="8" fill="white" transform="translate(84 80)"/>
</clipPath>
<clipPath id="clip81_96_40348">
<rect width="8" height="8" fill="white" transform="translate(60 112)"/>
</clipPath>
<clipPath id="clip82_96_40348">
<rect width="8" height="8" fill="white" transform="translate(76 112)"/>
</clipPath>
<clipPath id="clip83_96_40348">
<rect width="8" height="8" fill="white" transform="translate(84 112)"/>
</clipPath>
<clipPath id="clip84_96_40348">
<rect width="8" height="8" fill="white" transform="translate(60 64)"/>
</clipPath>
<clipPath id="clip85_96_40348">
<rect width="8" height="8" fill="white" transform="translate(76 64)"/>
</clipPath>
<clipPath id="clip86_96_40348">
<rect width="8" height="8" fill="white" transform="translate(84 64)"/>
</clipPath>
<clipPath id="clip87_96_40348">
<rect width="8" height="8" fill="white" transform="translate(60 96)"/>
</clipPath>
<clipPath id="clip88_96_40348">
<rect width="8" height="8" fill="white" transform="translate(76 96)"/>
</clipPath>
<clipPath id="clip89_96_40348">
<rect width="8" height="8" fill="white" transform="translate(84 96)"/>
</clipPath>
<clipPath id="clip90_96_40348">
<rect width="8" height="8" fill="white" transform="translate(60 128)"/>
</clipPath>
<clipPath id="clip91_96_40348">
<rect width="8" height="8" fill="white" transform="translate(76 128)"/>
</clipPath>
<clipPath id="clip92_96_40348">
<rect width="8" height="8" fill="white" transform="translate(84 128)"/>
</clipPath>
<clipPath id="clip93_96_40348">
<rect width="8" height="8" fill="white" transform="translate(52 56)"/>
</clipPath>
<clipPath id="clip94_96_40348">
<rect width="8" height="8" fill="white" transform="translate(68 56)"/>
</clipPath>
<clipPath id="clip95_96_40348">
<rect width="8" height="8" fill="white" transform="translate(60 24)"/>
</clipPath>
<clipPath id="clip96_96_40348">
<rect width="8" height="8" fill="white" transform="translate(52 88)"/>
</clipPath>
<clipPath id="clip97_96_40348">
<rect width="8" height="8" fill="white" transform="translate(68 88)"/>
</clipPath>
<clipPath id="clip98_96_40348">
<rect width="8" height="8" fill="white" transform="translate(52 120)"/>
</clipPath>
<clipPath id="clip99_96_40348">
<rect width="8" height="8" fill="white" transform="translate(68 120)"/>
</clipPath>
<clipPath id="clip100_96_40348">
<rect width="8" height="8" fill="white" transform="translate(52 72)"/>
</clipPath>
<clipPath id="clip101_96_40348">
<rect width="8" height="8" fill="white" transform="translate(68 72)"/>
</clipPath>
<clipPath id="clip102_96_40348">
<rect width="8" height="8" fill="white" transform="translate(52 104)"/>
</clipPath>
<clipPath id="clip103_96_40348">
<rect width="8" height="8" fill="white" transform="translate(68 104)"/>
</clipPath>
<clipPath id="clip104_96_40348">
<rect width="8" height="8" fill="white" transform="translate(52 136)"/>
</clipPath>
<clipPath id="clip105_96_40348">
<rect width="8" height="8" fill="white" transform="translate(68 136)"/>
</clipPath>
<clipPath id="clip106_96_40348">
<rect width="8" height="8" fill="white" transform="translate(60 56)"/>
</clipPath>
<clipPath id="clip107_96_40348">
<rect width="8" height="8" fill="white" transform="translate(76 56)"/>
</clipPath>
<clipPath id="clip108_96_40348">
<rect width="8" height="8" fill="white" transform="translate(68 24)"/>
</clipPath>
<clipPath id="clip109_96_40348">
<rect width="8" height="8" fill="white" transform="translate(84 56)"/>
</clipPath>
<clipPath id="clip110_96_40348">
<rect width="8" height="8" fill="white" transform="translate(76 24)"/>
</clipPath>
<clipPath id="clip111_96_40348">
<rect width="8" height="8" fill="white" transform="translate(68 40)"/>
</clipPath>
<clipPath id="clip112_96_40348">
<rect width="8" height="8" fill="white" transform="translate(60 88)"/>
</clipPath>
<clipPath id="clip113_96_40348">
<rect width="8" height="8" fill="white" transform="translate(76 88)"/>
</clipPath>
<clipPath id="clip114_96_40348">
<rect width="8" height="8" fill="white" transform="translate(84 88)"/>
</clipPath>
<clipPath id="clip115_96_40348">
<rect width="8" height="8" fill="white" transform="translate(60 120)"/>
</clipPath>
<clipPath id="clip116_96_40348">
<rect width="8" height="8" fill="white" transform="translate(76 120)"/>
</clipPath>
<clipPath id="clip117_96_40348">
<rect width="8" height="8" fill="white" transform="translate(84 120)"/>
</clipPath>
<clipPath id="clip118_96_40348">
<rect width="8" height="8" fill="white" transform="translate(60 72)"/>
</clipPath>
<clipPath id="clip119_96_40348">
<rect width="8" height="8" fill="white" transform="translate(76 72)"/>
</clipPath>
<clipPath id="clip120_96_40348">
<rect width="8" height="8" fill="white" transform="translate(84 72)"/>
</clipPath>
<clipPath id="clip121_96_40348">
<rect width="8" height="8" fill="white" transform="translate(60 104)"/>
</clipPath>
<clipPath id="clip122_96_40348">
<rect width="8" height="8" fill="white" transform="translate(76 104)"/>
</clipPath>
<clipPath id="clip123_96_40348">
<rect width="8" height="8" fill="white" transform="translate(84 104)"/>
</clipPath>
<clipPath id="clip124_96_40348">
<rect width="8" height="8" fill="white" transform="translate(60 136)"/>
</clipPath>
<clipPath id="clip125_96_40348">
<rect width="8" height="8" fill="white" transform="translate(76 136)"/>
</clipPath>
<clipPath id="clip126_96_40348">
<rect width="8" height="8" fill="white" transform="translate(84 136)"/>
</clipPath>
</defs>
</svg>
