<svg width="40" height="144" viewBox="0 0 40 144" fill="none" xmlns="http://www.w3.org/2000/svg">
<g clip-path="url(#clip0_96_13560)">
<path d="M0 48L8 56" stroke="#A568CA" stroke-width="2.5"/>
<path d="M0 56L8 48" stroke="#A568CA" stroke-width="2.5"/>
</g>
<g clip-path="url(#clip1_96_13560)">
<path d="M16 48L24 56" stroke="#D564C6" stroke-width="2.5"/>
<path d="M16 56L24 48" stroke="#D564C6" stroke-width="2.5"/>
</g>
<g clip-path="url(#clip2_96_13560)">
<path d="M8 16L16 24" stroke="#EC580F" stroke-width="2.5"/>
<path d="M8 24L16 16" stroke="#EC580F" stroke-width="2.5"/>
</g>
<g clip-path="url(#clip3_96_13560)">
<path d="M0 80L8 88" stroke="#A568CA" stroke-width="2.5"/>
<path d="M0 88L8 80" stroke="#A568CA" stroke-width="2.5"/>
</g>
<g clip-path="url(#clip4_96_13560)">
<path d="M16 80L24 88" stroke="#9B3AA2" stroke-width="2.5"/>
<path d="M16 88L24 80" stroke="#9B3AA2" stroke-width="2.5"/>
</g>
<g clip-path="url(#clip5_96_13560)">
<path d="M0 112L8 120" stroke="#A568CA" stroke-width="2.5"/>
<path d="M0 120L8 112" stroke="#A568CA" stroke-width="2.5"/>
</g>
<g clip-path="url(#clip6_96_13560)">
<path d="M16 112L24 120" stroke="#9B3AA2" stroke-width="2.5"/>
<path d="M16 120L24 112" stroke="#9B3AA2" stroke-width="2.5"/>
</g>
<g clip-path="url(#clip7_96_13560)">
<path d="M0 64L8 72" stroke="#A568CA" stroke-width="2.5"/>
<path d="M0 72L8 64" stroke="#A568CA" stroke-width="2.5"/>
</g>
<g clip-path="url(#clip8_96_13560)">
<path d="M16 64L24 72" stroke="#9B3AA2" stroke-width="2.5"/>
<path d="M16 72L24 64" stroke="#9B3AA2" stroke-width="2.5"/>
</g>
<g clip-path="url(#clip9_96_13560)">
<path d="M0 96L8 104" stroke="#A568CA" stroke-width="2.5"/>
<path d="M0 104L8 96" stroke="#A568CA" stroke-width="2.5"/>
</g>
<g clip-path="url(#clip10_96_13560)">
<path d="M16 96L24 104" stroke="#9B3AA2" stroke-width="2.5"/>
<path d="M16 104L24 96" stroke="#9B3AA2" stroke-width="2.5"/>
</g>
<g clip-path="url(#clip11_96_13560)">
<path d="M0 128L8 136" stroke="#A568CA" stroke-width="2.5"/>
<path d="M0 136L8 128" stroke="#A568CA" stroke-width="2.5"/>
</g>
<g clip-path="url(#clip12_96_13560)">
<path d="M16 128L24 136" stroke="#9B3AA2" stroke-width="2.5"/>
<path d="M16 136L24 128" stroke="#9B3AA2" stroke-width="2.5"/>
</g>
<g clip-path="url(#clip13_96_13560)">
<path d="M8 48L16 56" stroke="#9B3AA2" stroke-width="2.5"/>
<path d="M8 56L16 48" stroke="#9B3AA2" stroke-width="2.5"/>
</g>
<g clip-path="url(#clip14_96_13560)">
<path d="M24 48L32 56" stroke="#D564C6" stroke-width="2.5"/>
<path d="M24 56L32 48" stroke="#D564C6" stroke-width="2.5"/>
</g>
<g clip-path="url(#clip15_96_13560)">
<path d="M16 16L24 24" stroke="#F8C152" stroke-width="2.5"/>
<path d="M16 24L24 16" stroke="#F8C152" stroke-width="2.5"/>
</g>
<g clip-path="url(#clip16_96_13560)">
<path d="M16 8L24 16" stroke="#EF9400" stroke-width="2.5"/>
<path d="M16 16L24 8" stroke="#EF9400" stroke-width="2.5"/>
</g>
<g clip-path="url(#clip17_96_13560)">
<path d="M16 0L24 8" stroke="#EC580F" stroke-width="2.5"/>
<path d="M16 8L24 2.73828e-07" stroke="#EC580F" stroke-width="2.5"/>
</g>
<g clip-path="url(#clip18_96_13560)">
<path d="M32 48L40 56" stroke="#D564C6" stroke-width="2.5"/>
<path d="M32 56L40 48" stroke="#D564C6" stroke-width="2.5"/>
</g>
<g clip-path="url(#clip19_96_13560)">
<path d="M24 16L32 24" stroke="#EC580F" stroke-width="2.5"/>
<path d="M24 24L32 16" stroke="#EC580F" stroke-width="2.5"/>
</g>
<g clip-path="url(#clip20_96_13560)">
<path d="M24 8L32 16" stroke="#EC580F" stroke-width="2.5"/>
<path d="M24 16L32 8" stroke="#EC580F" stroke-width="2.5"/>
</g>
<g clip-path="url(#clip21_96_13560)">
<path d="M16 32L24 40" stroke="#7C061E" stroke-width="2.5"/>
<path d="M16 40L24 32" stroke="#7C061E" stroke-width="2.5"/>
</g>
<g clip-path="url(#clip22_96_13560)">
<path d="M8 80L16 88" stroke="#9B3AA2" stroke-width="2.5"/>
<path d="M8 88L16 80" stroke="#9B3AA2" stroke-width="2.5"/>
</g>
<g clip-path="url(#clip23_96_13560)">
<path d="M24 80L32 88" stroke="#D564C6" stroke-width="2.5"/>
<path d="M24 88L32 80" stroke="#D564C6" stroke-width="2.5"/>
</g>
<g clip-path="url(#clip24_96_13560)">
<path d="M32 80L40 88" stroke="#9B3AA2" stroke-width="2.5"/>
<path d="M32 88L40 80" stroke="#9B3AA2" stroke-width="2.5"/>
</g>
<g clip-path="url(#clip25_96_13560)">
<path d="M8 112L16 120" stroke="#9B3AA2" stroke-width="2.5"/>
<path d="M8 120L16 112" stroke="#9B3AA2" stroke-width="2.5"/>
</g>
<g clip-path="url(#clip26_96_13560)">
<path d="M24 112L32 120" stroke="#9B3AA2" stroke-width="2.5"/>
<path d="M24 120L32 112" stroke="#9B3AA2" stroke-width="2.5"/>
</g>
<g clip-path="url(#clip27_96_13560)">
<path d="M32 112L40 120" stroke="#9B3AA2" stroke-width="2.5"/>
<path d="M32 120L40 112" stroke="#9B3AA2" stroke-width="2.5"/>
</g>
<g clip-path="url(#clip28_96_13560)">
<path d="M8 64L16 72" stroke="#9B3AA2" stroke-width="2.5"/>
<path d="M8 72L16 64" stroke="#9B3AA2" stroke-width="2.5"/>
</g>
<g clip-path="url(#clip29_96_13560)">
<path d="M24 64L32 72" stroke="#D564C6" stroke-width="2.5"/>
<path d="M24 72L32 64" stroke="#D564C6" stroke-width="2.5"/>
</g>
<g clip-path="url(#clip30_96_13560)">
<path d="M32 64L40 72" stroke="#9B3AA2" stroke-width="2.5"/>
<path d="M32 72L40 64" stroke="#9B3AA2" stroke-width="2.5"/>
</g>
<g clip-path="url(#clip31_96_13560)">
<path d="M8 96L16 104" stroke="#9B3AA2" stroke-width="2.5"/>
<path d="M8 104L16 96" stroke="#9B3AA2" stroke-width="2.5"/>
</g>
<g clip-path="url(#clip32_96_13560)">
<path d="M24 96L32 104" stroke="#9B3AA2" stroke-width="2.5"/>
<path d="M24 104L32 96" stroke="#9B3AA2" stroke-width="2.5"/>
</g>
<g clip-path="url(#clip33_96_13560)">
<path d="M32 96L40 104" stroke="#9B3AA2" stroke-width="2.5"/>
<path d="M32 104L40 96" stroke="#9B3AA2" stroke-width="2.5"/>
</g>
<g clip-path="url(#clip34_96_13560)">
<path d="M8 128L16 136" stroke="#9B3AA2" stroke-width="2.5"/>
<path d="M8 136L16 128" stroke="#9B3AA2" stroke-width="2.5"/>
</g>
<g clip-path="url(#clip35_96_13560)">
<path d="M24 128L32 136" stroke="#9B3AA2" stroke-width="2.5"/>
<path d="M24 136L32 128" stroke="#9B3AA2" stroke-width="2.5"/>
</g>
<g clip-path="url(#clip36_96_13560)">
<path d="M32 128L40 136" stroke="#9B3AA2" stroke-width="2.5"/>
<path d="M32 136L40 128" stroke="#9B3AA2" stroke-width="2.5"/>
</g>
<g clip-path="url(#clip37_96_13560)">
<path d="M0 56L8 64" stroke="#A568CA" stroke-width="2.5"/>
<path d="M0 64L8 56" stroke="#A568CA" stroke-width="2.5"/>
</g>
<g clip-path="url(#clip38_96_13560)">
<path d="M16 56L24 64" stroke="#9B3AA2" stroke-width="2.5"/>
<path d="M16 64L24 56" stroke="#9B3AA2" stroke-width="2.5"/>
</g>
<g clip-path="url(#clip39_96_13560)">
<path d="M8 24L16 32" stroke="#EC580F" stroke-width="2.5"/>
<path d="M8 32L16 24" stroke="#EC580F" stroke-width="2.5"/>
</g>
<g clip-path="url(#clip40_96_13560)">
<path d="M0 88L8 96" stroke="#A568CA" stroke-width="2.5"/>
<path d="M0 96L8 88" stroke="#A568CA" stroke-width="2.5"/>
</g>
<g clip-path="url(#clip41_96_13560)">
<path d="M16 88L24 96" stroke="#9B3AA2" stroke-width="2.5"/>
<path d="M16 96L24 88" stroke="#9B3AA2" stroke-width="2.5"/>
</g>
<g clip-path="url(#clip42_96_13560)">
<path d="M0 120L8 128" stroke="#A568CA" stroke-width="2.5"/>
<path d="M0 128L8 120" stroke="#A568CA" stroke-width="2.5"/>
</g>
<g clip-path="url(#clip43_96_13560)">
<path d="M16 120L24 128" stroke="#9B3AA2" stroke-width="2.5"/>
<path d="M16 128L24 120" stroke="#9B3AA2" stroke-width="2.5"/>
</g>
<g clip-path="url(#clip44_96_13560)">
<path d="M0 72L8 80" stroke="#A568CA" stroke-width="2.5"/>
<path d="M0 80L8 72" stroke="#A568CA" stroke-width="2.5"/>
</g>
<g clip-path="url(#clip45_96_13560)">
<path d="M16 72L24 80" stroke="#9B3AA2" stroke-width="2.5"/>
<path d="M16 80L24 72" stroke="#9B3AA2" stroke-width="2.5"/>
</g>
<g clip-path="url(#clip46_96_13560)">
<path d="M0 104L8 112" stroke="#A568CA" stroke-width="2.5"/>
<path d="M0 112L8 104" stroke="#A568CA" stroke-width="2.5"/>
</g>
<g clip-path="url(#clip47_96_13560)">
<path d="M16 104L24 112" stroke="#9B3AA2" stroke-width="2.5"/>
<path d="M16 112L24 104" stroke="#9B3AA2" stroke-width="2.5"/>
</g>
<g clip-path="url(#clip48_96_13560)">
<path d="M0 136L8 144" stroke="#A568CA" stroke-width="2.5"/>
<path d="M0 144L8 136" stroke="#A568CA" stroke-width="2.5"/>
</g>
<g clip-path="url(#clip49_96_13560)">
<path d="M16 136L24 144" stroke="#9B3AA2" stroke-width="2.5"/>
<path d="M16 144L24 136" stroke="#9B3AA2" stroke-width="2.5"/>
</g>
<g clip-path="url(#clip50_96_13560)">
<path d="M8 56L16 64" stroke="#9B3AA2" stroke-width="2.5"/>
<path d="M8 64L16 56" stroke="#9B3AA2" stroke-width="2.5"/>
</g>
<g clip-path="url(#clip51_96_13560)">
<path d="M24 56L32 64" stroke="#D564C6" stroke-width="2.5"/>
<path d="M24 64L32 56" stroke="#D564C6" stroke-width="2.5"/>
</g>
<g clip-path="url(#clip52_96_13560)">
<path d="M16 24L24 32" stroke="#EF9400" stroke-width="2.5"/>
<path d="M16 32L24 24" stroke="#EF9400" stroke-width="2.5"/>
</g>
<g clip-path="url(#clip53_96_13560)">
<path d="M32 56L40 64" stroke="#9B3AA2" stroke-width="2.5"/>
<path d="M32 64L40 56" stroke="#9B3AA2" stroke-width="2.5"/>
</g>
<g clip-path="url(#clip54_96_13560)">
<path d="M24 24L32 32" stroke="#EC580F" stroke-width="2.5"/>
<path d="M24 32L32 24" stroke="#EC580F" stroke-width="2.5"/>
</g>
<g clip-path="url(#clip55_96_13560)">
<path d="M16 40L24 48" stroke="#7C061E" stroke-width="2.5"/>
<path d="M16 48L24 40" stroke="#7C061E" stroke-width="2.5"/>
</g>
<g clip-path="url(#clip56_96_13560)">
<path d="M8 88L16 96" stroke="#9B3AA2" stroke-width="2.5"/>
<path d="M8 96L16 88" stroke="#9B3AA2" stroke-width="2.5"/>
</g>
<g clip-path="url(#clip57_96_13560)">
<path d="M24 88L32 96" stroke="#9B3AA2" stroke-width="2.5"/>
<path d="M24 96L32 88" stroke="#9B3AA2" stroke-width="2.5"/>
</g>
<g clip-path="url(#clip58_96_13560)">
<path d="M32 88L40 96" stroke="#9B3AA2" stroke-width="2.5"/>
<path d="M32 96L40 88" stroke="#9B3AA2" stroke-width="2.5"/>
</g>
<g clip-path="url(#clip59_96_13560)">
<path d="M8 120L16 128" stroke="#9B3AA2" stroke-width="2.5"/>
<path d="M8 128L16 120" stroke="#9B3AA2" stroke-width="2.5"/>
</g>
<g clip-path="url(#clip60_96_13560)">
<path d="M24 120L32 128" stroke="#9B3AA2" stroke-width="2.5"/>
<path d="M24 128L32 120" stroke="#9B3AA2" stroke-width="2.5"/>
</g>
<g clip-path="url(#clip61_96_13560)">
<path d="M32 120L40 128" stroke="#9B3AA2" stroke-width="2.5"/>
<path d="M32 128L40 120" stroke="#9B3AA2" stroke-width="2.5"/>
</g>
<g clip-path="url(#clip62_96_13560)">
<path d="M8 72L16 80" stroke="#9B3AA2" stroke-width="2.5"/>
<path d="M8 80L16 72" stroke="#9B3AA2" stroke-width="2.5"/>
</g>
<g clip-path="url(#clip63_96_13560)">
<path d="M24 72L32 80" stroke="#9B3AA2" stroke-width="2.5"/>
<path d="M24 80L32 72" stroke="#9B3AA2" stroke-width="2.5"/>
</g>
<g clip-path="url(#clip64_96_13560)">
<path d="M32 72L40 80" stroke="#9B3AA2" stroke-width="2.5"/>
<path d="M32 80L40 72" stroke="#9B3AA2" stroke-width="2.5"/>
</g>
<g clip-path="url(#clip65_96_13560)">
<path d="M8 104L16 112" stroke="#9B3AA2" stroke-width="2.5"/>
<path d="M8 112L16 104" stroke="#9B3AA2" stroke-width="2.5"/>
</g>
<g clip-path="url(#clip66_96_13560)">
<path d="M24 104L32 112" stroke="#9B3AA2" stroke-width="2.5"/>
<path d="M24 112L32 104" stroke="#9B3AA2" stroke-width="2.5"/>
</g>
<g clip-path="url(#clip67_96_13560)">
<path d="M32 104L40 112" stroke="#9B3AA2" stroke-width="2.5"/>
<path d="M32 112L40 104" stroke="#9B3AA2" stroke-width="2.5"/>
</g>
<g clip-path="url(#clip68_96_13560)">
<path d="M8 136L16 144" stroke="#9B3AA2" stroke-width="2.5"/>
<path d="M8 144L16 136" stroke="#9B3AA2" stroke-width="2.5"/>
</g>
<g clip-path="url(#clip69_96_13560)">
<path d="M24 136L32 144" stroke="#9B3AA2" stroke-width="2.5"/>
<path d="M24 144L32 136" stroke="#9B3AA2" stroke-width="2.5"/>
</g>
<g clip-path="url(#clip70_96_13560)">
<path d="M32 136L40 144" stroke="#9B3AA2" stroke-width="2.5"/>
<path d="M32 144L40 136" stroke="#9B3AA2" stroke-width="2.5"/>
</g>
<defs>
<clipPath id="clip0_96_13560">
<rect width="8" height="8" fill="white" transform="translate(0 48)"/>
</clipPath>
<clipPath id="clip1_96_13560">
<rect width="8" height="8" fill="white" transform="translate(16 48)"/>
</clipPath>
<clipPath id="clip2_96_13560">
<rect width="8" height="8" fill="white" transform="translate(8 16)"/>
</clipPath>
<clipPath id="clip3_96_13560">
<rect width="8" height="8" fill="white" transform="translate(0 80)"/>
</clipPath>
<clipPath id="clip4_96_13560">
<rect width="8" height="8" fill="white" transform="translate(16 80)"/>
</clipPath>
<clipPath id="clip5_96_13560">
<rect width="8" height="8" fill="white" transform="translate(0 112)"/>
</clipPath>
<clipPath id="clip6_96_13560">
<rect width="8" height="8" fill="white" transform="translate(16 112)"/>
</clipPath>
<clipPath id="clip7_96_13560">
<rect width="8" height="8" fill="white" transform="translate(0 64)"/>
</clipPath>
<clipPath id="clip8_96_13560">
<rect width="8" height="8" fill="white" transform="translate(16 64)"/>
</clipPath>
<clipPath id="clip9_96_13560">
<rect width="8" height="8" fill="white" transform="translate(0 96)"/>
</clipPath>
<clipPath id="clip10_96_13560">
<rect width="8" height="8" fill="white" transform="translate(16 96)"/>
</clipPath>
<clipPath id="clip11_96_13560">
<rect width="8" height="8" fill="white" transform="translate(0 128)"/>
</clipPath>
<clipPath id="clip12_96_13560">
<rect width="8" height="8" fill="white" transform="translate(16 128)"/>
</clipPath>
<clipPath id="clip13_96_13560">
<rect width="8" height="8" fill="white" transform="translate(8 48)"/>
</clipPath>
<clipPath id="clip14_96_13560">
<rect width="8" height="8" fill="white" transform="translate(24 48)"/>
</clipPath>
<clipPath id="clip15_96_13560">
<rect width="8" height="8" fill="white" transform="translate(16 16)"/>
</clipPath>
<clipPath id="clip16_96_13560">
<rect width="8" height="8" fill="white" transform="translate(16 8)"/>
</clipPath>
<clipPath id="clip17_96_13560">
<rect width="8" height="8" fill="white" transform="translate(16)"/>
</clipPath>
<clipPath id="clip18_96_13560">
<rect width="8" height="8" fill="white" transform="translate(32 48)"/>
</clipPath>
<clipPath id="clip19_96_13560">
<rect width="8" height="8" fill="white" transform="translate(24 16)"/>
</clipPath>
<clipPath id="clip20_96_13560">
<rect width="8" height="8" fill="white" transform="translate(24 8)"/>
</clipPath>
<clipPath id="clip21_96_13560">
<rect width="8" height="8" fill="white" transform="translate(16 32)"/>
</clipPath>
<clipPath id="clip22_96_13560">
<rect width="8" height="8" fill="white" transform="translate(8 80)"/>
</clipPath>
<clipPath id="clip23_96_13560">
<rect width="8" height="8" fill="white" transform="translate(24 80)"/>
</clipPath>
<clipPath id="clip24_96_13560">
<rect width="8" height="8" fill="white" transform="translate(32 80)"/>
</clipPath>
<clipPath id="clip25_96_13560">
<rect width="8" height="8" fill="white" transform="translate(8 112)"/>
</clipPath>
<clipPath id="clip26_96_13560">
<rect width="8" height="8" fill="white" transform="translate(24 112)"/>
</clipPath>
<clipPath id="clip27_96_13560">
<rect width="8" height="8" fill="white" transform="translate(32 112)"/>
</clipPath>
<clipPath id="clip28_96_13560">
<rect width="8" height="8" fill="white" transform="translate(8 64)"/>
</clipPath>
<clipPath id="clip29_96_13560">
<rect width="8" height="8" fill="white" transform="translate(24 64)"/>
</clipPath>
<clipPath id="clip30_96_13560">
<rect width="8" height="8" fill="white" transform="translate(32 64)"/>
</clipPath>
<clipPath id="clip31_96_13560">
<rect width="8" height="8" fill="white" transform="translate(8 96)"/>
</clipPath>
<clipPath id="clip32_96_13560">
<rect width="8" height="8" fill="white" transform="translate(24 96)"/>
</clipPath>
<clipPath id="clip33_96_13560">
<rect width="8" height="8" fill="white" transform="translate(32 96)"/>
</clipPath>
<clipPath id="clip34_96_13560">
<rect width="8" height="8" fill="white" transform="translate(8 128)"/>
</clipPath>
<clipPath id="clip35_96_13560">
<rect width="8" height="8" fill="white" transform="translate(24 128)"/>
</clipPath>
<clipPath id="clip36_96_13560">
<rect width="8" height="8" fill="white" transform="translate(32 128)"/>
</clipPath>
<clipPath id="clip37_96_13560">
<rect width="8" height="8" fill="white" transform="translate(0 56)"/>
</clipPath>
<clipPath id="clip38_96_13560">
<rect width="8" height="8" fill="white" transform="translate(16 56)"/>
</clipPath>
<clipPath id="clip39_96_13560">
<rect width="8" height="8" fill="white" transform="translate(8 24)"/>
</clipPath>
<clipPath id="clip40_96_13560">
<rect width="8" height="8" fill="white" transform="translate(0 88)"/>
</clipPath>
<clipPath id="clip41_96_13560">
<rect width="8" height="8" fill="white" transform="translate(16 88)"/>
</clipPath>
<clipPath id="clip42_96_13560">
<rect width="8" height="8" fill="white" transform="translate(0 120)"/>
</clipPath>
<clipPath id="clip43_96_13560">
<rect width="8" height="8" fill="white" transform="translate(16 120)"/>
</clipPath>
<clipPath id="clip44_96_13560">
<rect width="8" height="8" fill="white" transform="translate(0 72)"/>
</clipPath>
<clipPath id="clip45_96_13560">
<rect width="8" height="8" fill="white" transform="translate(16 72)"/>
</clipPath>
<clipPath id="clip46_96_13560">
<rect width="8" height="8" fill="white" transform="translate(0 104)"/>
</clipPath>
<clipPath id="clip47_96_13560">
<rect width="8" height="8" fill="white" transform="translate(16 104)"/>
</clipPath>
<clipPath id="clip48_96_13560">
<rect width="8" height="8" fill="white" transform="translate(0 136)"/>
</clipPath>
<clipPath id="clip49_96_13560">
<rect width="8" height="8" fill="white" transform="translate(16 136)"/>
</clipPath>
<clipPath id="clip50_96_13560">
<rect width="8" height="8" fill="white" transform="translate(8 56)"/>
</clipPath>
<clipPath id="clip51_96_13560">
<rect width="8" height="8" fill="white" transform="translate(24 56)"/>
</clipPath>
<clipPath id="clip52_96_13560">
<rect width="8" height="8" fill="white" transform="translate(16 24)"/>
</clipPath>
<clipPath id="clip53_96_13560">
<rect width="8" height="8" fill="white" transform="translate(32 56)"/>
</clipPath>
<clipPath id="clip54_96_13560">
<rect width="8" height="8" fill="white" transform="translate(24 24)"/>
</clipPath>
<clipPath id="clip55_96_13560">
<rect width="8" height="8" fill="white" transform="translate(16 40)"/>
</clipPath>
<clipPath id="clip56_96_13560">
<rect width="8" height="8" fill="white" transform="translate(8 88)"/>
</clipPath>
<clipPath id="clip57_96_13560">
<rect width="8" height="8" fill="white" transform="translate(24 88)"/>
</clipPath>
<clipPath id="clip58_96_13560">
<rect width="8" height="8" fill="white" transform="translate(32 88)"/>
</clipPath>
<clipPath id="clip59_96_13560">
<rect width="8" height="8" fill="white" transform="translate(8 120)"/>
</clipPath>
<clipPath id="clip60_96_13560">
<rect width="8" height="8" fill="white" transform="translate(24 120)"/>
</clipPath>
<clipPath id="clip61_96_13560">
<rect width="8" height="8" fill="white" transform="translate(32 120)"/>
</clipPath>
<clipPath id="clip62_96_13560">
<rect width="8" height="8" fill="white" transform="translate(8 72)"/>
</clipPath>
<clipPath id="clip63_96_13560">
<rect width="8" height="8" fill="white" transform="translate(24 72)"/>
</clipPath>
<clipPath id="clip64_96_13560">
<rect width="8" height="8" fill="white" transform="translate(32 72)"/>
</clipPath>
<clipPath id="clip65_96_13560">
<rect width="8" height="8" fill="white" transform="translate(8 104)"/>
</clipPath>
<clipPath id="clip66_96_13560">
<rect width="8" height="8" fill="white" transform="translate(24 104)"/>
</clipPath>
<clipPath id="clip67_96_13560">
<rect width="8" height="8" fill="white" transform="translate(32 104)"/>
</clipPath>
<clipPath id="clip68_96_13560">
<rect width="8" height="8" fill="white" transform="translate(8 136)"/>
</clipPath>
<clipPath id="clip69_96_13560">
<rect width="8" height="8" fill="white" transform="translate(24 136)"/>
</clipPath>
<clipPath id="clip70_96_13560">
<rect width="8" height="8" fill="white" transform="translate(32 136)"/>
</clipPath>
</defs>
</svg>
