<svg width="120" height="112" viewBox="0 0 120 112" fill="none" xmlns="http://www.w3.org/2000/svg">
<g clip-path="url(#clip0_96_10720)">
<path d="M0 24L8 32" stroke="#FF0000" stroke-width="2.5"/>
<path d="M0 32L8 24" stroke="#FF0000" stroke-width="2.5"/>
</g>
<g clip-path="url(#clip1_96_10720)">
<path d="M0 32L8 40" stroke="#FF0000" stroke-width="2.5"/>
<path d="M0 40L8 32" stroke="#FF0000" stroke-width="2.5"/>
</g>
<g clip-path="url(#clip2_96_10720)">
<path d="M0 40L8 48" stroke="#FF0000" stroke-width="2.5"/>
<path d="M0 48L8 40" stroke="#FF0000" stroke-width="2.5"/>
</g>
<g clip-path="url(#clip3_96_10720)">
<path d="M0 48L8 56" stroke="#FF0000" stroke-width="2.5"/>
<path d="M0 56L8 48" stroke="#FF0000" stroke-width="2.5"/>
</g>
<g clip-path="url(#clip4_96_10720)">
<path d="M24 72L32 80" stroke="#FF0000" stroke-width="2.5"/>
<path d="M24 80L32 72" stroke="#FF0000" stroke-width="2.5"/>
</g>
<g clip-path="url(#clip5_96_10720)">
<path d="M8 56L16 64" stroke="#FF0000" stroke-width="2.5"/>
<path d="M8 64L16 56" stroke="#FF0000" stroke-width="2.5"/>
</g>
<g clip-path="url(#clip6_96_10720)">
<path d="M32 80L40 88" stroke="#FF0000" stroke-width="2.5"/>
<path d="M32 88L40 80" stroke="#FF0000" stroke-width="2.5"/>
</g>
<g clip-path="url(#clip7_96_10720)">
<path d="M16 64L24 72" stroke="#FF0000" stroke-width="2.5"/>
<path d="M16 72L24 64" stroke="#FF0000" stroke-width="2.5"/>
</g>
<g clip-path="url(#clip8_96_10720)">
<path d="M40 88L48 96" stroke="#FF0000" stroke-width="2.5"/>
<path d="M40 96L48 88" stroke="#FF0000" stroke-width="2.5"/>
</g>
<g clip-path="url(#clip9_96_10720)">
<path d="M8 16L16 24" stroke="#FF0000" stroke-width="2.5"/>
<path d="M8 24L16 16" stroke="#FF0000" stroke-width="2.5"/>
</g>
<g clip-path="url(#clip10_96_10720)">
<path d="M16 8L24 16" stroke="#FF0000" stroke-width="2.5"/>
<path d="M16 16L24 8" stroke="#FF0000" stroke-width="2.5"/>
</g>
<g clip-path="url(#clip11_96_10720)">
<path d="M24 0L32 8" stroke="#FF0000" stroke-width="2.5"/>
<path d="M24 8L32 2.73828e-07" stroke="#FF0000" stroke-width="2.5"/>
</g>
<g clip-path="url(#clip12_96_10720)">
<path d="M32 0L40 8" stroke="#FF0000" stroke-width="2.5"/>
<path d="M32 8L40 2.73828e-07" stroke="#FF0000" stroke-width="2.5"/>
</g>
<g clip-path="url(#clip13_96_10720)">
<path d="M40 0L48 8" stroke="#FF0000" stroke-width="2.5"/>
<path d="M40 8L48 2.73828e-07" stroke="#FF0000" stroke-width="2.5"/>
</g>
<g clip-path="url(#clip14_96_10720)">
<path d="M48 8L56 16" stroke="#FF0000" stroke-width="2.5"/>
<path d="M48 16L56 8" stroke="#FF0000" stroke-width="2.5"/>
</g>
<g clip-path="url(#clip15_96_10720)">
<path d="M56 16L64 24" stroke="#FF0000" stroke-width="2.5"/>
<path d="M56 24L64 16" stroke="#FF0000" stroke-width="2.5"/>
</g>
<g clip-path="url(#clip16_96_10720)">
<path d="M64 8L72 16" stroke="#FF0000" stroke-width="2.5"/>
<path d="M64 16L72 8" stroke="#FF0000" stroke-width="2.5"/>
</g>
<g clip-path="url(#clip17_96_10720)">
<path d="M72 0L80 8" stroke="#FF0000" stroke-width="2.5"/>
<path d="M72 8L80 2.73828e-07" stroke="#FF0000" stroke-width="2.5"/>
</g>
<g clip-path="url(#clip18_96_10720)">
<path d="M80 0L88 8" stroke="#FF0000" stroke-width="2.5"/>
<path d="M80 8L88 2.73828e-07" stroke="#FF0000" stroke-width="2.5"/>
</g>
<g clip-path="url(#clip19_96_10720)">
<path d="M88 0L96 8" stroke="#FF0000" stroke-width="2.5"/>
<path d="M88 8L96 2.73828e-07" stroke="#FF0000" stroke-width="2.5"/>
</g>
<g clip-path="url(#clip20_96_10720)">
<path d="M96 8L104 16" stroke="#FF0000" stroke-width="2.5"/>
<path d="M96 16L104 8" stroke="#FF0000" stroke-width="2.5"/>
</g>
<g clip-path="url(#clip21_96_10720)">
<path d="M104 16L112 24" stroke="#FF0000" stroke-width="2.5"/>
<path d="M104 24L112 16" stroke="#FF0000" stroke-width="2.5"/>
</g>
<g clip-path="url(#clip22_96_10720)">
<path d="M112 24L120 32" stroke="#FF0000" stroke-width="2.5"/>
<path d="M112 32L120 24" stroke="#FF0000" stroke-width="2.5"/>
</g>
<g clip-path="url(#clip23_96_10720)">
<path d="M112 32L120 40" stroke="#FF0000" stroke-width="2.5"/>
<path d="M112 40L120 32" stroke="#FF0000" stroke-width="2.5"/>
</g>
<g clip-path="url(#clip24_96_10720)">
<path d="M112 40L120 48" stroke="#FF0000" stroke-width="2.5"/>
<path d="M112 48L120 40" stroke="#FF0000" stroke-width="2.5"/>
</g>
<g clip-path="url(#clip25_96_10720)">
<path d="M112 48L120 56" stroke="#FF0000" stroke-width="2.5"/>
<path d="M112 56L120 48" stroke="#FF0000" stroke-width="2.5"/>
</g>
<g clip-path="url(#clip26_96_10720)">
<path d="M104 56L112 64" stroke="#FF0000" stroke-width="2.5"/>
<path d="M104 64L112 56" stroke="#FF0000" stroke-width="2.5"/>
</g>
<g clip-path="url(#clip27_96_10720)">
<path d="M96 64L104 72" stroke="#FF0000" stroke-width="2.5"/>
<path d="M96 72L104 64" stroke="#FF0000" stroke-width="2.5"/>
</g>
<g clip-path="url(#clip28_96_10720)">
<path d="M88 72L96 80" stroke="#FF0000" stroke-width="2.5"/>
<path d="M88 80L96 72" stroke="#FF0000" stroke-width="2.5"/>
</g>
<g clip-path="url(#clip29_96_10720)">
<path d="M80 80L88 88" stroke="#FF0000" stroke-width="2.5"/>
<path d="M80 88L88 80" stroke="#FF0000" stroke-width="2.5"/>
</g>
<g clip-path="url(#clip30_96_10720)">
<path d="M72 88L80 96" stroke="#FF0000" stroke-width="2.5"/>
<path d="M72 96L80 88" stroke="#FF0000" stroke-width="2.5"/>
</g>
<g clip-path="url(#clip31_96_10720)">
<path d="M64 96L72 104" stroke="#FF0000" stroke-width="2.5"/>
<path d="M64 104L72 96" stroke="#FF0000" stroke-width="2.5"/>
</g>
<g clip-path="url(#clip32_96_10720)">
<path d="M56 104L64 112" stroke="#FF0000" stroke-width="2.5"/>
<path d="M56 112L64 104" stroke="#FF0000" stroke-width="2.5"/>
</g>
<g clip-path="url(#clip33_96_10720)">
<path d="M48 96L56 104" stroke="#FF0000" stroke-width="2.5"/>
<path d="M48 104L56 96" stroke="#FF0000" stroke-width="2.5"/>
</g>
<g clip-path="url(#clip34_96_10720)">
<path d="M72 28L80 36" stroke="black" stroke-width="2.5"/>
<path d="M72 36L80 28" stroke="black" stroke-width="2.5"/>
</g>
<g clip-path="url(#clip35_96_10720)">
<path d="M64 36L72 44" stroke="black" stroke-width="2.5"/>
<path d="M64 44L72 36" stroke="black" stroke-width="2.5"/>
</g>
<g clip-path="url(#clip36_96_10720)">
<path d="M56 44L64 52" stroke="black" stroke-width="2.5"/>
<path d="M56 52L64 44" stroke="black" stroke-width="2.5"/>
</g>
<g clip-path="url(#clip37_96_10720)">
<path d="M72 52L80 60" stroke="black" stroke-width="2.5"/>
<path d="M72 60L80 52" stroke="black" stroke-width="2.5"/>
</g>
<g clip-path="url(#clip38_96_10720)">
<path d="M72 44L80 52" stroke="black" stroke-width="2.5"/>
<path d="M72 52L80 44" stroke="black" stroke-width="2.5"/>
</g>
<g clip-path="url(#clip39_96_10720)">
<path d="M80 52L88 60" stroke="black" stroke-width="2.5"/>
<path d="M80 60L88 52" stroke="black" stroke-width="2.5"/>
</g>
<g clip-path="url(#clip40_96_10720)">
<path d="M56 52L64 60" stroke="black" stroke-width="2.5"/>
<path d="M56 60L64 52" stroke="black" stroke-width="2.5"/>
</g>
<g clip-path="url(#clip41_96_10720)">
<path d="M64 52L72 60" stroke="black" stroke-width="2.5"/>
<path d="M64 60L72 52" stroke="black" stroke-width="2.5"/>
</g>
<g clip-path="url(#clip42_96_10720)">
<path d="M72 60L80 68" stroke="black" stroke-width="2.5"/>
<path d="M72 68L80 60" stroke="black" stroke-width="2.5"/>
</g>
<g clip-path="url(#clip43_96_10720)">
<path d="M40 28L48 36" stroke="black" stroke-width="2.5"/>
<path d="M40 36L48 28" stroke="black" stroke-width="2.5"/>
</g>
<g clip-path="url(#clip44_96_10720)">
<path d="M32 36L40 44" stroke="black" stroke-width="2.5"/>
<path d="M32 44L40 36" stroke="black" stroke-width="2.5"/>
</g>
<g clip-path="url(#clip45_96_10720)">
<path d="M40 36L48 44" stroke="black" stroke-width="2.5"/>
<path d="M40 44L48 36" stroke="black" stroke-width="2.5"/>
</g>
<g clip-path="url(#clip46_96_10720)">
<path d="M40 44L48 52" stroke="black" stroke-width="2.5"/>
<path d="M40 52L48 44" stroke="black" stroke-width="2.5"/>
</g>
<g clip-path="url(#clip47_96_10720)">
<path d="M40 52L48 60" stroke="black" stroke-width="2.5"/>
<path d="M40 60L48 52" stroke="black" stroke-width="2.5"/>
</g>
<g clip-path="url(#clip48_96_10720)">
<path d="M40 60L48 68" stroke="black" stroke-width="2.5"/>
<path d="M40 68L48 60" stroke="black" stroke-width="2.5"/>
</g>
<defs>
<clipPath id="clip0_96_10720">
<rect width="8" height="8" fill="white" transform="translate(0 24)"/>
</clipPath>
<clipPath id="clip1_96_10720">
<rect width="8" height="8" fill="white" transform="translate(0 32)"/>
</clipPath>
<clipPath id="clip2_96_10720">
<rect width="8" height="8" fill="white" transform="translate(0 40)"/>
</clipPath>
<clipPath id="clip3_96_10720">
<rect width="8" height="8" fill="white" transform="translate(0 48)"/>
</clipPath>
<clipPath id="clip4_96_10720">
<rect width="8" height="8" fill="white" transform="translate(24 72)"/>
</clipPath>
<clipPath id="clip5_96_10720">
<rect width="8" height="8" fill="white" transform="translate(8 56)"/>
</clipPath>
<clipPath id="clip6_96_10720">
<rect width="8" height="8" fill="white" transform="translate(32 80)"/>
</clipPath>
<clipPath id="clip7_96_10720">
<rect width="8" height="8" fill="white" transform="translate(16 64)"/>
</clipPath>
<clipPath id="clip8_96_10720">
<rect width="8" height="8" fill="white" transform="translate(40 88)"/>
</clipPath>
<clipPath id="clip9_96_10720">
<rect width="8" height="8" fill="white" transform="translate(8 16)"/>
</clipPath>
<clipPath id="clip10_96_10720">
<rect width="8" height="8" fill="white" transform="translate(16 8)"/>
</clipPath>
<clipPath id="clip11_96_10720">
<rect width="8" height="8" fill="white" transform="translate(24)"/>
</clipPath>
<clipPath id="clip12_96_10720">
<rect width="8" height="8" fill="white" transform="translate(32)"/>
</clipPath>
<clipPath id="clip13_96_10720">
<rect width="8" height="8" fill="white" transform="translate(40)"/>
</clipPath>
<clipPath id="clip14_96_10720">
<rect width="8" height="8" fill="white" transform="translate(48 8)"/>
</clipPath>
<clipPath id="clip15_96_10720">
<rect width="8" height="8" fill="white" transform="translate(56 16)"/>
</clipPath>
<clipPath id="clip16_96_10720">
<rect width="8" height="8" fill="white" transform="translate(64 8)"/>
</clipPath>
<clipPath id="clip17_96_10720">
<rect width="8" height="8" fill="white" transform="translate(72)"/>
</clipPath>
<clipPath id="clip18_96_10720">
<rect width="8" height="8" fill="white" transform="translate(80)"/>
</clipPath>
<clipPath id="clip19_96_10720">
<rect width="8" height="8" fill="white" transform="translate(88)"/>
</clipPath>
<clipPath id="clip20_96_10720">
<rect width="8" height="8" fill="white" transform="translate(96 8)"/>
</clipPath>
<clipPath id="clip21_96_10720">
<rect width="8" height="8" fill="white" transform="translate(104 16)"/>
</clipPath>
<clipPath id="clip22_96_10720">
<rect width="8" height="8" fill="white" transform="translate(112 24)"/>
</clipPath>
<clipPath id="clip23_96_10720">
<rect width="8" height="8" fill="white" transform="translate(112 32)"/>
</clipPath>
<clipPath id="clip24_96_10720">
<rect width="8" height="8" fill="white" transform="translate(112 40)"/>
</clipPath>
<clipPath id="clip25_96_10720">
<rect width="8" height="8" fill="white" transform="translate(112 48)"/>
</clipPath>
<clipPath id="clip26_96_10720">
<rect width="8" height="8" fill="white" transform="translate(104 56)"/>
</clipPath>
<clipPath id="clip27_96_10720">
<rect width="8" height="8" fill="white" transform="translate(96 64)"/>
</clipPath>
<clipPath id="clip28_96_10720">
<rect width="8" height="8" fill="white" transform="translate(88 72)"/>
</clipPath>
<clipPath id="clip29_96_10720">
<rect width="8" height="8" fill="white" transform="translate(80 80)"/>
</clipPath>
<clipPath id="clip30_96_10720">
<rect width="8" height="8" fill="white" transform="translate(72 88)"/>
</clipPath>
<clipPath id="clip31_96_10720">
<rect width="8" height="8" fill="white" transform="translate(64 96)"/>
</clipPath>
<clipPath id="clip32_96_10720">
<rect width="8" height="8" fill="white" transform="translate(56 104)"/>
</clipPath>
<clipPath id="clip33_96_10720">
<rect width="8" height="8" fill="white" transform="translate(48 96)"/>
</clipPath>
<clipPath id="clip34_96_10720">
<rect width="8" height="8" fill="white" transform="translate(72 28)"/>
</clipPath>
<clipPath id="clip35_96_10720">
<rect width="8" height="8" fill="white" transform="translate(64 36)"/>
</clipPath>
<clipPath id="clip36_96_10720">
<rect width="8" height="8" fill="white" transform="translate(56 44)"/>
</clipPath>
<clipPath id="clip37_96_10720">
<rect width="8" height="8" fill="white" transform="translate(72 52)"/>
</clipPath>
<clipPath id="clip38_96_10720">
<rect width="8" height="8" fill="white" transform="translate(72 44)"/>
</clipPath>
<clipPath id="clip39_96_10720">
<rect width="8" height="8" fill="white" transform="translate(80 52)"/>
</clipPath>
<clipPath id="clip40_96_10720">
<rect width="8" height="8" fill="white" transform="translate(56 52)"/>
</clipPath>
<clipPath id="clip41_96_10720">
<rect width="8" height="8" fill="white" transform="translate(64 52)"/>
</clipPath>
<clipPath id="clip42_96_10720">
<rect width="8" height="8" fill="white" transform="translate(72 60)"/>
</clipPath>
<clipPath id="clip43_96_10720">
<rect width="8" height="8" fill="white" transform="translate(40 28)"/>
</clipPath>
<clipPath id="clip44_96_10720">
<rect width="8" height="8" fill="white" transform="translate(32 36)"/>
</clipPath>
<clipPath id="clip45_96_10720">
<rect width="8" height="8" fill="white" transform="translate(40 36)"/>
</clipPath>
<clipPath id="clip46_96_10720">
<rect width="8" height="8" fill="white" transform="translate(40 44)"/>
</clipPath>
<clipPath id="clip47_96_10720">
<rect width="8" height="8" fill="white" transform="translate(40 52)"/>
</clipPath>
<clipPath id="clip48_96_10720">
<rect width="8" height="8" fill="white" transform="translate(40 60)"/>
</clipPath>
</defs>
</svg>
