<svg width="120" height="192" viewBox="0 0 120 192" fill="none" xmlns="http://www.w3.org/2000/svg">
<g clip-path="url(#clip0_213_27639)">
<path d="M40 56L48 64" stroke="#308103" stroke-width="2.5"/>
<path d="M40 64L48 56" stroke="#308103" stroke-width="2.5"/>
</g>
<g clip-path="url(#clip1_213_27639)">
<path d="M40 144L48 152" stroke="#308103" stroke-width="2.5"/>
<path d="M40 152L48 144" stroke="#308103" stroke-width="2.5"/>
</g>
<g clip-path="url(#clip2_213_27639)">
<path d="M40 80L48 88" stroke="#308103" stroke-width="2.5"/>
<path d="M40 88L48 80" stroke="#308103" stroke-width="2.5"/>
</g>
<g clip-path="url(#clip3_213_27639)">
<path d="M40 112L48 120" stroke="#D82A1A" stroke-width="2.5"/>
<path d="M40 120L48 112" stroke="#D82A1A" stroke-width="2.5"/>
</g>
<g clip-path="url(#clip4_213_27639)">
<path d="M40 168L48 176" stroke="#308103" stroke-width="2.5"/>
<path d="M40 176L48 168" stroke="#308103" stroke-width="2.5"/>
</g>
<g clip-path="url(#clip5_213_27639)">
<path d="M56 32L64 40" stroke="#308103" stroke-width="2.5"/>
<path d="M56 40L64 32" stroke="#308103" stroke-width="2.5"/>
</g>
<g clip-path="url(#clip6_213_27639)">
<path d="M56 56L64 64" stroke="#D82A1A" stroke-width="2.5"/>
<path d="M56 64L64 56" stroke="#D82A1A" stroke-width="2.5"/>
</g>
<g clip-path="url(#clip7_213_27639)">
<path d="M56 144L64 152" stroke="#F8ED18" stroke-width="2.5"/>
<path d="M56 152L64 144" stroke="#F8ED18" stroke-width="2.5"/>
</g>
<g clip-path="url(#clip8_213_27639)">
<path d="M56 80L64 88" stroke="#308103" stroke-width="2.5"/>
<path d="M56 88L64 80" stroke="#308103" stroke-width="2.5"/>
</g>
<g clip-path="url(#clip9_213_27639)">
<path d="M56 112L64 120" stroke="#308103" stroke-width="2.5"/>
<path d="M56 120L64 112" stroke="#308103" stroke-width="2.5"/>
</g>
<g clip-path="url(#clip10_213_27639)">
<path d="M56 168L64 176" stroke="#308103" stroke-width="2.5"/>
<path d="M56 176L64 168" stroke="#308103" stroke-width="2.5"/>
</g>
<g clip-path="url(#clip11_213_27639)">
<path d="M56 8L64 16" stroke="#F8ED18" stroke-width="2.5"/>
<path d="M56 16L64 8" stroke="#F8ED18" stroke-width="2.5"/>
</g>
<g clip-path="url(#clip12_213_27639)">
<path d="M80 56L88 64" stroke="#308103" stroke-width="2.5"/>
<path d="M80 64L88 56" stroke="#308103" stroke-width="2.5"/>
</g>
<g clip-path="url(#clip13_213_27639)">
<path d="M80 144L88 152" stroke="#2261FF" stroke-width="2.5"/>
<path d="M80 152L88 144" stroke="#2261FF" stroke-width="2.5"/>
</g>
<g clip-path="url(#clip14_213_27639)">
<path d="M80 80L88 88" stroke="#308103" stroke-width="2.5"/>
<path d="M80 88L88 80" stroke="#308103" stroke-width="2.5"/>
</g>
<g clip-path="url(#clip15_213_27639)">
<path d="M80 112L88 120" stroke="#308103" stroke-width="2.5"/>
<path d="M80 120L88 112" stroke="#308103" stroke-width="2.5"/>
</g>
<g clip-path="url(#clip16_213_27639)">
<path d="M80 168L88 176" stroke="#308103" stroke-width="2.5"/>
<path d="M80 176L88 168" stroke="#308103" stroke-width="2.5"/>
</g>
<g clip-path="url(#clip17_213_27639)">
<path d="M96 168L104 176" stroke="#308103" stroke-width="2.5"/>
<path d="M96 176L104 168" stroke="#308103" stroke-width="2.5"/>
</g>
<g clip-path="url(#clip18_213_27639)">
<path d="M24 56L32 64" stroke="#308103" stroke-width="2.5"/>
<path d="M24 64L32 56" stroke="#308103" stroke-width="2.5"/>
</g>
<g clip-path="url(#clip19_213_27639)">
<path d="M24 144L32 152" stroke="#D82A1A" stroke-width="2.5"/>
<path d="M24 152L32 144" stroke="#D82A1A" stroke-width="2.5"/>
</g>
<g clip-path="url(#clip20_213_27639)">
<path d="M24 80L32 88" stroke="#308103" stroke-width="2.5"/>
<path d="M24 88L32 80" stroke="#308103" stroke-width="2.5"/>
</g>
<g clip-path="url(#clip21_213_27639)">
<path d="M24 112L32 120" stroke="#F8ED18" stroke-width="2.5"/>
<path d="M24 120L32 112" stroke="#F8ED18" stroke-width="2.5"/>
</g>
<g clip-path="url(#clip22_213_27639)">
<path d="M24 168L32 176" stroke="#308103" stroke-width="2.5"/>
<path d="M24 176L32 168" stroke="#308103" stroke-width="2.5"/>
</g>
<g clip-path="url(#clip23_213_27639)">
<path d="M8 168L16 176" stroke="#308103" stroke-width="2.5"/>
<path d="M8 176L16 168" stroke="#308103" stroke-width="2.5"/>
</g>
<g clip-path="url(#clip24_213_27639)">
<path d="M40 40L48 48" stroke="#D82A1A" stroke-width="2.5"/>
<path d="M40 48L48 40" stroke="#D82A1A" stroke-width="2.5"/>
</g>
<g clip-path="url(#clip25_213_27639)">
<path d="M40 72L48 80" stroke="#308103" stroke-width="2.5"/>
<path d="M40 80L48 72" stroke="#308103" stroke-width="2.5"/>
</g>
<g clip-path="url(#clip26_213_27639)">
<path d="M40 104L48 112" stroke="#308103" stroke-width="2.5"/>
<path d="M40 112L48 104" stroke="#308103" stroke-width="2.5"/>
</g>
<g clip-path="url(#clip27_213_27639)">
<path d="M40 160L48 168" stroke="#308103" stroke-width="2.5"/>
<path d="M40 168L48 160" stroke="#308103" stroke-width="2.5"/>
</g>
<g clip-path="url(#clip28_213_27639)">
<path d="M40 136L48 144" stroke="#D82A1A" stroke-width="2.5"/>
<path d="M40 144L48 136" stroke="#D82A1A" stroke-width="2.5"/>
</g>
<g clip-path="url(#clip29_213_27639)">
<path d="M56 40L64 48" stroke="#2261FF" stroke-width="2.5"/>
<path d="M56 48L64 40" stroke="#2261FF" stroke-width="2.5"/>
</g>
<g clip-path="url(#clip30_213_27639)">
<path d="M56 72L64 80" stroke="#308103" stroke-width="2.5"/>
<path d="M56 80L64 72" stroke="#308103" stroke-width="2.5"/>
</g>
<g clip-path="url(#clip31_213_27639)">
<path d="M56 104L64 112" stroke="#308103" stroke-width="2.5"/>
<path d="M56 112L64 104" stroke="#308103" stroke-width="2.5"/>
</g>
<g clip-path="url(#clip32_213_27639)">
<path d="M56 160L64 168" stroke="#D82A1A" stroke-width="2.5"/>
<path d="M56 168L64 160" stroke="#D82A1A" stroke-width="2.5"/>
</g>
<g clip-path="url(#clip33_213_27639)">
<path d="M56 136L64 144" stroke="#308103" stroke-width="2.5"/>
<path d="M56 144L64 136" stroke="#308103" stroke-width="2.5"/>
</g>
<g clip-path="url(#clip34_213_27639)">
<path d="M56 184L64 192" stroke="#713C0D" stroke-width="2.5"/>
<path d="M56 192L64 184" stroke="#713C0D" stroke-width="2.5"/>
</g>
<g clip-path="url(#clip35_213_27639)">
<path d="M80 72L88 80" stroke="#308103" stroke-width="2.5"/>
<path d="M80 80L88 72" stroke="#308103" stroke-width="2.5"/>
</g>
<g clip-path="url(#clip36_213_27639)">
<path d="M80 104L88 112" stroke="#D82A1A" stroke-width="2.5"/>
<path d="M80 112L88 104" stroke="#D82A1A" stroke-width="2.5"/>
</g>
<g clip-path="url(#clip37_213_27639)">
<path d="M80 160L88 168" stroke="#D72D16" stroke-width="2.5"/>
<path d="M80 168L88 160" stroke="#D72D16" stroke-width="2.5"/>
</g>
<g clip-path="url(#clip38_213_27639)">
<path d="M80 136L88 144" stroke="#308103" stroke-width="2.5"/>
<path d="M80 144L88 136" stroke="#308103" stroke-width="2.5"/>
</g>
<g clip-path="url(#clip39_213_27639)">
<path d="M96 160L104 168" stroke="#F8ED18" stroke-width="2.5"/>
<path d="M96 168L104 160" stroke="#F8ED18" stroke-width="2.5"/>
</g>
<g clip-path="url(#clip40_213_27639)">
<path d="M24 160L32 168" stroke="#308103" stroke-width="2.5"/>
<path d="M24 168L32 160" stroke="#308103" stroke-width="2.5"/>
</g>
<g clip-path="url(#clip41_213_27639)">
<path d="M8 160L16 168" stroke="#F8ED18" stroke-width="2.5"/>
<path d="M8 168L16 160" stroke="#F8ED18" stroke-width="2.5"/>
</g>
<g clip-path="url(#clip42_213_27639)">
<path d="M40 48L48 56" stroke="#308103" stroke-width="2.5"/>
<path d="M40 56L48 48" stroke="#308103" stroke-width="2.5"/>
</g>
<g clip-path="url(#clip43_213_27639)">
<path d="M56 24L64 32" stroke="#308103" stroke-width="2.5"/>
<path d="M56 32L64 24" stroke="#308103" stroke-width="2.5"/>
</g>
<g clip-path="url(#clip44_213_27639)">
<path d="M56 48L64 56" stroke="#308103" stroke-width="2.5"/>
<path d="M56 56L64 48" stroke="#308103" stroke-width="2.5"/>
</g>
<g clip-path="url(#clip45_213_27639)">
<path d="M56 0L64 8" stroke="#F8ED18" stroke-width="2.5"/>
<path d="M56 8L64 2.73828e-07" stroke="#F8ED18" stroke-width="2.5"/>
</g>
<g clip-path="url(#clip46_213_27639)">
<path d="M56 16L64 24" stroke="#F8ED18" stroke-width="2.5"/>
<path d="M56 24L64 16" stroke="#F8ED18" stroke-width="2.5"/>
</g>
<g clip-path="url(#clip47_213_27639)">
<path d="M80 48L88 56" stroke="#308103" stroke-width="2.5"/>
<path d="M80 56L88 48" stroke="#308103" stroke-width="2.5"/>
</g>
<g clip-path="url(#clip48_213_27639)">
<path d="M40 64L48 72" stroke="#308103" stroke-width="2.5"/>
<path d="M40 72L48 64" stroke="#308103" stroke-width="2.5"/>
</g>
<g clip-path="url(#clip49_213_27639)">
<path d="M40 96L48 104" stroke="#308103" stroke-width="2.5"/>
<path d="M40 104L48 96" stroke="#308103" stroke-width="2.5"/>
</g>
<g clip-path="url(#clip50_213_27639)">
<path d="M40 152L48 160" stroke="#D82A1A" stroke-width="2.5"/>
<path d="M40 160L48 152" stroke="#D82A1A" stroke-width="2.5"/>
</g>
<g clip-path="url(#clip51_213_27639)">
<path d="M40 88L48 96" stroke="#308103" stroke-width="2.5"/>
<path d="M40 96L48 88" stroke="#308103" stroke-width="2.5"/>
</g>
<g clip-path="url(#clip52_213_27639)">
<path d="M40 120L48 128" stroke="#308103" stroke-width="2.5"/>
<path d="M40 128L48 120" stroke="#308103" stroke-width="2.5"/>
</g>
<g clip-path="url(#clip53_213_27639)">
<path d="M40 128L48 136" stroke="#308103" stroke-width="2.5"/>
<path d="M40 136L48 128" stroke="#308103" stroke-width="2.5"/>
</g>
<g clip-path="url(#clip54_213_27639)">
<path d="M56 64L64 72" stroke="#308103" stroke-width="2.5"/>
<path d="M56 72L64 64" stroke="#308103" stroke-width="2.5"/>
</g>
<g clip-path="url(#clip55_213_27639)">
<path d="M56 96L64 104" stroke="#308103" stroke-width="2.5"/>
<path d="M56 104L64 96" stroke="#308103" stroke-width="2.5"/>
</g>
<g clip-path="url(#clip56_213_27639)">
<path d="M56 152L64 160" stroke="#308103" stroke-width="2.5"/>
<path d="M56 160L64 152" stroke="#308103" stroke-width="2.5"/>
</g>
<g clip-path="url(#clip57_213_27639)">
<path d="M56 88L64 96" stroke="#308103" stroke-width="2.5"/>
<path d="M56 96L64 88" stroke="#308103" stroke-width="2.5"/>
</g>
<g clip-path="url(#clip58_213_27639)">
<path d="M56 120L64 128" stroke="#D82A1A" stroke-width="2.5"/>
<path d="M56 128L64 120" stroke="#D82A1A" stroke-width="2.5"/>
</g>
<g clip-path="url(#clip59_213_27639)">
<path d="M56 128L64 136" stroke="#308103" stroke-width="2.5"/>
<path d="M56 136L64 128" stroke="#308103" stroke-width="2.5"/>
</g>
<g clip-path="url(#clip60_213_27639)">
<path d="M56 176L64 184" stroke="#713C0D" stroke-width="2.5"/>
<path d="M56 184L64 176" stroke="#713C0D" stroke-width="2.5"/>
</g>
<g clip-path="url(#clip61_213_27639)">
<path d="M80 152L88 160" stroke="#D82A1A" stroke-width="2.5"/>
<path d="M80 160L88 152" stroke="#D82A1A" stroke-width="2.5"/>
</g>
<g clip-path="url(#clip62_213_27639)">
<path d="M80 88L88 96" stroke="#308103" stroke-width="2.5"/>
<path d="M80 96L88 88" stroke="#308103" stroke-width="2.5"/>
</g>
<g clip-path="url(#clip63_213_27639)">
<path d="M80 120L88 128" stroke="#308103" stroke-width="2.5"/>
<path d="M80 128L88 120" stroke="#308103" stroke-width="2.5"/>
</g>
<g clip-path="url(#clip64_213_27639)">
<path d="M80 128L88 136" stroke="#D82A1A" stroke-width="2.5"/>
<path d="M80 136L88 128" stroke="#D82A1A" stroke-width="2.5"/>
</g>
<g clip-path="url(#clip65_213_27639)">
<path d="M96 152L104 160" stroke="#308103" stroke-width="2.5"/>
<path d="M96 160L104 152" stroke="#308103" stroke-width="2.5"/>
</g>
<g clip-path="url(#clip66_213_27639)">
<path d="M96 88L104 96" stroke="#308103" stroke-width="2.5"/>
<path d="M96 96L104 88" stroke="#308103" stroke-width="2.5"/>
</g>
<g clip-path="url(#clip67_213_27639)">
<path d="M96 120L104 128" stroke="#308103" stroke-width="2.5"/>
<path d="M96 128L104 120" stroke="#308103" stroke-width="2.5"/>
</g>
<g clip-path="url(#clip68_213_27639)">
<path d="M96 128L104 136" stroke="#308103" stroke-width="2.5"/>
<path d="M96 136L104 128" stroke="#308103" stroke-width="2.5"/>
</g>
<g clip-path="url(#clip69_213_27639)">
<path d="M104 128L112 136" stroke="#308103" stroke-width="2.5"/>
<path d="M104 136L112 128" stroke="#308103" stroke-width="2.5"/>
</g>
<g clip-path="url(#clip70_213_27639)">
<path d="M24 152L32 160" stroke="#308103" stroke-width="2.5"/>
<path d="M24 160L32 152" stroke="#308103" stroke-width="2.5"/>
</g>
<g clip-path="url(#clip71_213_27639)">
<path d="M24 88L32 96" stroke="#308103" stroke-width="2.5"/>
<path d="M24 96L32 88" stroke="#308103" stroke-width="2.5"/>
</g>
<g clip-path="url(#clip72_213_27639)">
<path d="M24 120L32 128" stroke="#308103" stroke-width="2.5"/>
<path d="M24 128L32 120" stroke="#308103" stroke-width="2.5"/>
</g>
<g clip-path="url(#clip73_213_27639)">
<path d="M24 128L32 136" stroke="#308103" stroke-width="2.5"/>
<path d="M24 136L32 128" stroke="#308103" stroke-width="2.5"/>
</g>
<g clip-path="url(#clip74_213_27639)">
<path d="M48 32L56 40" stroke="#308103" stroke-width="2.5"/>
<path d="M48 40L56 32" stroke="#308103" stroke-width="2.5"/>
</g>
<g clip-path="url(#clip75_213_27639)">
<path d="M48 56L56 64" stroke="#308103" stroke-width="2.5"/>
<path d="M48 64L56 56" stroke="#308103" stroke-width="2.5"/>
</g>
<g clip-path="url(#clip76_213_27639)">
<path d="M48 144L56 152" stroke="#308103" stroke-width="2.5"/>
<path d="M48 152L56 144" stroke="#308103" stroke-width="2.5"/>
</g>
<g clip-path="url(#clip77_213_27639)">
<path d="M48 80L56 88" stroke="#308103" stroke-width="2.5"/>
<path d="M48 88L56 80" stroke="#308103" stroke-width="2.5"/>
</g>
<g clip-path="url(#clip78_213_27639)">
<path d="M48 112L56 120" stroke="#D82A1A" stroke-width="2.5"/>
<path d="M48 120L56 112" stroke="#D82A1A" stroke-width="2.5"/>
</g>
<g clip-path="url(#clip79_213_27639)">
<path d="M48 168L56 176" stroke="#308103" stroke-width="2.5"/>
<path d="M48 176L56 168" stroke="#308103" stroke-width="2.5"/>
</g>
<g clip-path="url(#clip80_213_27639)">
<path d="M48 8L56 16" stroke="#F8ED18" stroke-width="2.5"/>
<path d="M48 16L56 8" stroke="#F8ED18" stroke-width="2.5"/>
</g>
<g clip-path="url(#clip81_213_27639)">
<path d="M72 56L80 64" stroke="#308103" stroke-width="2.5"/>
<path d="M72 64L80 56" stroke="#308103" stroke-width="2.5"/>
</g>
<g clip-path="url(#clip82_213_27639)">
<path d="M72 144L80 152" stroke="#308103" stroke-width="2.5"/>
<path d="M72 152L80 144" stroke="#308103" stroke-width="2.5"/>
</g>
<g clip-path="url(#clip83_213_27639)">
<path d="M72 80L80 88" stroke="#308103" stroke-width="2.5"/>
<path d="M72 88L80 80" stroke="#308103" stroke-width="2.5"/>
</g>
<g clip-path="url(#clip84_213_27639)">
<path d="M72 112L80 120" stroke="#D82A1A" stroke-width="2.5"/>
<path d="M72 120L80 112" stroke="#D82A1A" stroke-width="2.5"/>
</g>
<g clip-path="url(#clip85_213_27639)">
<path d="M72 168L80 176" stroke="#308103" stroke-width="2.5"/>
<path d="M72 176L80 168" stroke="#308103" stroke-width="2.5"/>
</g>
<g clip-path="url(#clip86_213_27639)">
<path d="M16 168L24 176" stroke="#308103" stroke-width="2.5"/>
<path d="M16 176L24 168" stroke="#308103" stroke-width="2.5"/>
</g>
<g clip-path="url(#clip87_213_27639)">
<path d="M0 168L8 176" stroke="#308103" stroke-width="2.5"/>
<path d="M0 176L8 168" stroke="#308103" stroke-width="2.5"/>
</g>
<g clip-path="url(#clip88_213_27639)">
<path d="M64 32L72 40" stroke="#308103" stroke-width="2.5"/>
<path d="M64 40L72 32" stroke="#308103" stroke-width="2.5"/>
</g>
<g clip-path="url(#clip89_213_27639)">
<path d="M64 56L72 64" stroke="#308103" stroke-width="2.5"/>
<path d="M64 64L72 56" stroke="#308103" stroke-width="2.5"/>
</g>
<g clip-path="url(#clip90_213_27639)">
<path d="M64 144L72 152" stroke="#308103" stroke-width="2.5"/>
<path d="M64 152L72 144" stroke="#308103" stroke-width="2.5"/>
</g>
<g clip-path="url(#clip91_213_27639)">
<path d="M64 80L72 88" stroke="#2261FF" stroke-width="2.5"/>
<path d="M64 88L72 80" stroke="#2261FF" stroke-width="2.5"/>
</g>
<g clip-path="url(#clip92_213_27639)">
<path d="M64 112L72 120" stroke="#308103" stroke-width="2.5"/>
<path d="M64 120L72 112" stroke="#308103" stroke-width="2.5"/>
</g>
<g clip-path="url(#clip93_213_27639)">
<path d="M64 168L72 176" stroke="#308103" stroke-width="2.5"/>
<path d="M64 176L72 168" stroke="#308103" stroke-width="2.5"/>
</g>
<g clip-path="url(#clip94_213_27639)">
<path d="M64 8L72 16" stroke="#F8ED18" stroke-width="2.5"/>
<path d="M64 16L72 8" stroke="#F8ED18" stroke-width="2.5"/>
</g>
<g clip-path="url(#clip95_213_27639)">
<path d="M88 56L96 64" stroke="#308103" stroke-width="2.5"/>
<path d="M88 64L96 56" stroke="#308103" stroke-width="2.5"/>
</g>
<g clip-path="url(#clip96_213_27639)">
<path d="M88 144L96 152" stroke="#308103" stroke-width="2.5"/>
<path d="M88 152L96 144" stroke="#308103" stroke-width="2.5"/>
</g>
<g clip-path="url(#clip97_213_27639)">
<path d="M88 80L96 88" stroke="#F8ED18" stroke-width="2.5"/>
<path d="M88 88L96 80" stroke="#F8ED18" stroke-width="2.5"/>
</g>
<g clip-path="url(#clip98_213_27639)">
<path d="M88 112L96 120" stroke="#308103" stroke-width="2.5"/>
<path d="M88 120L96 112" stroke="#308103" stroke-width="2.5"/>
</g>
<g clip-path="url(#clip99_213_27639)">
<path d="M88 168L96 176" stroke="#308103" stroke-width="2.5"/>
<path d="M88 176L96 168" stroke="#308103" stroke-width="2.5"/>
</g>
<g clip-path="url(#clip100_213_27639)">
<path d="M104 168L112 176" stroke="#308103" stroke-width="2.5"/>
<path d="M104 176L112 168" stroke="#308103" stroke-width="2.5"/>
</g>
<g clip-path="url(#clip101_213_27639)">
<path d="M32 56L40 64" stroke="#308103" stroke-width="2.5"/>
<path d="M32 64L40 56" stroke="#308103" stroke-width="2.5"/>
</g>
<g clip-path="url(#clip102_213_27639)">
<path d="M32 144L40 152" stroke="#308103" stroke-width="2.5"/>
<path d="M32 152L40 144" stroke="#308103" stroke-width="2.5"/>
</g>
<g clip-path="url(#clip103_213_27639)">
<path d="M32 80L40 88" stroke="#D82A1A" stroke-width="2.5"/>
<path d="M32 88L40 80" stroke="#D82A1A" stroke-width="2.5"/>
</g>
<g clip-path="url(#clip104_213_27639)">
<path d="M32 112L40 120" stroke="#308103" stroke-width="2.5"/>
<path d="M32 120L40 112" stroke="#308103" stroke-width="2.5"/>
</g>
<g clip-path="url(#clip105_213_27639)">
<path d="M32 168L40 176" stroke="#308103" stroke-width="2.5"/>
<path d="M32 176L40 168" stroke="#308103" stroke-width="2.5"/>
</g>
<g clip-path="url(#clip106_213_27639)">
<path d="M48 40L56 48" stroke="#308103" stroke-width="2.5"/>
<path d="M48 48L56 40" stroke="#308103" stroke-width="2.5"/>
</g>
<g clip-path="url(#clip107_213_27639)">
<path d="M48 72L56 80" stroke="#F8ED18" stroke-width="2.5"/>
<path d="M48 80L56 72" stroke="#F8ED18" stroke-width="2.5"/>
</g>
<g clip-path="url(#clip108_213_27639)">
<path d="M48 104L56 112" stroke="#F8ED18" stroke-width="2.5"/>
<path d="M48 112L56 104" stroke="#F8ED18" stroke-width="2.5"/>
</g>
<g clip-path="url(#clip109_213_27639)">
<path d="M48 160L56 168" stroke="#D82A1A" stroke-width="2.5"/>
<path d="M48 168L56 160" stroke="#D82A1A" stroke-width="2.5"/>
</g>
<g clip-path="url(#clip110_213_27639)">
<path d="M48 136L56 144" stroke="#308103" stroke-width="2.5"/>
<path d="M48 144L56 136" stroke="#308103" stroke-width="2.5"/>
</g>
<g clip-path="url(#clip111_213_27639)">
<path d="M48 184L56 192" stroke="#713C0D" stroke-width="2.5"/>
<path d="M48 192L56 184" stroke="#713C0D" stroke-width="2.5"/>
</g>
<g clip-path="url(#clip112_213_27639)">
<path d="M72 40L80 48" stroke="#308103" stroke-width="2.5"/>
<path d="M72 48L80 40" stroke="#308103" stroke-width="2.5"/>
</g>
<g clip-path="url(#clip113_213_27639)">
<path d="M72 72L80 80" stroke="#308103" stroke-width="2.5"/>
<path d="M72 80L80 72" stroke="#308103" stroke-width="2.5"/>
</g>
<g clip-path="url(#clip114_213_27639)">
<path d="M72 104L80 112" stroke="#308103" stroke-width="2.5"/>
<path d="M72 112L80 104" stroke="#308103" stroke-width="2.5"/>
</g>
<g clip-path="url(#clip115_213_27639)">
<path d="M72 160L80 168" stroke="#D82A1A" stroke-width="2.5"/>
<path d="M72 168L80 160" stroke="#D82A1A" stroke-width="2.5"/>
</g>
<g clip-path="url(#clip116_213_27639)">
<path d="M72 136L80 144" stroke="#308103" stroke-width="2.5"/>
<path d="M72 144L80 136" stroke="#308103" stroke-width="2.5"/>
</g>
<g clip-path="url(#clip117_213_27639)">
<path d="M16 160L24 168" stroke="#308103" stroke-width="2.5"/>
<path d="M16 168L24 160" stroke="#308103" stroke-width="2.5"/>
</g>
<g clip-path="url(#clip118_213_27639)">
<path d="M64 40L72 48" stroke="#308103" stroke-width="2.5"/>
<path d="M64 48L72 40" stroke="#308103" stroke-width="2.5"/>
</g>
<g clip-path="url(#clip119_213_27639)">
<path d="M64 72L72 80" stroke="#308103" stroke-width="2.5"/>
<path d="M64 80L72 72" stroke="#308103" stroke-width="2.5"/>
</g>
<g clip-path="url(#clip120_213_27639)">
<path d="M64 104L72 112" stroke="#308103" stroke-width="2.5"/>
<path d="M64 112L72 104" stroke="#308103" stroke-width="2.5"/>
</g>
<g clip-path="url(#clip121_213_27639)">
<path d="M64 160L72 168" stroke="#D82A1A" stroke-width="2.5"/>
<path d="M64 168L72 160" stroke="#D82A1A" stroke-width="2.5"/>
</g>
<g clip-path="url(#clip122_213_27639)">
<path d="M64 136L72 144" stroke="#308103" stroke-width="2.5"/>
<path d="M64 144L72 136" stroke="#308103" stroke-width="2.5"/>
</g>
<g clip-path="url(#clip123_213_27639)">
<path d="M64 184L72 192" stroke="#713C0D" stroke-width="2.5"/>
<path d="M64 192L72 184" stroke="#713C0D" stroke-width="2.5"/>
</g>
<g clip-path="url(#clip124_213_27639)">
<path d="M88 160L96 168" stroke="#308103" stroke-width="2.5"/>
<path d="M88 168L96 160" stroke="#308103" stroke-width="2.5"/>
</g>
<g clip-path="url(#clip125_213_27639)">
<path d="M104 160L112 168" stroke="#308103" stroke-width="2.5"/>
<path d="M104 168L112 160" stroke="#308103" stroke-width="2.5"/>
</g>
<g clip-path="url(#clip126_213_27639)">
<path d="M112 168L120 176" stroke="#308103" stroke-width="2.5"/>
<path d="M112 176L120 168" stroke="#308103" stroke-width="2.5"/>
</g>
<g clip-path="url(#clip127_213_27639)">
<path d="M32 72L40 80" stroke="#308103" stroke-width="2.5"/>
<path d="M32 80L40 72" stroke="#308103" stroke-width="2.5"/>
</g>
<g clip-path="url(#clip128_213_27639)">
<path d="M32 104L40 112" stroke="#D82A1A" stroke-width="2.5"/>
<path d="M32 112L40 104" stroke="#D82A1A" stroke-width="2.5"/>
</g>
<g clip-path="url(#clip129_213_27639)">
<path d="M32 160L40 168" stroke="#308103" stroke-width="2.5"/>
<path d="M32 168L40 160" stroke="#308103" stroke-width="2.5"/>
</g>
<g clip-path="url(#clip130_213_27639)">
<path d="M32 136L40 144" stroke="#308103" stroke-width="2.5"/>
<path d="M32 144L40 136" stroke="#308103" stroke-width="2.5"/>
</g>
<g clip-path="url(#clip131_213_27639)">
<path d="M48 48L56 56" stroke="#D82A1A" stroke-width="2.5"/>
<path d="M48 56L56 48" stroke="#D82A1A" stroke-width="2.5"/>
</g>
<g clip-path="url(#clip132_213_27639)">
<path d="M72 48L80 56" stroke="#F8ED18" stroke-width="2.5"/>
<path d="M72 56L80 48" stroke="#F8ED18" stroke-width="2.5"/>
</g>
<g clip-path="url(#clip133_213_27639)">
<path d="M64 48L72 56" stroke="#308103" stroke-width="2.5"/>
<path d="M64 56L72 48" stroke="#308103" stroke-width="2.5"/>
</g>
<g clip-path="url(#clip134_213_27639)">
<path d="M32 48L40 56" stroke="#F8ED18" stroke-width="2.5"/>
<path d="M32 56L40 48" stroke="#F8ED18" stroke-width="2.5"/>
</g>
<g clip-path="url(#clip135_213_27639)">
<path d="M48 64L56 72" stroke="#308103" stroke-width="2.5"/>
<path d="M48 72L56 64" stroke="#308103" stroke-width="2.5"/>
</g>
<g clip-path="url(#clip136_213_27639)">
<path d="M48 96L56 104" stroke="#308103" stroke-width="2.5"/>
<path d="M48 104L56 96" stroke="#308103" stroke-width="2.5"/>
</g>
<g clip-path="url(#clip137_213_27639)">
<path d="M48 152L56 160" stroke="#308103" stroke-width="2.5"/>
<path d="M48 160L56 152" stroke="#308103" stroke-width="2.5"/>
</g>
<g clip-path="url(#clip138_213_27639)">
<path d="M48 88L56 96" stroke="#308103" stroke-width="2.5"/>
<path d="M48 96L56 88" stroke="#308103" stroke-width="2.5"/>
</g>
<g clip-path="url(#clip139_213_27639)">
<path d="M48 120L56 128" stroke="#308103" stroke-width="2.5"/>
<path d="M48 128L56 120" stroke="#308103" stroke-width="2.5"/>
</g>
<g clip-path="url(#clip140_213_27639)">
<path d="M48 128L56 136" stroke="#308103" stroke-width="2.5"/>
<path d="M48 136L56 128" stroke="#308103" stroke-width="2.5"/>
</g>
<g clip-path="url(#clip141_213_27639)">
<path d="M48 176L56 184" stroke="#713C0D" stroke-width="2.5"/>
<path d="M48 184L56 176" stroke="#713C0D" stroke-width="2.5"/>
</g>
<g clip-path="url(#clip142_213_27639)">
<path d="M72 64L80 72" stroke="#D82A1A" stroke-width="2.5"/>
<path d="M72 72L80 64" stroke="#D82A1A" stroke-width="2.5"/>
</g>
<g clip-path="url(#clip143_213_27639)">
<path d="M72 96L80 104" stroke="#308103" stroke-width="2.5"/>
<path d="M72 104L80 96" stroke="#308103" stroke-width="2.5"/>
</g>
<g clip-path="url(#clip144_213_27639)">
<path d="M72 152L80 160" stroke="#308103" stroke-width="2.5"/>
<path d="M72 160L80 152" stroke="#308103" stroke-width="2.5"/>
</g>
<g clip-path="url(#clip145_213_27639)">
<path d="M72 88L80 96" stroke="#308103" stroke-width="2.5"/>
<path d="M72 96L80 88" stroke="#308103" stroke-width="2.5"/>
</g>
<g clip-path="url(#clip146_213_27639)">
<path d="M72 120L80 128" stroke="#308103" stroke-width="2.5"/>
<path d="M72 128L80 120" stroke="#308103" stroke-width="2.5"/>
</g>
<g clip-path="url(#clip147_213_27639)">
<path d="M72 128L80 136" stroke="#308103" stroke-width="2.5"/>
<path d="M72 136L80 128" stroke="#308103" stroke-width="2.5"/>
</g>
<g clip-path="url(#clip148_213_27639)">
<path d="M16 152L24 160" stroke="#308103" stroke-width="2.5"/>
<path d="M16 160L24 152" stroke="#308103" stroke-width="2.5"/>
</g>
<g clip-path="url(#clip149_213_27639)">
<path d="M16 88L24 96" stroke="#308103" stroke-width="2.5"/>
<path d="M16 96L24 88" stroke="#308103" stroke-width="2.5"/>
</g>
<g clip-path="url(#clip150_213_27639)">
<path d="M16 120L24 128" stroke="#308103" stroke-width="2.5"/>
<path d="M16 128L24 120" stroke="#308103" stroke-width="2.5"/>
</g>
<g clip-path="url(#clip151_213_27639)">
<path d="M16 128L24 136" stroke="#308103" stroke-width="2.5"/>
<path d="M16 136L24 128" stroke="#308103" stroke-width="2.5"/>
</g>
<g clip-path="url(#clip152_213_27639)">
<path d="M8 128L16 136" stroke="#308103" stroke-width="2.5"/>
<path d="M8 136L16 128" stroke="#308103" stroke-width="2.5"/>
</g>
<g clip-path="url(#clip153_213_27639)">
<path d="M64 64L72 72" stroke="#D82A1A" stroke-width="2.5"/>
<path d="M64 72L72 64" stroke="#D82A1A" stroke-width="2.5"/>
</g>
<g clip-path="url(#clip154_213_27639)">
<path d="M64 96L72 104" stroke="#D82A1A" stroke-width="2.5"/>
<path d="M64 104L72 96" stroke="#D82A1A" stroke-width="2.5"/>
</g>
<g clip-path="url(#clip155_213_27639)">
<path d="M64 152L72 160" stroke="#308103" stroke-width="2.5"/>
<path d="M64 160L72 152" stroke="#308103" stroke-width="2.5"/>
</g>
<g clip-path="url(#clip156_213_27639)">
<path d="M64 88L72 96" stroke="#308103" stroke-width="2.5"/>
<path d="M64 96L72 88" stroke="#308103" stroke-width="2.5"/>
</g>
<g clip-path="url(#clip157_213_27639)">
<path d="M64 120L72 128" stroke="#D82A1A" stroke-width="2.5"/>
<path d="M64 128L72 120" stroke="#D82A1A" stroke-width="2.5"/>
</g>
<g clip-path="url(#clip158_213_27639)">
<path d="M64 128L72 136" stroke="#308103" stroke-width="2.5"/>
<path d="M64 136L72 128" stroke="#308103" stroke-width="2.5"/>
</g>
<g clip-path="url(#clip159_213_27639)">
<path d="M64 176L72 184" stroke="#713C0D" stroke-width="2.5"/>
<path d="M64 184L72 176" stroke="#713C0D" stroke-width="2.5"/>
</g>
<g clip-path="url(#clip160_213_27639)">
<path d="M88 152L96 160" stroke="#D82A1A" stroke-width="2.5"/>
<path d="M88 160L96 152" stroke="#D82A1A" stroke-width="2.5"/>
</g>
<g clip-path="url(#clip161_213_27639)">
<path d="M88 88L96 96" stroke="#308103" stroke-width="2.5"/>
<path d="M88 96L96 88" stroke="#308103" stroke-width="2.5"/>
</g>
<g clip-path="url(#clip162_213_27639)">
<path d="M88 120L96 128" stroke="#F8ED18" stroke-width="2.5"/>
<path d="M88 128L96 120" stroke="#F8ED18" stroke-width="2.5"/>
</g>
<g clip-path="url(#clip163_213_27639)">
<path d="M88 128L96 136" stroke="#308103" stroke-width="2.5"/>
<path d="M88 136L96 128" stroke="#308103" stroke-width="2.5"/>
</g>
<g clip-path="url(#clip164_213_27639)">
<path d="M32 152L40 160" stroke="#D82A1A" stroke-width="2.5"/>
<path d="M32 160L40 152" stroke="#D82A1A" stroke-width="2.5"/>
</g>
<g clip-path="url(#clip165_213_27639)">
<path d="M32 88L40 96" stroke="#308103" stroke-width="2.5"/>
<path d="M32 96L40 88" stroke="#308103" stroke-width="2.5"/>
</g>
<g clip-path="url(#clip166_213_27639)">
<path d="M32 120L40 128" stroke="#2261FF" stroke-width="2.5"/>
<path d="M32 128L40 120" stroke="#2261FF" stroke-width="2.5"/>
</g>
<g clip-path="url(#clip167_213_27639)">
<path d="M32 128L40 136" stroke="#308103" stroke-width="2.5"/>
<path d="M32 136L40 128" stroke="#308103" stroke-width="2.5"/>
</g>
<defs>
<clipPath id="clip0_213_27639">
<rect width="8" height="8" fill="white" transform="translate(40 56)"/>
</clipPath>
<clipPath id="clip1_213_27639">
<rect width="8" height="8" fill="white" transform="translate(40 144)"/>
</clipPath>
<clipPath id="clip2_213_27639">
<rect width="8" height="8" fill="white" transform="translate(40 80)"/>
</clipPath>
<clipPath id="clip3_213_27639">
<rect width="8" height="8" fill="white" transform="translate(40 112)"/>
</clipPath>
<clipPath id="clip4_213_27639">
<rect width="8" height="8" fill="white" transform="translate(40 168)"/>
</clipPath>
<clipPath id="clip5_213_27639">
<rect width="8" height="8" fill="white" transform="translate(56 32)"/>
</clipPath>
<clipPath id="clip6_213_27639">
<rect width="8" height="8" fill="white" transform="translate(56 56)"/>
</clipPath>
<clipPath id="clip7_213_27639">
<rect width="8" height="8" fill="white" transform="translate(56 144)"/>
</clipPath>
<clipPath id="clip8_213_27639">
<rect width="8" height="8" fill="white" transform="translate(56 80)"/>
</clipPath>
<clipPath id="clip9_213_27639">
<rect width="8" height="8" fill="white" transform="translate(56 112)"/>
</clipPath>
<clipPath id="clip10_213_27639">
<rect width="8" height="8" fill="white" transform="translate(56 168)"/>
</clipPath>
<clipPath id="clip11_213_27639">
<rect width="8" height="8" fill="white" transform="translate(56 8)"/>
</clipPath>
<clipPath id="clip12_213_27639">
<rect width="8" height="8" fill="white" transform="translate(80 56)"/>
</clipPath>
<clipPath id="clip13_213_27639">
<rect width="8" height="8" fill="white" transform="translate(80 144)"/>
</clipPath>
<clipPath id="clip14_213_27639">
<rect width="8" height="8" fill="white" transform="translate(80 80)"/>
</clipPath>
<clipPath id="clip15_213_27639">
<rect width="8" height="8" fill="white" transform="translate(80 112)"/>
</clipPath>
<clipPath id="clip16_213_27639">
<rect width="8" height="8" fill="white" transform="translate(80 168)"/>
</clipPath>
<clipPath id="clip17_213_27639">
<rect width="8" height="8" fill="white" transform="translate(96 168)"/>
</clipPath>
<clipPath id="clip18_213_27639">
<rect width="8" height="8" fill="white" transform="translate(24 56)"/>
</clipPath>
<clipPath id="clip19_213_27639">
<rect width="8" height="8" fill="white" transform="translate(24 144)"/>
</clipPath>
<clipPath id="clip20_213_27639">
<rect width="8" height="8" fill="white" transform="translate(24 80)"/>
</clipPath>
<clipPath id="clip21_213_27639">
<rect width="8" height="8" fill="white" transform="translate(24 112)"/>
</clipPath>
<clipPath id="clip22_213_27639">
<rect width="8" height="8" fill="white" transform="translate(24 168)"/>
</clipPath>
<clipPath id="clip23_213_27639">
<rect width="8" height="8" fill="white" transform="translate(8 168)"/>
</clipPath>
<clipPath id="clip24_213_27639">
<rect width="8" height="8" fill="white" transform="translate(40 40)"/>
</clipPath>
<clipPath id="clip25_213_27639">
<rect width="8" height="8" fill="white" transform="translate(40 72)"/>
</clipPath>
<clipPath id="clip26_213_27639">
<rect width="8" height="8" fill="white" transform="translate(40 104)"/>
</clipPath>
<clipPath id="clip27_213_27639">
<rect width="8" height="8" fill="white" transform="translate(40 160)"/>
</clipPath>
<clipPath id="clip28_213_27639">
<rect width="8" height="8" fill="white" transform="translate(40 136)"/>
</clipPath>
<clipPath id="clip29_213_27639">
<rect width="8" height="8" fill="white" transform="translate(56 40)"/>
</clipPath>
<clipPath id="clip30_213_27639">
<rect width="8" height="8" fill="white" transform="translate(56 72)"/>
</clipPath>
<clipPath id="clip31_213_27639">
<rect width="8" height="8" fill="white" transform="translate(56 104)"/>
</clipPath>
<clipPath id="clip32_213_27639">
<rect width="8" height="8" fill="white" transform="translate(56 160)"/>
</clipPath>
<clipPath id="clip33_213_27639">
<rect width="8" height="8" fill="white" transform="translate(56 136)"/>
</clipPath>
<clipPath id="clip34_213_27639">
<rect width="8" height="8" fill="white" transform="translate(56 184)"/>
</clipPath>
<clipPath id="clip35_213_27639">
<rect width="8" height="8" fill="white" transform="translate(80 72)"/>
</clipPath>
<clipPath id="clip36_213_27639">
<rect width="8" height="8" fill="white" transform="translate(80 104)"/>
</clipPath>
<clipPath id="clip37_213_27639">
<rect width="8" height="8" fill="white" transform="translate(80 160)"/>
</clipPath>
<clipPath id="clip38_213_27639">
<rect width="8" height="8" fill="white" transform="translate(80 136)"/>
</clipPath>
<clipPath id="clip39_213_27639">
<rect width="8" height="8" fill="white" transform="translate(96 160)"/>
</clipPath>
<clipPath id="clip40_213_27639">
<rect width="8" height="8" fill="white" transform="translate(24 160)"/>
</clipPath>
<clipPath id="clip41_213_27639">
<rect width="8" height="8" fill="white" transform="translate(8 160)"/>
</clipPath>
<clipPath id="clip42_213_27639">
<rect width="8" height="8" fill="white" transform="translate(40 48)"/>
</clipPath>
<clipPath id="clip43_213_27639">
<rect width="8" height="8" fill="white" transform="translate(56 24)"/>
</clipPath>
<clipPath id="clip44_213_27639">
<rect width="8" height="8" fill="white" transform="translate(56 48)"/>
</clipPath>
<clipPath id="clip45_213_27639">
<rect width="8" height="8" fill="white" transform="translate(56)"/>
</clipPath>
<clipPath id="clip46_213_27639">
<rect width="8" height="8" fill="white" transform="translate(56 16)"/>
</clipPath>
<clipPath id="clip47_213_27639">
<rect width="8" height="8" fill="white" transform="translate(80 48)"/>
</clipPath>
<clipPath id="clip48_213_27639">
<rect width="8" height="8" fill="white" transform="translate(40 64)"/>
</clipPath>
<clipPath id="clip49_213_27639">
<rect width="8" height="8" fill="white" transform="translate(40 96)"/>
</clipPath>
<clipPath id="clip50_213_27639">
<rect width="8" height="8" fill="white" transform="translate(40 152)"/>
</clipPath>
<clipPath id="clip51_213_27639">
<rect width="8" height="8" fill="white" transform="translate(40 88)"/>
</clipPath>
<clipPath id="clip52_213_27639">
<rect width="8" height="8" fill="white" transform="translate(40 120)"/>
</clipPath>
<clipPath id="clip53_213_27639">
<rect width="8" height="8" fill="white" transform="translate(40 128)"/>
</clipPath>
<clipPath id="clip54_213_27639">
<rect width="8" height="8" fill="white" transform="translate(56 64)"/>
</clipPath>
<clipPath id="clip55_213_27639">
<rect width="8" height="8" fill="white" transform="translate(56 96)"/>
</clipPath>
<clipPath id="clip56_213_27639">
<rect width="8" height="8" fill="white" transform="translate(56 152)"/>
</clipPath>
<clipPath id="clip57_213_27639">
<rect width="8" height="8" fill="white" transform="translate(56 88)"/>
</clipPath>
<clipPath id="clip58_213_27639">
<rect width="8" height="8" fill="white" transform="translate(56 120)"/>
</clipPath>
<clipPath id="clip59_213_27639">
<rect width="8" height="8" fill="white" transform="translate(56 128)"/>
</clipPath>
<clipPath id="clip60_213_27639">
<rect width="8" height="8" fill="white" transform="translate(56 176)"/>
</clipPath>
<clipPath id="clip61_213_27639">
<rect width="8" height="8" fill="white" transform="translate(80 152)"/>
</clipPath>
<clipPath id="clip62_213_27639">
<rect width="8" height="8" fill="white" transform="translate(80 88)"/>
</clipPath>
<clipPath id="clip63_213_27639">
<rect width="8" height="8" fill="white" transform="translate(80 120)"/>
</clipPath>
<clipPath id="clip64_213_27639">
<rect width="8" height="8" fill="white" transform="translate(80 128)"/>
</clipPath>
<clipPath id="clip65_213_27639">
<rect width="8" height="8" fill="white" transform="translate(96 152)"/>
</clipPath>
<clipPath id="clip66_213_27639">
<rect width="8" height="8" fill="white" transform="translate(96 88)"/>
</clipPath>
<clipPath id="clip67_213_27639">
<rect width="8" height="8" fill="white" transform="translate(96 120)"/>
</clipPath>
<clipPath id="clip68_213_27639">
<rect width="8" height="8" fill="white" transform="translate(96 128)"/>
</clipPath>
<clipPath id="clip69_213_27639">
<rect width="8" height="8" fill="white" transform="translate(104 128)"/>
</clipPath>
<clipPath id="clip70_213_27639">
<rect width="8" height="8" fill="white" transform="translate(24 152)"/>
</clipPath>
<clipPath id="clip71_213_27639">
<rect width="8" height="8" fill="white" transform="translate(24 88)"/>
</clipPath>
<clipPath id="clip72_213_27639">
<rect width="8" height="8" fill="white" transform="translate(24 120)"/>
</clipPath>
<clipPath id="clip73_213_27639">
<rect width="8" height="8" fill="white" transform="translate(24 128)"/>
</clipPath>
<clipPath id="clip74_213_27639">
<rect width="8" height="8" fill="white" transform="translate(48 32)"/>
</clipPath>
<clipPath id="clip75_213_27639">
<rect width="8" height="8" fill="white" transform="translate(48 56)"/>
</clipPath>
<clipPath id="clip76_213_27639">
<rect width="8" height="8" fill="white" transform="translate(48 144)"/>
</clipPath>
<clipPath id="clip77_213_27639">
<rect width="8" height="8" fill="white" transform="translate(48 80)"/>
</clipPath>
<clipPath id="clip78_213_27639">
<rect width="8" height="8" fill="white" transform="translate(48 112)"/>
</clipPath>
<clipPath id="clip79_213_27639">
<rect width="8" height="8" fill="white" transform="translate(48 168)"/>
</clipPath>
<clipPath id="clip80_213_27639">
<rect width="8" height="8" fill="white" transform="translate(48 8)"/>
</clipPath>
<clipPath id="clip81_213_27639">
<rect width="8" height="8" fill="white" transform="translate(72 56)"/>
</clipPath>
<clipPath id="clip82_213_27639">
<rect width="8" height="8" fill="white" transform="translate(72 144)"/>
</clipPath>
<clipPath id="clip83_213_27639">
<rect width="8" height="8" fill="white" transform="translate(72 80)"/>
</clipPath>
<clipPath id="clip84_213_27639">
<rect width="8" height="8" fill="white" transform="translate(72 112)"/>
</clipPath>
<clipPath id="clip85_213_27639">
<rect width="8" height="8" fill="white" transform="translate(72 168)"/>
</clipPath>
<clipPath id="clip86_213_27639">
<rect width="8" height="8" fill="white" transform="translate(16 168)"/>
</clipPath>
<clipPath id="clip87_213_27639">
<rect width="8" height="8" fill="white" transform="translate(0 168)"/>
</clipPath>
<clipPath id="clip88_213_27639">
<rect width="8" height="8" fill="white" transform="translate(64 32)"/>
</clipPath>
<clipPath id="clip89_213_27639">
<rect width="8" height="8" fill="white" transform="translate(64 56)"/>
</clipPath>
<clipPath id="clip90_213_27639">
<rect width="8" height="8" fill="white" transform="translate(64 144)"/>
</clipPath>
<clipPath id="clip91_213_27639">
<rect width="8" height="8" fill="white" transform="translate(64 80)"/>
</clipPath>
<clipPath id="clip92_213_27639">
<rect width="8" height="8" fill="white" transform="translate(64 112)"/>
</clipPath>
<clipPath id="clip93_213_27639">
<rect width="8" height="8" fill="white" transform="translate(64 168)"/>
</clipPath>
<clipPath id="clip94_213_27639">
<rect width="8" height="8" fill="white" transform="translate(64 8)"/>
</clipPath>
<clipPath id="clip95_213_27639">
<rect width="8" height="8" fill="white" transform="translate(88 56)"/>
</clipPath>
<clipPath id="clip96_213_27639">
<rect width="8" height="8" fill="white" transform="translate(88 144)"/>
</clipPath>
<clipPath id="clip97_213_27639">
<rect width="8" height="8" fill="white" transform="translate(88 80)"/>
</clipPath>
<clipPath id="clip98_213_27639">
<rect width="8" height="8" fill="white" transform="translate(88 112)"/>
</clipPath>
<clipPath id="clip99_213_27639">
<rect width="8" height="8" fill="white" transform="translate(88 168)"/>
</clipPath>
<clipPath id="clip100_213_27639">
<rect width="8" height="8" fill="white" transform="translate(104 168)"/>
</clipPath>
<clipPath id="clip101_213_27639">
<rect width="8" height="8" fill="white" transform="translate(32 56)"/>
</clipPath>
<clipPath id="clip102_213_27639">
<rect width="8" height="8" fill="white" transform="translate(32 144)"/>
</clipPath>
<clipPath id="clip103_213_27639">
<rect width="8" height="8" fill="white" transform="translate(32 80)"/>
</clipPath>
<clipPath id="clip104_213_27639">
<rect width="8" height="8" fill="white" transform="translate(32 112)"/>
</clipPath>
<clipPath id="clip105_213_27639">
<rect width="8" height="8" fill="white" transform="translate(32 168)"/>
</clipPath>
<clipPath id="clip106_213_27639">
<rect width="8" height="8" fill="white" transform="translate(48 40)"/>
</clipPath>
<clipPath id="clip107_213_27639">
<rect width="8" height="8" fill="white" transform="translate(48 72)"/>
</clipPath>
<clipPath id="clip108_213_27639">
<rect width="8" height="8" fill="white" transform="translate(48 104)"/>
</clipPath>
<clipPath id="clip109_213_27639">
<rect width="8" height="8" fill="white" transform="translate(48 160)"/>
</clipPath>
<clipPath id="clip110_213_27639">
<rect width="8" height="8" fill="white" transform="translate(48 136)"/>
</clipPath>
<clipPath id="clip111_213_27639">
<rect width="8" height="8" fill="white" transform="translate(48 184)"/>
</clipPath>
<clipPath id="clip112_213_27639">
<rect width="8" height="8" fill="white" transform="translate(72 40)"/>
</clipPath>
<clipPath id="clip113_213_27639">
<rect width="8" height="8" fill="white" transform="translate(72 72)"/>
</clipPath>
<clipPath id="clip114_213_27639">
<rect width="8" height="8" fill="white" transform="translate(72 104)"/>
</clipPath>
<clipPath id="clip115_213_27639">
<rect width="8" height="8" fill="white" transform="translate(72 160)"/>
</clipPath>
<clipPath id="clip116_213_27639">
<rect width="8" height="8" fill="white" transform="translate(72 136)"/>
</clipPath>
<clipPath id="clip117_213_27639">
<rect width="8" height="8" fill="white" transform="translate(16 160)"/>
</clipPath>
<clipPath id="clip118_213_27639">
<rect width="8" height="8" fill="white" transform="translate(64 40)"/>
</clipPath>
<clipPath id="clip119_213_27639">
<rect width="8" height="8" fill="white" transform="translate(64 72)"/>
</clipPath>
<clipPath id="clip120_213_27639">
<rect width="8" height="8" fill="white" transform="translate(64 104)"/>
</clipPath>
<clipPath id="clip121_213_27639">
<rect width="8" height="8" fill="white" transform="translate(64 160)"/>
</clipPath>
<clipPath id="clip122_213_27639">
<rect width="8" height="8" fill="white" transform="translate(64 136)"/>
</clipPath>
<clipPath id="clip123_213_27639">
<rect width="8" height="8" fill="white" transform="translate(64 184)"/>
</clipPath>
<clipPath id="clip124_213_27639">
<rect width="8" height="8" fill="white" transform="translate(88 160)"/>
</clipPath>
<clipPath id="clip125_213_27639">
<rect width="8" height="8" fill="white" transform="translate(104 160)"/>
</clipPath>
<clipPath id="clip126_213_27639">
<rect width="8" height="8" fill="white" transform="translate(112 168)"/>
</clipPath>
<clipPath id="clip127_213_27639">
<rect width="8" height="8" fill="white" transform="translate(32 72)"/>
</clipPath>
<clipPath id="clip128_213_27639">
<rect width="8" height="8" fill="white" transform="translate(32 104)"/>
</clipPath>
<clipPath id="clip129_213_27639">
<rect width="8" height="8" fill="white" transform="translate(32 160)"/>
</clipPath>
<clipPath id="clip130_213_27639">
<rect width="8" height="8" fill="white" transform="translate(32 136)"/>
</clipPath>
<clipPath id="clip131_213_27639">
<rect width="8" height="8" fill="white" transform="translate(48 48)"/>
</clipPath>
<clipPath id="clip132_213_27639">
<rect width="8" height="8" fill="white" transform="translate(72 48)"/>
</clipPath>
<clipPath id="clip133_213_27639">
<rect width="8" height="8" fill="white" transform="translate(64 48)"/>
</clipPath>
<clipPath id="clip134_213_27639">
<rect width="8" height="8" fill="white" transform="translate(32 48)"/>
</clipPath>
<clipPath id="clip135_213_27639">
<rect width="8" height="8" fill="white" transform="translate(48 64)"/>
</clipPath>
<clipPath id="clip136_213_27639">
<rect width="8" height="8" fill="white" transform="translate(48 96)"/>
</clipPath>
<clipPath id="clip137_213_27639">
<rect width="8" height="8" fill="white" transform="translate(48 152)"/>
</clipPath>
<clipPath id="clip138_213_27639">
<rect width="8" height="8" fill="white" transform="translate(48 88)"/>
</clipPath>
<clipPath id="clip139_213_27639">
<rect width="8" height="8" fill="white" transform="translate(48 120)"/>
</clipPath>
<clipPath id="clip140_213_27639">
<rect width="8" height="8" fill="white" transform="translate(48 128)"/>
</clipPath>
<clipPath id="clip141_213_27639">
<rect width="8" height="8" fill="white" transform="translate(48 176)"/>
</clipPath>
<clipPath id="clip142_213_27639">
<rect width="8" height="8" fill="white" transform="translate(72 64)"/>
</clipPath>
<clipPath id="clip143_213_27639">
<rect width="8" height="8" fill="white" transform="translate(72 96)"/>
</clipPath>
<clipPath id="clip144_213_27639">
<rect width="8" height="8" fill="white" transform="translate(72 152)"/>
</clipPath>
<clipPath id="clip145_213_27639">
<rect width="8" height="8" fill="white" transform="translate(72 88)"/>
</clipPath>
<clipPath id="clip146_213_27639">
<rect width="8" height="8" fill="white" transform="translate(72 120)"/>
</clipPath>
<clipPath id="clip147_213_27639">
<rect width="8" height="8" fill="white" transform="translate(72 128)"/>
</clipPath>
<clipPath id="clip148_213_27639">
<rect width="8" height="8" fill="white" transform="translate(16 152)"/>
</clipPath>
<clipPath id="clip149_213_27639">
<rect width="8" height="8" fill="white" transform="translate(16 88)"/>
</clipPath>
<clipPath id="clip150_213_27639">
<rect width="8" height="8" fill="white" transform="translate(16 120)"/>
</clipPath>
<clipPath id="clip151_213_27639">
<rect width="8" height="8" fill="white" transform="translate(16 128)"/>
</clipPath>
<clipPath id="clip152_213_27639">
<rect width="8" height="8" fill="white" transform="translate(8 128)"/>
</clipPath>
<clipPath id="clip153_213_27639">
<rect width="8" height="8" fill="white" transform="translate(64 64)"/>
</clipPath>
<clipPath id="clip154_213_27639">
<rect width="8" height="8" fill="white" transform="translate(64 96)"/>
</clipPath>
<clipPath id="clip155_213_27639">
<rect width="8" height="8" fill="white" transform="translate(64 152)"/>
</clipPath>
<clipPath id="clip156_213_27639">
<rect width="8" height="8" fill="white" transform="translate(64 88)"/>
</clipPath>
<clipPath id="clip157_213_27639">
<rect width="8" height="8" fill="white" transform="translate(64 120)"/>
</clipPath>
<clipPath id="clip158_213_27639">
<rect width="8" height="8" fill="white" transform="translate(64 128)"/>
</clipPath>
<clipPath id="clip159_213_27639">
<rect width="8" height="8" fill="white" transform="translate(64 176)"/>
</clipPath>
<clipPath id="clip160_213_27639">
<rect width="8" height="8" fill="white" transform="translate(88 152)"/>
</clipPath>
<clipPath id="clip161_213_27639">
<rect width="8" height="8" fill="white" transform="translate(88 88)"/>
</clipPath>
<clipPath id="clip162_213_27639">
<rect width="8" height="8" fill="white" transform="translate(88 120)"/>
</clipPath>
<clipPath id="clip163_213_27639">
<rect width="8" height="8" fill="white" transform="translate(88 128)"/>
</clipPath>
<clipPath id="clip164_213_27639">
<rect width="8" height="8" fill="white" transform="translate(32 152)"/>
</clipPath>
<clipPath id="clip165_213_27639">
<rect width="8" height="8" fill="white" transform="translate(32 88)"/>
</clipPath>
<clipPath id="clip166_213_27639">
<rect width="8" height="8" fill="white" transform="translate(32 120)"/>
</clipPath>
<clipPath id="clip167_213_27639">
<rect width="8" height="8" fill="white" transform="translate(32 128)"/>
</clipPath>
</defs>
</svg>
