<svg width="72" height="136" viewBox="0 0 72 136" fill="none" xmlns="http://www.w3.org/2000/svg">
<g clip-path="url(#clip0_96_40352)">
<path d="M0 120L8 128" stroke="#F9CBAB" stroke-width="2.5"/>
<path d="M0 128L8 120" stroke="#F9CBAB" stroke-width="2.5"/>
</g>
<g clip-path="url(#clip1_96_40352)">
<path d="M8 120L16 128" stroke="#5D6A46" stroke-width="2.5"/>
<path d="M8 128L16 120" stroke="#5D6A46" stroke-width="2.5"/>
</g>
<g clip-path="url(#clip2_96_40352)">
<path d="M24 64L32 72" stroke="#F9CBAB" stroke-width="2.5"/>
<path d="M24 72L32 64" stroke="#F9CBAB" stroke-width="2.5"/>
</g>
<g clip-path="url(#clip3_96_40352)">
<path d="M24 40L32 48" stroke="#DD483F" stroke-width="2.5"/>
<path d="M24 48L32 40" stroke="#DD483F" stroke-width="2.5"/>
</g>
<g clip-path="url(#clip4_96_40352)">
<path d="M40 24L48 32" stroke="#DD483F" stroke-width="2.5"/>
<path d="M40 32L48 24" stroke="#DD483F" stroke-width="2.5"/>
</g>
<g clip-path="url(#clip5_96_40352)">
<path d="M40 64L48 72" stroke="#F9CBAB" stroke-width="2.5"/>
<path d="M40 72L48 64" stroke="#F9CBAB" stroke-width="2.5"/>
</g>
<g clip-path="url(#clip6_96_40352)">
<path d="M40 40L48 48" stroke="#DD483F" stroke-width="2.5"/>
<path d="M40 48L48 40" stroke="#DD483F" stroke-width="2.5"/>
</g>
<g clip-path="url(#clip7_96_40352)">
<path d="M0 112L8 120" stroke="#F9CBAB" stroke-width="2.5"/>
<path d="M0 120L8 112" stroke="#F9CBAB" stroke-width="2.5"/>
</g>
<g clip-path="url(#clip8_96_40352)">
<path d="M24 112L32 120" stroke="#5D6A46" stroke-width="2.5"/>
<path d="M24 120L32 112" stroke="#5D6A46" stroke-width="2.5"/>
</g>
<g clip-path="url(#clip9_96_40352)">
<path d="M24 120L32 128" stroke="#5D6A46" stroke-width="2.5"/>
<path d="M24 128L32 120" stroke="#5D6A46" stroke-width="2.5"/>
</g>
<g clip-path="url(#clip10_96_40352)">
<path d="M24 128L32 136" stroke="#030303" stroke-width="2.5"/>
<path d="M24 136L32 128" stroke="#030303" stroke-width="2.5"/>
</g>
<g clip-path="url(#clip11_96_40352)">
<path d="M40 112L48 120" stroke="#5D6A46" stroke-width="2.5"/>
<path d="M40 120L48 112" stroke="#5D6A46" stroke-width="2.5"/>
</g>
<g clip-path="url(#clip12_96_40352)">
<path d="M40 120L48 128" stroke="#5D6A46" stroke-width="2.5"/>
<path d="M40 128L48 120" stroke="#5D6A46" stroke-width="2.5"/>
</g>
<g clip-path="url(#clip13_96_40352)">
<path d="M40 128L48 136" stroke="#030303" stroke-width="2.5"/>
<path d="M40 136L48 128" stroke="#030303" stroke-width="2.5"/>
</g>
<g clip-path="url(#clip14_96_40352)">
<path d="M64 112L72 120" stroke="#F9CBAB" stroke-width="2.5"/>
<path d="M64 120L72 112" stroke="#F9CBAB" stroke-width="2.5"/>
</g>
<g clip-path="url(#clip15_96_40352)">
<path d="M64 120L72 128" stroke="#F9CBAB" stroke-width="2.5"/>
<path d="M64 128L72 120" stroke="#F9CBAB" stroke-width="2.5"/>
</g>
<g clip-path="url(#clip16_96_40352)">
<path d="M8 112L16 120" stroke="#5D6A46" stroke-width="2.5"/>
<path d="M8 120L16 112" stroke="#5D6A46" stroke-width="2.5"/>
</g>
<g clip-path="url(#clip17_96_40352)">
<path d="M32 112L40 120" stroke="#5D6A46" stroke-width="2.5"/>
<path d="M32 120L40 112" stroke="#5D6A46" stroke-width="2.5"/>
</g>
<g clip-path="url(#clip18_96_40352)">
<path d="M32 120L40 128" stroke="#5D6A46" stroke-width="2.5"/>
<path d="M32 128L40 120" stroke="#5D6A46" stroke-width="2.5"/>
</g>
<g clip-path="url(#clip19_96_40352)">
<path d="M56 112L64 120" stroke="#5D6A46" stroke-width="2.5"/>
<path d="M56 120L64 112" stroke="#5D6A46" stroke-width="2.5"/>
</g>
<g clip-path="url(#clip20_96_40352)">
<path d="M56 120L64 128" stroke="#5D6A46" stroke-width="2.5"/>
<path d="M56 128L64 120" stroke="#5D6A46" stroke-width="2.5"/>
</g>
<g clip-path="url(#clip21_96_40352)">
<path d="M16 112L24 120" stroke="#5D6A46" stroke-width="2.5"/>
<path d="M16 120L24 112" stroke="#5D6A46" stroke-width="2.5"/>
</g>
<g clip-path="url(#clip22_96_40352)">
<path d="M16 120L24 128" stroke="#5D6A46" stroke-width="2.5"/>
<path d="M16 128L24 120" stroke="#5D6A46" stroke-width="2.5"/>
</g>
<g clip-path="url(#clip23_96_40352)">
<path d="M16 128L24 136" stroke="#030303" stroke-width="2.5"/>
<path d="M16 136L24 128" stroke="#030303" stroke-width="2.5"/>
</g>
<g clip-path="url(#clip24_96_40352)">
<path d="M48 112L56 120" stroke="#5D6A46" stroke-width="2.5"/>
<path d="M48 120L56 112" stroke="#5D6A46" stroke-width="2.5"/>
</g>
<g clip-path="url(#clip25_96_40352)">
<path d="M48 120L56 128" stroke="#5D6A46" stroke-width="2.5"/>
<path d="M48 128L56 120" stroke="#5D6A46" stroke-width="2.5"/>
</g>
<g clip-path="url(#clip26_96_40352)">
<path d="M48 128L56 136" stroke="#030303" stroke-width="2.5"/>
<path d="M48 136L56 128" stroke="#030303" stroke-width="2.5"/>
</g>
<g clip-path="url(#clip27_96_40352)">
<path d="M8 80L16 88" stroke="#5D6A46" stroke-width="2.5"/>
<path d="M8 88L16 80" stroke="#5D6A46" stroke-width="2.5"/>
</g>
<g clip-path="url(#clip28_96_40352)">
<path d="M0 104L8 112" stroke="#5D6A46" stroke-width="2.5"/>
<path d="M0 112L8 104" stroke="#5D6A46" stroke-width="2.5"/>
</g>
<g clip-path="url(#clip29_96_40352)">
<path d="M24 104L32 112" stroke="#5D6A46" stroke-width="2.5"/>
<path d="M24 112L32 104" stroke="#5D6A46" stroke-width="2.5"/>
</g>
<g clip-path="url(#clip30_96_40352)">
<path d="M16 80L24 88" stroke="#FCFFFE" stroke-width="2.5"/>
<path d="M16 88L24 80" stroke="#FCFFFE" stroke-width="2.5"/>
</g>
<g clip-path="url(#clip31_96_40352)">
<path d="M48 80L56 88" stroke="#FCFFFE" stroke-width="2.5"/>
<path d="M48 88L56 80" stroke="#FCFFFE" stroke-width="2.5"/>
</g>
<g clip-path="url(#clip32_96_40352)">
<path d="M40 104L48 112" stroke="#5D6A46" stroke-width="2.5"/>
<path d="M40 112L48 104" stroke="#5D6A46" stroke-width="2.5"/>
</g>
<g clip-path="url(#clip33_96_40352)">
<path d="M64 104L72 112" stroke="#5D6A46" stroke-width="2.5"/>
<path d="M64 112L72 104" stroke="#5D6A46" stroke-width="2.5"/>
</g>
<g clip-path="url(#clip34_96_40352)">
<path d="M32 80L40 88" stroke="#FCFFFE" stroke-width="2.5"/>
<path d="M32 88L40 80" stroke="#FCFFFE" stroke-width="2.5"/>
</g>
<g clip-path="url(#clip35_96_40352)">
<path d="M56 80L64 88" stroke="#5D6A46" stroke-width="2.5"/>
<path d="M56 88L64 80" stroke="#5D6A46" stroke-width="2.5"/>
</g>
<g clip-path="url(#clip36_96_40352)">
<path d="M8 104L16 112" stroke="#5D6A46" stroke-width="2.5"/>
<path d="M8 112L16 104" stroke="#5D6A46" stroke-width="2.5"/>
</g>
<g clip-path="url(#clip37_96_40352)">
<path d="M32 104L40 112" stroke="#5D6A46" stroke-width="2.5"/>
<path d="M32 112L40 104" stroke="#5D6A46" stroke-width="2.5"/>
</g>
<g clip-path="url(#clip38_96_40352)">
<path d="M56 104L64 112" stroke="#5D6A46" stroke-width="2.5"/>
<path d="M56 112L64 104" stroke="#5D6A46" stroke-width="2.5"/>
</g>
<g clip-path="url(#clip39_96_40352)">
<path d="M24 80L32 88" stroke="#FCFFFE" stroke-width="2.5"/>
<path d="M24 88L32 80" stroke="#FCFFFE" stroke-width="2.5"/>
</g>
<g clip-path="url(#clip40_96_40352)">
<path d="M16 104L24 112" stroke="#5D6A46" stroke-width="2.5"/>
<path d="M16 112L24 104" stroke="#5D6A46" stroke-width="2.5"/>
</g>
<g clip-path="url(#clip41_96_40352)">
<path d="M48 104L56 112" stroke="#5D6A46" stroke-width="2.5"/>
<path d="M48 112L56 104" stroke="#5D6A46" stroke-width="2.5"/>
</g>
<g clip-path="url(#clip42_96_40352)">
<path d="M40 80L48 88" stroke="#FCFFFE" stroke-width="2.5"/>
<path d="M40 88L48 80" stroke="#FCFFFE" stroke-width="2.5"/>
</g>
<g clip-path="url(#clip43_96_40352)">
<path d="M0 96L8 104" stroke="#5D6A46" stroke-width="2.5"/>
<path d="M0 104L8 96" stroke="#5D6A46" stroke-width="2.5"/>
</g>
<g clip-path="url(#clip44_96_40352)">
<path d="M24 96L32 104" stroke="#5D6A46" stroke-width="2.5"/>
<path d="M24 104L32 96" stroke="#5D6A46" stroke-width="2.5"/>
</g>
<g clip-path="url(#clip45_96_40352)">
<path d="M16 56L24 64" stroke="#DD483F" stroke-width="2.5"/>
<path d="M16 64L24 56" stroke="#DD483F" stroke-width="2.5"/>
</g>
<g clip-path="url(#clip46_96_40352)">
<path d="M48 56L56 64" stroke="#DD483F" stroke-width="2.5"/>
<path d="M48 64L56 56" stroke="#DD483F" stroke-width="2.5"/>
</g>
<g clip-path="url(#clip47_96_40352)">
<path d="M40 96L48 104" stroke="#5D6A46" stroke-width="2.5"/>
<path d="M40 104L48 96" stroke="#5D6A46" stroke-width="2.5"/>
</g>
<g clip-path="url(#clip48_96_40352)">
<path d="M64 96L72 104" stroke="#5D6A46" stroke-width="2.5"/>
<path d="M64 104L72 96" stroke="#5D6A46" stroke-width="2.5"/>
</g>
<g clip-path="url(#clip49_96_40352)">
<path d="M32 56L40 64" stroke="#DD483F" stroke-width="2.5"/>
<path d="M32 64L40 56" stroke="#DD483F" stroke-width="2.5"/>
</g>
<g clip-path="url(#clip50_96_40352)">
<path d="M56 56L64 64" stroke="#DD483F" stroke-width="2.5"/>
<path d="M56 64L64 56" stroke="#DD483F" stroke-width="2.5"/>
</g>
<g clip-path="url(#clip51_96_40352)">
<path d="M8 96L16 104" stroke="#5D6A46" stroke-width="2.5"/>
<path d="M8 104L16 96" stroke="#5D6A46" stroke-width="2.5"/>
</g>
<g clip-path="url(#clip52_96_40352)">
<path d="M32 96L40 104" stroke="#FCFFFE" stroke-width="2.5"/>
<path d="M32 104L40 96" stroke="#FCFFFE" stroke-width="2.5"/>
</g>
<g clip-path="url(#clip53_96_40352)">
<path d="M56 96L64 104" stroke="#5D6A46" stroke-width="2.5"/>
<path d="M56 104L64 96" stroke="#5D6A46" stroke-width="2.5"/>
</g>
<g clip-path="url(#clip54_96_40352)">
<path d="M24 56L32 64" stroke="#DD483F" stroke-width="2.5"/>
<path d="M24 64L32 56" stroke="#DD483F" stroke-width="2.5"/>
</g>
<g clip-path="url(#clip55_96_40352)">
<path d="M16 96L24 104" stroke="#5D6A46" stroke-width="2.5"/>
<path d="M16 104L24 96" stroke="#5D6A46" stroke-width="2.5"/>
</g>
<g clip-path="url(#clip56_96_40352)">
<path d="M48 96L56 104" stroke="#5D6A46" stroke-width="2.5"/>
<path d="M48 104L56 96" stroke="#5D6A46" stroke-width="2.5"/>
</g>
<g clip-path="url(#clip57_96_40352)">
<path d="M40 56L48 64" stroke="#DD483F" stroke-width="2.5"/>
<path d="M40 64L48 56" stroke="#DD483F" stroke-width="2.5"/>
</g>
<g clip-path="url(#clip58_96_40352)">
<path d="M8 72L16 80" stroke="#FEFEFE" stroke-width="2.5"/>
<path d="M8 80L16 72" stroke="#FEFEFE" stroke-width="2.5"/>
</g>
<g clip-path="url(#clip59_96_40352)">
<path d="M0 88L8 96" stroke="#5D6A46" stroke-width="2.5"/>
<path d="M0 96L8 88" stroke="#5D6A46" stroke-width="2.5"/>
</g>
<g clip-path="url(#clip60_96_40352)">
<path d="M24 88L32 96" stroke="#FCFFFE" stroke-width="2.5"/>
<path d="M24 96L32 88" stroke="#FCFFFE" stroke-width="2.5"/>
</g>
<g clip-path="url(#clip61_96_40352)">
<path d="M16 72L24 80" stroke="#FEFEFE" stroke-width="2.5"/>
<path d="M16 80L24 72" stroke="#FEFEFE" stroke-width="2.5"/>
</g>
<g clip-path="url(#clip62_96_40352)">
<path d="M16 48L24 56" stroke="#DD483F" stroke-width="2.5"/>
<path d="M16 56L24 48" stroke="#DD483F" stroke-width="2.5"/>
</g>
<g clip-path="url(#clip63_96_40352)">
<path d="M48 72L56 80" stroke="#FEFEFE" stroke-width="2.5"/>
<path d="M48 80L56 72" stroke="#FEFEFE" stroke-width="2.5"/>
</g>
<g clip-path="url(#clip64_96_40352)">
<path d="M48 48L56 56" stroke="#DD483F" stroke-width="2.5"/>
<path d="M48 56L56 48" stroke="#DD483F" stroke-width="2.5"/>
</g>
<g clip-path="url(#clip65_96_40352)">
<path d="M40 32L48 40" stroke="#DD483F" stroke-width="2.5"/>
<path d="M40 40L48 32" stroke="#DD483F" stroke-width="2.5"/>
</g>
<g clip-path="url(#clip66_96_40352)">
<path d="M40 88L48 96" stroke="#FCFFFE" stroke-width="2.5"/>
<path d="M40 96L48 88" stroke="#FCFFFE" stroke-width="2.5"/>
</g>
<g clip-path="url(#clip67_96_40352)">
<path d="M64 88L72 96" stroke="#5D6A46" stroke-width="2.5"/>
<path d="M64 96L72 88" stroke="#5D6A46" stroke-width="2.5"/>
</g>
<g clip-path="url(#clip68_96_40352)">
<path d="M32 72L40 80" stroke="#F9CBAB" stroke-width="2.5"/>
<path d="M32 80L40 72" stroke="#F9CBAB" stroke-width="2.5"/>
</g>
<g clip-path="url(#clip69_96_40352)">
<path d="M32 48L40 56" stroke="#DD483F" stroke-width="2.5"/>
<path d="M32 56L40 48" stroke="#DD483F" stroke-width="2.5"/>
</g>
<g clip-path="url(#clip70_96_40352)">
<path d="M24 32L32 40" stroke="#DD483F" stroke-width="2.5"/>
<path d="M24 40L32 32" stroke="#DD483F" stroke-width="2.5"/>
</g>
<g clip-path="url(#clip71_96_40352)">
<path d="M16 32L24 40" stroke="#DD483F" stroke-width="2.5"/>
<path d="M16 40L24 32" stroke="#DD483F" stroke-width="2.5"/>
</g>
<g clip-path="url(#clip72_96_40352)">
<path d="M56 72L64 80" stroke="#FEFEFE" stroke-width="2.5"/>
<path d="M56 80L64 72" stroke="#FEFEFE" stroke-width="2.5"/>
</g>
<g clip-path="url(#clip73_96_40352)">
<path d="M56 48L64 56" stroke="#DD483F" stroke-width="2.5"/>
<path d="M56 56L64 48" stroke="#DD483F" stroke-width="2.5"/>
</g>
<g clip-path="url(#clip74_96_40352)">
<path d="M40 16L48 24" stroke="#DD483F" stroke-width="2.5"/>
<path d="M40 24L48 16" stroke="#DD483F" stroke-width="2.5"/>
</g>
<g clip-path="url(#clip75_96_40352)">
<path d="M8 88L16 96" stroke="#5D6A46" stroke-width="2.5"/>
<path d="M8 96L16 88" stroke="#5D6A46" stroke-width="2.5"/>
</g>
<g clip-path="url(#clip76_96_40352)">
<path d="M32 88L40 96" stroke="#FCFFFE" stroke-width="2.5"/>
<path d="M32 96L40 88" stroke="#FCFFFE" stroke-width="2.5"/>
</g>
<g clip-path="url(#clip77_96_40352)">
<path d="M56 88L64 96" stroke="#5D6A46" stroke-width="2.5"/>
<path d="M56 96L64 88" stroke="#5D6A46" stroke-width="2.5"/>
</g>
<g clip-path="url(#clip78_96_40352)">
<path d="M24 72L32 80" stroke="#FCFFFE" stroke-width="2.5"/>
<path d="M24 80L32 72" stroke="#FCFFFE" stroke-width="2.5"/>
</g>
<g clip-path="url(#clip79_96_40352)">
<path d="M24 48L32 56" stroke="#DD483F" stroke-width="2.5"/>
<path d="M24 56L32 48" stroke="#DD483F" stroke-width="2.5"/>
</g>
<g clip-path="url(#clip80_96_40352)">
<path d="M48 32L56 40" stroke="#DD483F" stroke-width="2.5"/>
<path d="M48 40L56 32" stroke="#DD483F" stroke-width="2.5"/>
</g>
<g clip-path="url(#clip81_96_40352)">
<path d="M16 88L24 96" stroke="#5D6A46" stroke-width="2.5"/>
<path d="M16 96L24 88" stroke="#5D6A46" stroke-width="2.5"/>
</g>
<g clip-path="url(#clip82_96_40352)">
<path d="M48 88L56 96" stroke="#5D6A46" stroke-width="2.5"/>
<path d="M48 96L56 88" stroke="#5D6A46" stroke-width="2.5"/>
</g>
<g clip-path="url(#clip83_96_40352)">
<path d="M40 72L48 80" stroke="#FCFFFE" stroke-width="2.5"/>
<path d="M40 80L48 72" stroke="#FCFFFE" stroke-width="2.5"/>
</g>
<g clip-path="url(#clip84_96_40352)">
<path d="M40 48L48 56" stroke="#DD483F" stroke-width="2.5"/>
<path d="M40 56L48 48" stroke="#DD483F" stroke-width="2.5"/>
</g>
<g clip-path="url(#clip85_96_40352)">
<path d="M32 32L40 40" stroke="#DD483F" stroke-width="2.5"/>
<path d="M32 40L40 32" stroke="#DD483F" stroke-width="2.5"/>
</g>
<g clip-path="url(#clip86_96_40352)">
<path d="M8 64L16 72" stroke="#FEFEFE" stroke-width="2.5"/>
<path d="M8 72L16 64" stroke="#FEFEFE" stroke-width="2.5"/>
</g>
<g clip-path="url(#clip87_96_40352)">
<path d="M8 48L16 56" stroke="#DD483F" stroke-width="2.5"/>
<path d="M8 56L16 48" stroke="#DD483F" stroke-width="2.5"/>
</g>
<g clip-path="url(#clip88_96_40352)">
<path d="M24 16L32 24" stroke="#DD483F" stroke-width="2.5"/>
<path d="M24 24L32 16" stroke="#DD483F" stroke-width="2.5"/>
</g>
<g clip-path="url(#clip89_96_40352)">
<path d="M32 8L40 16" stroke="#DD483F" stroke-width="2.5"/>
<path d="M32 16L40 8" stroke="#DD483F" stroke-width="2.5"/>
</g>
<g clip-path="url(#clip90_96_40352)">
<path d="M32 0L40 8" stroke="#DD483F" stroke-width="2.5"/>
<path d="M32 8L40 2.73828e-07" stroke="#DD483F" stroke-width="2.5"/>
</g>
<g clip-path="url(#clip91_96_40352)">
<path d="M16 64L24 72" stroke="#FEFEFE" stroke-width="2.5"/>
<path d="M16 72L24 64" stroke="#FEFEFE" stroke-width="2.5"/>
</g>
<g clip-path="url(#clip92_96_40352)">
<path d="M16 40L24 48" stroke="#DD483F" stroke-width="2.5"/>
<path d="M16 48L24 40" stroke="#DD483F" stroke-width="2.5"/>
</g>
<g clip-path="url(#clip93_96_40352)">
<path d="M48 64L56 72" stroke="#FEFEFE" stroke-width="2.5"/>
<path d="M48 72L56 64" stroke="#FEFEFE" stroke-width="2.5"/>
</g>
<g clip-path="url(#clip94_96_40352)">
<path d="M48 40L56 48" stroke="#DD483F" stroke-width="2.5"/>
<path d="M48 48L56 40" stroke="#DD483F" stroke-width="2.5"/>
</g>
<g clip-path="url(#clip95_96_40352)">
<path d="M32 24L40 32" stroke="#DD483F" stroke-width="2.5"/>
<path d="M32 32L40 24" stroke="#DD483F" stroke-width="2.5"/>
</g>
<g clip-path="url(#clip96_96_40352)">
<path d="M32 64L40 72" stroke="#F9CBAB" stroke-width="2.5"/>
<path d="M32 72L40 64" stroke="#F9CBAB" stroke-width="2.5"/>
</g>
<g clip-path="url(#clip97_96_40352)">
<path d="M32 40L40 48" stroke="#DD483F" stroke-width="2.5"/>
<path d="M32 48L40 40" stroke="#DD483F" stroke-width="2.5"/>
</g>
<g clip-path="url(#clip98_96_40352)">
<path d="M56 64L64 72" stroke="#FEFEFE" stroke-width="2.5"/>
<path d="M56 72L64 64" stroke="#FEFEFE" stroke-width="2.5"/>
</g>
<g clip-path="url(#clip99_96_40352)">
<path d="M56 40L64 48" stroke="#DD483F" stroke-width="2.5"/>
<path d="M56 48L64 40" stroke="#DD483F" stroke-width="2.5"/>
</g>
<g clip-path="url(#clip100_96_40352)">
<path d="M48 24L56 32" stroke="#DD483F" stroke-width="2.5"/>
<path d="M48 32L56 24" stroke="#DD483F" stroke-width="2.5"/>
</g>
<g clip-path="url(#clip101_96_40352)">
<path d="M40 8L48 16" stroke="#DD483F" stroke-width="2.5"/>
<path d="M40 16L48 8" stroke="#DD483F" stroke-width="2.5"/>
</g>
<g clip-path="url(#clip102_96_40352)">
<path d="M8 56L16 64" stroke="#DD483F" stroke-width="2.5"/>
<path d="M8 64L16 56" stroke="#DD483F" stroke-width="2.5"/>
</g>
<g clip-path="url(#clip103_96_40352)">
<path d="M24 24L32 32" stroke="#DD483F" stroke-width="2.5"/>
<path d="M24 32L32 24" stroke="#DD483F" stroke-width="2.5"/>
</g>
<g clip-path="url(#clip104_96_40352)">
<path d="M32 16L40 24" stroke="#DD483F" stroke-width="2.5"/>
<path d="M32 24L40 16" stroke="#DD483F" stroke-width="2.5"/>
</g>
<g clip-path="url(#clip105_96_40352)">
<path d="M8 40L16 48" stroke="#DD483F" stroke-width="2.5"/>
<path d="M8 48L16 40" stroke="#DD483F" stroke-width="2.5"/>
</g>
<g clip-path="url(#clip106_96_40352)">
<path d="M16 24L24 32" stroke="#DD483F" stroke-width="2.5"/>
<path d="M16 32L24 24" stroke="#DD483F" stroke-width="2.5"/>
</g>
<g clip-path="url(#clip107_96_40352)">
<path d="M24 8L32 16" stroke="#DD483F" stroke-width="2.5"/>
<path d="M24 16L32 8" stroke="#DD483F" stroke-width="2.5"/>
</g>
<defs>
<clipPath id="clip0_96_40352">
<rect width="8" height="8" fill="white" transform="translate(0 120)"/>
</clipPath>
<clipPath id="clip1_96_40352">
<rect width="8" height="8" fill="white" transform="translate(8 120)"/>
</clipPath>
<clipPath id="clip2_96_40352">
<rect width="8" height="8" fill="white" transform="translate(24 64)"/>
</clipPath>
<clipPath id="clip3_96_40352">
<rect width="8" height="8" fill="white" transform="translate(24 40)"/>
</clipPath>
<clipPath id="clip4_96_40352">
<rect width="8" height="8" fill="white" transform="translate(40 24)"/>
</clipPath>
<clipPath id="clip5_96_40352">
<rect width="8" height="8" fill="white" transform="translate(40 64)"/>
</clipPath>
<clipPath id="clip6_96_40352">
<rect width="8" height="8" fill="white" transform="translate(40 40)"/>
</clipPath>
<clipPath id="clip7_96_40352">
<rect width="8" height="8" fill="white" transform="translate(0 112)"/>
</clipPath>
<clipPath id="clip8_96_40352">
<rect width="8" height="8" fill="white" transform="translate(24 112)"/>
</clipPath>
<clipPath id="clip9_96_40352">
<rect width="8" height="8" fill="white" transform="translate(24 120)"/>
</clipPath>
<clipPath id="clip10_96_40352">
<rect width="8" height="8" fill="white" transform="translate(24 128)"/>
</clipPath>
<clipPath id="clip11_96_40352">
<rect width="8" height="8" fill="white" transform="translate(40 112)"/>
</clipPath>
<clipPath id="clip12_96_40352">
<rect width="8" height="8" fill="white" transform="translate(40 120)"/>
</clipPath>
<clipPath id="clip13_96_40352">
<rect width="8" height="8" fill="white" transform="translate(40 128)"/>
</clipPath>
<clipPath id="clip14_96_40352">
<rect width="8" height="8" fill="white" transform="translate(64 112)"/>
</clipPath>
<clipPath id="clip15_96_40352">
<rect width="8" height="8" fill="white" transform="translate(64 120)"/>
</clipPath>
<clipPath id="clip16_96_40352">
<rect width="8" height="8" fill="white" transform="translate(8 112)"/>
</clipPath>
<clipPath id="clip17_96_40352">
<rect width="8" height="8" fill="white" transform="translate(32 112)"/>
</clipPath>
<clipPath id="clip18_96_40352">
<rect width="8" height="8" fill="white" transform="translate(32 120)"/>
</clipPath>
<clipPath id="clip19_96_40352">
<rect width="8" height="8" fill="white" transform="translate(56 112)"/>
</clipPath>
<clipPath id="clip20_96_40352">
<rect width="8" height="8" fill="white" transform="translate(56 120)"/>
</clipPath>
<clipPath id="clip21_96_40352">
<rect width="8" height="8" fill="white" transform="translate(16 112)"/>
</clipPath>
<clipPath id="clip22_96_40352">
<rect width="8" height="8" fill="white" transform="translate(16 120)"/>
</clipPath>
<clipPath id="clip23_96_40352">
<rect width="8" height="8" fill="white" transform="translate(16 128)"/>
</clipPath>
<clipPath id="clip24_96_40352">
<rect width="8" height="8" fill="white" transform="translate(48 112)"/>
</clipPath>
<clipPath id="clip25_96_40352">
<rect width="8" height="8" fill="white" transform="translate(48 120)"/>
</clipPath>
<clipPath id="clip26_96_40352">
<rect width="8" height="8" fill="white" transform="translate(48 128)"/>
</clipPath>
<clipPath id="clip27_96_40352">
<rect width="8" height="8" fill="white" transform="translate(8 80)"/>
</clipPath>
<clipPath id="clip28_96_40352">
<rect width="8" height="8" fill="white" transform="translate(0 104)"/>
</clipPath>
<clipPath id="clip29_96_40352">
<rect width="8" height="8" fill="white" transform="translate(24 104)"/>
</clipPath>
<clipPath id="clip30_96_40352">
<rect width="8" height="8" fill="white" transform="translate(16 80)"/>
</clipPath>
<clipPath id="clip31_96_40352">
<rect width="8" height="8" fill="white" transform="translate(48 80)"/>
</clipPath>
<clipPath id="clip32_96_40352">
<rect width="8" height="8" fill="white" transform="translate(40 104)"/>
</clipPath>
<clipPath id="clip33_96_40352">
<rect width="8" height="8" fill="white" transform="translate(64 104)"/>
</clipPath>
<clipPath id="clip34_96_40352">
<rect width="8" height="8" fill="white" transform="translate(32 80)"/>
</clipPath>
<clipPath id="clip35_96_40352">
<rect width="8" height="8" fill="white" transform="translate(56 80)"/>
</clipPath>
<clipPath id="clip36_96_40352">
<rect width="8" height="8" fill="white" transform="translate(8 104)"/>
</clipPath>
<clipPath id="clip37_96_40352">
<rect width="8" height="8" fill="white" transform="translate(32 104)"/>
</clipPath>
<clipPath id="clip38_96_40352">
<rect width="8" height="8" fill="white" transform="translate(56 104)"/>
</clipPath>
<clipPath id="clip39_96_40352">
<rect width="8" height="8" fill="white" transform="translate(24 80)"/>
</clipPath>
<clipPath id="clip40_96_40352">
<rect width="8" height="8" fill="white" transform="translate(16 104)"/>
</clipPath>
<clipPath id="clip41_96_40352">
<rect width="8" height="8" fill="white" transform="translate(48 104)"/>
</clipPath>
<clipPath id="clip42_96_40352">
<rect width="8" height="8" fill="white" transform="translate(40 80)"/>
</clipPath>
<clipPath id="clip43_96_40352">
<rect width="8" height="8" fill="white" transform="translate(0 96)"/>
</clipPath>
<clipPath id="clip44_96_40352">
<rect width="8" height="8" fill="white" transform="translate(24 96)"/>
</clipPath>
<clipPath id="clip45_96_40352">
<rect width="8" height="8" fill="white" transform="translate(16 56)"/>
</clipPath>
<clipPath id="clip46_96_40352">
<rect width="8" height="8" fill="white" transform="translate(48 56)"/>
</clipPath>
<clipPath id="clip47_96_40352">
<rect width="8" height="8" fill="white" transform="translate(40 96)"/>
</clipPath>
<clipPath id="clip48_96_40352">
<rect width="8" height="8" fill="white" transform="translate(64 96)"/>
</clipPath>
<clipPath id="clip49_96_40352">
<rect width="8" height="8" fill="white" transform="translate(32 56)"/>
</clipPath>
<clipPath id="clip50_96_40352">
<rect width="8" height="8" fill="white" transform="translate(56 56)"/>
</clipPath>
<clipPath id="clip51_96_40352">
<rect width="8" height="8" fill="white" transform="translate(8 96)"/>
</clipPath>
<clipPath id="clip52_96_40352">
<rect width="8" height="8" fill="white" transform="translate(32 96)"/>
</clipPath>
<clipPath id="clip53_96_40352">
<rect width="8" height="8" fill="white" transform="translate(56 96)"/>
</clipPath>
<clipPath id="clip54_96_40352">
<rect width="8" height="8" fill="white" transform="translate(24 56)"/>
</clipPath>
<clipPath id="clip55_96_40352">
<rect width="8" height="8" fill="white" transform="translate(16 96)"/>
</clipPath>
<clipPath id="clip56_96_40352">
<rect width="8" height="8" fill="white" transform="translate(48 96)"/>
</clipPath>
<clipPath id="clip57_96_40352">
<rect width="8" height="8" fill="white" transform="translate(40 56)"/>
</clipPath>
<clipPath id="clip58_96_40352">
<rect width="8" height="8" fill="white" transform="translate(8 72)"/>
</clipPath>
<clipPath id="clip59_96_40352">
<rect width="8" height="8" fill="white" transform="translate(0 88)"/>
</clipPath>
<clipPath id="clip60_96_40352">
<rect width="8" height="8" fill="white" transform="translate(24 88)"/>
</clipPath>
<clipPath id="clip61_96_40352">
<rect width="8" height="8" fill="white" transform="translate(16 72)"/>
</clipPath>
<clipPath id="clip62_96_40352">
<rect width="8" height="8" fill="white" transform="translate(16 48)"/>
</clipPath>
<clipPath id="clip63_96_40352">
<rect width="8" height="8" fill="white" transform="translate(48 72)"/>
</clipPath>
<clipPath id="clip64_96_40352">
<rect width="8" height="8" fill="white" transform="translate(48 48)"/>
</clipPath>
<clipPath id="clip65_96_40352">
<rect width="8" height="8" fill="white" transform="translate(40 32)"/>
</clipPath>
<clipPath id="clip66_96_40352">
<rect width="8" height="8" fill="white" transform="translate(40 88)"/>
</clipPath>
<clipPath id="clip67_96_40352">
<rect width="8" height="8" fill="white" transform="translate(64 88)"/>
</clipPath>
<clipPath id="clip68_96_40352">
<rect width="8" height="8" fill="white" transform="translate(32 72)"/>
</clipPath>
<clipPath id="clip69_96_40352">
<rect width="8" height="8" fill="white" transform="translate(32 48)"/>
</clipPath>
<clipPath id="clip70_96_40352">
<rect width="8" height="8" fill="white" transform="translate(24 32)"/>
</clipPath>
<clipPath id="clip71_96_40352">
<rect width="8" height="8" fill="white" transform="translate(16 32)"/>
</clipPath>
<clipPath id="clip72_96_40352">
<rect width="8" height="8" fill="white" transform="translate(56 72)"/>
</clipPath>
<clipPath id="clip73_96_40352">
<rect width="8" height="8" fill="white" transform="translate(56 48)"/>
</clipPath>
<clipPath id="clip74_96_40352">
<rect width="8" height="8" fill="white" transform="translate(40 16)"/>
</clipPath>
<clipPath id="clip75_96_40352">
<rect width="8" height="8" fill="white" transform="translate(8 88)"/>
</clipPath>
<clipPath id="clip76_96_40352">
<rect width="8" height="8" fill="white" transform="translate(32 88)"/>
</clipPath>
<clipPath id="clip77_96_40352">
<rect width="8" height="8" fill="white" transform="translate(56 88)"/>
</clipPath>
<clipPath id="clip78_96_40352">
<rect width="8" height="8" fill="white" transform="translate(24 72)"/>
</clipPath>
<clipPath id="clip79_96_40352">
<rect width="8" height="8" fill="white" transform="translate(24 48)"/>
</clipPath>
<clipPath id="clip80_96_40352">
<rect width="8" height="8" fill="white" transform="translate(48 32)"/>
</clipPath>
<clipPath id="clip81_96_40352">
<rect width="8" height="8" fill="white" transform="translate(16 88)"/>
</clipPath>
<clipPath id="clip82_96_40352">
<rect width="8" height="8" fill="white" transform="translate(48 88)"/>
</clipPath>
<clipPath id="clip83_96_40352">
<rect width="8" height="8" fill="white" transform="translate(40 72)"/>
</clipPath>
<clipPath id="clip84_96_40352">
<rect width="8" height="8" fill="white" transform="translate(40 48)"/>
</clipPath>
<clipPath id="clip85_96_40352">
<rect width="8" height="8" fill="white" transform="translate(32 32)"/>
</clipPath>
<clipPath id="clip86_96_40352">
<rect width="8" height="8" fill="white" transform="translate(8 64)"/>
</clipPath>
<clipPath id="clip87_96_40352">
<rect width="8" height="8" fill="white" transform="translate(8 48)"/>
</clipPath>
<clipPath id="clip88_96_40352">
<rect width="8" height="8" fill="white" transform="translate(24 16)"/>
</clipPath>
<clipPath id="clip89_96_40352">
<rect width="8" height="8" fill="white" transform="translate(32 8)"/>
</clipPath>
<clipPath id="clip90_96_40352">
<rect width="8" height="8" fill="white" transform="translate(32)"/>
</clipPath>
<clipPath id="clip91_96_40352">
<rect width="8" height="8" fill="white" transform="translate(16 64)"/>
</clipPath>
<clipPath id="clip92_96_40352">
<rect width="8" height="8" fill="white" transform="translate(16 40)"/>
</clipPath>
<clipPath id="clip93_96_40352">
<rect width="8" height="8" fill="white" transform="translate(48 64)"/>
</clipPath>
<clipPath id="clip94_96_40352">
<rect width="8" height="8" fill="white" transform="translate(48 40)"/>
</clipPath>
<clipPath id="clip95_96_40352">
<rect width="8" height="8" fill="white" transform="translate(32 24)"/>
</clipPath>
<clipPath id="clip96_96_40352">
<rect width="8" height="8" fill="white" transform="translate(32 64)"/>
</clipPath>
<clipPath id="clip97_96_40352">
<rect width="8" height="8" fill="white" transform="translate(32 40)"/>
</clipPath>
<clipPath id="clip98_96_40352">
<rect width="8" height="8" fill="white" transform="translate(56 64)"/>
</clipPath>
<clipPath id="clip99_96_40352">
<rect width="8" height="8" fill="white" transform="translate(56 40)"/>
</clipPath>
<clipPath id="clip100_96_40352">
<rect width="8" height="8" fill="white" transform="translate(48 24)"/>
</clipPath>
<clipPath id="clip101_96_40352">
<rect width="8" height="8" fill="white" transform="translate(40 8)"/>
</clipPath>
<clipPath id="clip102_96_40352">
<rect width="8" height="8" fill="white" transform="translate(8 56)"/>
</clipPath>
<clipPath id="clip103_96_40352">
<rect width="8" height="8" fill="white" transform="translate(24 24)"/>
</clipPath>
<clipPath id="clip104_96_40352">
<rect width="8" height="8" fill="white" transform="translate(32 16)"/>
</clipPath>
<clipPath id="clip105_96_40352">
<rect width="8" height="8" fill="white" transform="translate(8 40)"/>
</clipPath>
<clipPath id="clip106_96_40352">
<rect width="8" height="8" fill="white" transform="translate(16 24)"/>
</clipPath>
<clipPath id="clip107_96_40352">
<rect width="8" height="8" fill="white" transform="translate(24 8)"/>
</clipPath>
</defs>
</svg>
