<svg width="128" height="128" viewBox="0 0 128 128" fill="none" xmlns="http://www.w3.org/2000/svg">
<g clip-path="url(#clip0_96_13774)">
<path d="M40 0L48 8" stroke="#FECC04" stroke-width="2.5"/>
<path d="M40 8L48 2.73828e-07" stroke="#FECC04" stroke-width="2.5"/>
</g>
<g clip-path="url(#clip1_96_13774)">
<path d="M24 8L32 16" stroke="#FECC04" stroke-width="2.5"/>
<path d="M24 16L32 8" stroke="#FECC04" stroke-width="2.5"/>
</g>
<g clip-path="url(#clip2_96_13774)">
<path d="M88 8L96 16" stroke="#FECC04" stroke-width="2.5"/>
<path d="M88 16L96 8" stroke="#FECC04" stroke-width="2.5"/>
</g>
<g clip-path="url(#clip3_96_13774)">
<path d="M104 24L112 32" stroke="#FECC04" stroke-width="2.5"/>
<path d="M104 32L112 24" stroke="#FECC04" stroke-width="2.5"/>
</g>
<g clip-path="url(#clip4_96_13774)">
<path d="M16 16L24 24" stroke="#FECC04" stroke-width="2.5"/>
<path d="M16 24L24 16" stroke="#FECC04" stroke-width="2.5"/>
</g>
<g clip-path="url(#clip5_96_13774)">
<path d="M8 24L16 32" stroke="#FECC04" stroke-width="2.5"/>
<path d="M8 32L16 24" stroke="#FECC04" stroke-width="2.5"/>
</g>
<g clip-path="url(#clip6_96_13774)">
<path d="M0 48L8 56" stroke="#FECC04" stroke-width="2.5"/>
<path d="M0 56L8 48" stroke="#FECC04" stroke-width="2.5"/>
</g>
<g clip-path="url(#clip7_96_13774)">
<path d="M104 48L112 56" stroke="#FECC04" stroke-width="2.5"/>
<path d="M104 56L112 48" stroke="#FECC04" stroke-width="2.5"/>
</g>
<g clip-path="url(#clip8_96_13774)">
<path d="M64 0L72 8" stroke="#FECC04" stroke-width="2.5"/>
<path d="M64 8L72 2.73828e-07" stroke="#FECC04" stroke-width="2.5"/>
</g>
<g clip-path="url(#clip9_96_13774)">
<path d="M64 104L72 112" stroke="#FECC04" stroke-width="2.5"/>
<path d="M64 112L72 104" stroke="#FECC04" stroke-width="2.5"/>
</g>
<g clip-path="url(#clip10_96_13774)">
<path d="M48 0L56 8" stroke="#FECC04" stroke-width="2.5"/>
<path d="M48 8L56 2.73828e-07" stroke="#FECC04" stroke-width="2.5"/>
</g>
<g clip-path="url(#clip11_96_13774)">
<path d="M48 104L56 112" stroke="#FECC04" stroke-width="2.5"/>
<path d="M48 112L56 104" stroke="#FECC04" stroke-width="2.5"/>
</g>
<g clip-path="url(#clip12_96_13774)">
<path d="M40 96L48 104" stroke="#F49E2F" stroke-width="2.5"/>
<path d="M40 104L48 96" stroke="#F49E2F" stroke-width="2.5"/>
</g>
<g clip-path="url(#clip13_96_13774)">
<path d="M32 96L40 104" stroke="#FECC04" stroke-width="2.5"/>
<path d="M32 104L40 96" stroke="#FECC04" stroke-width="2.5"/>
</g>
<g clip-path="url(#clip14_96_13774)">
<path d="M32 8L40 16" stroke="#FECC04" stroke-width="2.5"/>
<path d="M32 16L40 8" stroke="#FECC04" stroke-width="2.5"/>
</g>
<g clip-path="url(#clip15_96_13774)">
<path d="M96 8L104 16" stroke="#F49E2F" stroke-width="2.5"/>
<path d="M96 16L104 8" stroke="#F49E2F" stroke-width="2.5"/>
</g>
<g clip-path="url(#clip16_96_13774)">
<path d="M112 24L120 32" stroke="#C67518" stroke-width="2.5"/>
<path d="M112 32L120 24" stroke="#C67518" stroke-width="2.5"/>
</g>
<g clip-path="url(#clip17_96_13774)">
<path d="M16 24L24 32" stroke="#F1E7BF" stroke-width="2.5"/>
<path d="M16 32L24 24" stroke="#F1E7BF" stroke-width="2.5"/>
</g>
<g clip-path="url(#clip18_96_13774)">
<path d="M8 48L16 56" stroke="#F1E7BF" stroke-width="2.5"/>
<path d="M8 56L16 48" stroke="#F1E7BF" stroke-width="2.5"/>
</g>
<g clip-path="url(#clip19_96_13774)">
<path d="M112 48L120 56" stroke="#FECC04" stroke-width="2.5"/>
<path d="M112 56L120 48" stroke="#FECC04" stroke-width="2.5"/>
</g>
<g clip-path="url(#clip20_96_13774)">
<path d="M72 0L80 8" stroke="#FECC04" stroke-width="2.5"/>
<path d="M72 8L80 2.73828e-07" stroke="#FECC04" stroke-width="2.5"/>
</g>
<g clip-path="url(#clip21_96_13774)">
<path d="M72 104L80 112" stroke="#F1E7BF" stroke-width="2.5"/>
<path d="M72 112L80 104" stroke="#F1E7BF" stroke-width="2.5"/>
</g>
<g clip-path="url(#clip22_96_13774)">
<path d="M56 0L64 8" stroke="#FECC04" stroke-width="2.5"/>
<path d="M56 8L64 2.73828e-07" stroke="#FECC04" stroke-width="2.5"/>
</g>
<g clip-path="url(#clip23_96_13774)">
<path d="M56 104L64 112" stroke="#FECC04" stroke-width="2.5"/>
<path d="M56 112L64 104" stroke="#FECC04" stroke-width="2.5"/>
</g>
<g clip-path="url(#clip24_96_13774)">
<path d="M80 0L88 8" stroke="#F49E2F" stroke-width="2.5"/>
<path d="M80 8L88 2.73828e-07" stroke="#F49E2F" stroke-width="2.5"/>
</g>
<g clip-path="url(#clip25_96_13774)">
<path d="M80 104L88 112" stroke="#F1E7BF" stroke-width="2.5"/>
<path d="M80 112L88 104" stroke="#F1E7BF" stroke-width="2.5"/>
</g>
<g clip-path="url(#clip26_96_13774)">
<path d="M40 8L48 16" stroke="#F1E7BF" stroke-width="2.5"/>
<path d="M40 16L48 8" stroke="#F1E7BF" stroke-width="2.5"/>
</g>
<g clip-path="url(#clip27_96_13774)">
<path d="M24 16L32 24" stroke="#F1E7BF" stroke-width="2.5"/>
<path d="M24 24L32 16" stroke="#F1E7BF" stroke-width="2.5"/>
</g>
<g clip-path="url(#clip28_96_13774)">
<path d="M88 16L96 24" stroke="#FECC04" stroke-width="2.5"/>
<path d="M88 24L96 16" stroke="#FECC04" stroke-width="2.5"/>
</g>
<g clip-path="url(#clip29_96_13774)">
<path d="M104 32L112 40" stroke="#FECC04" stroke-width="2.5"/>
<path d="M104 40L112 32" stroke="#FECC04" stroke-width="2.5"/>
</g>
<g clip-path="url(#clip30_96_13774)">
<path d="M96 32L104 40" stroke="#FECC04" stroke-width="2.5"/>
<path d="M96 40L104 32" stroke="#FECC04" stroke-width="2.5"/>
</g>
<g clip-path="url(#clip31_96_13774)">
<path d="M80 24L88 32" stroke="#FE8439" stroke-width="2.5"/>
<path d="M80 32L88 24" stroke="#FE8439" stroke-width="2.5"/>
</g>
<g clip-path="url(#clip32_96_13774)">
<path d="M8 32L16 40" stroke="#FECC04" stroke-width="2.5"/>
<path d="M8 40L16 32" stroke="#FECC04" stroke-width="2.5"/>
</g>
<g clip-path="url(#clip33_96_13774)">
<path d="M0 56L8 64" stroke="#FECC04" stroke-width="2.5"/>
<path d="M0 64L8 56" stroke="#FECC04" stroke-width="2.5"/>
</g>
<g clip-path="url(#clip34_96_13774)">
<path d="M104 56L112 64" stroke="#FDC658" stroke-width="2.5"/>
<path d="M104 64L112 56" stroke="#FDC658" stroke-width="2.5"/>
</g>
<g clip-path="url(#clip35_96_13774)">
<path d="M96 80L104 88" stroke="#FECC04" stroke-width="2.5"/>
<path d="M96 88L104 80" stroke="#FECC04" stroke-width="2.5"/>
</g>
<g clip-path="url(#clip36_96_13774)">
<path d="M0 72L8 80" stroke="#FECC04" stroke-width="2.5"/>
<path d="M0 80L8 72" stroke="#FECC04" stroke-width="2.5"/>
</g>
<g clip-path="url(#clip37_96_13774)">
<path d="M104 72L112 80" stroke="#F1E7BF" stroke-width="2.5"/>
<path d="M104 80L112 72" stroke="#F1E7BF" stroke-width="2.5"/>
</g>
<g clip-path="url(#clip38_96_13774)">
<path d="M96 96L104 104" stroke="#FECC04" stroke-width="2.5"/>
<path d="M96 104L104 96" stroke="#FECC04" stroke-width="2.5"/>
</g>
<g clip-path="url(#clip39_96_13774)">
<path d="M88 104L96 112" stroke="#FECC04" stroke-width="2.5"/>
<path d="M88 112L96 104" stroke="#FECC04" stroke-width="2.5"/>
</g>
<g clip-path="url(#clip40_96_13774)">
<path d="M88 112L96 120" stroke="#C67518" stroke-width="2.5"/>
<path d="M88 120L96 112" stroke="#C67518" stroke-width="2.5"/>
</g>
<g clip-path="url(#clip41_96_13774)">
<path d="M88 96L96 104" stroke="#F1E7BF" stroke-width="2.5"/>
<path d="M88 104L96 96" stroke="#F1E7BF" stroke-width="2.5"/>
</g>
<g clip-path="url(#clip42_96_13774)">
<path d="M80 96L88 104" stroke="#FECC04" stroke-width="2.5"/>
<path d="M80 104L88 96" stroke="#FECC04" stroke-width="2.5"/>
</g>
<g clip-path="url(#clip43_96_13774)">
<path d="M8 88L16 96" stroke="#FECC04" stroke-width="2.5"/>
<path d="M8 96L16 88" stroke="#FECC04" stroke-width="2.5"/>
</g>
<g clip-path="url(#clip44_96_13774)">
<path d="M24 104L32 112" stroke="#FECC04" stroke-width="2.5"/>
<path d="M24 112L32 104" stroke="#FECC04" stroke-width="2.5"/>
</g>
<g clip-path="url(#clip45_96_13774)">
<path d="M64 8L72 16" stroke="#FECC04" stroke-width="2.5"/>
<path d="M64 16L72 8" stroke="#FECC04" stroke-width="2.5"/>
</g>
<g clip-path="url(#clip46_96_13774)">
<path d="M64 112L72 120" stroke="#FECC04" stroke-width="2.5"/>
<path d="M64 120L72 112" stroke="#FECC04" stroke-width="2.5"/>
</g>
<g clip-path="url(#clip47_96_13774)">
<path d="M48 8L56 16" stroke="#F1E7BF" stroke-width="2.5"/>
<path d="M48 16L56 8" stroke="#F1E7BF" stroke-width="2.5"/>
</g>
<g clip-path="url(#clip48_96_13774)">
<path d="M48 112L56 120" stroke="#FECC04" stroke-width="2.5"/>
<path d="M48 120L56 112" stroke="#FECC04" stroke-width="2.5"/>
</g>
<g clip-path="url(#clip49_96_13774)">
<path d="M32 16L40 24" stroke="#F1E7BF" stroke-width="2.5"/>
<path d="M32 24L40 16" stroke="#F1E7BF" stroke-width="2.5"/>
</g>
<g clip-path="url(#clip50_96_13774)">
<path d="M96 16L104 24" stroke="#FECC04" stroke-width="2.5"/>
<path d="M96 24L104 16" stroke="#FECC04" stroke-width="2.5"/>
</g>
<g clip-path="url(#clip51_96_13774)">
<path d="M112 32L120 40" stroke="#F49E2F" stroke-width="2.5"/>
<path d="M112 40L120 32" stroke="#F49E2F" stroke-width="2.5"/>
</g>
<g clip-path="url(#clip52_96_13774)">
<path d="M16 32L24 40" stroke="#F1E7BF" stroke-width="2.5"/>
<path d="M16 40L24 32" stroke="#F1E7BF" stroke-width="2.5"/>
</g>
<g clip-path="url(#clip53_96_13774)">
<path d="M8 56L16 64" stroke="#FECC04" stroke-width="2.5"/>
<path d="M8 64L16 56" stroke="#FECC04" stroke-width="2.5"/>
</g>
<g clip-path="url(#clip54_96_13774)">
<path d="M112 56L120 64" stroke="#FECC04" stroke-width="2.5"/>
<path d="M112 64L120 56" stroke="#FECC04" stroke-width="2.5"/>
</g>
<g clip-path="url(#clip55_96_13774)">
<path d="M104 80L112 88" stroke="#F1E7BF" stroke-width="2.5"/>
<path d="M104 88L112 80" stroke="#F1E7BF" stroke-width="2.5"/>
</g>
<g clip-path="url(#clip56_96_13774)">
<path d="M8 72L16 80" stroke="#FECC04" stroke-width="2.5"/>
<path d="M8 80L16 72" stroke="#FECC04" stroke-width="2.5"/>
</g>
<g clip-path="url(#clip57_96_13774)">
<path d="M112 72L120 80" stroke="#FECC04" stroke-width="2.5"/>
<path d="M112 80L120 72" stroke="#FECC04" stroke-width="2.5"/>
</g>
<g clip-path="url(#clip58_96_13774)">
<path d="M104 96L112 104" stroke="#FECC04" stroke-width="2.5"/>
<path d="M104 104L112 96" stroke="#FECC04" stroke-width="2.5"/>
</g>
<g clip-path="url(#clip59_96_13774)">
<path d="M96 104L104 112" stroke="#FECC04" stroke-width="2.5"/>
<path d="M96 112L104 104" stroke="#FECC04" stroke-width="2.5"/>
</g>
<g clip-path="url(#clip60_96_13774)">
<path d="M96 112L104 120" stroke="#C67518" stroke-width="2.5"/>
<path d="M96 120L104 112" stroke="#C67518" stroke-width="2.5"/>
</g>
<g clip-path="url(#clip61_96_13774)">
<path d="M16 88L24 96" stroke="#FECC04" stroke-width="2.5"/>
<path d="M16 96L24 88" stroke="#FECC04" stroke-width="2.5"/>
</g>
<g clip-path="url(#clip62_96_13774)">
<path d="M32 104L40 112" stroke="#FECC04" stroke-width="2.5"/>
<path d="M32 112L40 104" stroke="#FECC04" stroke-width="2.5"/>
</g>
<g clip-path="url(#clip63_96_13774)">
<path d="M72 8L80 16" stroke="#FECC04" stroke-width="2.5"/>
<path d="M72 16L80 8" stroke="#FECC04" stroke-width="2.5"/>
</g>
<g clip-path="url(#clip64_96_13774)">
<path d="M72 112L80 120" stroke="#FECC04" stroke-width="2.5"/>
<path d="M72 120L80 112" stroke="#FECC04" stroke-width="2.5"/>
</g>
<g clip-path="url(#clip65_96_13774)">
<path d="M56 8L64 16" stroke="#FDC658" stroke-width="2.5"/>
<path d="M56 16L64 8" stroke="#FDC658" stroke-width="2.5"/>
</g>
<g clip-path="url(#clip66_96_13774)">
<path d="M56 112L64 120" stroke="#FECC04" stroke-width="2.5"/>
<path d="M56 120L64 112" stroke="#FECC04" stroke-width="2.5"/>
</g>
<g clip-path="url(#clip67_96_13774)">
<path d="M80 8L88 16" stroke="#FECC04" stroke-width="2.5"/>
<path d="M80 16L88 8" stroke="#FECC04" stroke-width="2.5"/>
</g>
<g clip-path="url(#clip68_96_13774)">
<path d="M80 112L88 120" stroke="#FECC04" stroke-width="2.5"/>
<path d="M80 120L88 112" stroke="#FECC04" stroke-width="2.5"/>
</g>
<g clip-path="url(#clip69_96_13774)">
<path d="M40 16L48 24" stroke="#FECC04" stroke-width="2.5"/>
<path d="M40 24L48 16" stroke="#FECC04" stroke-width="2.5"/>
</g>
<g clip-path="url(#clip70_96_13774)">
<path d="M24 24L32 32" stroke="#FECC04" stroke-width="2.5"/>
<path d="M24 32L32 24" stroke="#FECC04" stroke-width="2.5"/>
</g>
<g clip-path="url(#clip71_96_13774)">
<path d="M88 24L96 32" stroke="#FECC04" stroke-width="2.5"/>
<path d="M88 32L96 24" stroke="#FECC04" stroke-width="2.5"/>
</g>
<g clip-path="url(#clip72_96_13774)">
<path d="M104 16L112 24" stroke="#F49E2F" stroke-width="2.5"/>
<path d="M104 24L112 16" stroke="#F49E2F" stroke-width="2.5"/>
</g>
<g clip-path="url(#clip73_96_13774)">
<path d="M104 40L112 48" stroke="#FECC04" stroke-width="2.5"/>
<path d="M104 48L112 40" stroke="#FECC04" stroke-width="2.5"/>
</g>
<g clip-path="url(#clip74_96_13774)">
<path d="M96 40L104 48" stroke="#FECC04" stroke-width="2.5"/>
<path d="M96 48L104 40" stroke="#FECC04" stroke-width="2.5"/>
</g>
<g clip-path="url(#clip75_96_13774)">
<path d="M16 48L24 56" stroke="#DC701E" stroke-width="2.5"/>
<path d="M16 56L24 48" stroke="#DC701E" stroke-width="2.5"/>
</g>
<g clip-path="url(#clip76_96_13774)">
<path d="M120 48L128 56" stroke="#F49E2F" stroke-width="2.5"/>
<path d="M120 56L128 48" stroke="#F49E2F" stroke-width="2.5"/>
</g>
<g clip-path="url(#clip77_96_13774)">
<path d="M24 40L32 48" stroke="#DC701E" stroke-width="2.5"/>
<path d="M24 48L32 40" stroke="#DC701E" stroke-width="2.5"/>
</g>
<g clip-path="url(#clip78_96_13774)">
<path d="M16 64L24 72" stroke="#DC701E" stroke-width="2.5"/>
<path d="M16 72L24 64" stroke="#DC701E" stroke-width="2.5"/>
</g>
<g clip-path="url(#clip79_96_13774)">
<path d="M120 64L128 72" stroke="#C67518" stroke-width="2.5"/>
<path d="M120 72L128 64" stroke="#C67518" stroke-width="2.5"/>
</g>
<g clip-path="url(#clip80_96_13774)">
<path d="M112 88L120 96" stroke="#C67518" stroke-width="2.5"/>
<path d="M112 96L120 88" stroke="#C67518" stroke-width="2.5"/>
</g>
<g clip-path="url(#clip81_96_13774)">
<path d="M16 80L24 88" stroke="#F49E2F" stroke-width="2.5"/>
<path d="M16 88L24 80" stroke="#F49E2F" stroke-width="2.5"/>
</g>
<g clip-path="url(#clip82_96_13774)">
<path d="M24 96L32 104" stroke="#FECC04" stroke-width="2.5"/>
<path d="M24 104L32 96" stroke="#FECC04" stroke-width="2.5"/>
</g>
<g clip-path="url(#clip83_96_13774)">
<path d="M40 112L48 120" stroke="#F49E2F" stroke-width="2.5"/>
<path d="M40 120L48 112" stroke="#F49E2F" stroke-width="2.5"/>
</g>
<g clip-path="url(#clip84_96_13774)">
<path d="M40 120L48 128" stroke="#E96919" stroke-width="2.5"/>
<path d="M40 128L48 120" stroke="#E96919" stroke-width="2.5"/>
</g>
<g clip-path="url(#clip85_96_13774)">
<path d="M24 32L32 40" stroke="#DC701E" stroke-width="2.5"/>
<path d="M24 40L32 32" stroke="#DC701E" stroke-width="2.5"/>
</g>
<g clip-path="url(#clip86_96_13774)">
<path d="M16 56L24 64" stroke="#DC701E" stroke-width="2.5"/>
<path d="M16 64L24 56" stroke="#DC701E" stroke-width="2.5"/>
</g>
<g clip-path="url(#clip87_96_13774)">
<path d="M120 56L128 64" stroke="#F49E2F" stroke-width="2.5"/>
<path d="M120 64L128 56" stroke="#F49E2F" stroke-width="2.5"/>
</g>
<g clip-path="url(#clip88_96_13774)">
<path d="M112 80L120 88" stroke="#FECC04" stroke-width="2.5"/>
<path d="M112 88L120 80" stroke="#FECC04" stroke-width="2.5"/>
</g>
<g clip-path="url(#clip89_96_13774)">
<path d="M120 80L128 88" stroke="#C67518" stroke-width="2.5"/>
<path d="M120 88L128 80" stroke="#C67518" stroke-width="2.5"/>
</g>
<g clip-path="url(#clip90_96_13774)">
<path d="M16 72L24 80" stroke="#FE8439" stroke-width="2.5"/>
<path d="M16 80L24 72" stroke="#FE8439" stroke-width="2.5"/>
</g>
<g clip-path="url(#clip91_96_13774)">
<path d="M120 72L128 80" stroke="#C67518" stroke-width="2.5"/>
<path d="M120 80L128 72" stroke="#C67518" stroke-width="2.5"/>
</g>
<g clip-path="url(#clip92_96_13774)">
<path d="M112 96L120 104" stroke="#C67518" stroke-width="2.5"/>
<path d="M112 104L120 96" stroke="#C67518" stroke-width="2.5"/>
</g>
<g clip-path="url(#clip93_96_13774)">
<path d="M104 104L112 112" stroke="#C67518" stroke-width="2.5"/>
<path d="M104 112L112 104" stroke="#C67518" stroke-width="2.5"/>
</g>
<g clip-path="url(#clip94_96_13774)">
<path d="M24 88L32 96" stroke="#F49E2F" stroke-width="2.5"/>
<path d="M24 96L32 88" stroke="#F49E2F" stroke-width="2.5"/>
</g>
<g clip-path="url(#clip95_96_13774)">
<path d="M24 80L32 88" stroke="#FE8439" stroke-width="2.5"/>
<path d="M24 88L32 80" stroke="#FE8439" stroke-width="2.5"/>
</g>
<g clip-path="url(#clip96_96_13774)">
<path d="M40 104L48 112" stroke="#FECC04" stroke-width="2.5"/>
<path d="M40 112L48 104" stroke="#FECC04" stroke-width="2.5"/>
</g>
<g clip-path="url(#clip97_96_13774)">
<path d="M8 40L16 48" stroke="#F1E7BF" stroke-width="2.5"/>
<path d="M8 48L16 40" stroke="#F1E7BF" stroke-width="2.5"/>
</g>
<g clip-path="url(#clip98_96_13774)">
<path d="M0 64L8 72" stroke="#FECC04" stroke-width="2.5"/>
<path d="M0 72L8 64" stroke="#FECC04" stroke-width="2.5"/>
</g>
<g clip-path="url(#clip99_96_13774)">
<path d="M104 64L112 72" stroke="#FDC658" stroke-width="2.5"/>
<path d="M104 72L112 64" stroke="#FDC658" stroke-width="2.5"/>
</g>
<g clip-path="url(#clip100_96_13774)">
<path d="M96 88L104 96" stroke="#F1E7BF" stroke-width="2.5"/>
<path d="M96 96L104 88" stroke="#F1E7BF" stroke-width="2.5"/>
</g>
<g clip-path="url(#clip101_96_13774)">
<path d="M0 80L8 88" stroke="#F49E2F" stroke-width="2.5"/>
<path d="M0 88L8 80" stroke="#F49E2F" stroke-width="2.5"/>
</g>
<g clip-path="url(#clip102_96_13774)">
<path d="M8 96L16 104" stroke="#F49E2F" stroke-width="2.5"/>
<path d="M8 104L16 96" stroke="#F49E2F" stroke-width="2.5"/>
</g>
<g clip-path="url(#clip103_96_13774)">
<path d="M24 112L32 120" stroke="#FE8439" stroke-width="2.5"/>
<path d="M24 120L32 112" stroke="#FE8439" stroke-width="2.5"/>
</g>
<g clip-path="url(#clip104_96_13774)">
<path d="M0 40L8 48" stroke="#FECC04" stroke-width="2.5"/>
<path d="M0 48L8 40" stroke="#FECC04" stroke-width="2.5"/>
</g>
<g clip-path="url(#clip105_96_13774)">
<path d="M64 16L72 24" stroke="#FE8439" stroke-width="2.5"/>
<path d="M64 24L72 16" stroke="#FE8439" stroke-width="2.5"/>
</g>
<g clip-path="url(#clip106_96_13774)">
<path d="M64 120L72 128" stroke="#F49E2F" stroke-width="2.5"/>
<path d="M64 128L72 120" stroke="#F49E2F" stroke-width="2.5"/>
</g>
<g clip-path="url(#clip107_96_13774)">
<path d="M48 16L56 24" stroke="#DC701E" stroke-width="2.5"/>
<path d="M48 24L56 16" stroke="#DC701E" stroke-width="2.5"/>
</g>
<g clip-path="url(#clip108_96_13774)">
<path d="M48 120L56 128" stroke="#E96919" stroke-width="2.5"/>
<path d="M48 128L56 120" stroke="#E96919" stroke-width="2.5"/>
</g>
<g clip-path="url(#clip109_96_13774)">
<path d="M32 24L40 32" stroke="#DC701E" stroke-width="2.5"/>
<path d="M32 32L40 24" stroke="#DC701E" stroke-width="2.5"/>
</g>
<g clip-path="url(#clip110_96_13774)">
<path d="M96 24L104 32" stroke="#FECC04" stroke-width="2.5"/>
<path d="M96 32L104 24" stroke="#FECC04" stroke-width="2.5"/>
</g>
<g clip-path="url(#clip111_96_13774)">
<path d="M112 40L120 48" stroke="#FECC04" stroke-width="2.5"/>
<path d="M112 48L120 40" stroke="#FECC04" stroke-width="2.5"/>
</g>
<g clip-path="url(#clip112_96_13774)">
<path d="M120 40L128 48" stroke="#C67518" stroke-width="2.5"/>
<path d="M120 48L128 40" stroke="#C67518" stroke-width="2.5"/>
</g>
<g clip-path="url(#clip113_96_13774)">
<path d="M40 24L48 32" stroke="#DC701E" stroke-width="2.5"/>
<path d="M40 32L48 24" stroke="#DC701E" stroke-width="2.5"/>
</g>
<g clip-path="url(#clip114_96_13774)">
<path d="M16 40L24 48" stroke="#FECC04" stroke-width="2.5"/>
<path d="M16 48L24 40" stroke="#FECC04" stroke-width="2.5"/>
</g>
<g clip-path="url(#clip115_96_13774)">
<path d="M8 64L16 72" stroke="#FECC04" stroke-width="2.5"/>
<path d="M8 72L16 64" stroke="#FECC04" stroke-width="2.5"/>
</g>
<g clip-path="url(#clip116_96_13774)">
<path d="M112 64L120 72" stroke="#FECC04" stroke-width="2.5"/>
<path d="M112 72L120 64" stroke="#FECC04" stroke-width="2.5"/>
</g>
<g clip-path="url(#clip117_96_13774)">
<path d="M104 88L112 96" stroke="#FECC04" stroke-width="2.5"/>
<path d="M104 96L112 88" stroke="#FECC04" stroke-width="2.5"/>
</g>
<g clip-path="url(#clip118_96_13774)">
<path d="M8 80L16 88" stroke="#FECC04" stroke-width="2.5"/>
<path d="M8 88L16 80" stroke="#FECC04" stroke-width="2.5"/>
</g>
<g clip-path="url(#clip119_96_13774)">
<path d="M16 96L24 104" stroke="#FECC04" stroke-width="2.5"/>
<path d="M16 104L24 96" stroke="#FECC04" stroke-width="2.5"/>
</g>
<g clip-path="url(#clip120_96_13774)">
<path d="M16 104L24 112" stroke="#FE8439" stroke-width="2.5"/>
<path d="M16 112L24 104" stroke="#FE8439" stroke-width="2.5"/>
</g>
<g clip-path="url(#clip121_96_13774)">
<path d="M32 112L40 120" stroke="#F49E2F" stroke-width="2.5"/>
<path d="M32 120L40 112" stroke="#F49E2F" stroke-width="2.5"/>
</g>
<g clip-path="url(#clip122_96_13774)">
<path d="M72 16L80 24" stroke="#FE8439" stroke-width="2.5"/>
<path d="M72 24L80 16" stroke="#FE8439" stroke-width="2.5"/>
</g>
<g clip-path="url(#clip123_96_13774)">
<path d="M72 120L80 128" stroke="#E96919" stroke-width="2.5"/>
<path d="M72 128L80 120" stroke="#E96919" stroke-width="2.5"/>
</g>
<g clip-path="url(#clip124_96_13774)">
<path d="M56 16L64 24" stroke="#DC701E" stroke-width="2.5"/>
<path d="M56 24L64 16" stroke="#DC701E" stroke-width="2.5"/>
</g>
<g clip-path="url(#clip125_96_13774)">
<path d="M56 120L64 128" stroke="#F49E2F" stroke-width="2.5"/>
<path d="M56 128L64 120" stroke="#F49E2F" stroke-width="2.5"/>
</g>
<g clip-path="url(#clip126_96_13774)">
<path d="M80 16L88 24" stroke="#FECC04" stroke-width="2.5"/>
<path d="M80 24L88 16" stroke="#FECC04" stroke-width="2.5"/>
</g>
<g clip-path="url(#clip127_96_13774)">
<path d="M80 120L88 128" stroke="#E96919" stroke-width="2.5"/>
<path d="M80 128L88 120" stroke="#E96919" stroke-width="2.5"/>
</g>
<defs>
<clipPath id="clip0_96_13774">
<rect width="8" height="8" fill="white" transform="translate(40)"/>
</clipPath>
<clipPath id="clip1_96_13774">
<rect width="8" height="8" fill="white" transform="translate(24 8)"/>
</clipPath>
<clipPath id="clip2_96_13774">
<rect width="8" height="8" fill="white" transform="translate(88 8)"/>
</clipPath>
<clipPath id="clip3_96_13774">
<rect width="8" height="8" fill="white" transform="translate(104 24)"/>
</clipPath>
<clipPath id="clip4_96_13774">
<rect width="8" height="8" fill="white" transform="translate(16 16)"/>
</clipPath>
<clipPath id="clip5_96_13774">
<rect width="8" height="8" fill="white" transform="translate(8 24)"/>
</clipPath>
<clipPath id="clip6_96_13774">
<rect width="8" height="8" fill="white" transform="translate(0 48)"/>
</clipPath>
<clipPath id="clip7_96_13774">
<rect width="8" height="8" fill="white" transform="translate(104 48)"/>
</clipPath>
<clipPath id="clip8_96_13774">
<rect width="8" height="8" fill="white" transform="translate(64)"/>
</clipPath>
<clipPath id="clip9_96_13774">
<rect width="8" height="8" fill="white" transform="translate(64 104)"/>
</clipPath>
<clipPath id="clip10_96_13774">
<rect width="8" height="8" fill="white" transform="translate(48)"/>
</clipPath>
<clipPath id="clip11_96_13774">
<rect width="8" height="8" fill="white" transform="translate(48 104)"/>
</clipPath>
<clipPath id="clip12_96_13774">
<rect width="8" height="8" fill="white" transform="translate(40 96)"/>
</clipPath>
<clipPath id="clip13_96_13774">
<rect width="8" height="8" fill="white" transform="translate(32 96)"/>
</clipPath>
<clipPath id="clip14_96_13774">
<rect width="8" height="8" fill="white" transform="translate(32 8)"/>
</clipPath>
<clipPath id="clip15_96_13774">
<rect width="8" height="8" fill="white" transform="translate(96 8)"/>
</clipPath>
<clipPath id="clip16_96_13774">
<rect width="8" height="8" fill="white" transform="translate(112 24)"/>
</clipPath>
<clipPath id="clip17_96_13774">
<rect width="8" height="8" fill="white" transform="translate(16 24)"/>
</clipPath>
<clipPath id="clip18_96_13774">
<rect width="8" height="8" fill="white" transform="translate(8 48)"/>
</clipPath>
<clipPath id="clip19_96_13774">
<rect width="8" height="8" fill="white" transform="translate(112 48)"/>
</clipPath>
<clipPath id="clip20_96_13774">
<rect width="8" height="8" fill="white" transform="translate(72)"/>
</clipPath>
<clipPath id="clip21_96_13774">
<rect width="8" height="8" fill="white" transform="translate(72 104)"/>
</clipPath>
<clipPath id="clip22_96_13774">
<rect width="8" height="8" fill="white" transform="translate(56)"/>
</clipPath>
<clipPath id="clip23_96_13774">
<rect width="8" height="8" fill="white" transform="translate(56 104)"/>
</clipPath>
<clipPath id="clip24_96_13774">
<rect width="8" height="8" fill="white" transform="translate(80)"/>
</clipPath>
<clipPath id="clip25_96_13774">
<rect width="8" height="8" fill="white" transform="translate(80 104)"/>
</clipPath>
<clipPath id="clip26_96_13774">
<rect width="8" height="8" fill="white" transform="translate(40 8)"/>
</clipPath>
<clipPath id="clip27_96_13774">
<rect width="8" height="8" fill="white" transform="translate(24 16)"/>
</clipPath>
<clipPath id="clip28_96_13774">
<rect width="8" height="8" fill="white" transform="translate(88 16)"/>
</clipPath>
<clipPath id="clip29_96_13774">
<rect width="8" height="8" fill="white" transform="translate(104 32)"/>
</clipPath>
<clipPath id="clip30_96_13774">
<rect width="8" height="8" fill="white" transform="translate(96 32)"/>
</clipPath>
<clipPath id="clip31_96_13774">
<rect width="8" height="8" fill="white" transform="translate(80 24)"/>
</clipPath>
<clipPath id="clip32_96_13774">
<rect width="8" height="8" fill="white" transform="translate(8 32)"/>
</clipPath>
<clipPath id="clip33_96_13774">
<rect width="8" height="8" fill="white" transform="translate(0 56)"/>
</clipPath>
<clipPath id="clip34_96_13774">
<rect width="8" height="8" fill="white" transform="translate(104 56)"/>
</clipPath>
<clipPath id="clip35_96_13774">
<rect width="8" height="8" fill="white" transform="translate(96 80)"/>
</clipPath>
<clipPath id="clip36_96_13774">
<rect width="8" height="8" fill="white" transform="translate(0 72)"/>
</clipPath>
<clipPath id="clip37_96_13774">
<rect width="8" height="8" fill="white" transform="translate(104 72)"/>
</clipPath>
<clipPath id="clip38_96_13774">
<rect width="8" height="8" fill="white" transform="translate(96 96)"/>
</clipPath>
<clipPath id="clip39_96_13774">
<rect width="8" height="8" fill="white" transform="translate(88 104)"/>
</clipPath>
<clipPath id="clip40_96_13774">
<rect width="8" height="8" fill="white" transform="translate(88 112)"/>
</clipPath>
<clipPath id="clip41_96_13774">
<rect width="8" height="8" fill="white" transform="translate(88 96)"/>
</clipPath>
<clipPath id="clip42_96_13774">
<rect width="8" height="8" fill="white" transform="translate(80 96)"/>
</clipPath>
<clipPath id="clip43_96_13774">
<rect width="8" height="8" fill="white" transform="translate(8 88)"/>
</clipPath>
<clipPath id="clip44_96_13774">
<rect width="8" height="8" fill="white" transform="translate(24 104)"/>
</clipPath>
<clipPath id="clip45_96_13774">
<rect width="8" height="8" fill="white" transform="translate(64 8)"/>
</clipPath>
<clipPath id="clip46_96_13774">
<rect width="8" height="8" fill="white" transform="translate(64 112)"/>
</clipPath>
<clipPath id="clip47_96_13774">
<rect width="8" height="8" fill="white" transform="translate(48 8)"/>
</clipPath>
<clipPath id="clip48_96_13774">
<rect width="8" height="8" fill="white" transform="translate(48 112)"/>
</clipPath>
<clipPath id="clip49_96_13774">
<rect width="8" height="8" fill="white" transform="translate(32 16)"/>
</clipPath>
<clipPath id="clip50_96_13774">
<rect width="8" height="8" fill="white" transform="translate(96 16)"/>
</clipPath>
<clipPath id="clip51_96_13774">
<rect width="8" height="8" fill="white" transform="translate(112 32)"/>
</clipPath>
<clipPath id="clip52_96_13774">
<rect width="8" height="8" fill="white" transform="translate(16 32)"/>
</clipPath>
<clipPath id="clip53_96_13774">
<rect width="8" height="8" fill="white" transform="translate(8 56)"/>
</clipPath>
<clipPath id="clip54_96_13774">
<rect width="8" height="8" fill="white" transform="translate(112 56)"/>
</clipPath>
<clipPath id="clip55_96_13774">
<rect width="8" height="8" fill="white" transform="translate(104 80)"/>
</clipPath>
<clipPath id="clip56_96_13774">
<rect width="8" height="8" fill="white" transform="translate(8 72)"/>
</clipPath>
<clipPath id="clip57_96_13774">
<rect width="8" height="8" fill="white" transform="translate(112 72)"/>
</clipPath>
<clipPath id="clip58_96_13774">
<rect width="8" height="8" fill="white" transform="translate(104 96)"/>
</clipPath>
<clipPath id="clip59_96_13774">
<rect width="8" height="8" fill="white" transform="translate(96 104)"/>
</clipPath>
<clipPath id="clip60_96_13774">
<rect width="8" height="8" fill="white" transform="translate(96 112)"/>
</clipPath>
<clipPath id="clip61_96_13774">
<rect width="8" height="8" fill="white" transform="translate(16 88)"/>
</clipPath>
<clipPath id="clip62_96_13774">
<rect width="8" height="8" fill="white" transform="translate(32 104)"/>
</clipPath>
<clipPath id="clip63_96_13774">
<rect width="8" height="8" fill="white" transform="translate(72 8)"/>
</clipPath>
<clipPath id="clip64_96_13774">
<rect width="8" height="8" fill="white" transform="translate(72 112)"/>
</clipPath>
<clipPath id="clip65_96_13774">
<rect width="8" height="8" fill="white" transform="translate(56 8)"/>
</clipPath>
<clipPath id="clip66_96_13774">
<rect width="8" height="8" fill="white" transform="translate(56 112)"/>
</clipPath>
<clipPath id="clip67_96_13774">
<rect width="8" height="8" fill="white" transform="translate(80 8)"/>
</clipPath>
<clipPath id="clip68_96_13774">
<rect width="8" height="8" fill="white" transform="translate(80 112)"/>
</clipPath>
<clipPath id="clip69_96_13774">
<rect width="8" height="8" fill="white" transform="translate(40 16)"/>
</clipPath>
<clipPath id="clip70_96_13774">
<rect width="8" height="8" fill="white" transform="translate(24 24)"/>
</clipPath>
<clipPath id="clip71_96_13774">
<rect width="8" height="8" fill="white" transform="translate(88 24)"/>
</clipPath>
<clipPath id="clip72_96_13774">
<rect width="8" height="8" fill="white" transform="translate(104 16)"/>
</clipPath>
<clipPath id="clip73_96_13774">
<rect width="8" height="8" fill="white" transform="translate(104 40)"/>
</clipPath>
<clipPath id="clip74_96_13774">
<rect width="8" height="8" fill="white" transform="translate(96 40)"/>
</clipPath>
<clipPath id="clip75_96_13774">
<rect width="8" height="8" fill="white" transform="translate(16 48)"/>
</clipPath>
<clipPath id="clip76_96_13774">
<rect width="8" height="8" fill="white" transform="translate(120 48)"/>
</clipPath>
<clipPath id="clip77_96_13774">
<rect width="8" height="8" fill="white" transform="translate(24 40)"/>
</clipPath>
<clipPath id="clip78_96_13774">
<rect width="8" height="8" fill="white" transform="translate(16 64)"/>
</clipPath>
<clipPath id="clip79_96_13774">
<rect width="8" height="8" fill="white" transform="translate(120 64)"/>
</clipPath>
<clipPath id="clip80_96_13774">
<rect width="8" height="8" fill="white" transform="translate(112 88)"/>
</clipPath>
<clipPath id="clip81_96_13774">
<rect width="8" height="8" fill="white" transform="translate(16 80)"/>
</clipPath>
<clipPath id="clip82_96_13774">
<rect width="8" height="8" fill="white" transform="translate(24 96)"/>
</clipPath>
<clipPath id="clip83_96_13774">
<rect width="8" height="8" fill="white" transform="translate(40 112)"/>
</clipPath>
<clipPath id="clip84_96_13774">
<rect width="8" height="8" fill="white" transform="translate(40 120)"/>
</clipPath>
<clipPath id="clip85_96_13774">
<rect width="8" height="8" fill="white" transform="translate(24 32)"/>
</clipPath>
<clipPath id="clip86_96_13774">
<rect width="8" height="8" fill="white" transform="translate(16 56)"/>
</clipPath>
<clipPath id="clip87_96_13774">
<rect width="8" height="8" fill="white" transform="translate(120 56)"/>
</clipPath>
<clipPath id="clip88_96_13774">
<rect width="8" height="8" fill="white" transform="translate(112 80)"/>
</clipPath>
<clipPath id="clip89_96_13774">
<rect width="8" height="8" fill="white" transform="translate(120 80)"/>
</clipPath>
<clipPath id="clip90_96_13774">
<rect width="8" height="8" fill="white" transform="translate(16 72)"/>
</clipPath>
<clipPath id="clip91_96_13774">
<rect width="8" height="8" fill="white" transform="translate(120 72)"/>
</clipPath>
<clipPath id="clip92_96_13774">
<rect width="8" height="8" fill="white" transform="translate(112 96)"/>
</clipPath>
<clipPath id="clip93_96_13774">
<rect width="8" height="8" fill="white" transform="translate(104 104)"/>
</clipPath>
<clipPath id="clip94_96_13774">
<rect width="8" height="8" fill="white" transform="translate(24 88)"/>
</clipPath>
<clipPath id="clip95_96_13774">
<rect width="8" height="8" fill="white" transform="translate(24 80)"/>
</clipPath>
<clipPath id="clip96_96_13774">
<rect width="8" height="8" fill="white" transform="translate(40 104)"/>
</clipPath>
<clipPath id="clip97_96_13774">
<rect width="8" height="8" fill="white" transform="translate(8 40)"/>
</clipPath>
<clipPath id="clip98_96_13774">
<rect width="8" height="8" fill="white" transform="translate(0 64)"/>
</clipPath>
<clipPath id="clip99_96_13774">
<rect width="8" height="8" fill="white" transform="translate(104 64)"/>
</clipPath>
<clipPath id="clip100_96_13774">
<rect width="8" height="8" fill="white" transform="translate(96 88)"/>
</clipPath>
<clipPath id="clip101_96_13774">
<rect width="8" height="8" fill="white" transform="translate(0 80)"/>
</clipPath>
<clipPath id="clip102_96_13774">
<rect width="8" height="8" fill="white" transform="translate(8 96)"/>
</clipPath>
<clipPath id="clip103_96_13774">
<rect width="8" height="8" fill="white" transform="translate(24 112)"/>
</clipPath>
<clipPath id="clip104_96_13774">
<rect width="8" height="8" fill="white" transform="translate(0 40)"/>
</clipPath>
<clipPath id="clip105_96_13774">
<rect width="8" height="8" fill="white" transform="translate(64 16)"/>
</clipPath>
<clipPath id="clip106_96_13774">
<rect width="8" height="8" fill="white" transform="translate(64 120)"/>
</clipPath>
<clipPath id="clip107_96_13774">
<rect width="8" height="8" fill="white" transform="translate(48 16)"/>
</clipPath>
<clipPath id="clip108_96_13774">
<rect width="8" height="8" fill="white" transform="translate(48 120)"/>
</clipPath>
<clipPath id="clip109_96_13774">
<rect width="8" height="8" fill="white" transform="translate(32 24)"/>
</clipPath>
<clipPath id="clip110_96_13774">
<rect width="8" height="8" fill="white" transform="translate(96 24)"/>
</clipPath>
<clipPath id="clip111_96_13774">
<rect width="8" height="8" fill="white" transform="translate(112 40)"/>
</clipPath>
<clipPath id="clip112_96_13774">
<rect width="8" height="8" fill="white" transform="translate(120 40)"/>
</clipPath>
<clipPath id="clip113_96_13774">
<rect width="8" height="8" fill="white" transform="translate(40 24)"/>
</clipPath>
<clipPath id="clip114_96_13774">
<rect width="8" height="8" fill="white" transform="translate(16 40)"/>
</clipPath>
<clipPath id="clip115_96_13774">
<rect width="8" height="8" fill="white" transform="translate(8 64)"/>
</clipPath>
<clipPath id="clip116_96_13774">
<rect width="8" height="8" fill="white" transform="translate(112 64)"/>
</clipPath>
<clipPath id="clip117_96_13774">
<rect width="8" height="8" fill="white" transform="translate(104 88)"/>
</clipPath>
<clipPath id="clip118_96_13774">
<rect width="8" height="8" fill="white" transform="translate(8 80)"/>
</clipPath>
<clipPath id="clip119_96_13774">
<rect width="8" height="8" fill="white" transform="translate(16 96)"/>
</clipPath>
<clipPath id="clip120_96_13774">
<rect width="8" height="8" fill="white" transform="translate(16 104)"/>
</clipPath>
<clipPath id="clip121_96_13774">
<rect width="8" height="8" fill="white" transform="translate(32 112)"/>
</clipPath>
<clipPath id="clip122_96_13774">
<rect width="8" height="8" fill="white" transform="translate(72 16)"/>
</clipPath>
<clipPath id="clip123_96_13774">
<rect width="8" height="8" fill="white" transform="translate(72 120)"/>
</clipPath>
<clipPath id="clip124_96_13774">
<rect width="8" height="8" fill="white" transform="translate(56 16)"/>
</clipPath>
<clipPath id="clip125_96_13774">
<rect width="8" height="8" fill="white" transform="translate(56 120)"/>
</clipPath>
<clipPath id="clip126_96_13774">
<rect width="8" height="8" fill="white" transform="translate(80 16)"/>
</clipPath>
<clipPath id="clip127_96_13774">
<rect width="8" height="8" fill="white" transform="translate(80 120)"/>
</clipPath>
</defs>
</svg>
