<svg width="144" height="144" viewBox="0 0 144 144" fill="none" xmlns="http://www.w3.org/2000/svg">
<g clip-path="url(#clip0_96_40349)">
<path d="M0 96L8 104" stroke="#A568CA" stroke-width="2.5"/>
<path d="M0 104L8 96" stroke="#A568CA" stroke-width="2.5"/>
</g>
<g clip-path="url(#clip1_96_40349)">
<path d="M16 96L24 104" stroke="#D564C6" stroke-width="2.5"/>
<path d="M16 104L24 96" stroke="#D564C6" stroke-width="2.5"/>
</g>
<g clip-path="url(#clip2_96_40349)">
<path d="M8 64L16 72" stroke="#EC580F" stroke-width="2.5"/>
<path d="M8 72L16 64" stroke="#EC580F" stroke-width="2.5"/>
</g>
<g clip-path="url(#clip3_96_40349)">
<path d="M0 128L8 136" stroke="#A568CA" stroke-width="2.5"/>
<path d="M0 136L8 128" stroke="#A568CA" stroke-width="2.5"/>
</g>
<g clip-path="url(#clip4_96_40349)">
<path d="M16 128L24 136" stroke="#9B3AA2" stroke-width="2.5"/>
<path d="M16 136L24 128" stroke="#9B3AA2" stroke-width="2.5"/>
</g>
<g clip-path="url(#clip5_96_40349)">
<path d="M0 112L8 120" stroke="#A568CA" stroke-width="2.5"/>
<path d="M0 120L8 112" stroke="#A568CA" stroke-width="2.5"/>
</g>
<g clip-path="url(#clip6_96_40349)">
<path d="M16 112L24 120" stroke="#9B3AA2" stroke-width="2.5"/>
<path d="M16 120L24 112" stroke="#9B3AA2" stroke-width="2.5"/>
</g>
<g clip-path="url(#clip7_96_40349)">
<path d="M8 96L16 104" stroke="#9B3AA2" stroke-width="2.5"/>
<path d="M8 104L16 96" stroke="#9B3AA2" stroke-width="2.5"/>
</g>
<g clip-path="url(#clip8_96_40349)">
<path d="M24 96L32 104" stroke="#D564C6" stroke-width="2.5"/>
<path d="M24 104L32 96" stroke="#D564C6" stroke-width="2.5"/>
</g>
<g clip-path="url(#clip9_96_40349)">
<path d="M16 64L24 72" stroke="#F8C152" stroke-width="2.5"/>
<path d="M16 72L24 64" stroke="#F8C152" stroke-width="2.5"/>
</g>
<g clip-path="url(#clip10_96_40349)">
<path d="M16 56L24 64" stroke="#EF9400" stroke-width="2.5"/>
<path d="M16 64L24 56" stroke="#EF9400" stroke-width="2.5"/>
</g>
<g clip-path="url(#clip11_96_40349)">
<path d="M16 48L24 56" stroke="#EC580F" stroke-width="2.5"/>
<path d="M16 56L24 48" stroke="#EC580F" stroke-width="2.5"/>
</g>
<g clip-path="url(#clip12_96_40349)">
<path d="M32 96L40 104" stroke="#D564C6" stroke-width="2.5"/>
<path d="M32 104L40 96" stroke="#D564C6" stroke-width="2.5"/>
</g>
<g clip-path="url(#clip13_96_40349)">
<path d="M24 64L32 72" stroke="#EC580F" stroke-width="2.5"/>
<path d="M24 72L32 64" stroke="#EC580F" stroke-width="2.5"/>
</g>
<g clip-path="url(#clip14_96_40349)">
<path d="M24 56L32 64" stroke="#EC580F" stroke-width="2.5"/>
<path d="M24 64L32 56" stroke="#EC580F" stroke-width="2.5"/>
</g>
<g clip-path="url(#clip15_96_40349)">
<path d="M16 80L24 88" stroke="#7C061E" stroke-width="2.5"/>
<path d="M16 88L24 80" stroke="#7C061E" stroke-width="2.5"/>
</g>
<g clip-path="url(#clip16_96_40349)">
<path d="M8 128L16 136" stroke="#9B3AA2" stroke-width="2.5"/>
<path d="M8 136L16 128" stroke="#9B3AA2" stroke-width="2.5"/>
</g>
<g clip-path="url(#clip17_96_40349)">
<path d="M24 128L32 136" stroke="#D564C6" stroke-width="2.5"/>
<path d="M24 136L32 128" stroke="#D564C6" stroke-width="2.5"/>
</g>
<g clip-path="url(#clip18_96_40349)">
<path d="M32 128L40 136" stroke="#9B3AA2" stroke-width="2.5"/>
<path d="M32 136L40 128" stroke="#9B3AA2" stroke-width="2.5"/>
</g>
<g clip-path="url(#clip19_96_40349)">
<path d="M8 112L16 120" stroke="#9B3AA2" stroke-width="2.5"/>
<path d="M8 120L16 112" stroke="#9B3AA2" stroke-width="2.5"/>
</g>
<g clip-path="url(#clip20_96_40349)">
<path d="M24 112L32 120" stroke="#D564C6" stroke-width="2.5"/>
<path d="M24 120L32 112" stroke="#D564C6" stroke-width="2.5"/>
</g>
<g clip-path="url(#clip21_96_40349)">
<path d="M32 112L40 120" stroke="#9B3AA2" stroke-width="2.5"/>
<path d="M32 120L40 112" stroke="#9B3AA2" stroke-width="2.5"/>
</g>
<g clip-path="url(#clip22_96_40349)">
<path d="M0 104L8 112" stroke="#A568CA" stroke-width="2.5"/>
<path d="M0 112L8 104" stroke="#A568CA" stroke-width="2.5"/>
</g>
<g clip-path="url(#clip23_96_40349)">
<path d="M16 104L24 112" stroke="#9B3AA2" stroke-width="2.5"/>
<path d="M16 112L24 104" stroke="#9B3AA2" stroke-width="2.5"/>
</g>
<g clip-path="url(#clip24_96_40349)">
<path d="M8 72L16 80" stroke="#EC580F" stroke-width="2.5"/>
<path d="M8 80L16 72" stroke="#EC580F" stroke-width="2.5"/>
</g>
<g clip-path="url(#clip25_96_40349)">
<path d="M0 136L8 144" stroke="#A568CA" stroke-width="2.5"/>
<path d="M0 144L8 136" stroke="#A568CA" stroke-width="2.5"/>
</g>
<g clip-path="url(#clip26_96_40349)">
<path d="M16 136L24 144" stroke="#9B3AA2" stroke-width="2.5"/>
<path d="M16 144L24 136" stroke="#9B3AA2" stroke-width="2.5"/>
</g>
<g clip-path="url(#clip27_96_40349)">
<path d="M0 120L8 128" stroke="#A568CA" stroke-width="2.5"/>
<path d="M0 128L8 120" stroke="#A568CA" stroke-width="2.5"/>
</g>
<g clip-path="url(#clip28_96_40349)">
<path d="M16 120L24 128" stroke="#9B3AA2" stroke-width="2.5"/>
<path d="M16 128L24 120" stroke="#9B3AA2" stroke-width="2.5"/>
</g>
<g clip-path="url(#clip29_96_40349)">
<path d="M8 104L16 112" stroke="#9B3AA2" stroke-width="2.5"/>
<path d="M8 112L16 104" stroke="#9B3AA2" stroke-width="2.5"/>
</g>
<g clip-path="url(#clip30_96_40349)">
<path d="M24 104L32 112" stroke="#D564C6" stroke-width="2.5"/>
<path d="M24 112L32 104" stroke="#D564C6" stroke-width="2.5"/>
</g>
<g clip-path="url(#clip31_96_40349)">
<path d="M16 72L24 80" stroke="#EF9400" stroke-width="2.5"/>
<path d="M16 80L24 72" stroke="#EF9400" stroke-width="2.5"/>
</g>
<g clip-path="url(#clip32_96_40349)">
<path d="M32 104L40 112" stroke="#9B3AA2" stroke-width="2.5"/>
<path d="M32 112L40 104" stroke="#9B3AA2" stroke-width="2.5"/>
</g>
<g clip-path="url(#clip33_96_40349)">
<path d="M24 72L32 80" stroke="#EC580F" stroke-width="2.5"/>
<path d="M24 80L32 72" stroke="#EC580F" stroke-width="2.5"/>
</g>
<g clip-path="url(#clip34_96_40349)">
<path d="M16 88L24 96" stroke="#7C061E" stroke-width="2.5"/>
<path d="M16 96L24 88" stroke="#7C061E" stroke-width="2.5"/>
</g>
<g clip-path="url(#clip35_96_40349)">
<path d="M8 136L16 144" stroke="#9B3AA2" stroke-width="2.5"/>
<path d="M8 144L16 136" stroke="#9B3AA2" stroke-width="2.5"/>
</g>
<g clip-path="url(#clip36_96_40349)">
<path d="M24 136L32 144" stroke="#D564C6" stroke-width="2.5"/>
<path d="M24 144L32 136" stroke="#D564C6" stroke-width="2.5"/>
</g>
<g clip-path="url(#clip37_96_40349)">
<path d="M32 136L40 144" stroke="#D564C6" stroke-width="2.5"/>
<path d="M32 144L40 136" stroke="#D564C6" stroke-width="2.5"/>
</g>
<g clip-path="url(#clip38_96_40349)">
<path d="M8 120L16 128" stroke="#9B3AA2" stroke-width="2.5"/>
<path d="M8 128L16 120" stroke="#9B3AA2" stroke-width="2.5"/>
</g>
<g clip-path="url(#clip39_96_40349)">
<path d="M24 120L32 128" stroke="#D564C6" stroke-width="2.5"/>
<path d="M24 128L32 120" stroke="#D564C6" stroke-width="2.5"/>
</g>
<g clip-path="url(#clip40_96_40349)">
<path d="M32 120L40 128" stroke="#9B3AA2" stroke-width="2.5"/>
<path d="M32 128L40 120" stroke="#9B3AA2" stroke-width="2.5"/>
</g>
<g clip-path="url(#clip41_96_40349)">
<path d="M52 72L60 80" stroke="#A568CA" stroke-width="2.5"/>
<path d="M52 80L60 72" stroke="#A568CA" stroke-width="2.5"/>
</g>
<g clip-path="url(#clip42_96_40349)">
<path d="M68 72L76 80" stroke="#D564C6" stroke-width="2.5"/>
<path d="M68 80L76 72" stroke="#D564C6" stroke-width="2.5"/>
</g>
<g clip-path="url(#clip43_96_40349)">
<path d="M60 40L68 48" stroke="#EC580F" stroke-width="2.5"/>
<path d="M60 48L68 40" stroke="#EC580F" stroke-width="2.5"/>
</g>
<g clip-path="url(#clip44_96_40349)">
<path d="M52 104L60 112" stroke="#A568CA" stroke-width="2.5"/>
<path d="M52 112L60 104" stroke="#A568CA" stroke-width="2.5"/>
</g>
<g clip-path="url(#clip45_96_40349)">
<path d="M68 104L76 112" stroke="#9B3AA2" stroke-width="2.5"/>
<path d="M68 112L76 104" stroke="#9B3AA2" stroke-width="2.5"/>
</g>
<g clip-path="url(#clip46_96_40349)">
<path d="M52 136L60 144" stroke="#A568CA" stroke-width="2.5"/>
<path d="M52 144L60 136" stroke="#A568CA" stroke-width="2.5"/>
</g>
<g clip-path="url(#clip47_96_40349)">
<path d="M68 136L76 144" stroke="#9B3AA2" stroke-width="2.5"/>
<path d="M68 144L76 136" stroke="#9B3AA2" stroke-width="2.5"/>
</g>
<g clip-path="url(#clip48_96_40349)">
<path d="M52 88L60 96" stroke="#A568CA" stroke-width="2.5"/>
<path d="M52 96L60 88" stroke="#A568CA" stroke-width="2.5"/>
</g>
<g clip-path="url(#clip49_96_40349)">
<path d="M68 88L76 96" stroke="#9B3AA2" stroke-width="2.5"/>
<path d="M68 96L76 88" stroke="#9B3AA2" stroke-width="2.5"/>
</g>
<g clip-path="url(#clip50_96_40349)">
<path d="M52 120L60 128" stroke="#A568CA" stroke-width="2.5"/>
<path d="M52 128L60 120" stroke="#A568CA" stroke-width="2.5"/>
</g>
<g clip-path="url(#clip51_96_40349)">
<path d="M68 120L76 128" stroke="#9B3AA2" stroke-width="2.5"/>
<path d="M68 128L76 120" stroke="#9B3AA2" stroke-width="2.5"/>
</g>
<g clip-path="url(#clip52_96_40349)">
<path d="M60 72L68 80" stroke="#D564C6" stroke-width="2.5"/>
<path d="M60 80L68 72" stroke="#D564C6" stroke-width="2.5"/>
</g>
<g clip-path="url(#clip53_96_40349)">
<path d="M76 72L84 80" stroke="#D564C6" stroke-width="2.5"/>
<path d="M76 80L84 72" stroke="#D564C6" stroke-width="2.5"/>
</g>
<g clip-path="url(#clip54_96_40349)">
<path d="M68 40L76 48" stroke="#F8C152" stroke-width="2.5"/>
<path d="M68 48L76 40" stroke="#F8C152" stroke-width="2.5"/>
</g>
<g clip-path="url(#clip55_96_40349)">
<path d="M68 32L76 40" stroke="#EF9400" stroke-width="2.5"/>
<path d="M68 40L76 32" stroke="#EF9400" stroke-width="2.5"/>
</g>
<g clip-path="url(#clip56_96_40349)">
<path d="M68 24L76 32" stroke="#EC580F" stroke-width="2.5"/>
<path d="M68 32L76 24" stroke="#EC580F" stroke-width="2.5"/>
</g>
<g clip-path="url(#clip57_96_40349)">
<path d="M84 72L92 80" stroke="#9B3AA2" stroke-width="2.5"/>
<path d="M84 80L92 72" stroke="#9B3AA2" stroke-width="2.5"/>
</g>
<g clip-path="url(#clip58_96_40349)">
<path d="M76 40L84 48" stroke="#EC580F" stroke-width="2.5"/>
<path d="M76 48L84 40" stroke="#EC580F" stroke-width="2.5"/>
</g>
<g clip-path="url(#clip59_96_40349)">
<path d="M76 32L84 40" stroke="#EC580F" stroke-width="2.5"/>
<path d="M76 40L84 32" stroke="#EC580F" stroke-width="2.5"/>
</g>
<g clip-path="url(#clip60_96_40349)">
<path d="M68 56L76 64" stroke="#7C061E" stroke-width="2.5"/>
<path d="M68 64L76 56" stroke="#7C061E" stroke-width="2.5"/>
</g>
<g clip-path="url(#clip61_96_40349)">
<path d="M60 104L68 112" stroke="#9B3AA2" stroke-width="2.5"/>
<path d="M60 112L68 104" stroke="#9B3AA2" stroke-width="2.5"/>
</g>
<g clip-path="url(#clip62_96_40349)">
<path d="M76 104L84 112" stroke="#9B3AA2" stroke-width="2.5"/>
<path d="M76 112L84 104" stroke="#9B3AA2" stroke-width="2.5"/>
</g>
<g clip-path="url(#clip63_96_40349)">
<path d="M84 104L92 112" stroke="#9B3AA2" stroke-width="2.5"/>
<path d="M84 112L92 104" stroke="#9B3AA2" stroke-width="2.5"/>
</g>
<g clip-path="url(#clip64_96_40349)">
<path d="M60 136L68 144" stroke="#9B3AA2" stroke-width="2.5"/>
<path d="M60 144L68 136" stroke="#9B3AA2" stroke-width="2.5"/>
</g>
<g clip-path="url(#clip65_96_40349)">
<path d="M76 136L84 144" stroke="#9B3AA2" stroke-width="2.5"/>
<path d="M76 144L84 136" stroke="#9B3AA2" stroke-width="2.5"/>
</g>
<g clip-path="url(#clip66_96_40349)">
<path d="M84 136L92 144" stroke="#9B3AA2" stroke-width="2.5"/>
<path d="M84 144L92 136" stroke="#9B3AA2" stroke-width="2.5"/>
</g>
<g clip-path="url(#clip67_96_40349)">
<path d="M60 88L68 96" stroke="#9B3AA2" stroke-width="2.5"/>
<path d="M60 96L68 88" stroke="#9B3AA2" stroke-width="2.5"/>
</g>
<g clip-path="url(#clip68_96_40349)">
<path d="M76 88L84 96" stroke="#D564C6" stroke-width="2.5"/>
<path d="M76 96L84 88" stroke="#D564C6" stroke-width="2.5"/>
</g>
<g clip-path="url(#clip69_96_40349)">
<path d="M84 88L92 96" stroke="#9B3AA2" stroke-width="2.5"/>
<path d="M84 96L92 88" stroke="#9B3AA2" stroke-width="2.5"/>
</g>
<g clip-path="url(#clip70_96_40349)">
<path d="M60 120L68 128" stroke="#9B3AA2" stroke-width="2.5"/>
<path d="M60 128L68 120" stroke="#9B3AA2" stroke-width="2.5"/>
</g>
<g clip-path="url(#clip71_96_40349)">
<path d="M76 120L84 128" stroke="#9B3AA2" stroke-width="2.5"/>
<path d="M76 128L84 120" stroke="#9B3AA2" stroke-width="2.5"/>
</g>
<g clip-path="url(#clip72_96_40349)">
<path d="M84 120L92 128" stroke="#9B3AA2" stroke-width="2.5"/>
<path d="M84 128L92 120" stroke="#9B3AA2" stroke-width="2.5"/>
</g>
<g clip-path="url(#clip73_96_40349)">
<path d="M52 80L60 88" stroke="#A568CA" stroke-width="2.5"/>
<path d="M52 88L60 80" stroke="#A568CA" stroke-width="2.5"/>
</g>
<g clip-path="url(#clip74_96_40349)">
<path d="M68 80L76 88" stroke="#9B3AA2" stroke-width="2.5"/>
<path d="M68 88L76 80" stroke="#9B3AA2" stroke-width="2.5"/>
</g>
<g clip-path="url(#clip75_96_40349)">
<path d="M60 48L68 56" stroke="#EC580F" stroke-width="2.5"/>
<path d="M60 56L68 48" stroke="#EC580F" stroke-width="2.5"/>
</g>
<g clip-path="url(#clip76_96_40349)">
<path d="M52 112L60 120" stroke="#A568CA" stroke-width="2.5"/>
<path d="M52 120L60 112" stroke="#A568CA" stroke-width="2.5"/>
</g>
<g clip-path="url(#clip77_96_40349)">
<path d="M68 112L76 120" stroke="#9B3AA2" stroke-width="2.5"/>
<path d="M68 120L76 112" stroke="#9B3AA2" stroke-width="2.5"/>
</g>
<g clip-path="url(#clip78_96_40349)">
<path d="M52 96L60 104" stroke="#A568CA" stroke-width="2.5"/>
<path d="M52 104L60 96" stroke="#A568CA" stroke-width="2.5"/>
</g>
<g clip-path="url(#clip79_96_40349)">
<path d="M68 96L76 104" stroke="#9B3AA2" stroke-width="2.5"/>
<path d="M68 104L76 96" stroke="#9B3AA2" stroke-width="2.5"/>
</g>
<g clip-path="url(#clip80_96_40349)">
<path d="M52 128L60 136" stroke="#A568CA" stroke-width="2.5"/>
<path d="M52 136L60 128" stroke="#A568CA" stroke-width="2.5"/>
</g>
<g clip-path="url(#clip81_96_40349)">
<path d="M68 128L76 136" stroke="#9B3AA2" stroke-width="2.5"/>
<path d="M68 136L76 128" stroke="#9B3AA2" stroke-width="2.5"/>
</g>
<g clip-path="url(#clip82_96_40349)">
<path d="M60 80L68 88" stroke="#9B3AA2" stroke-width="2.5"/>
<path d="M60 88L68 80" stroke="#9B3AA2" stroke-width="2.5"/>
</g>
<g clip-path="url(#clip83_96_40349)">
<path d="M76 80L84 88" stroke="#D564C6" stroke-width="2.5"/>
<path d="M76 88L84 80" stroke="#D564C6" stroke-width="2.5"/>
</g>
<g clip-path="url(#clip84_96_40349)">
<path d="M68 48L76 56" stroke="#EF9400" stroke-width="2.5"/>
<path d="M68 56L76 48" stroke="#EF9400" stroke-width="2.5"/>
</g>
<g clip-path="url(#clip85_96_40349)">
<path d="M84 80L92 88" stroke="#9B3AA2" stroke-width="2.5"/>
<path d="M84 88L92 80" stroke="#9B3AA2" stroke-width="2.5"/>
</g>
<g clip-path="url(#clip86_96_40349)">
<path d="M76 48L84 56" stroke="#EC580F" stroke-width="2.5"/>
<path d="M76 56L84 48" stroke="#EC580F" stroke-width="2.5"/>
</g>
<g clip-path="url(#clip87_96_40349)">
<path d="M68 64L76 72" stroke="#7C061E" stroke-width="2.5"/>
<path d="M68 72L76 64" stroke="#7C061E" stroke-width="2.5"/>
</g>
<g clip-path="url(#clip88_96_40349)">
<path d="M60 112L68 120" stroke="#9B3AA2" stroke-width="2.5"/>
<path d="M60 120L68 112" stroke="#9B3AA2" stroke-width="2.5"/>
</g>
<g clip-path="url(#clip89_96_40349)">
<path d="M76 112L84 120" stroke="#9B3AA2" stroke-width="2.5"/>
<path d="M76 120L84 112" stroke="#9B3AA2" stroke-width="2.5"/>
</g>
<g clip-path="url(#clip90_96_40349)">
<path d="M84 112L92 120" stroke="#9B3AA2" stroke-width="2.5"/>
<path d="M84 120L92 112" stroke="#9B3AA2" stroke-width="2.5"/>
</g>
<g clip-path="url(#clip91_96_40349)">
<path d="M60 96L68 104" stroke="#9B3AA2" stroke-width="2.5"/>
<path d="M60 104L68 96" stroke="#9B3AA2" stroke-width="2.5"/>
</g>
<g clip-path="url(#clip92_96_40349)">
<path d="M76 96L84 104" stroke="#D564C6" stroke-width="2.5"/>
<path d="M76 104L84 96" stroke="#D564C6" stroke-width="2.5"/>
</g>
<g clip-path="url(#clip93_96_40349)">
<path d="M84 96L92 104" stroke="#9B3AA2" stroke-width="2.5"/>
<path d="M84 104L92 96" stroke="#9B3AA2" stroke-width="2.5"/>
</g>
<g clip-path="url(#clip94_96_40349)">
<path d="M60 128L68 136" stroke="#9B3AA2" stroke-width="2.5"/>
<path d="M60 136L68 128" stroke="#9B3AA2" stroke-width="2.5"/>
</g>
<g clip-path="url(#clip95_96_40349)">
<path d="M76 128L84 136" stroke="#9B3AA2" stroke-width="2.5"/>
<path d="M76 136L84 128" stroke="#9B3AA2" stroke-width="2.5"/>
</g>
<g clip-path="url(#clip96_96_40349)">
<path d="M84 128L92 136" stroke="#9B3AA2" stroke-width="2.5"/>
<path d="M84 136L92 128" stroke="#9B3AA2" stroke-width="2.5"/>
</g>
<g clip-path="url(#clip97_96_40349)">
<path d="M104 48L112 56" stroke="#A568CA" stroke-width="2.5"/>
<path d="M104 56L112 48" stroke="#A568CA" stroke-width="2.5"/>
</g>
<g clip-path="url(#clip98_96_40349)">
<path d="M120 48L128 56" stroke="#9B3AA2" stroke-width="2.5"/>
<path d="M120 56L128 48" stroke="#9B3AA2" stroke-width="2.5"/>
</g>
<g clip-path="url(#clip99_96_40349)">
<path d="M112 16L120 24" stroke="#EC580F" stroke-width="2.5"/>
<path d="M112 24L120 16" stroke="#EC580F" stroke-width="2.5"/>
</g>
<g clip-path="url(#clip100_96_40349)">
<path d="M104 80L112 88" stroke="#A568CA" stroke-width="2.5"/>
<path d="M104 88L112 80" stroke="#A568CA" stroke-width="2.5"/>
</g>
<g clip-path="url(#clip101_96_40349)">
<path d="M120 80L128 88" stroke="#9B3AA2" stroke-width="2.5"/>
<path d="M120 88L128 80" stroke="#9B3AA2" stroke-width="2.5"/>
</g>
<g clip-path="url(#clip102_96_40349)">
<path d="M104 112L112 120" stroke="#A568CA" stroke-width="2.5"/>
<path d="M104 120L112 112" stroke="#A568CA" stroke-width="2.5"/>
</g>
<g clip-path="url(#clip103_96_40349)">
<path d="M120 112L128 120" stroke="#9B3AA2" stroke-width="2.5"/>
<path d="M120 120L128 112" stroke="#9B3AA2" stroke-width="2.5"/>
</g>
<g clip-path="url(#clip104_96_40349)">
<path d="M104 64L112 72" stroke="#A568CA" stroke-width="2.5"/>
<path d="M104 72L112 64" stroke="#A568CA" stroke-width="2.5"/>
</g>
<g clip-path="url(#clip105_96_40349)">
<path d="M120 64L128 72" stroke="#9B3AA2" stroke-width="2.5"/>
<path d="M120 72L128 64" stroke="#9B3AA2" stroke-width="2.5"/>
</g>
<g clip-path="url(#clip106_96_40349)">
<path d="M104 96L112 104" stroke="#A568CA" stroke-width="2.5"/>
<path d="M104 104L112 96" stroke="#A568CA" stroke-width="2.5"/>
</g>
<g clip-path="url(#clip107_96_40349)">
<path d="M120 96L128 104" stroke="#9B3AA2" stroke-width="2.5"/>
<path d="M120 104L128 96" stroke="#9B3AA2" stroke-width="2.5"/>
</g>
<g clip-path="url(#clip108_96_40349)">
<path d="M104 128L112 136" stroke="#A568CA" stroke-width="2.5"/>
<path d="M104 136L112 128" stroke="#A568CA" stroke-width="2.5"/>
</g>
<g clip-path="url(#clip109_96_40349)">
<path d="M120 128L128 136" stroke="#9B3AA2" stroke-width="2.5"/>
<path d="M120 136L128 128" stroke="#9B3AA2" stroke-width="2.5"/>
</g>
<g clip-path="url(#clip110_96_40349)">
<path d="M112 48L120 56" stroke="#9B3AA2" stroke-width="2.5"/>
<path d="M112 56L120 48" stroke="#9B3AA2" stroke-width="2.5"/>
</g>
<g clip-path="url(#clip111_96_40349)">
<path d="M128 48L136 56" stroke="#D564C6" stroke-width="2.5"/>
<path d="M128 56L136 48" stroke="#D564C6" stroke-width="2.5"/>
</g>
<g clip-path="url(#clip112_96_40349)">
<path d="M120 16L128 24" stroke="#F8C152" stroke-width="2.5"/>
<path d="M120 24L128 16" stroke="#F8C152" stroke-width="2.5"/>
</g>
<g clip-path="url(#clip113_96_40349)">
<path d="M120 8L128 16" stroke="#EF9400" stroke-width="2.5"/>
<path d="M120 16L128 8" stroke="#EF9400" stroke-width="2.5"/>
</g>
<g clip-path="url(#clip114_96_40349)">
<path d="M120 0L128 8" stroke="#EC580F" stroke-width="2.5"/>
<path d="M120 8L128 2.73828e-07" stroke="#EC580F" stroke-width="2.5"/>
</g>
<g clip-path="url(#clip115_96_40349)">
<path d="M136 48L144 56" stroke="#D564C6" stroke-width="2.5"/>
<path d="M136 56L144 48" stroke="#D564C6" stroke-width="2.5"/>
</g>
<g clip-path="url(#clip116_96_40349)">
<path d="M128 16L136 24" stroke="#EC580F" stroke-width="2.5"/>
<path d="M128 24L136 16" stroke="#EC580F" stroke-width="2.5"/>
</g>
<g clip-path="url(#clip117_96_40349)">
<path d="M128 8L136 16" stroke="#EC580F" stroke-width="2.5"/>
<path d="M128 16L136 8" stroke="#EC580F" stroke-width="2.5"/>
</g>
<g clip-path="url(#clip118_96_40349)">
<path d="M120 32L128 40" stroke="#7C061E" stroke-width="2.5"/>
<path d="M120 40L128 32" stroke="#7C061E" stroke-width="2.5"/>
</g>
<g clip-path="url(#clip119_96_40349)">
<path d="M112 80L120 88" stroke="#9B3AA2" stroke-width="2.5"/>
<path d="M112 88L120 80" stroke="#9B3AA2" stroke-width="2.5"/>
</g>
<g clip-path="url(#clip120_96_40349)">
<path d="M128 80L136 88" stroke="#9B3AA2" stroke-width="2.5"/>
<path d="M128 88L136 80" stroke="#9B3AA2" stroke-width="2.5"/>
</g>
<g clip-path="url(#clip121_96_40349)">
<path d="M136 80L144 88" stroke="#9B3AA2" stroke-width="2.5"/>
<path d="M136 88L144 80" stroke="#9B3AA2" stroke-width="2.5"/>
</g>
<g clip-path="url(#clip122_96_40349)">
<path d="M112 112L120 120" stroke="#9B3AA2" stroke-width="2.5"/>
<path d="M112 120L120 112" stroke="#9B3AA2" stroke-width="2.5"/>
</g>
<g clip-path="url(#clip123_96_40349)">
<path d="M128 112L136 120" stroke="#9B3AA2" stroke-width="2.5"/>
<path d="M128 120L136 112" stroke="#9B3AA2" stroke-width="2.5"/>
</g>
<g clip-path="url(#clip124_96_40349)">
<path d="M136 112L144 120" stroke="#9B3AA2" stroke-width="2.5"/>
<path d="M136 120L144 112" stroke="#9B3AA2" stroke-width="2.5"/>
</g>
<g clip-path="url(#clip125_96_40349)">
<path d="M112 64L120 72" stroke="#9B3AA2" stroke-width="2.5"/>
<path d="M112 72L120 64" stroke="#9B3AA2" stroke-width="2.5"/>
</g>
<g clip-path="url(#clip126_96_40349)">
<path d="M128 64L136 72" stroke="#9B3AA2" stroke-width="2.5"/>
<path d="M128 72L136 64" stroke="#9B3AA2" stroke-width="2.5"/>
</g>
<g clip-path="url(#clip127_96_40349)">
<path d="M136 64L144 72" stroke="#9B3AA2" stroke-width="2.5"/>
<path d="M136 72L144 64" stroke="#9B3AA2" stroke-width="2.5"/>
</g>
<g clip-path="url(#clip128_96_40349)">
<path d="M112 96L120 104" stroke="#9B3AA2" stroke-width="2.5"/>
<path d="M112 104L120 96" stroke="#9B3AA2" stroke-width="2.5"/>
</g>
<g clip-path="url(#clip129_96_40349)">
<path d="M128 96L136 104" stroke="#9B3AA2" stroke-width="2.5"/>
<path d="M128 104L136 96" stroke="#9B3AA2" stroke-width="2.5"/>
</g>
<g clip-path="url(#clip130_96_40349)">
<path d="M136 96L144 104" stroke="#9B3AA2" stroke-width="2.5"/>
<path d="M136 104L144 96" stroke="#9B3AA2" stroke-width="2.5"/>
</g>
<g clip-path="url(#clip131_96_40349)">
<path d="M112 128L120 136" stroke="#9B3AA2" stroke-width="2.5"/>
<path d="M112 136L120 128" stroke="#9B3AA2" stroke-width="2.5"/>
</g>
<g clip-path="url(#clip132_96_40349)">
<path d="M128 128L136 136" stroke="#9B3AA2" stroke-width="2.5"/>
<path d="M128 136L136 128" stroke="#9B3AA2" stroke-width="2.5"/>
</g>
<g clip-path="url(#clip133_96_40349)">
<path d="M136 128L144 136" stroke="#9B3AA2" stroke-width="2.5"/>
<path d="M136 136L144 128" stroke="#9B3AA2" stroke-width="2.5"/>
</g>
<g clip-path="url(#clip134_96_40349)">
<path d="M104 56L112 64" stroke="#A568CA" stroke-width="2.5"/>
<path d="M104 64L112 56" stroke="#A568CA" stroke-width="2.5"/>
</g>
<g clip-path="url(#clip135_96_40349)">
<path d="M120 56L128 64" stroke="#9B3AA2" stroke-width="2.5"/>
<path d="M120 64L128 56" stroke="#9B3AA2" stroke-width="2.5"/>
</g>
<g clip-path="url(#clip136_96_40349)">
<path d="M112 24L120 32" stroke="#EC580F" stroke-width="2.5"/>
<path d="M112 32L120 24" stroke="#EC580F" stroke-width="2.5"/>
</g>
<g clip-path="url(#clip137_96_40349)">
<path d="M104 88L112 96" stroke="#A568CA" stroke-width="2.5"/>
<path d="M104 96L112 88" stroke="#A568CA" stroke-width="2.5"/>
</g>
<g clip-path="url(#clip138_96_40349)">
<path d="M120 88L128 96" stroke="#9B3AA2" stroke-width="2.5"/>
<path d="M120 96L128 88" stroke="#9B3AA2" stroke-width="2.5"/>
</g>
<g clip-path="url(#clip139_96_40349)">
<path d="M104 120L112 128" stroke="#A568CA" stroke-width="2.5"/>
<path d="M104 128L112 120" stroke="#A568CA" stroke-width="2.5"/>
</g>
<g clip-path="url(#clip140_96_40349)">
<path d="M120 120L128 128" stroke="#9B3AA2" stroke-width="2.5"/>
<path d="M120 128L128 120" stroke="#9B3AA2" stroke-width="2.5"/>
</g>
<g clip-path="url(#clip141_96_40349)">
<path d="M104 72L112 80" stroke="#A568CA" stroke-width="2.5"/>
<path d="M104 80L112 72" stroke="#A568CA" stroke-width="2.5"/>
</g>
<g clip-path="url(#clip142_96_40349)">
<path d="M120 72L128 80" stroke="#9B3AA2" stroke-width="2.5"/>
<path d="M120 80L128 72" stroke="#9B3AA2" stroke-width="2.5"/>
</g>
<g clip-path="url(#clip143_96_40349)">
<path d="M104 104L112 112" stroke="#A568CA" stroke-width="2.5"/>
<path d="M104 112L112 104" stroke="#A568CA" stroke-width="2.5"/>
</g>
<g clip-path="url(#clip144_96_40349)">
<path d="M120 104L128 112" stroke="#9B3AA2" stroke-width="2.5"/>
<path d="M120 112L128 104" stroke="#9B3AA2" stroke-width="2.5"/>
</g>
<g clip-path="url(#clip145_96_40349)">
<path d="M104 136L112 144" stroke="#A568CA" stroke-width="2.5"/>
<path d="M104 144L112 136" stroke="#A568CA" stroke-width="2.5"/>
</g>
<g clip-path="url(#clip146_96_40349)">
<path d="M120 136L128 144" stroke="#9B3AA2" stroke-width="2.5"/>
<path d="M120 144L128 136" stroke="#9B3AA2" stroke-width="2.5"/>
</g>
<g clip-path="url(#clip147_96_40349)">
<path d="M112 56L120 64" stroke="#9B3AA2" stroke-width="2.5"/>
<path d="M112 64L120 56" stroke="#9B3AA2" stroke-width="2.5"/>
</g>
<g clip-path="url(#clip148_96_40349)">
<path d="M128 56L136 64" stroke="#9B3AA2" stroke-width="2.5"/>
<path d="M128 64L136 56" stroke="#9B3AA2" stroke-width="2.5"/>
</g>
<g clip-path="url(#clip149_96_40349)">
<path d="M120 24L128 32" stroke="#EF9400" stroke-width="2.5"/>
<path d="M120 32L128 24" stroke="#EF9400" stroke-width="2.5"/>
</g>
<g clip-path="url(#clip150_96_40349)">
<path d="M136 56L144 64" stroke="#9B3AA2" stroke-width="2.5"/>
<path d="M136 64L144 56" stroke="#9B3AA2" stroke-width="2.5"/>
</g>
<g clip-path="url(#clip151_96_40349)">
<path d="M128 24L136 32" stroke="#EC580F" stroke-width="2.5"/>
<path d="M128 32L136 24" stroke="#EC580F" stroke-width="2.5"/>
</g>
<g clip-path="url(#clip152_96_40349)">
<path d="M120 40L128 48" stroke="#7C061E" stroke-width="2.5"/>
<path d="M120 48L128 40" stroke="#7C061E" stroke-width="2.5"/>
</g>
<g clip-path="url(#clip153_96_40349)">
<path d="M112 88L120 96" stroke="#9B3AA2" stroke-width="2.5"/>
<path d="M112 96L120 88" stroke="#9B3AA2" stroke-width="2.5"/>
</g>
<g clip-path="url(#clip154_96_40349)">
<path d="M128 88L136 96" stroke="#9B3AA2" stroke-width="2.5"/>
<path d="M128 96L136 88" stroke="#9B3AA2" stroke-width="2.5"/>
</g>
<g clip-path="url(#clip155_96_40349)">
<path d="M136 88L144 96" stroke="#9B3AA2" stroke-width="2.5"/>
<path d="M136 96L144 88" stroke="#9B3AA2" stroke-width="2.5"/>
</g>
<g clip-path="url(#clip156_96_40349)">
<path d="M112 120L120 128" stroke="#9B3AA2" stroke-width="2.5"/>
<path d="M112 128L120 120" stroke="#9B3AA2" stroke-width="2.5"/>
</g>
<g clip-path="url(#clip157_96_40349)">
<path d="M128 120L136 128" stroke="#9B3AA2" stroke-width="2.5"/>
<path d="M128 128L136 120" stroke="#9B3AA2" stroke-width="2.5"/>
</g>
<g clip-path="url(#clip158_96_40349)">
<path d="M136 120L144 128" stroke="#9B3AA2" stroke-width="2.5"/>
<path d="M136 128L144 120" stroke="#9B3AA2" stroke-width="2.5"/>
</g>
<g clip-path="url(#clip159_96_40349)">
<path d="M112 72L120 80" stroke="#9B3AA2" stroke-width="2.5"/>
<path d="M112 80L120 72" stroke="#9B3AA2" stroke-width="2.5"/>
</g>
<g clip-path="url(#clip160_96_40349)">
<path d="M128 72L136 80" stroke="#9B3AA2" stroke-width="2.5"/>
<path d="M128 80L136 72" stroke="#9B3AA2" stroke-width="2.5"/>
</g>
<g clip-path="url(#clip161_96_40349)">
<path d="M136 72L144 80" stroke="#9B3AA2" stroke-width="2.5"/>
<path d="M136 80L144 72" stroke="#9B3AA2" stroke-width="2.5"/>
</g>
<g clip-path="url(#clip162_96_40349)">
<path d="M112 104L120 112" stroke="#9B3AA2" stroke-width="2.5"/>
<path d="M112 112L120 104" stroke="#9B3AA2" stroke-width="2.5"/>
</g>
<g clip-path="url(#clip163_96_40349)">
<path d="M128 104L136 112" stroke="#9B3AA2" stroke-width="2.5"/>
<path d="M128 112L136 104" stroke="#9B3AA2" stroke-width="2.5"/>
</g>
<g clip-path="url(#clip164_96_40349)">
<path d="M136 104L144 112" stroke="#9B3AA2" stroke-width="2.5"/>
<path d="M136 112L144 104" stroke="#9B3AA2" stroke-width="2.5"/>
</g>
<g clip-path="url(#clip165_96_40349)">
<path d="M112 136L120 144" stroke="#9B3AA2" stroke-width="2.5"/>
<path d="M112 144L120 136" stroke="#9B3AA2" stroke-width="2.5"/>
</g>
<g clip-path="url(#clip166_96_40349)">
<path d="M128 136L136 144" stroke="#9B3AA2" stroke-width="2.5"/>
<path d="M128 144L136 136" stroke="#9B3AA2" stroke-width="2.5"/>
</g>
<g clip-path="url(#clip167_96_40349)">
<path d="M136 136L144 144" stroke="#9B3AA2" stroke-width="2.5"/>
<path d="M136 144L144 136" stroke="#9B3AA2" stroke-width="2.5"/>
</g>
<defs>
<clipPath id="clip0_96_40349">
<rect width="8" height="8" fill="white" transform="translate(0 96)"/>
</clipPath>
<clipPath id="clip1_96_40349">
<rect width="8" height="8" fill="white" transform="translate(16 96)"/>
</clipPath>
<clipPath id="clip2_96_40349">
<rect width="8" height="8" fill="white" transform="translate(8 64)"/>
</clipPath>
<clipPath id="clip3_96_40349">
<rect width="8" height="8" fill="white" transform="translate(0 128)"/>
</clipPath>
<clipPath id="clip4_96_40349">
<rect width="8" height="8" fill="white" transform="translate(16 128)"/>
</clipPath>
<clipPath id="clip5_96_40349">
<rect width="8" height="8" fill="white" transform="translate(0 112)"/>
</clipPath>
<clipPath id="clip6_96_40349">
<rect width="8" height="8" fill="white" transform="translate(16 112)"/>
</clipPath>
<clipPath id="clip7_96_40349">
<rect width="8" height="8" fill="white" transform="translate(8 96)"/>
</clipPath>
<clipPath id="clip8_96_40349">
<rect width="8" height="8" fill="white" transform="translate(24 96)"/>
</clipPath>
<clipPath id="clip9_96_40349">
<rect width="8" height="8" fill="white" transform="translate(16 64)"/>
</clipPath>
<clipPath id="clip10_96_40349">
<rect width="8" height="8" fill="white" transform="translate(16 56)"/>
</clipPath>
<clipPath id="clip11_96_40349">
<rect width="8" height="8" fill="white" transform="translate(16 48)"/>
</clipPath>
<clipPath id="clip12_96_40349">
<rect width="8" height="8" fill="white" transform="translate(32 96)"/>
</clipPath>
<clipPath id="clip13_96_40349">
<rect width="8" height="8" fill="white" transform="translate(24 64)"/>
</clipPath>
<clipPath id="clip14_96_40349">
<rect width="8" height="8" fill="white" transform="translate(24 56)"/>
</clipPath>
<clipPath id="clip15_96_40349">
<rect width="8" height="8" fill="white" transform="translate(16 80)"/>
</clipPath>
<clipPath id="clip16_96_40349">
<rect width="8" height="8" fill="white" transform="translate(8 128)"/>
</clipPath>
<clipPath id="clip17_96_40349">
<rect width="8" height="8" fill="white" transform="translate(24 128)"/>
</clipPath>
<clipPath id="clip18_96_40349">
<rect width="8" height="8" fill="white" transform="translate(32 128)"/>
</clipPath>
<clipPath id="clip19_96_40349">
<rect width="8" height="8" fill="white" transform="translate(8 112)"/>
</clipPath>
<clipPath id="clip20_96_40349">
<rect width="8" height="8" fill="white" transform="translate(24 112)"/>
</clipPath>
<clipPath id="clip21_96_40349">
<rect width="8" height="8" fill="white" transform="translate(32 112)"/>
</clipPath>
<clipPath id="clip22_96_40349">
<rect width="8" height="8" fill="white" transform="translate(0 104)"/>
</clipPath>
<clipPath id="clip23_96_40349">
<rect width="8" height="8" fill="white" transform="translate(16 104)"/>
</clipPath>
<clipPath id="clip24_96_40349">
<rect width="8" height="8" fill="white" transform="translate(8 72)"/>
</clipPath>
<clipPath id="clip25_96_40349">
<rect width="8" height="8" fill="white" transform="translate(0 136)"/>
</clipPath>
<clipPath id="clip26_96_40349">
<rect width="8" height="8" fill="white" transform="translate(16 136)"/>
</clipPath>
<clipPath id="clip27_96_40349">
<rect width="8" height="8" fill="white" transform="translate(0 120)"/>
</clipPath>
<clipPath id="clip28_96_40349">
<rect width="8" height="8" fill="white" transform="translate(16 120)"/>
</clipPath>
<clipPath id="clip29_96_40349">
<rect width="8" height="8" fill="white" transform="translate(8 104)"/>
</clipPath>
<clipPath id="clip30_96_40349">
<rect width="8" height="8" fill="white" transform="translate(24 104)"/>
</clipPath>
<clipPath id="clip31_96_40349">
<rect width="8" height="8" fill="white" transform="translate(16 72)"/>
</clipPath>
<clipPath id="clip32_96_40349">
<rect width="8" height="8" fill="white" transform="translate(32 104)"/>
</clipPath>
<clipPath id="clip33_96_40349">
<rect width="8" height="8" fill="white" transform="translate(24 72)"/>
</clipPath>
<clipPath id="clip34_96_40349">
<rect width="8" height="8" fill="white" transform="translate(16 88)"/>
</clipPath>
<clipPath id="clip35_96_40349">
<rect width="8" height="8" fill="white" transform="translate(8 136)"/>
</clipPath>
<clipPath id="clip36_96_40349">
<rect width="8" height="8" fill="white" transform="translate(24 136)"/>
</clipPath>
<clipPath id="clip37_96_40349">
<rect width="8" height="8" fill="white" transform="translate(32 136)"/>
</clipPath>
<clipPath id="clip38_96_40349">
<rect width="8" height="8" fill="white" transform="translate(8 120)"/>
</clipPath>
<clipPath id="clip39_96_40349">
<rect width="8" height="8" fill="white" transform="translate(24 120)"/>
</clipPath>
<clipPath id="clip40_96_40349">
<rect width="8" height="8" fill="white" transform="translate(32 120)"/>
</clipPath>
<clipPath id="clip41_96_40349">
<rect width="8" height="8" fill="white" transform="translate(52 72)"/>
</clipPath>
<clipPath id="clip42_96_40349">
<rect width="8" height="8" fill="white" transform="translate(68 72)"/>
</clipPath>
<clipPath id="clip43_96_40349">
<rect width="8" height="8" fill="white" transform="translate(60 40)"/>
</clipPath>
<clipPath id="clip44_96_40349">
<rect width="8" height="8" fill="white" transform="translate(52 104)"/>
</clipPath>
<clipPath id="clip45_96_40349">
<rect width="8" height="8" fill="white" transform="translate(68 104)"/>
</clipPath>
<clipPath id="clip46_96_40349">
<rect width="8" height="8" fill="white" transform="translate(52 136)"/>
</clipPath>
<clipPath id="clip47_96_40349">
<rect width="8" height="8" fill="white" transform="translate(68 136)"/>
</clipPath>
<clipPath id="clip48_96_40349">
<rect width="8" height="8" fill="white" transform="translate(52 88)"/>
</clipPath>
<clipPath id="clip49_96_40349">
<rect width="8" height="8" fill="white" transform="translate(68 88)"/>
</clipPath>
<clipPath id="clip50_96_40349">
<rect width="8" height="8" fill="white" transform="translate(52 120)"/>
</clipPath>
<clipPath id="clip51_96_40349">
<rect width="8" height="8" fill="white" transform="translate(68 120)"/>
</clipPath>
<clipPath id="clip52_96_40349">
<rect width="8" height="8" fill="white" transform="translate(60 72)"/>
</clipPath>
<clipPath id="clip53_96_40349">
<rect width="8" height="8" fill="white" transform="translate(76 72)"/>
</clipPath>
<clipPath id="clip54_96_40349">
<rect width="8" height="8" fill="white" transform="translate(68 40)"/>
</clipPath>
<clipPath id="clip55_96_40349">
<rect width="8" height="8" fill="white" transform="translate(68 32)"/>
</clipPath>
<clipPath id="clip56_96_40349">
<rect width="8" height="8" fill="white" transform="translate(68 24)"/>
</clipPath>
<clipPath id="clip57_96_40349">
<rect width="8" height="8" fill="white" transform="translate(84 72)"/>
</clipPath>
<clipPath id="clip58_96_40349">
<rect width="8" height="8" fill="white" transform="translate(76 40)"/>
</clipPath>
<clipPath id="clip59_96_40349">
<rect width="8" height="8" fill="white" transform="translate(76 32)"/>
</clipPath>
<clipPath id="clip60_96_40349">
<rect width="8" height="8" fill="white" transform="translate(68 56)"/>
</clipPath>
<clipPath id="clip61_96_40349">
<rect width="8" height="8" fill="white" transform="translate(60 104)"/>
</clipPath>
<clipPath id="clip62_96_40349">
<rect width="8" height="8" fill="white" transform="translate(76 104)"/>
</clipPath>
<clipPath id="clip63_96_40349">
<rect width="8" height="8" fill="white" transform="translate(84 104)"/>
</clipPath>
<clipPath id="clip64_96_40349">
<rect width="8" height="8" fill="white" transform="translate(60 136)"/>
</clipPath>
<clipPath id="clip65_96_40349">
<rect width="8" height="8" fill="white" transform="translate(76 136)"/>
</clipPath>
<clipPath id="clip66_96_40349">
<rect width="8" height="8" fill="white" transform="translate(84 136)"/>
</clipPath>
<clipPath id="clip67_96_40349">
<rect width="8" height="8" fill="white" transform="translate(60 88)"/>
</clipPath>
<clipPath id="clip68_96_40349">
<rect width="8" height="8" fill="white" transform="translate(76 88)"/>
</clipPath>
<clipPath id="clip69_96_40349">
<rect width="8" height="8" fill="white" transform="translate(84 88)"/>
</clipPath>
<clipPath id="clip70_96_40349">
<rect width="8" height="8" fill="white" transform="translate(60 120)"/>
</clipPath>
<clipPath id="clip71_96_40349">
<rect width="8" height="8" fill="white" transform="translate(76 120)"/>
</clipPath>
<clipPath id="clip72_96_40349">
<rect width="8" height="8" fill="white" transform="translate(84 120)"/>
</clipPath>
<clipPath id="clip73_96_40349">
<rect width="8" height="8" fill="white" transform="translate(52 80)"/>
</clipPath>
<clipPath id="clip74_96_40349">
<rect width="8" height="8" fill="white" transform="translate(68 80)"/>
</clipPath>
<clipPath id="clip75_96_40349">
<rect width="8" height="8" fill="white" transform="translate(60 48)"/>
</clipPath>
<clipPath id="clip76_96_40349">
<rect width="8" height="8" fill="white" transform="translate(52 112)"/>
</clipPath>
<clipPath id="clip77_96_40349">
<rect width="8" height="8" fill="white" transform="translate(68 112)"/>
</clipPath>
<clipPath id="clip78_96_40349">
<rect width="8" height="8" fill="white" transform="translate(52 96)"/>
</clipPath>
<clipPath id="clip79_96_40349">
<rect width="8" height="8" fill="white" transform="translate(68 96)"/>
</clipPath>
<clipPath id="clip80_96_40349">
<rect width="8" height="8" fill="white" transform="translate(52 128)"/>
</clipPath>
<clipPath id="clip81_96_40349">
<rect width="8" height="8" fill="white" transform="translate(68 128)"/>
</clipPath>
<clipPath id="clip82_96_40349">
<rect width="8" height="8" fill="white" transform="translate(60 80)"/>
</clipPath>
<clipPath id="clip83_96_40349">
<rect width="8" height="8" fill="white" transform="translate(76 80)"/>
</clipPath>
<clipPath id="clip84_96_40349">
<rect width="8" height="8" fill="white" transform="translate(68 48)"/>
</clipPath>
<clipPath id="clip85_96_40349">
<rect width="8" height="8" fill="white" transform="translate(84 80)"/>
</clipPath>
<clipPath id="clip86_96_40349">
<rect width="8" height="8" fill="white" transform="translate(76 48)"/>
</clipPath>
<clipPath id="clip87_96_40349">
<rect width="8" height="8" fill="white" transform="translate(68 64)"/>
</clipPath>
<clipPath id="clip88_96_40349">
<rect width="8" height="8" fill="white" transform="translate(60 112)"/>
</clipPath>
<clipPath id="clip89_96_40349">
<rect width="8" height="8" fill="white" transform="translate(76 112)"/>
</clipPath>
<clipPath id="clip90_96_40349">
<rect width="8" height="8" fill="white" transform="translate(84 112)"/>
</clipPath>
<clipPath id="clip91_96_40349">
<rect width="8" height="8" fill="white" transform="translate(60 96)"/>
</clipPath>
<clipPath id="clip92_96_40349">
<rect width="8" height="8" fill="white" transform="translate(76 96)"/>
</clipPath>
<clipPath id="clip93_96_40349">
<rect width="8" height="8" fill="white" transform="translate(84 96)"/>
</clipPath>
<clipPath id="clip94_96_40349">
<rect width="8" height="8" fill="white" transform="translate(60 128)"/>
</clipPath>
<clipPath id="clip95_96_40349">
<rect width="8" height="8" fill="white" transform="translate(76 128)"/>
</clipPath>
<clipPath id="clip96_96_40349">
<rect width="8" height="8" fill="white" transform="translate(84 128)"/>
</clipPath>
<clipPath id="clip97_96_40349">
<rect width="8" height="8" fill="white" transform="translate(104 48)"/>
</clipPath>
<clipPath id="clip98_96_40349">
<rect width="8" height="8" fill="white" transform="translate(120 48)"/>
</clipPath>
<clipPath id="clip99_96_40349">
<rect width="8" height="8" fill="white" transform="translate(112 16)"/>
</clipPath>
<clipPath id="clip100_96_40349">
<rect width="8" height="8" fill="white" transform="translate(104 80)"/>
</clipPath>
<clipPath id="clip101_96_40349">
<rect width="8" height="8" fill="white" transform="translate(120 80)"/>
</clipPath>
<clipPath id="clip102_96_40349">
<rect width="8" height="8" fill="white" transform="translate(104 112)"/>
</clipPath>
<clipPath id="clip103_96_40349">
<rect width="8" height="8" fill="white" transform="translate(120 112)"/>
</clipPath>
<clipPath id="clip104_96_40349">
<rect width="8" height="8" fill="white" transform="translate(104 64)"/>
</clipPath>
<clipPath id="clip105_96_40349">
<rect width="8" height="8" fill="white" transform="translate(120 64)"/>
</clipPath>
<clipPath id="clip106_96_40349">
<rect width="8" height="8" fill="white" transform="translate(104 96)"/>
</clipPath>
<clipPath id="clip107_96_40349">
<rect width="8" height="8" fill="white" transform="translate(120 96)"/>
</clipPath>
<clipPath id="clip108_96_40349">
<rect width="8" height="8" fill="white" transform="translate(104 128)"/>
</clipPath>
<clipPath id="clip109_96_40349">
<rect width="8" height="8" fill="white" transform="translate(120 128)"/>
</clipPath>
<clipPath id="clip110_96_40349">
<rect width="8" height="8" fill="white" transform="translate(112 48)"/>
</clipPath>
<clipPath id="clip111_96_40349">
<rect width="8" height="8" fill="white" transform="translate(128 48)"/>
</clipPath>
<clipPath id="clip112_96_40349">
<rect width="8" height="8" fill="white" transform="translate(120 16)"/>
</clipPath>
<clipPath id="clip113_96_40349">
<rect width="8" height="8" fill="white" transform="translate(120 8)"/>
</clipPath>
<clipPath id="clip114_96_40349">
<rect width="8" height="8" fill="white" transform="translate(120)"/>
</clipPath>
<clipPath id="clip115_96_40349">
<rect width="8" height="8" fill="white" transform="translate(136 48)"/>
</clipPath>
<clipPath id="clip116_96_40349">
<rect width="8" height="8" fill="white" transform="translate(128 16)"/>
</clipPath>
<clipPath id="clip117_96_40349">
<rect width="8" height="8" fill="white" transform="translate(128 8)"/>
</clipPath>
<clipPath id="clip118_96_40349">
<rect width="8" height="8" fill="white" transform="translate(120 32)"/>
</clipPath>
<clipPath id="clip119_96_40349">
<rect width="8" height="8" fill="white" transform="translate(112 80)"/>
</clipPath>
<clipPath id="clip120_96_40349">
<rect width="8" height="8" fill="white" transform="translate(128 80)"/>
</clipPath>
<clipPath id="clip121_96_40349">
<rect width="8" height="8" fill="white" transform="translate(136 80)"/>
</clipPath>
<clipPath id="clip122_96_40349">
<rect width="8" height="8" fill="white" transform="translate(112 112)"/>
</clipPath>
<clipPath id="clip123_96_40349">
<rect width="8" height="8" fill="white" transform="translate(128 112)"/>
</clipPath>
<clipPath id="clip124_96_40349">
<rect width="8" height="8" fill="white" transform="translate(136 112)"/>
</clipPath>
<clipPath id="clip125_96_40349">
<rect width="8" height="8" fill="white" transform="translate(112 64)"/>
</clipPath>
<clipPath id="clip126_96_40349">
<rect width="8" height="8" fill="white" transform="translate(128 64)"/>
</clipPath>
<clipPath id="clip127_96_40349">
<rect width="8" height="8" fill="white" transform="translate(136 64)"/>
</clipPath>
<clipPath id="clip128_96_40349">
<rect width="8" height="8" fill="white" transform="translate(112 96)"/>
</clipPath>
<clipPath id="clip129_96_40349">
<rect width="8" height="8" fill="white" transform="translate(128 96)"/>
</clipPath>
<clipPath id="clip130_96_40349">
<rect width="8" height="8" fill="white" transform="translate(136 96)"/>
</clipPath>
<clipPath id="clip131_96_40349">
<rect width="8" height="8" fill="white" transform="translate(112 128)"/>
</clipPath>
<clipPath id="clip132_96_40349">
<rect width="8" height="8" fill="white" transform="translate(128 128)"/>
</clipPath>
<clipPath id="clip133_96_40349">
<rect width="8" height="8" fill="white" transform="translate(136 128)"/>
</clipPath>
<clipPath id="clip134_96_40349">
<rect width="8" height="8" fill="white" transform="translate(104 56)"/>
</clipPath>
<clipPath id="clip135_96_40349">
<rect width="8" height="8" fill="white" transform="translate(120 56)"/>
</clipPath>
<clipPath id="clip136_96_40349">
<rect width="8" height="8" fill="white" transform="translate(112 24)"/>
</clipPath>
<clipPath id="clip137_96_40349">
<rect width="8" height="8" fill="white" transform="translate(104 88)"/>
</clipPath>
<clipPath id="clip138_96_40349">
<rect width="8" height="8" fill="white" transform="translate(120 88)"/>
</clipPath>
<clipPath id="clip139_96_40349">
<rect width="8" height="8" fill="white" transform="translate(104 120)"/>
</clipPath>
<clipPath id="clip140_96_40349">
<rect width="8" height="8" fill="white" transform="translate(120 120)"/>
</clipPath>
<clipPath id="clip141_96_40349">
<rect width="8" height="8" fill="white" transform="translate(104 72)"/>
</clipPath>
<clipPath id="clip142_96_40349">
<rect width="8" height="8" fill="white" transform="translate(120 72)"/>
</clipPath>
<clipPath id="clip143_96_40349">
<rect width="8" height="8" fill="white" transform="translate(104 104)"/>
</clipPath>
<clipPath id="clip144_96_40349">
<rect width="8" height="8" fill="white" transform="translate(120 104)"/>
</clipPath>
<clipPath id="clip145_96_40349">
<rect width="8" height="8" fill="white" transform="translate(104 136)"/>
</clipPath>
<clipPath id="clip146_96_40349">
<rect width="8" height="8" fill="white" transform="translate(120 136)"/>
</clipPath>
<clipPath id="clip147_96_40349">
<rect width="8" height="8" fill="white" transform="translate(112 56)"/>
</clipPath>
<clipPath id="clip148_96_40349">
<rect width="8" height="8" fill="white" transform="translate(128 56)"/>
</clipPath>
<clipPath id="clip149_96_40349">
<rect width="8" height="8" fill="white" transform="translate(120 24)"/>
</clipPath>
<clipPath id="clip150_96_40349">
<rect width="8" height="8" fill="white" transform="translate(136 56)"/>
</clipPath>
<clipPath id="clip151_96_40349">
<rect width="8" height="8" fill="white" transform="translate(128 24)"/>
</clipPath>
<clipPath id="clip152_96_40349">
<rect width="8" height="8" fill="white" transform="translate(120 40)"/>
</clipPath>
<clipPath id="clip153_96_40349">
<rect width="8" height="8" fill="white" transform="translate(112 88)"/>
</clipPath>
<clipPath id="clip154_96_40349">
<rect width="8" height="8" fill="white" transform="translate(128 88)"/>
</clipPath>
<clipPath id="clip155_96_40349">
<rect width="8" height="8" fill="white" transform="translate(136 88)"/>
</clipPath>
<clipPath id="clip156_96_40349">
<rect width="8" height="8" fill="white" transform="translate(112 120)"/>
</clipPath>
<clipPath id="clip157_96_40349">
<rect width="8" height="8" fill="white" transform="translate(128 120)"/>
</clipPath>
<clipPath id="clip158_96_40349">
<rect width="8" height="8" fill="white" transform="translate(136 120)"/>
</clipPath>
<clipPath id="clip159_96_40349">
<rect width="8" height="8" fill="white" transform="translate(112 72)"/>
</clipPath>
<clipPath id="clip160_96_40349">
<rect width="8" height="8" fill="white" transform="translate(128 72)"/>
</clipPath>
<clipPath id="clip161_96_40349">
<rect width="8" height="8" fill="white" transform="translate(136 72)"/>
</clipPath>
<clipPath id="clip162_96_40349">
<rect width="8" height="8" fill="white" transform="translate(112 104)"/>
</clipPath>
<clipPath id="clip163_96_40349">
<rect width="8" height="8" fill="white" transform="translate(128 104)"/>
</clipPath>
<clipPath id="clip164_96_40349">
<rect width="8" height="8" fill="white" transform="translate(136 104)"/>
</clipPath>
<clipPath id="clip165_96_40349">
<rect width="8" height="8" fill="white" transform="translate(112 136)"/>
</clipPath>
<clipPath id="clip166_96_40349">
<rect width="8" height="8" fill="white" transform="translate(128 136)"/>
</clipPath>
<clipPath id="clip167_96_40349">
<rect width="8" height="8" fill="white" transform="translate(136 136)"/>
</clipPath>
</defs>
</svg>
