<svg width="184" height="144" viewBox="0 0 184 144" fill="none" xmlns="http://www.w3.org/2000/svg">
<g clip-path="url(#clip0_96_1274)">
<path d="M0 56L8 64" stroke="#FF0000" stroke-width="2.5"/>
<path d="M0 64L8 56" stroke="#FF0000" stroke-width="2.5"/>
</g>
<g clip-path="url(#clip1_96_1274)">
<path d="M0 64L8 72" stroke="#FF0000" stroke-width="2.5"/>
<path d="M0 72L8 64" stroke="#FF0000" stroke-width="2.5"/>
</g>
<g clip-path="url(#clip2_96_1274)">
<path d="M0 72L8 80" stroke="#FF0000" stroke-width="2.5"/>
<path d="M0 80L8 72" stroke="#FF0000" stroke-width="2.5"/>
</g>
<g clip-path="url(#clip3_96_1274)">
<path d="M0 80L8 88" stroke="#FF0000" stroke-width="2.5"/>
<path d="M0 88L8 80" stroke="#FF0000" stroke-width="2.5"/>
</g>
<g clip-path="url(#clip4_96_1274)">
<path d="M24 104L32 112" stroke="#FF0000" stroke-width="2.5"/>
<path d="M24 112L32 104" stroke="#FF0000" stroke-width="2.5"/>
</g>
<g clip-path="url(#clip5_96_1274)">
<path d="M8 88L16 96" stroke="#FF0000" stroke-width="2.5"/>
<path d="M8 96L16 88" stroke="#FF0000" stroke-width="2.5"/>
</g>
<g clip-path="url(#clip6_96_1274)">
<path d="M32 112L40 120" stroke="#FF0000" stroke-width="2.5"/>
<path d="M32 120L40 112" stroke="#FF0000" stroke-width="2.5"/>
</g>
<g clip-path="url(#clip7_96_1274)">
<path d="M16 96L24 104" stroke="#FF0000" stroke-width="2.5"/>
<path d="M16 104L24 96" stroke="#FF0000" stroke-width="2.5"/>
</g>
<g clip-path="url(#clip8_96_1274)">
<path d="M40 120L48 128" stroke="#FF0000" stroke-width="2.5"/>
<path d="M40 128L48 120" stroke="#FF0000" stroke-width="2.5"/>
</g>
<g clip-path="url(#clip9_96_1274)">
<path d="M8 48L16 56" stroke="#FF0000" stroke-width="2.5"/>
<path d="M8 56L16 48" stroke="#FF0000" stroke-width="2.5"/>
</g>
<g clip-path="url(#clip10_96_1274)">
<path d="M16 40L24 48" stroke="#FF0000" stroke-width="2.5"/>
<path d="M16 48L24 40" stroke="#FF0000" stroke-width="2.5"/>
</g>
<g clip-path="url(#clip11_96_1274)">
<path d="M24 32L32 40" stroke="#FF0000" stroke-width="2.5"/>
<path d="M24 40L32 32" stroke="#FF0000" stroke-width="2.5"/>
</g>
<g clip-path="url(#clip12_96_1274)">
<path d="M32 32L40 40" stroke="#FF0000" stroke-width="2.5"/>
<path d="M32 40L40 32" stroke="#FF0000" stroke-width="2.5"/>
</g>
<g clip-path="url(#clip13_96_1274)">
<path d="M40 32L48 40" stroke="#FF0000" stroke-width="2.5"/>
<path d="M40 40L48 32" stroke="#FF0000" stroke-width="2.5"/>
</g>
<g clip-path="url(#clip14_96_1274)">
<path d="M48 40L56 48" stroke="#FF0000" stroke-width="2.5"/>
<path d="M48 48L56 40" stroke="#FF0000" stroke-width="2.5"/>
</g>
<g clip-path="url(#clip15_96_1274)">
<path d="M56 48L64 56" stroke="#FF0000" stroke-width="2.5"/>
<path d="M56 56L64 48" stroke="#FF0000" stroke-width="2.5"/>
</g>
<g clip-path="url(#clip16_96_1274)">
<path d="M56 64L64 72" stroke="black" stroke-width="2.5"/>
<path d="M56 72L64 64" stroke="black" stroke-width="2.5"/>
</g>
<g clip-path="url(#clip17_96_1274)">
<path d="M48 64L56 72" stroke="black" stroke-width="2.5"/>
<path d="M48 72L56 64" stroke="black" stroke-width="2.5"/>
</g>
<g clip-path="url(#clip18_96_1274)">
<path d="M40 72L48 80" stroke="black" stroke-width="2.5"/>
<path d="M40 80L48 72" stroke="black" stroke-width="2.5"/>
</g>
<g clip-path="url(#clip19_96_1274)">
<path d="M64 72L72 80" stroke="black" stroke-width="2.5"/>
<path d="M64 80L72 72" stroke="black" stroke-width="2.5"/>
</g>
<g clip-path="url(#clip20_96_1274)">
<path d="M56 80L64 88" stroke="black" stroke-width="2.5"/>
<path d="M56 88L64 80" stroke="black" stroke-width="2.5"/>
</g>
<g clip-path="url(#clip21_96_1274)">
<path d="M48 88L56 96" stroke="black" stroke-width="2.5"/>
<path d="M48 96L56 88" stroke="black" stroke-width="2.5"/>
</g>
<g clip-path="url(#clip22_96_1274)">
<path d="M40 96L48 104" stroke="black" stroke-width="2.5"/>
<path d="M40 104L48 96" stroke="black" stroke-width="2.5"/>
</g>
<g clip-path="url(#clip23_96_1274)">
<path d="M56 96L64 104" stroke="black" stroke-width="2.5"/>
<path d="M56 104L64 96" stroke="black" stroke-width="2.5"/>
</g>
<g clip-path="url(#clip24_96_1274)">
<path d="M48 96L56 104" stroke="black" stroke-width="2.5"/>
<path d="M48 104L56 96" stroke="black" stroke-width="2.5"/>
</g>
<g clip-path="url(#clip25_96_1274)">
<path d="M64 96L72 104" stroke="black" stroke-width="2.5"/>
<path d="M64 104L72 96" stroke="black" stroke-width="2.5"/>
</g>
<g clip-path="url(#clip26_96_1274)">
<path d="M64 40L72 48" stroke="#FF0000" stroke-width="2.5"/>
<path d="M64 48L72 40" stroke="#FF0000" stroke-width="2.5"/>
</g>
<g clip-path="url(#clip27_96_1274)">
<path d="M72 32L80 40" stroke="#FF0000" stroke-width="2.5"/>
<path d="M72 40L80 32" stroke="#FF0000" stroke-width="2.5"/>
</g>
<g clip-path="url(#clip28_96_1274)">
<path d="M80 32L88 40" stroke="#FF0000" stroke-width="2.5"/>
<path d="M80 40L88 32" stroke="#FF0000" stroke-width="2.5"/>
</g>
<g clip-path="url(#clip29_96_1274)">
<path d="M88 32L96 40" stroke="#FF0000" stroke-width="2.5"/>
<path d="M88 40L96 32" stroke="#FF0000" stroke-width="2.5"/>
</g>
<g clip-path="url(#clip30_96_1274)">
<path d="M96 40L104 48" stroke="#FF0000" stroke-width="2.5"/>
<path d="M96 48L104 40" stroke="#FF0000" stroke-width="2.5"/>
</g>
<g clip-path="url(#clip31_96_1274)">
<path d="M104 48L112 56" stroke="#FF0000" stroke-width="2.5"/>
<path d="M104 56L112 48" stroke="#FF0000" stroke-width="2.5"/>
</g>
<g clip-path="url(#clip32_96_1274)">
<path d="M112 56L120 64" stroke="#FF0000" stroke-width="2.5"/>
<path d="M112 64L120 56" stroke="#FF0000" stroke-width="2.5"/>
</g>
<g clip-path="url(#clip33_96_1274)">
<path d="M112 64L120 72" stroke="#FF0000" stroke-width="2.5"/>
<path d="M112 72L120 64" stroke="#FF0000" stroke-width="2.5"/>
</g>
<g clip-path="url(#clip34_96_1274)">
<path d="M112 72L120 80" stroke="#FF0000" stroke-width="2.5"/>
<path d="M112 80L120 72" stroke="#FF0000" stroke-width="2.5"/>
</g>
<g clip-path="url(#clip35_96_1274)">
<path d="M112 80L120 88" stroke="#FF0000" stroke-width="2.5"/>
<path d="M112 88L120 80" stroke="#FF0000" stroke-width="2.5"/>
</g>
<g clip-path="url(#clip36_96_1274)">
<path d="M104 88L112 96" stroke="#FF0000" stroke-width="2.5"/>
<path d="M104 96L112 88" stroke="#FF0000" stroke-width="2.5"/>
</g>
<g clip-path="url(#clip37_96_1274)">
<path d="M96 96L104 104" stroke="#FF0000" stroke-width="2.5"/>
<path d="M96 104L104 96" stroke="#FF0000" stroke-width="2.5"/>
</g>
<g clip-path="url(#clip38_96_1274)">
<path d="M88 104L96 112" stroke="#FF0000" stroke-width="2.5"/>
<path d="M88 112L96 104" stroke="#FF0000" stroke-width="2.5"/>
</g>
<g clip-path="url(#clip39_96_1274)">
<path d="M80 112L88 120" stroke="#FF0000" stroke-width="2.5"/>
<path d="M80 120L88 112" stroke="#FF0000" stroke-width="2.5"/>
</g>
<g clip-path="url(#clip40_96_1274)">
<path d="M72 120L80 128" stroke="#FF0000" stroke-width="2.5"/>
<path d="M72 128L80 120" stroke="#FF0000" stroke-width="2.5"/>
</g>
<g clip-path="url(#clip41_96_1274)">
<path d="M64 128L72 136" stroke="#FF0000" stroke-width="2.5"/>
<path d="M64 136L72 128" stroke="#FF0000" stroke-width="2.5"/>
</g>
<g clip-path="url(#clip42_96_1274)">
<path d="M56 136L64 144" stroke="#FF0000" stroke-width="2.5"/>
<path d="M56 144L64 136" stroke="#FF0000" stroke-width="2.5"/>
</g>
<g clip-path="url(#clip43_96_1274)">
<path d="M48 128L56 136" stroke="#FF0000" stroke-width="2.5"/>
<path d="M48 136L56 128" stroke="#FF0000" stroke-width="2.5"/>
</g>
<g clip-path="url(#clip44_96_1274)">
<path d="M144 48L152 56" stroke="#A568CA" stroke-width="2.5"/>
<path d="M144 56L152 48" stroke="#A568CA" stroke-width="2.5"/>
</g>
<g clip-path="url(#clip45_96_1274)">
<path d="M160 48L168 56" stroke="#D564C6" stroke-width="2.5"/>
<path d="M160 56L168 48" stroke="#D564C6" stroke-width="2.5"/>
</g>
<g clip-path="url(#clip46_96_1274)">
<path d="M152 16L160 24" stroke="#EC580F" stroke-width="2.5"/>
<path d="M152 24L160 16" stroke="#EC580F" stroke-width="2.5"/>
</g>
<g clip-path="url(#clip47_96_1274)">
<path d="M144 80L152 88" stroke="#A568CA" stroke-width="2.5"/>
<path d="M144 88L152 80" stroke="#A568CA" stroke-width="2.5"/>
</g>
<g clip-path="url(#clip48_96_1274)">
<path d="M160 80L168 88" stroke="#9B3AA2" stroke-width="2.5"/>
<path d="M160 88L168 80" stroke="#9B3AA2" stroke-width="2.5"/>
</g>
<g clip-path="url(#clip49_96_1274)">
<path d="M144 112L152 120" stroke="#A568CA" stroke-width="2.5"/>
<path d="M144 120L152 112" stroke="#A568CA" stroke-width="2.5"/>
</g>
<g clip-path="url(#clip50_96_1274)">
<path d="M160 112L168 120" stroke="#9B3AA2" stroke-width="2.5"/>
<path d="M160 120L168 112" stroke="#9B3AA2" stroke-width="2.5"/>
</g>
<g clip-path="url(#clip51_96_1274)">
<path d="M144 64L152 72" stroke="#A568CA" stroke-width="2.5"/>
<path d="M144 72L152 64" stroke="#A568CA" stroke-width="2.5"/>
</g>
<g clip-path="url(#clip52_96_1274)">
<path d="M160 64L168 72" stroke="#9B3AA2" stroke-width="2.5"/>
<path d="M160 72L168 64" stroke="#9B3AA2" stroke-width="2.5"/>
</g>
<g clip-path="url(#clip53_96_1274)">
<path d="M144 96L152 104" stroke="#A568CA" stroke-width="2.5"/>
<path d="M144 104L152 96" stroke="#A568CA" stroke-width="2.5"/>
</g>
<g clip-path="url(#clip54_96_1274)">
<path d="M160 96L168 104" stroke="#9B3AA2" stroke-width="2.5"/>
<path d="M160 104L168 96" stroke="#9B3AA2" stroke-width="2.5"/>
</g>
<g clip-path="url(#clip55_96_1274)">
<path d="M144 128L152 136" stroke="#A568CA" stroke-width="2.5"/>
<path d="M144 136L152 128" stroke="#A568CA" stroke-width="2.5"/>
</g>
<g clip-path="url(#clip56_96_1274)">
<path d="M160 128L168 136" stroke="#9B3AA2" stroke-width="2.5"/>
<path d="M160 136L168 128" stroke="#9B3AA2" stroke-width="2.5"/>
</g>
<g clip-path="url(#clip57_96_1274)">
<path d="M152 48L160 56" stroke="#9B3AA2" stroke-width="2.5"/>
<path d="M152 56L160 48" stroke="#9B3AA2" stroke-width="2.5"/>
</g>
<g clip-path="url(#clip58_96_1274)">
<path d="M168 48L176 56" stroke="#D564C6" stroke-width="2.5"/>
<path d="M168 56L176 48" stroke="#D564C6" stroke-width="2.5"/>
</g>
<g clip-path="url(#clip59_96_1274)">
<path d="M160 16L168 24" stroke="#F8C152" stroke-width="2.5"/>
<path d="M160 24L168 16" stroke="#F8C152" stroke-width="2.5"/>
</g>
<g clip-path="url(#clip60_96_1274)">
<path d="M160 8L168 16" stroke="#EF9400" stroke-width="2.5"/>
<path d="M160 16L168 8" stroke="#EF9400" stroke-width="2.5"/>
</g>
<g clip-path="url(#clip61_96_1274)">
<path d="M160 0L168 8" stroke="#EC580F" stroke-width="2.5"/>
<path d="M160 8L168 2.73828e-07" stroke="#EC580F" stroke-width="2.5"/>
</g>
<g clip-path="url(#clip62_96_1274)">
<path d="M176 48L184 56" stroke="#D564C6" stroke-width="2.5"/>
<path d="M176 56L184 48" stroke="#D564C6" stroke-width="2.5"/>
</g>
<g clip-path="url(#clip63_96_1274)">
<path d="M168 16L176 24" stroke="#EC580F" stroke-width="2.5"/>
<path d="M168 24L176 16" stroke="#EC580F" stroke-width="2.5"/>
</g>
<g clip-path="url(#clip64_96_1274)">
<path d="M168 8L176 16" stroke="#EC580F" stroke-width="2.5"/>
<path d="M168 16L176 8" stroke="#EC580F" stroke-width="2.5"/>
</g>
<g clip-path="url(#clip65_96_1274)">
<path d="M160 32L168 40" stroke="#7C061E" stroke-width="2.5"/>
<path d="M160 40L168 32" stroke="#7C061E" stroke-width="2.5"/>
</g>
<g clip-path="url(#clip66_96_1274)">
<path d="M152 80L160 88" stroke="#9B3AA2" stroke-width="2.5"/>
<path d="M152 88L160 80" stroke="#9B3AA2" stroke-width="2.5"/>
</g>
<g clip-path="url(#clip67_96_1274)">
<path d="M168 80L176 88" stroke="#D564C6" stroke-width="2.5"/>
<path d="M168 88L176 80" stroke="#D564C6" stroke-width="2.5"/>
</g>
<g clip-path="url(#clip68_96_1274)">
<path d="M176 80L184 88" stroke="#9B3AA2" stroke-width="2.5"/>
<path d="M176 88L184 80" stroke="#9B3AA2" stroke-width="2.5"/>
</g>
<g clip-path="url(#clip69_96_1274)">
<path d="M152 112L160 120" stroke="#9B3AA2" stroke-width="2.5"/>
<path d="M152 120L160 112" stroke="#9B3AA2" stroke-width="2.5"/>
</g>
<g clip-path="url(#clip70_96_1274)">
<path d="M168 112L176 120" stroke="#9B3AA2" stroke-width="2.5"/>
<path d="M168 120L176 112" stroke="#9B3AA2" stroke-width="2.5"/>
</g>
<g clip-path="url(#clip71_96_1274)">
<path d="M176 112L184 120" stroke="#9B3AA2" stroke-width="2.5"/>
<path d="M176 120L184 112" stroke="#9B3AA2" stroke-width="2.5"/>
</g>
<g clip-path="url(#clip72_96_1274)">
<path d="M152 64L160 72" stroke="#9B3AA2" stroke-width="2.5"/>
<path d="M152 72L160 64" stroke="#9B3AA2" stroke-width="2.5"/>
</g>
<g clip-path="url(#clip73_96_1274)">
<path d="M168 64L176 72" stroke="#D564C6" stroke-width="2.5"/>
<path d="M168 72L176 64" stroke="#D564C6" stroke-width="2.5"/>
</g>
<g clip-path="url(#clip74_96_1274)">
<path d="M176 64L184 72" stroke="#9B3AA2" stroke-width="2.5"/>
<path d="M176 72L184 64" stroke="#9B3AA2" stroke-width="2.5"/>
</g>
<g clip-path="url(#clip75_96_1274)">
<path d="M152 96L160 104" stroke="#9B3AA2" stroke-width="2.5"/>
<path d="M152 104L160 96" stroke="#9B3AA2" stroke-width="2.5"/>
</g>
<g clip-path="url(#clip76_96_1274)">
<path d="M168 96L176 104" stroke="#9B3AA2" stroke-width="2.5"/>
<path d="M168 104L176 96" stroke="#9B3AA2" stroke-width="2.5"/>
</g>
<g clip-path="url(#clip77_96_1274)">
<path d="M176 96L184 104" stroke="#9B3AA2" stroke-width="2.5"/>
<path d="M176 104L184 96" stroke="#9B3AA2" stroke-width="2.5"/>
</g>
<g clip-path="url(#clip78_96_1274)">
<path d="M152 128L160 136" stroke="#9B3AA2" stroke-width="2.5"/>
<path d="M152 136L160 128" stroke="#9B3AA2" stroke-width="2.5"/>
</g>
<g clip-path="url(#clip79_96_1274)">
<path d="M168 128L176 136" stroke="#9B3AA2" stroke-width="2.5"/>
<path d="M168 136L176 128" stroke="#9B3AA2" stroke-width="2.5"/>
</g>
<g clip-path="url(#clip80_96_1274)">
<path d="M176 128L184 136" stroke="#9B3AA2" stroke-width="2.5"/>
<path d="M176 136L184 128" stroke="#9B3AA2" stroke-width="2.5"/>
</g>
<g clip-path="url(#clip81_96_1274)">
<path d="M144 56L152 64" stroke="#A568CA" stroke-width="2.5"/>
<path d="M144 64L152 56" stroke="#A568CA" stroke-width="2.5"/>
</g>
<g clip-path="url(#clip82_96_1274)">
<path d="M160 56L168 64" stroke="#9B3AA2" stroke-width="2.5"/>
<path d="M160 64L168 56" stroke="#9B3AA2" stroke-width="2.5"/>
</g>
<g clip-path="url(#clip83_96_1274)">
<path d="M152 24L160 32" stroke="#EC580F" stroke-width="2.5"/>
<path d="M152 32L160 24" stroke="#EC580F" stroke-width="2.5"/>
</g>
<g clip-path="url(#clip84_96_1274)">
<path d="M144 88L152 96" stroke="#A568CA" stroke-width="2.5"/>
<path d="M144 96L152 88" stroke="#A568CA" stroke-width="2.5"/>
</g>
<g clip-path="url(#clip85_96_1274)">
<path d="M160 88L168 96" stroke="#9B3AA2" stroke-width="2.5"/>
<path d="M160 96L168 88" stroke="#9B3AA2" stroke-width="2.5"/>
</g>
<g clip-path="url(#clip86_96_1274)">
<path d="M144 120L152 128" stroke="#A568CA" stroke-width="2.5"/>
<path d="M144 128L152 120" stroke="#A568CA" stroke-width="2.5"/>
</g>
<g clip-path="url(#clip87_96_1274)">
<path d="M160 120L168 128" stroke="#9B3AA2" stroke-width="2.5"/>
<path d="M160 128L168 120" stroke="#9B3AA2" stroke-width="2.5"/>
</g>
<g clip-path="url(#clip88_96_1274)">
<path d="M144 72L152 80" stroke="#A568CA" stroke-width="2.5"/>
<path d="M144 80L152 72" stroke="#A568CA" stroke-width="2.5"/>
</g>
<g clip-path="url(#clip89_96_1274)">
<path d="M160 72L168 80" stroke="#9B3AA2" stroke-width="2.5"/>
<path d="M160 80L168 72" stroke="#9B3AA2" stroke-width="2.5"/>
</g>
<g clip-path="url(#clip90_96_1274)">
<path d="M144 104L152 112" stroke="#A568CA" stroke-width="2.5"/>
<path d="M144 112L152 104" stroke="#A568CA" stroke-width="2.5"/>
</g>
<g clip-path="url(#clip91_96_1274)">
<path d="M160 104L168 112" stroke="#9B3AA2" stroke-width="2.5"/>
<path d="M160 112L168 104" stroke="#9B3AA2" stroke-width="2.5"/>
</g>
<g clip-path="url(#clip92_96_1274)">
<path d="M144 136L152 144" stroke="#A568CA" stroke-width="2.5"/>
<path d="M144 144L152 136" stroke="#A568CA" stroke-width="2.5"/>
</g>
<g clip-path="url(#clip93_96_1274)">
<path d="M160 136L168 144" stroke="#9B3AA2" stroke-width="2.5"/>
<path d="M160 144L168 136" stroke="#9B3AA2" stroke-width="2.5"/>
</g>
<g clip-path="url(#clip94_96_1274)">
<path d="M152 56L160 64" stroke="#9B3AA2" stroke-width="2.5"/>
<path d="M152 64L160 56" stroke="#9B3AA2" stroke-width="2.5"/>
</g>
<g clip-path="url(#clip95_96_1274)">
<path d="M168 56L176 64" stroke="#D564C6" stroke-width="2.5"/>
<path d="M168 64L176 56" stroke="#D564C6" stroke-width="2.5"/>
</g>
<g clip-path="url(#clip96_96_1274)">
<path d="M160 24L168 32" stroke="#EF9400" stroke-width="2.5"/>
<path d="M160 32L168 24" stroke="#EF9400" stroke-width="2.5"/>
</g>
<g clip-path="url(#clip97_96_1274)">
<path d="M176 56L184 64" stroke="#9B3AA2" stroke-width="2.5"/>
<path d="M176 64L184 56" stroke="#9B3AA2" stroke-width="2.5"/>
</g>
<g clip-path="url(#clip98_96_1274)">
<path d="M168 24L176 32" stroke="#EC580F" stroke-width="2.5"/>
<path d="M168 32L176 24" stroke="#EC580F" stroke-width="2.5"/>
</g>
<g clip-path="url(#clip99_96_1274)">
<path d="M160 40L168 48" stroke="#7C061E" stroke-width="2.5"/>
<path d="M160 48L168 40" stroke="#7C061E" stroke-width="2.5"/>
</g>
<g clip-path="url(#clip100_96_1274)">
<path d="M152 88L160 96" stroke="#9B3AA2" stroke-width="2.5"/>
<path d="M152 96L160 88" stroke="#9B3AA2" stroke-width="2.5"/>
</g>
<g clip-path="url(#clip101_96_1274)">
<path d="M168 88L176 96" stroke="#9B3AA2" stroke-width="2.5"/>
<path d="M168 96L176 88" stroke="#9B3AA2" stroke-width="2.5"/>
</g>
<g clip-path="url(#clip102_96_1274)">
<path d="M176 88L184 96" stroke="#9B3AA2" stroke-width="2.5"/>
<path d="M176 96L184 88" stroke="#9B3AA2" stroke-width="2.5"/>
</g>
<g clip-path="url(#clip103_96_1274)">
<path d="M152 120L160 128" stroke="#9B3AA2" stroke-width="2.5"/>
<path d="M152 128L160 120" stroke="#9B3AA2" stroke-width="2.5"/>
</g>
<g clip-path="url(#clip104_96_1274)">
<path d="M168 120L176 128" stroke="#9B3AA2" stroke-width="2.5"/>
<path d="M168 128L176 120" stroke="#9B3AA2" stroke-width="2.5"/>
</g>
<g clip-path="url(#clip105_96_1274)">
<path d="M176 120L184 128" stroke="#9B3AA2" stroke-width="2.5"/>
<path d="M176 128L184 120" stroke="#9B3AA2" stroke-width="2.5"/>
</g>
<g clip-path="url(#clip106_96_1274)">
<path d="M152 72L160 80" stroke="#9B3AA2" stroke-width="2.5"/>
<path d="M152 80L160 72" stroke="#9B3AA2" stroke-width="2.5"/>
</g>
<g clip-path="url(#clip107_96_1274)">
<path d="M168 72L176 80" stroke="#9B3AA2" stroke-width="2.5"/>
<path d="M168 80L176 72" stroke="#9B3AA2" stroke-width="2.5"/>
</g>
<g clip-path="url(#clip108_96_1274)">
<path d="M176 72L184 80" stroke="#9B3AA2" stroke-width="2.5"/>
<path d="M176 80L184 72" stroke="#9B3AA2" stroke-width="2.5"/>
</g>
<g clip-path="url(#clip109_96_1274)">
<path d="M152 104L160 112" stroke="#9B3AA2" stroke-width="2.5"/>
<path d="M152 112L160 104" stroke="#9B3AA2" stroke-width="2.5"/>
</g>
<g clip-path="url(#clip110_96_1274)">
<path d="M168 104L176 112" stroke="#9B3AA2" stroke-width="2.5"/>
<path d="M168 112L176 104" stroke="#9B3AA2" stroke-width="2.5"/>
</g>
<g clip-path="url(#clip111_96_1274)">
<path d="M176 104L184 112" stroke="#9B3AA2" stroke-width="2.5"/>
<path d="M176 112L184 104" stroke="#9B3AA2" stroke-width="2.5"/>
</g>
<g clip-path="url(#clip112_96_1274)">
<path d="M152 136L160 144" stroke="#9B3AA2" stroke-width="2.5"/>
<path d="M152 144L160 136" stroke="#9B3AA2" stroke-width="2.5"/>
</g>
<g clip-path="url(#clip113_96_1274)">
<path d="M168 136L176 144" stroke="#9B3AA2" stroke-width="2.5"/>
<path d="M168 144L176 136" stroke="#9B3AA2" stroke-width="2.5"/>
</g>
<g clip-path="url(#clip114_96_1274)">
<path d="M176 136L184 144" stroke="#9B3AA2" stroke-width="2.5"/>
<path d="M176 144L184 136" stroke="#9B3AA2" stroke-width="2.5"/>
</g>
<defs>
<clipPath id="clip0_96_1274">
<rect width="8" height="8" fill="white" transform="translate(0 56)"/>
</clipPath>
<clipPath id="clip1_96_1274">
<rect width="8" height="8" fill="white" transform="translate(0 64)"/>
</clipPath>
<clipPath id="clip2_96_1274">
<rect width="8" height="8" fill="white" transform="translate(0 72)"/>
</clipPath>
<clipPath id="clip3_96_1274">
<rect width="8" height="8" fill="white" transform="translate(0 80)"/>
</clipPath>
<clipPath id="clip4_96_1274">
<rect width="8" height="8" fill="white" transform="translate(24 104)"/>
</clipPath>
<clipPath id="clip5_96_1274">
<rect width="8" height="8" fill="white" transform="translate(8 88)"/>
</clipPath>
<clipPath id="clip6_96_1274">
<rect width="8" height="8" fill="white" transform="translate(32 112)"/>
</clipPath>
<clipPath id="clip7_96_1274">
<rect width="8" height="8" fill="white" transform="translate(16 96)"/>
</clipPath>
<clipPath id="clip8_96_1274">
<rect width="8" height="8" fill="white" transform="translate(40 120)"/>
</clipPath>
<clipPath id="clip9_96_1274">
<rect width="8" height="8" fill="white" transform="translate(8 48)"/>
</clipPath>
<clipPath id="clip10_96_1274">
<rect width="8" height="8" fill="white" transform="translate(16 40)"/>
</clipPath>
<clipPath id="clip11_96_1274">
<rect width="8" height="8" fill="white" transform="translate(24 32)"/>
</clipPath>
<clipPath id="clip12_96_1274">
<rect width="8" height="8" fill="white" transform="translate(32 32)"/>
</clipPath>
<clipPath id="clip13_96_1274">
<rect width="8" height="8" fill="white" transform="translate(40 32)"/>
</clipPath>
<clipPath id="clip14_96_1274">
<rect width="8" height="8" fill="white" transform="translate(48 40)"/>
</clipPath>
<clipPath id="clip15_96_1274">
<rect width="8" height="8" fill="white" transform="translate(56 48)"/>
</clipPath>
<clipPath id="clip16_96_1274">
<rect width="8" height="8" fill="white" transform="translate(56 64)"/>
</clipPath>
<clipPath id="clip17_96_1274">
<rect width="8" height="8" fill="white" transform="translate(48 64)"/>
</clipPath>
<clipPath id="clip18_96_1274">
<rect width="8" height="8" fill="white" transform="translate(40 72)"/>
</clipPath>
<clipPath id="clip19_96_1274">
<rect width="8" height="8" fill="white" transform="translate(64 72)"/>
</clipPath>
<clipPath id="clip20_96_1274">
<rect width="8" height="8" fill="white" transform="translate(56 80)"/>
</clipPath>
<clipPath id="clip21_96_1274">
<rect width="8" height="8" fill="white" transform="translate(48 88)"/>
</clipPath>
<clipPath id="clip22_96_1274">
<rect width="8" height="8" fill="white" transform="translate(40 96)"/>
</clipPath>
<clipPath id="clip23_96_1274">
<rect width="8" height="8" fill="white" transform="translate(56 96)"/>
</clipPath>
<clipPath id="clip24_96_1274">
<rect width="8" height="8" fill="white" transform="translate(48 96)"/>
</clipPath>
<clipPath id="clip25_96_1274">
<rect width="8" height="8" fill="white" transform="translate(64 96)"/>
</clipPath>
<clipPath id="clip26_96_1274">
<rect width="8" height="8" fill="white" transform="translate(64 40)"/>
</clipPath>
<clipPath id="clip27_96_1274">
<rect width="8" height="8" fill="white" transform="translate(72 32)"/>
</clipPath>
<clipPath id="clip28_96_1274">
<rect width="8" height="8" fill="white" transform="translate(80 32)"/>
</clipPath>
<clipPath id="clip29_96_1274">
<rect width="8" height="8" fill="white" transform="translate(88 32)"/>
</clipPath>
<clipPath id="clip30_96_1274">
<rect width="8" height="8" fill="white" transform="translate(96 40)"/>
</clipPath>
<clipPath id="clip31_96_1274">
<rect width="8" height="8" fill="white" transform="translate(104 48)"/>
</clipPath>
<clipPath id="clip32_96_1274">
<rect width="8" height="8" fill="white" transform="translate(112 56)"/>
</clipPath>
<clipPath id="clip33_96_1274">
<rect width="8" height="8" fill="white" transform="translate(112 64)"/>
</clipPath>
<clipPath id="clip34_96_1274">
<rect width="8" height="8" fill="white" transform="translate(112 72)"/>
</clipPath>
<clipPath id="clip35_96_1274">
<rect width="8" height="8" fill="white" transform="translate(112 80)"/>
</clipPath>
<clipPath id="clip36_96_1274">
<rect width="8" height="8" fill="white" transform="translate(104 88)"/>
</clipPath>
<clipPath id="clip37_96_1274">
<rect width="8" height="8" fill="white" transform="translate(96 96)"/>
</clipPath>
<clipPath id="clip38_96_1274">
<rect width="8" height="8" fill="white" transform="translate(88 104)"/>
</clipPath>
<clipPath id="clip39_96_1274">
<rect width="8" height="8" fill="white" transform="translate(80 112)"/>
</clipPath>
<clipPath id="clip40_96_1274">
<rect width="8" height="8" fill="white" transform="translate(72 120)"/>
</clipPath>
<clipPath id="clip41_96_1274">
<rect width="8" height="8" fill="white" transform="translate(64 128)"/>
</clipPath>
<clipPath id="clip42_96_1274">
<rect width="8" height="8" fill="white" transform="translate(56 136)"/>
</clipPath>
<clipPath id="clip43_96_1274">
<rect width="8" height="8" fill="white" transform="translate(48 128)"/>
</clipPath>
<clipPath id="clip44_96_1274">
<rect width="8" height="8" fill="white" transform="translate(144 48)"/>
</clipPath>
<clipPath id="clip45_96_1274">
<rect width="8" height="8" fill="white" transform="translate(160 48)"/>
</clipPath>
<clipPath id="clip46_96_1274">
<rect width="8" height="8" fill="white" transform="translate(152 16)"/>
</clipPath>
<clipPath id="clip47_96_1274">
<rect width="8" height="8" fill="white" transform="translate(144 80)"/>
</clipPath>
<clipPath id="clip48_96_1274">
<rect width="8" height="8" fill="white" transform="translate(160 80)"/>
</clipPath>
<clipPath id="clip49_96_1274">
<rect width="8" height="8" fill="white" transform="translate(144 112)"/>
</clipPath>
<clipPath id="clip50_96_1274">
<rect width="8" height="8" fill="white" transform="translate(160 112)"/>
</clipPath>
<clipPath id="clip51_96_1274">
<rect width="8" height="8" fill="white" transform="translate(144 64)"/>
</clipPath>
<clipPath id="clip52_96_1274">
<rect width="8" height="8" fill="white" transform="translate(160 64)"/>
</clipPath>
<clipPath id="clip53_96_1274">
<rect width="8" height="8" fill="white" transform="translate(144 96)"/>
</clipPath>
<clipPath id="clip54_96_1274">
<rect width="8" height="8" fill="white" transform="translate(160 96)"/>
</clipPath>
<clipPath id="clip55_96_1274">
<rect width="8" height="8" fill="white" transform="translate(144 128)"/>
</clipPath>
<clipPath id="clip56_96_1274">
<rect width="8" height="8" fill="white" transform="translate(160 128)"/>
</clipPath>
<clipPath id="clip57_96_1274">
<rect width="8" height="8" fill="white" transform="translate(152 48)"/>
</clipPath>
<clipPath id="clip58_96_1274">
<rect width="8" height="8" fill="white" transform="translate(168 48)"/>
</clipPath>
<clipPath id="clip59_96_1274">
<rect width="8" height="8" fill="white" transform="translate(160 16)"/>
</clipPath>
<clipPath id="clip60_96_1274">
<rect width="8" height="8" fill="white" transform="translate(160 8)"/>
</clipPath>
<clipPath id="clip61_96_1274">
<rect width="8" height="8" fill="white" transform="translate(160)"/>
</clipPath>
<clipPath id="clip62_96_1274">
<rect width="8" height="8" fill="white" transform="translate(176 48)"/>
</clipPath>
<clipPath id="clip63_96_1274">
<rect width="8" height="8" fill="white" transform="translate(168 16)"/>
</clipPath>
<clipPath id="clip64_96_1274">
<rect width="8" height="8" fill="white" transform="translate(168 8)"/>
</clipPath>
<clipPath id="clip65_96_1274">
<rect width="8" height="8" fill="white" transform="translate(160 32)"/>
</clipPath>
<clipPath id="clip66_96_1274">
<rect width="8" height="8" fill="white" transform="translate(152 80)"/>
</clipPath>
<clipPath id="clip67_96_1274">
<rect width="8" height="8" fill="white" transform="translate(168 80)"/>
</clipPath>
<clipPath id="clip68_96_1274">
<rect width="8" height="8" fill="white" transform="translate(176 80)"/>
</clipPath>
<clipPath id="clip69_96_1274">
<rect width="8" height="8" fill="white" transform="translate(152 112)"/>
</clipPath>
<clipPath id="clip70_96_1274">
<rect width="8" height="8" fill="white" transform="translate(168 112)"/>
</clipPath>
<clipPath id="clip71_96_1274">
<rect width="8" height="8" fill="white" transform="translate(176 112)"/>
</clipPath>
<clipPath id="clip72_96_1274">
<rect width="8" height="8" fill="white" transform="translate(152 64)"/>
</clipPath>
<clipPath id="clip73_96_1274">
<rect width="8" height="8" fill="white" transform="translate(168 64)"/>
</clipPath>
<clipPath id="clip74_96_1274">
<rect width="8" height="8" fill="white" transform="translate(176 64)"/>
</clipPath>
<clipPath id="clip75_96_1274">
<rect width="8" height="8" fill="white" transform="translate(152 96)"/>
</clipPath>
<clipPath id="clip76_96_1274">
<rect width="8" height="8" fill="white" transform="translate(168 96)"/>
</clipPath>
<clipPath id="clip77_96_1274">
<rect width="8" height="8" fill="white" transform="translate(176 96)"/>
</clipPath>
<clipPath id="clip78_96_1274">
<rect width="8" height="8" fill="white" transform="translate(152 128)"/>
</clipPath>
<clipPath id="clip79_96_1274">
<rect width="8" height="8" fill="white" transform="translate(168 128)"/>
</clipPath>
<clipPath id="clip80_96_1274">
<rect width="8" height="8" fill="white" transform="translate(176 128)"/>
</clipPath>
<clipPath id="clip81_96_1274">
<rect width="8" height="8" fill="white" transform="translate(144 56)"/>
</clipPath>
<clipPath id="clip82_96_1274">
<rect width="8" height="8" fill="white" transform="translate(160 56)"/>
</clipPath>
<clipPath id="clip83_96_1274">
<rect width="8" height="8" fill="white" transform="translate(152 24)"/>
</clipPath>
<clipPath id="clip84_96_1274">
<rect width="8" height="8" fill="white" transform="translate(144 88)"/>
</clipPath>
<clipPath id="clip85_96_1274">
<rect width="8" height="8" fill="white" transform="translate(160 88)"/>
</clipPath>
<clipPath id="clip86_96_1274">
<rect width="8" height="8" fill="white" transform="translate(144 120)"/>
</clipPath>
<clipPath id="clip87_96_1274">
<rect width="8" height="8" fill="white" transform="translate(160 120)"/>
</clipPath>
<clipPath id="clip88_96_1274">
<rect width="8" height="8" fill="white" transform="translate(144 72)"/>
</clipPath>
<clipPath id="clip89_96_1274">
<rect width="8" height="8" fill="white" transform="translate(160 72)"/>
</clipPath>
<clipPath id="clip90_96_1274">
<rect width="8" height="8" fill="white" transform="translate(144 104)"/>
</clipPath>
<clipPath id="clip91_96_1274">
<rect width="8" height="8" fill="white" transform="translate(160 104)"/>
</clipPath>
<clipPath id="clip92_96_1274">
<rect width="8" height="8" fill="white" transform="translate(144 136)"/>
</clipPath>
<clipPath id="clip93_96_1274">
<rect width="8" height="8" fill="white" transform="translate(160 136)"/>
</clipPath>
<clipPath id="clip94_96_1274">
<rect width="8" height="8" fill="white" transform="translate(152 56)"/>
</clipPath>
<clipPath id="clip95_96_1274">
<rect width="8" height="8" fill="white" transform="translate(168 56)"/>
</clipPath>
<clipPath id="clip96_96_1274">
<rect width="8" height="8" fill="white" transform="translate(160 24)"/>
</clipPath>
<clipPath id="clip97_96_1274">
<rect width="8" height="8" fill="white" transform="translate(176 56)"/>
</clipPath>
<clipPath id="clip98_96_1274">
<rect width="8" height="8" fill="white" transform="translate(168 24)"/>
</clipPath>
<clipPath id="clip99_96_1274">
<rect width="8" height="8" fill="white" transform="translate(160 40)"/>
</clipPath>
<clipPath id="clip100_96_1274">
<rect width="8" height="8" fill="white" transform="translate(152 88)"/>
</clipPath>
<clipPath id="clip101_96_1274">
<rect width="8" height="8" fill="white" transform="translate(168 88)"/>
</clipPath>
<clipPath id="clip102_96_1274">
<rect width="8" height="8" fill="white" transform="translate(176 88)"/>
</clipPath>
<clipPath id="clip103_96_1274">
<rect width="8" height="8" fill="white" transform="translate(152 120)"/>
</clipPath>
<clipPath id="clip104_96_1274">
<rect width="8" height="8" fill="white" transform="translate(168 120)"/>
</clipPath>
<clipPath id="clip105_96_1274">
<rect width="8" height="8" fill="white" transform="translate(176 120)"/>
</clipPath>
<clipPath id="clip106_96_1274">
<rect width="8" height="8" fill="white" transform="translate(152 72)"/>
</clipPath>
<clipPath id="clip107_96_1274">
<rect width="8" height="8" fill="white" transform="translate(168 72)"/>
</clipPath>
<clipPath id="clip108_96_1274">
<rect width="8" height="8" fill="white" transform="translate(176 72)"/>
</clipPath>
<clipPath id="clip109_96_1274">
<rect width="8" height="8" fill="white" transform="translate(152 104)"/>
</clipPath>
<clipPath id="clip110_96_1274">
<rect width="8" height="8" fill="white" transform="translate(168 104)"/>
</clipPath>
<clipPath id="clip111_96_1274">
<rect width="8" height="8" fill="white" transform="translate(176 104)"/>
</clipPath>
<clipPath id="clip112_96_1274">
<rect width="8" height="8" fill="white" transform="translate(152 136)"/>
</clipPath>
<clipPath id="clip113_96_1274">
<rect width="8" height="8" fill="white" transform="translate(168 136)"/>
</clipPath>
<clipPath id="clip114_96_1274">
<rect width="8" height="8" fill="white" transform="translate(176 136)"/>
</clipPath>
</defs>
</svg>
