<?xml version="1.0" encoding="utf-8"?>
<!-- Generator: Adobe Illustrator 25.2.3, SVG Export Plug-In . SVG Version: 6.00 Build 0)  -->
<svg version="1.1" id="Layer_1" xmlns="http://www.w3.org/2000/svg" xmlns:xlink="http://www.w3.org/1999/xlink" x="0px" y="0px"
	 viewBox="0 0 250 264.5" style="enable-background:new 0 0 250 264.5;" xml:space="preserve">
<style type="text/css">
	.st0{fill:#004DFE;}
	.st1{fill:none;}
	.st2{fill:#E30303;}
	.st3{fill:#FE8B00;}
	.st4{fill:#FEEC00;}
	.st5{fill:#008026;}
	.st6{fill:#750786;}
	.st7{fill:#FFFFFF;}
	.st8{fill:none;stroke:#FFFFFF;stroke-width:0;stroke-linecap:round;stroke-linejoin:round;}
</style>
<polygon class="st0" points="166.8,180.4 88.6,180.5 88.2,179.8 167.4,180 "/>
<g>
	<path class="st1" d="M67.4,96.3c-1.9,8.5-3.6,16.7-5.4,25.3l-0.5,1.9c-0.3,1,0.4,1.2,0.6,1.3c0.2,0,0.5,0.2,0.9-0.4l1.3-2.4
		l7.5-14.2l6.2-11.6l1.7-3.1l0.3-0.6l19.4-36.5l0.6-1.2c0,0,1.6-3,2.9-5.5c0.4-0.8,0.8-1.5,1.1-2.1c0.5-0.8,0.9-1.6,0.8-2.7
		c-0.1-1.1-1.2-2.2-1.8-2.9l-3-3.6c0,0-8.2-10-12.5-14.9c-0.6-0.6-1.1-1.4-1.6-1.6c-0.4-0.2-0.7-0.2-1.1-0.1
		c-0.3,0.1-0.6,0.2-0.7,0.5c-0.3,0.4-0.5,1.4-0.6,2c-1.9,8.4-3.8,16.9-5.7,25.4c-0.5,2.2-0.9,4.4-1.3,6.6
		c-2.7,12.1-5.4,24.3-8.1,36.5c0,0.2-0.1,0.4-0.1,0.6C67.8,94.2,67.6,95.3,67.4,96.3z"/>
	<path class="st1" d="M58,96.4C58,96.4,58,96.4,58,96.4c0.3-1.1,0.5-2.2,0.7-3.2c0-0.2,0.1-0.4,0.1-0.6c1.4-6.4,2.7-12.9,4-19.2
		c0,0,0.6-2.6,0.8-3.9c0.2-0.8,0.5-1.8,0.2-2.7c-0.3-0.7-0.5-1-0.7-1.3c-0.4-0.5-1-0.9-1.7-1.6c0,0-5-4.7-8.7-7.9
		c-0.5-0.5-1.6-1.3-1.6-1.3s-2.4-2.2-3.5-3.2c-0.3-0.3-0.5-0.5-0.7-0.6c-0.4-0.1-0.6-0.1-0.9,0c-0.3,0.1-0.5,0.2-0.6,0.4
		c-0.1,0.2-0.1,0.2-0.2,0.4c-0.1,0.1-0.2,0.3-0.2,0.6c0,0.4,0,1.2,0,1.2v2.6v0.1c0,12.1,0,24.3,0,36.4c0,0.2,0,0.4,0,0.6
		c0,1,0,2.1,0,3.1c0,0,0,0.1,0,0.1c0,13,0,26,0.1,39.1c0,0-0.1,0-0.1,0c0,0.2,0,0.5,0,0.8h4.8l0.2-0.8
		C52.5,122.5,55.3,109.5,58,96.4z"/>
	<path class="st1" d="M187.7,135.4l0.1,0c-6.1-9.9-18.4-30.2-18.4-30.2c-0.5-0.6-0.7-0.8-1-1c-0.2-0.2-0.4-0.3-0.6-0.4
		c-0.4-0.1-0.6-0.3-1.2-0.4c-0.6-0.1-1.5-0.1-2.1-0.1c-2,0-4.1,0-4.1,0c-1.1-0.1-2.3,0-3.4,0l-26.8,0.2c0,0-2.4,0-3.3,0l3.6-6.2
		l0.9-1.2c-0.1,0-0.1,0-0.2,0l1.8-3.1l0.3-0.6l6.7-11.4c4.9-8.4,14.6-25.1,14.6-25.1c1.4-2.4,3-4.2,1.9-6.6
		c-0.1-0.2-0.2-0.3-0.3-0.5c-5.6-9.6-11-19.2-16.6-28.9c-0.4-0.7-0.6-1.4-1.1-1.7c-0.9-0.7-1.9-0.8-2.9-0.2c-0.6,0.5-1,1.3-1.5,2.1
		c-2.5,4.4-5.2,8.7-7.6,13.2c-3,5.4-6.2,10.7-9.4,16.1c-1.1,1.9-2.2,3.9-3.3,5.8l-0.4,0.6h-0.1c-4.2,7.2-8.6,14.6-12.9,21.9
		c-2.7,4.7-5.7,9.9-8.5,14.8c-0.1,0.2-0.2,0.4-0.3,0.6c-0.6,1-1.2,2.1-1.7,3.1c0,0,0.1,0,0.3,0l-0.6,1.1L75.2,122l-7.8,13.3
		c-0.1,0-0.2,0-0.2,0l-0.4,1H49.6l0,0.1h17.1c-6.3,10.8-12.8,21.5-18.9,32.4l-1.6,2.7c0,0-0.7,1.3-0.8,1.5c-0.1,0.1-0.2,0.4-0.4,0.6
		c-0.1,0.3-0.2,0.5-0.2,0.6c-0.1,0.3-0.1,0.9-0.1,0.9s0,0.1,0,0.3c0,0.2,0.1,0.5,0.1,0.7c0.2,0.5,0.4,1.1,0.6,1.5
		c0.5,0.8,1,1.6,1.4,2.4h0c6.7,11.5,13.6,23.1,20.3,34.6v0.1c0,0,0,0,0.1,0c1.6,2.8,3.2,5.7,4.8,8.5c0.1,0.2,0.2,0.3,0.3,0.5
		c4,7.1,8,14.2,12.2,21.1c0,0,0.1,0.2,0.5,0.6c0.3,0.3,0.7,0.6,0.9,0.7c0.6,0.4,0.9,0.6,2.2,0.6c0,0,50.6,0.1,75.8,0
		c0.5,0,1.3,0,1.3,0c1.5,0,1.9,0,2.8-0.6c0.4-0.2,0.7-0.4,1-0.7c0.3-0.3,0.5-0.6,0.6-0.8c0.3-0.3,0.5-0.6,0.6-1
		c1.7-3.1,5.6-9.5,5.6-9.5l6.1-10.3l0.3-0.5l4.4-7.5l0.6-1c-0.2,0-0.4,0-0.6,0l0.5-0.1c5.4-9,11.2-17.9,16.4-26.9
		c0.6-1,1.5-2.5,1.7-3.8c0.1-0.8-0.3-1.7-0.6-2.2c-0.3-0.6-0.7-1.2-1.4-1.7h0.1c-0.2-0.1-0.4-0.2-0.7-0.3c-1.2-0.4-2.9-0.2-3.9-0.2
		c-9.5-0.2-18.9-0.1-28.3-0.1c-1.3,0-2.3,0.1-3.2,0.6h0c-0.8,0.5-1.5,1.2-2.2,2.5c-4.3,7.3-9.1,14.3-13.3,21.5
		c-0.5,0.8-1.1,1.9-1.9,3.2c0,0-1.1,2.3-2.5,2.9c-0.7,0.3-1,0.5-2.9,0.5h-35c-0.7,0-2,0-2.9-0.6c-0.4-0.2-0.6-0.4-0.8-0.6
		c-0.6-0.7-1.1-1.7-1.1-1.7s-8.9-15-13.3-22.7c-0.9-1.6-1.9-3.3-2.9-5h0c-0.5-0.9-1-1.7-1.4-2.5c-0.3-0.4-0.5-0.6-0.6-1.2
		c-0.2-0.6-0.2-1.1-0.2-1.1c0-0.5,0-1.4,0.3-1.7c6.1-10.6,12.1-21.5,18.4-32c0.6-1.1,2.4-2.3,3.7-2.3c11.7-0.2,25.1,0.1,36.8,0.1
		c3,0,3.4,1.8,4.4,3.3c5.5,8,10.1,16.3,15.6,24.3c0.9,1.3,2,2.6,3.4,2.7c10.7,0.3,21.5,0.1,32.2,0.1c3.8-0.2,5.6-3.2,3.7-6.5
		c-5.4-9.1-10.6-17.7-16.1-26.7h61.5c0,0,0-0.1,0-0.1h-61.6C188.1,136,187.9,135.7,187.7,135.4z"/>
	<path class="st1" d="M44.8,136.3H0.2c0,0,0,0.1,0,0.1L44.8,136.3C44.8,136.4,44.8,136.3,44.8,136.3z"/>
	<path class="st1" d="M76.1,56.1c0,0,0.1,0,0.1,0C76.2,56.1,76.2,56.1,76.1,56.1z"/>
	<path class="st1" d="M73.5,56.1c0.1,0,0.2,0,0.3,0C73.7,56.1,73.6,56.1,73.5,56.1z"/>
	<path class="st1" d="M44.9,146.4c0,0,0,0.4,0.2,0.6c0.6,0.6,1,0.6,1.4,0.6c0.2,0,0.7-0.2,0.9-0.6c0-0.1,0.1-0.2,0.1-0.4l0.3-1.4
		l1.8-8.7h-4.8C44.8,139.9,44.9,146.4,44.9,146.4z"/>
	<path class="st1" d="M74.3,56.1c0.3,0,0.6,0,1,0C75,56.1,74.7,56.1,74.3,56.1z"/>
	<path class="st2" d="M83.3,24.1c0.2-0.6,0.4-1.7,0.6-2c0.2-0.3,0.5-0.4,0.7-0.5c0.4-0.1,0.7-0.1,1.1,0.1c0.5,0.2,1,1,1.6,1.6
		c4.3,4.9,12.5,14.9,12.5,14.9l3,3.6c0.6,0.7,1.7,1.8,1.8,2.9c0.1,1.1-0.4,1.8-0.8,2.7c-0.3,0.6-0.7,1.3-1.1,2.1h14.4
		c3.1-5.4,6.3-10.7,9.4-16.1c2.5-4.4,5.2-8.7,7.6-13.2c0.5-0.8,0.8-1.7,1.5-2.1c1-0.6,2-0.6,2.9,0.2c0.5,0.4,0.7,1,1.1,1.7
		c5.6,9.7,11,19.3,16.6,28.9c0.1,0.2,0.2,0.4,0.3,0.5h58.2C192.1,26,160.2,11.4,125,11.4S57.9,26,35.2,49.5h42.4
		C79.4,41.1,81.4,32.5,83.3,24.1z"/>
	<path class="st3" d="M99.9,55l-0.6,1.2L79.9,92.6h12c2.8-4.9,5.8-10.1,8.5-14.8c4.2-7.3,8.6-14.7,12.9-21.9h0.1l0.4-0.6
		c1.1-2,2.2-3.9,3.3-5.8h-14.4C101.5,52,99.9,55,99.9,55z"/>
	<path class="st3" d="M44.8,56.2L44.8,56.2v-2.7c0,0,0-0.8,0-1.2c0-0.3,0.1-0.5,0.2-0.6c0.1-0.2,0.1-0.2,0.2-0.4
		c0.2-0.2,0.4-0.3,0.6-0.4c0.3-0.1,0.6-0.1,0.9,0c0.3,0.1,0.5,0.3,0.7,0.6c1.1,1,3.5,3.2,3.5,3.2s1.1,0.8,1.6,1.3
		c3.8,3.2,8.7,7.9,8.7,7.9c0.7,0.6,1.4,1.1,1.7,1.6c0.3,0.3,0.5,0.6,0.7,1.3c0.3,0.8,0,1.8-0.2,2.7c-0.3,1.3-0.8,3.9-0.8,3.9
		c-1.2,6.3-2.6,12.8-4,19.2h9.4c2.7-12.2,5.4-24.4,8.1-36.5c0.5-2.2,0.8-4.4,1.3-6.6H35.2C23.4,61.7,14.1,76.4,8,92.6h36.8
		C44.8,80.5,44.8,68.3,44.8,56.2z M76.2,56.1c0,0-0.1,0-0.1,0C76.2,56.1,76.2,56.1,76.2,56.1z M75.3,56.1c-0.4,0-0.7,0-1,0
		C74.7,56.1,75,56.1,75.3,56.1z M73.8,56.1c-0.1,0-0.2,0-0.3,0C73.6,56.1,73.7,56.1,73.8,56.1z"/>
	<path class="st3" d="M154.7,56.1c0,0-9.7,16.7-14.6,25.1l-6.7,11.4H242c-6.1-16.2-15.4-30.9-27.2-43.1h-58.2
		C157.6,51.8,156,53.7,154.7,56.1z"/>
	<path class="st4" d="M131.3,96.3c0.1,0,0.2,0,0.2,0l-0.9,1.2l-3.6,6.2c0.9,0,3.3,0,3.3,0l26.8-0.2c1.1,0,2.3-0.1,3.4,0
		c0,0,2.1,0,4.1,0c0.6,0,1.6,0,2.1,0.1c0.6,0.1,0.8,0.3,1.2,0.4c0.2,0.1,0.4,0.2,0.6,0.4c0.3,0.2,0.6,0.5,1,1
		c0,0,12.3,20.2,18.4,30.2l-0.1,0c0.2,0.3,0.3,0.6,0.5,0.9h61.6c0,0,0,0,0,0c0-15.1-2.7-29.6-7.6-43H133L131.3,96.3z"/>
	<path class="st4" d="M44.8,135.5C44.9,135.5,44.9,135.5,44.8,135.5c0-13.1,0-26.1,0-39.1c0,0,0-0.1,0-0.1c0-1,0-2.1,0-3.1H7.8
		c-4.9,13.4-7.6,27.9-7.6,43c0,0,0,0,0,0h44.7C44.8,136,44.8,135.8,44.8,135.5z"/>
	<path class="st4" d="M77.9,96.3l-6.2,11.6l-7.5,14.2l-1.3,2.4c-0.5,0.6-0.7,0.4-0.9,0.4c-0.3-0.1-0.9-0.3-0.6-1.3l0.5-1.9
		c1.8-8.6,3.5-16.8,5.4-25.3c0.2-1,0.5-2.1,0.7-3.1h-9.4c-0.2,1.1-0.5,2.2-0.7,3.2c0,0,0,0,0,0c-2.7,13-5.5,26.1-8.2,39.1l-0.2,0.8
		h17.1l0.4-1c0.1,0,0.2,0,0.2,0l7.8-13.3l14.3-24.7l0.6-1.1c-0.2,0-0.3,0-0.3,0c0.6-1,1.1-2,1.7-3.1h-12L77.9,96.3z"/>
	<path class="st4" d="M44.8,92.6H8c-0.1,0.2-0.2,0.4-0.2,0.6h37.1C44.8,93,44.8,92.8,44.8,92.6z"/>
	<path class="st4" d="M133.4,92.6l-0.3,0.6h109.2c-0.1-0.2-0.2-0.4-0.2-0.6H133.4z"/>
	<path class="st4" d="M68.1,93.2c0-0.2,0.1-0.4,0.1-0.6h-9.4c0,0.2-0.1,0.4-0.1,0.6H68.1z"/>
	<path class="st4" d="M79.6,93.2h12c0.1-0.2,0.2-0.4,0.3-0.6h-12L79.6,93.2z"/>
	<path class="st5" d="M204.5,163.1c1.9,3.3,0.1,6.3-3.7,6.5c-10.7,0-21.5,0.2-32.2-0.1c-1.4-0.1-2.5-1.4-3.4-2.7
		c-5.4-8-10-16.3-15.6-24.3c-1-1.5-1.4-3.3-4.4-3.3c-11.7,0-25.1-0.3-36.8-0.1c-1.3,0-3,1.2-3.7,2.3c-6.3,10.5-12.3,21.4-18.4,32
		c-0.3,0.4-0.3,1.3-0.3,1.7c0,0,0,0.6,0.2,1.1c0.2,0.6,0.4,0.8,0.6,1.2c0.5,0.8,1,1.7,1.4,2.5h78.9h0c0.8-0.5,1.8-0.6,3.2-0.6
		c9.5,0,18.9-0.1,28.3,0.1c1,0,2.7-0.2,3.9,0.2c0.2,0.1,0.5,0.2,0.7,0.3h38.6c5.1-13.6,7.9-28.3,7.9-43.7h-61.5
		C193.9,145.4,199.1,154,204.5,163.1z"/>
	<path class="st5" d="M47,180.1L47,180.1c-0.4-0.8-0.9-1.6-1.4-2.4c-0.3-0.4-0.5-1-0.6-1.5c-0.1-0.2-0.1-0.5-0.1-0.7l0,0v-0.3
		c0,0,0-0.6,0.1-0.9c0-0.2,0.1-0.4,0.2-0.6c0.2-0.3,0.3-0.6,0.4-0.6c0.1-0.2,0.8-1.5,0.8-1.5l1.6-2.7c6.2-10.9,12.6-21.6,18.9-32.4
		H49.6l-1.8,8.7l-0.3,1.4c0,0.2-0.1,0.3-0.1,0.4c-0.2,0.5-0.7,0.6-0.9,0.6c-0.4,0-0.8,0-1.4-0.6c-0.2-0.2-0.2-0.6-0.2-0.6
		s-0.1-6.4-0.1-10H0.2c0,15.4,2.8,30.1,7.9,43.7L47,180.1C46.9,180.1,46.9,180.1,47,180.1z"/>
	<path class="st0" d="M67.4,214.8C67.3,214.8,67.3,214.8,67.4,214.8L67.4,214.8c-6.8-11.6-13.7-23.2-20.4-34.7c0,0,0,0,0,0H8.1
		c6.1,16.3,15.5,31,27.5,43.2h36.6C70.5,220.5,68.9,217.6,67.4,214.8z"/>
	<path class="st0" d="M88.3,180.1c1,1.7,2,3.4,2.9,5c4.4,7.7,13.3,22.7,13.3,22.7s0.5,0.9,1.1,1.7c0.3,0.3,0.5,0.5,0.8,0.6
		c0.9,0.6,2.2,0.6,2.9,0.6h35c1.8,0,2.1-0.2,2.9-0.5c1.4-0.6,2.5-2.9,2.5-2.9c0.8-1.3,1.5-2.4,1.9-3.2c4.2-7.2,9-14.3,13.3-21.5
		c0.7-1.3,1.4-2.1,2.2-2.5H88.3L88.3,180.1z"/>
	<path class="st0" d="M203.2,180.1c0.7,0.4,1.2,1.1,1.4,1.7c0.3,0.6,0.6,1.4,0.6,2.2c-0.2,1.3-1.1,2.8-1.7,3.8
		c-5.2,9-10.9,17.9-16.4,26.9l-0.5,0.1c0.2,0,0.4,0,0.6,0l-0.6,1l-4.4,7.5h32.2c11.9-12.2,21.3-26.9,27.4-43.2H203.2L203.2,180.1z"
		/>
	<path class="st6" d="M175.9,234.1c0,0-4,6.3-5.6,9.5c-0.2,0.4-0.4,0.7-0.6,1c-0.2,0.3-0.4,0.6-0.6,0.8c-0.3,0.4-0.6,0.6-1,0.7
		c-0.8,0.6-1.3,0.6-2.8,0.6c0,0-0.8,0-1.3,0c-25.2,0.1-75.8,0-75.8,0c-1.3,0-1.6-0.2-2.2-0.6c-0.2-0.1-0.6-0.5-0.9-0.7
		c-0.4-0.4-0.5-0.6-0.5-0.6c-4.2-6.9-8.2-14-12.2-21.1H36c22.6,23,54.2,37.3,89,37.3s66.3-14.3,89-37.3h-32L175.9,234.1z"/>
	<path class="st6" d="M182,223.8h32c0.2-0.2,0.3-0.3,0.5-0.5h-32.2L182,223.8z"/>
	<path class="st6" d="M72.1,223.3H35.5c0.2,0.2,0.3,0.3,0.5,0.5h36.4C72.3,223.6,72.2,223.5,72.1,223.3z"/>
	<path class="st7" d="M44.8,175.4c0-0.2,0-0.3,0-0.3L44.8,175.4L44.8,175.4z"/>
	<path class="st8" d="M44.8,96.3C44.8,96.4,44.8,96.4,44.8,96.3"/>
	<path class="st7" d="M44.8,136.4h4.8l0-0.1L44.8,136.4C44.8,136.3,44.8,136.4,44.8,136.4z"/>
</g>
<path class="st0" d="M203.5,180.2c0.1,0.1,38.5-0.1,38.5-0.1l0.2-0.6l-39.5,0.2C202.6,179.8,203.3,180.2,203.5,180.2z"/>
</svg>
