<?xml version="1.0" encoding="utf-8"?>
<!-- Generator: Adobe Illustrator 23.0.1, SVG Export Plug-In . SVG Version: 6.00 Build 0)  -->
<svg version="1.1" id="Layer_1" xmlns="http://www.w3.org/2000/svg" xmlns:xlink="http://www.w3.org/1999/xlink" x="0px" y="0px"
	 viewBox="0 0 174.52 249.18" style="enable-background:new 0 0 174.52 249.18;" xml:space="preserve">
<style type="text/css">
	.st0{fill:#008026;}
	.st1{fill:#FEEC00;}
	.st2{fill:#750786;}
	.st3{fill:#004DFE;}
	.st4{fill:#FE8B00;}
	.st5{fill:#E30303;}
</style>
<path class="st0" d="M173.63,158.18c-6.06-10.32-12.03-19.99-18.23-30.23c-28.64,0-86.22,0.01-86.22,0.01s-30.06,0.04-44.84-0.01
	l-0.55,1.15c-6.83,11.78-13.76,23.38-20.48,35.22l-1.66,2.9c0,0-0.79,1.39-0.93,1.6c-0.07,0.11-0.25,0.41-0.37,0.72
	c-0.11,0.27-0.18,0.53-0.21,0.69c-0.1,0.34-0.08,1.04-0.08,1.04l0.02,0.26l44.83-0.2v-0.01c0.02,0,0.03,0,0.05,0
	c-0.02-0.51,0.04-1.48,0.29-1.91c6.64-11.51,13.21-23.37,20.03-34.77c0.71-1.19,2.59-2.49,4.01-2.51
	c12.65-0.17,27.33,0.08,39.98,0.08c3.3,0,3.72,2.01,4.79,3.56c5.98,8.67,10.98,17.67,16.9,26.38c0.99,1.45,2.18,2.82,3.73,2.85
	c11.58,0.26,23.44,0.13,35.03,0.05C173.71,165.02,175.72,161.74,173.63,158.18z"/>
<path class="st1" d="M93.31,86.77l-3.88,6.67c1,0,3.63,0.04,3.63,0.04l29.07-0.16c1.16-0.01,2.46-0.05,3.67-0.02
	c0,0,2.33,0.04,4.49-0.02c0.7-0.02,1.67-0.04,2.26,0.06c0.58,0.1,0.94,0.27,1.27,0.45c0.25,0.13,0.39,0.23,0.56,0.36
	c0.29,0.21,0.64,0.46,1.07,1.14c0,0,13.35,21.98,19.96,32.85l-86.49-0.17l-44.53,0.17l8.47-14.61l15.55-26.77l0.7-1.2
	c0,0,30.02,0,44.9,0L93.31,86.77z"/>
<path class="st2" d="M154.41,215.43l-11.86,19.92c0,0-4.31,6.91-6.09,10.28c-0.22,0.42-0.42,0.75-0.68,1.15
	c-0.21,0.31-0.43,0.57-0.72,0.93c-0.29,0.36-0.74,0.6-1.12,0.85c-0.88,0.56-1.44,0.62-3.04,0.56c0,0-0.94,0-1.4,0
	c-27.39,0.15-82.35,0-82.35,0c-1.36-0.02-1.67-0.2-2.4-0.58c-0.16-0.08-0.74-0.53-1-0.79c-0.37-0.38-0.52-0.64-0.52-0.64
	c-6.47-10.74-12.51-21.84-18.66-32.78h0.89c0,0,19.65-0.01,29.9,0c32.89,0.02,66.73-0.04,99.61,0L154.41,215.43z"/>
<path class="st3" d="M154.38,214.32c-32.89-0.04-65.77,0.02-98.66,0c-10.25-0.01-31.17,0-31.17,0l-0.03-0.05
	c-7.83-13.42-15.78-26.85-23.56-40.3c-0.26-0.45-0.55-1.05-0.73-1.61c-0.15-0.44-0.18-1.09-0.18-1.09c15.11,0,44.91,0.05,44.91,0.05
	s-0.01,0.57,0.22,1.24s0.41,0.85,0.66,1.31c1.51,2.74,3.23,5.51,4.74,8.17c4.78,8.4,14.47,24.67,14.47,24.67s0.46,0.98,1.25,1.82
	c0.28,0.29,0.54,0.47,0.92,0.71c1.02,0.64,2.38,0.58,3.21,0.6l37.97-0.01c1.97,0.03,2.3-0.16,3.08-0.48
	c1.54-0.64,2.72-3.08,2.72-3.08c0.85-1.42,1.59-2.64,2.09-3.48c4.64-7.84,9.81-15.52,14.47-23.37c1.64-2.77,3.03-3.42,5.94-3.42
	c10.26,0.02,20.53-0.14,30.79,0.13c1.05,0.03,2.9-0.22,4.16,0.16c1.25,0.38,1.91,1.39,2.31,2.18c0.32,0.63,0.7,1.5,0.56,2.45
	c-0.21,1.42-1.16,3.01-1.81,4.14c-5.65,9.84-11.92,19.53-17.75,29.26L154.38,214.32L154.38,214.32z"/>
<path class="st4" d="M103.59,69.09c5.27-9.13,15.89-27.31,15.89-27.31c-14.86-0.03-29.3-0.15-44.16-0.18h-0.66
	c-4.64,7.84-9.43,15.94-14,23.82c-3.7,6.37-7.91,13.71-11.54,20.12c0,0,29.99,0.05,44.86,0.05L103.59,69.09z"/>
<path class="st5" d="M119.51,41.73c-14.86-0.03-30.11,0.1-44.97,0.08l0.55-0.94c4.49-7.99,9.27-15.84,13.8-23.8
	c2.73-4.79,5.58-9.52,8.34-14.29c0.48-0.87,0.88-1.84,1.62-2.31c1.14-0.72,2.25-0.56,3.22,0.22c0.5,0.4,0.75,1.1,1.23,1.93
	c6.05,10.46,11.99,21,18.13,31.4C123.04,36.84,121.12,38.98,119.51,41.73z"/>
<path class="st4" d="M36.14,85.55h-11.5c3.17-14.55,6.45-29.19,9.62-43.74h25.15L36.14,85.55z"/>
<path class="st4" d="M8.52,41.81c4.08,3.53,9.49,8.59,9.49,8.59c0.84,0.66,1.48,1.2,1.91,1.65c0.33,0.34,0.54,0.58,0.78,1.41
	c0.26,0.88-0.05,2.04-0.25,2.91c-0.3,1.37-0.89,4.19-0.89,4.19c-1.6,8.2-3.41,16.82-5.17,24.98c-4.98,0-9.3,0-14.27,0
	c0-14.5,0-29.24,0-43.74h8.4V41.81z"/>
<path class="st5" d="M59.41,41.81c-8.54-0.06-25.15,0-25.15,0c2.39-11.54,5.09-23.31,7.65-34.8c0.16-0.71,0.37-1.78,0.73-2.16
	c0.24-0.26,0.53-0.43,0.84-0.52c0.38-0.11,0.8-0.09,1.24,0.08c0.51,0.19,1.12,1.1,1.65,1.7C51.06,11.38,60,22.3,60,22.3l3.31,3.93
	c0.65,0.78,1.88,2.03,1.99,3.22c0.12,1.21-0.41,2.05-0.88,2.91c-1.44,2.68-4.34,8.17-4.34,8.17L59.41,41.81z"/>
<path class="st1" d="M0.12,85.55c4.98,0,9.3,0,14.27,0c-2.93,14.23-6.01,28.36-8.94,42.58c-2.04,0-3.3,0-5.34,0
	C0.11,113.9,0.12,99.77,0.12,85.55z"/>
<path class="st1" d="M24.64,85.55h11.51l-6.67,12.61l-8.19,15.35l-1.37,2.56c-0.45,0.56-0.85,0.45-1.04,0.41
	c-0.31-0.07-1-0.34-0.73-1.41l0.45-2.09C20.66,103.77,22.46,94.73,24.64,85.55z"/>
<path class="st0" d="M0.11,128.13c2.04,0,3.32,0,5.36,0l-2.18,10.42l-0.31,1.47c-0.05,0.18-0.11,0.32-0.14,0.39
	c-0.25,0.52-0.8,0.7-1.03,0.72c-0.45,0.03-0.94,0.03-1.47-0.64c-0.15-0.19-0.21-0.64-0.21-0.64S0.06,131.64,0.11,128.13z"/>
<path class="st5" d="M8.52,41.81h-8.4v-2.82c0,0-0.01-0.93,0-1.34c0.01-0.31,0.12-0.54,0.16-0.62c0.09-0.2,0.09-0.21,0.25-0.36
	c0.19-0.19,0.36-0.32,0.68-0.41c0.34-0.11,0.64-0.09,0.98,0.02c0.3,0.1,0.54,0.32,0.81,0.56c1.23,1.08,3.85,3.47,3.85,3.47
	S7.99,41.33,8.52,41.81z"/>
</svg>
