<?xml version="1.0" encoding="utf-8"?>
<!-- Generator: Adobe Illustrator 25.2.3, SVG Export Plug-In . SVG Version: 6.00 Build 0)  -->
<svg version="1.1" id="Layer_1" xmlns="http://www.w3.org/2000/svg" xmlns:xlink="http://www.w3.org/1999/xlink" x="0px" y="0px"
	 viewBox="0 0 250 264.5" style="enable-background:new 0 0 250 264.5;" xml:space="preserve">
<style type="text/css">
	.st0{fill:#004DFE;}
	.st1{fill:none;}
	.st2{fill:#E30303;}
	.st3{fill:#FE8B00;}
	.st4{fill:#FEEC00;}
	.st5{fill:#008026;}
	.st6{fill:#750786;}
	.st7{fill:#FFFFFF;}
</style>
<polygon class="st0" points="166.8,180.4 88.6,180.5 88.2,179.8 167.4,180 "/>
<g>
	<path class="st1" d="M49.6,136.4h17.1c0,0,0,0,0,0l0-0.1L49.6,136.4L49.6,136.4z"/>
	<path class="st2" d="M0,0v49.5h77.6c1.8-8.4,3.8-17,5.7-25.4c0.2-0.6,0.4-1.7,0.6-2c0.2-0.3,0.5-0.4,0.7-0.5
		c0.4-0.1,0.7-0.1,1.1,0.1c0.5,0.2,1,1,1.6,1.6c4.3,4.9,12.5,14.9,12.5,14.9l3,3.6c0.6,0.7,1.7,1.8,1.8,2.9c0.1,1.1-0.4,1.8-0.8,2.7
		c-0.3,0.6-0.7,1.3-1.1,2.1h14.4c3.1-5.4,6.3-10.7,9.4-16.1c2.5-4.4,5.2-8.7,7.6-13.2c0.5-0.8,0.8-1.7,1.5-2.1c1-0.6,2-0.6,2.9,0.2
		c0.5,0.4,0.7,1,1.1,1.7c5.6,9.7,11,19.3,16.6,28.9c0.1,0.2,0.2,0.4,0.3,0.5H250V0H0z"/>
	<path class="st3" d="M99.4,56.1L79.9,92.6h12c2.8-4.9,5.8-10.1,8.5-14.8c4.2-7.3,8.6-14.7,12.9-21.9h0.1l0.4-0.6
		c1.1-2,2.2-3.9,3.3-5.8h-14.4c-1.3,2.5-2.9,5.5-2.9,5.5L99.4,56.1z"/>
	<path class="st3" d="M44.8,56.1v-2.6c0,0,0-0.8,0-1.2c0-0.3,0.1-0.5,0.2-0.6c0.1-0.2,0.1-0.2,0.2-0.4c0.2-0.2,0.4-0.3,0.6-0.4
		c0.3-0.1,0.6-0.1,0.9,0c0.3,0.1,0.5,0.3,0.7,0.6c1.1,1,3.5,3.2,3.5,3.2s1.1,0.8,1.6,1.3c3.8,3.2,8.7,7.9,8.7,7.9
		c0.7,0.6,1.4,1.1,1.7,1.6c0.3,0.3,0.5,0.6,0.7,1.3c0.3,0.8,0,1.8-0.2,2.7c-0.3,1.3-0.8,3.9-0.8,3.9c-1.2,6.3-2.6,12.8-4,19.2h9.4
		c2.7-12.2,5.4-24.4,8.1-36.5l0,0c-7.8-0.1,0,0,0,0c0.5-2.2,0.8-4.4,1.3-6.6H0v43.1h44.8C44.8,80.5,44.8,68.3,44.8,56.1"/>
	<path class="st3" d="M154.7,56.1c0,0-9.7,16.7-14.6,25.1l-6.7,11.4H250V49.5h-93.4C157.6,51.8,156,53.7,154.7,56.1z"/>
	<path class="st4" d="M131.3,96.3c0.1,0,0.2,0,0.2,0l-0.9,1.2l-3.6,6.2c0.9,0,3.3,0,3.3,0l26.8-0.2c1.1,0,2.3-0.1,3.4,0
		c0,0,2.1,0,4.1,0c0.6,0,1.6,0,2.1,0.1c0.6,0.1,0.8,0.3,1.2,0.4c0.2,0.1,0.4,0.2,0.6,0.4c0.3,0.2,0.6,0.5,1,1
		c0,0,12.3,20.2,18.4,30.2l-0.1,0c0.2,0.3,0.3,0.6,0.5,0.9H250V93.2H133L131.3,96.3z"/>
	<path class="st4" d="M44.9,135.5c-0.1-13.1-0.1-26.1-0.1-39.1l0,0c0,0,0-0.1,0-0.1c0-1,0-2.1,0-3.1H0v43.1h44.8
		C44.8,136,44.8,135.8,44.9,135.5C44.9,135.5,44.9,135.5,44.9,135.5z"/>
	<path class="st4" d="M89.5,97.4l0.6-1.1c-0.2,0-0.3,0-0.3,0c0.6-1,1.1-2,1.7-3.1h-12l-1.7,3.1l-6.2,11.6l-7.5,14.2l-1.3,2.4
		c-0.5,0.6-0.7,0.4-0.9,0.4c-0.3-0.1-0.9-0.3-0.6-1.3l0.5-1.9c1.8-8.6,3.5-16.8,5.4-25.3c0.2-1,0.5-2.1,0.7-3.1h-9.4
		c-0.2,1.1-0.5,2.2-0.7,3.2c0,0,0,0,0,0c-2.7,13-5.5,26.1-8.2,39.1l-0.2,0.8h17.1l0.4-1c0.1,0,0.2,0,0.2,0l7.8-13.3L89.5,97.4z"/>
	<path class="st4" d="M44.8,92.6H0v0.6h44.8C44.8,93,44.8,92.8,44.8,92.6z"/>
	<polygon class="st4" points="133,93.2 250,93.2 250,92.6 133.4,92.6 	"/>
	<path class="st4" d="M68.1,93.2c0-0.2,0.1-0.4,0.1-0.6h-9.4c0,0.2-0.1,0.4-0.1,0.6H68.1z"/>
	<path class="st4" d="M91.6,93.2c0.1-0.2,0.2-0.4,0.3-0.6h-12l-0.3,0.6H91.6z"/>
	<path class="st5" d="M200.8,169.7c-10.7,0-21.5,0.2-32.2-0.1c-1.4-0.1-2.5-1.4-3.4-2.7c-5.4-8-10-16.3-15.6-24.3
		c-1-1.5-1.4-3.3-4.4-3.3c-11.7,0-25.1-0.3-36.8-0.1c-1.3,0-3,1.2-3.7,2.3c-6.3,10.5-12.3,21.4-18.4,32c-0.3,0.4-0.3,1.3-0.3,1.7
		c0,0,0,0.6,0.2,1.1c0.2,0.6,0.4,0.8,0.6,1.2c0.5,0.8,1,1.7,1.4,2.5h78.9c0.8-0.5,1.8-0.6,3.2-0.6c9.5,0,18.9-0.1,28.3,0.1
		c1,0,2.7-0.2,3.9,0.2c0.2,0.1,0.5,0.2,0.7,0.3H250v-43.7h-61.6c5.5,9,10.7,17.6,16.1,26.7C206.4,166.4,204.6,169.5,200.8,169.7z"/>
	<path class="st5" d="M45.6,177.7c-0.3-0.4-0.5-1-0.6-1.5c-0.1-0.2-0.1-0.5-0.1-0.7l0,0v-0.3c0,0,0-0.6,0.1-0.9
		c0-0.2,0.1-0.4,0.2-0.6c0.2-0.3,0.3-0.6,0.4-0.6c0.1-0.2,0.8-1.5,0.8-1.5l1.6-2.7c6.2-10.9,12.6-21.6,18.9-32.4H49.6l-1.8,8.7
		l-0.3,1.4c0,0.2-0.1,0.3-0.1,0.4c-0.2,0.5-0.7,0.6-0.9,0.6c-0.4,0-0.8,0-1.4-0.6c-0.2-0.2-0.2-0.6-0.2-0.6s-0.1-6.4-0.1-10H-0.1
		v43.7H0h47C46.5,179.3,46,178.5,45.6,177.7z"/>
	<path class="st0" d="M67.4,214.8C67.3,214.8,67.3,214.8,67.4,214.8L67.4,214.8c-6.8-11.6-13.7-23.2-20.4-34.7H-0.2v43.2h72.3
		C70.5,220.5,68.9,217.6,67.4,214.8z"/>
	<path class="st0" d="M104.5,207.8c0,0,0.5,0.9,1.1,1.7c0.3,0.3,0.5,0.5,0.8,0.6c0.9,0.6,2.2,0.6,2.9,0.6h35c1.8,0,2.1-0.2,2.9-0.5
		c1.4-0.6,2.5-2.9,2.5-2.9c0.8-1.3,1.5-2.4,1.9-3.2c4.2-7.2,9-14.3,13.3-21.5c0.7-1.3,1.4-2.1,2.2-2.5H88.3c1,1.7,2,3.4,2.9,5
		C95.6,192.8,104.5,207.8,104.5,207.8z"/>
	<path class="st0" d="M204.7,181.8c0.3,0.6,0.6,1.4,0.6,2.2c-0.2,1.3-1.1,2.8-1.7,3.8c-5.2,9-10.9,17.9-16.4,26.9l-0.5,0.1
		c0.2,0,0.4,0,0.6,0l-0.6,1l-4.4,7.5H250v-43.2h-0.1h-46.7C204,180.5,204.4,181.2,204.7,181.8z"/>
	<path class="st6" d="M175.9,234.1c0,0-4,6.3-5.6,9.5c-0.2,0.4-0.4,0.7-0.6,1c-0.2,0.3-0.4,0.6-0.6,0.8c-0.3,0.4-0.6,0.6-1,0.7
		c-0.8,0.6-1.3,0.6-2.8,0.6c0,0-0.8,0-1.3,0c-25.2,0.1-75.8,0-75.8,0c-1.3,0-1.6-0.2-2.2-0.6c-0.2-0.1-0.6-0.5-0.9-0.7
		c-0.4-0.4-0.5-0.6-0.5-0.6c-4.2-6.9-8.2-14-12.2-21.1H0V267h250v-43.2h-68L175.9,234.1z"/>
	<polygon class="st6" points="182,223.8 250,223.8 250,223.3 182.3,223.3 	"/>
	<path class="st6" d="M72.1,223.3H0v0.5h72.4C72.3,223.6,72.2,223.5,72.1,223.3z"/>
	<path class="st7" d="M44.8,175.4c0-0.2,0-0.3,0-0.3L44.8,175.4L44.8,175.4z"/>
	<path class="st7" d="M44.8,96.4L44.8,96.4C44.8,96.4,44.8,96.4,44.8,96.4C44.8,96.4,44.8,96.4,44.8,96.4z"/>
	<path class="st7" d="M49.6,136.3h-4.8c0,0,0,0.1,0,0.1L49.6,136.3L49.6,136.3z"/>
</g>
<path class="st0" d="M203.5,180.2c0.1,0.1,47.1,0.1,47.1,0.1l-0.2-0.5l-47.8-0.1C202.6,179.8,203.3,180.2,203.5,180.2z"/>
</svg>
