<?xml version="1.0" encoding="UTF-8" standalone="no"?>
<!-- Generator: Adobe Illustrator 23.0.1, SVG Export Plug-In . SVG Version: 6.00 Build 0)  -->

<svg
   xmlns:dc="http://purl.org/dc/elements/1.1/"
   xmlns:cc="http://creativecommons.org/ns#"
   xmlns:rdf="http://www.w3.org/1999/02/22-rdf-syntax-ns#"
   xmlns:svg="http://www.w3.org/2000/svg"
   xmlns="http://www.w3.org/2000/svg"
   xmlns:sodipodi="http://sodipodi.sourceforge.net/DTD/sodipodi-0.dtd"
   xmlns:inkscape="http://www.inkscape.org/namespaces/inkscape"
   version="1.1"
   id="Layer_1"
   x="0px"
   y="0px"
   viewBox="0 0 279.68502 396.85039"
   xml:space="preserve"
   sodipodi:docname="nais_pride_logo_with_background.svg"
   inkscape:export-filename="/home/x10an14/nav_documents/random/nais_pride_logo/nais_pride_logo_with_background.png"
   inkscape:export-xdpi="96"
   inkscape:export-ydpi="96"
   inkscape:version="0.92.4 (5da689c313, 2019-01-14)"
   width="74mm"
   height="105mm"><metadata
   id="metadata921"><rdf:RDF><cc:Work
       rdf:about=""><dc:format>image/svg+xml</dc:format><dc:type
         rdf:resource="http://purl.org/dc/dcmitype/StillImage" /><dc:title></dc:title></cc:Work></rdf:RDF></metadata><defs
   id="defs919" /><sodipodi:namedview
   pagecolor="#ffffff"
   bordercolor="#666666"
   borderopacity="1"
   objecttolerance="10"
   gridtolerance="10"
   guidetolerance="10"
   inkscape:pageopacity="0"
   inkscape:pageshadow="2"
   inkscape:window-width="2556"
   inkscape:window-height="1381"
   id="namedview917"
   showgrid="false"
   inkscape:zoom="2"
   inkscape:cx="26.948705"
   inkscape:cy="266.9644"
   inkscape:window-x="0"
   inkscape:window-y="1148"
   inkscape:window-maximized="0"
   inkscape:current-layer="Layer_1"
   inkscape:pagecheckerboard="true"
   borderlayer="false"
   units="mm"
   fit-margin-top="0"
   fit-margin-left="0"
   fit-margin-right="0"
   fit-margin-bottom="0" />
<style
   type="text/css"
   id="style888">
	.st0{fill:#008026;}
	.st1{fill:#FEEC00;}
	.st2{fill:#750786;}
	.st3{fill:#004DFE;}
	.st4{fill:#FE8B00;}
	.st5{fill:#E30303;}
</style>
<rect
   style="opacity:1;fill:#ffffff;fill-opacity:1;stroke:#ffffff;stroke-width:3.77952814;stroke-miterlimit:4;stroke-dasharray:none;stroke-dashoffset:0;stroke-opacity:1"
   id="rect923"
   width="275.44894"
   height="390.996"
   x="2.430665"
   y="2.6333528"
   rx="1.3470157"
   ry="1.6435608"
   inkscape:export-filename="/home/x10an14/nav_documents/random/nais_pride_logo/nais_pride_logo_with_background.png"
   inkscape:export-xdpi="96"
   inkscape:export-ydpi="96" />










<path
   class="st0"
   d="m 12.506264,202.81044 c 3.060175,0 4.980286,0 8.040462,0 l -3.270188,15.59766 -0.465027,2.20043 c -0.07501,0.26945 -0.165009,0.47902 -0.210011,0.58379 -0.375022,0.77839 -1.20007,1.04783 -1.545089,1.07777 -0.67504,0.0448 -1.410081,0.0448 -2.205127,-0.95802 -0.225013,-0.28439 -0.315018,-0.95801 -0.315018,-0.95801 0,0 -0.105007,-12.2895 -0.03,-17.54362 z"
   id="path912"
   inkscape:connector-curvature="0"
   style="fill:#008026;stroke-width:0.99999994" />
<g
   id="g956"
   transform="matrix(1.500086,0,0,1.4968956,12.341255,11.013224)"
   style="stroke-width:0.66733843"><path
     id="path890"
     d="m 173.63,158.18 c -6.06,-10.32 -12.03,-19.99 -18.23,-30.23 -28.64,0 -86.22,0.01 -86.22,0.01 0,0 -30.06,0.04 -44.84,-0.01 l -0.55,1.15 c -6.83,11.78 -13.76,23.38 -20.48,35.22 l -1.66,2.9 c 0,0 -0.79,1.39 -0.93,1.6 -0.07,0.11 -0.25,0.41 -0.37,0.72 -0.11,0.27 -0.18,0.53 -0.21,0.69 -0.1,0.34 -0.08,1.04 -0.08,1.04 l 0.02,0.26 44.83,-0.2 v -0.01 c 0.02,0 0.03,0 0.05,0 -0.02,-0.51 0.04,-1.48 0.29,-1.91 6.64,-11.51 13.21,-23.37 20.03,-34.77 0.71,-1.19 2.59,-2.49 4.01,-2.51 12.65,-0.17 27.33,0.08 39.98,0.08 3.3,0 3.72,2.01 4.79,3.56 5.98,8.67 10.98,17.67 16.9,26.38 0.99,1.45 2.18,2.82 3.73,2.85 11.58,0.26 23.44,0.13 35.03,0.05 3.99,-0.03 6,-3.31 3.91,-6.87 z"
     class="st0"
     inkscape:connector-curvature="0"
     style="fill:#008026;stroke-width:0.67782849" /><path
     id="path892"
     d="m 93.31,86.77 -3.88,6.67 c 1,0 3.63,0.04 3.63,0.04 l 29.07,-0.16 c 1.16,-0.01 2.46,-0.05 3.67,-0.02 0,0 2.33,0.04 4.49,-0.02 0.7,-0.02 1.67,-0.04 2.26,0.06 0.58,0.1 0.94,0.27 1.27,0.45 0.25,0.13 0.39,0.23 0.56,0.36 0.29,0.21 0.64,0.46 1.07,1.14 0,0 13.35,21.98 19.96,32.85 l -86.49,-0.17 -44.53,0.17 8.47,-14.61 15.55,-26.77 0.7,-1.2 c 0,0 30.02,0 44.9,0 z"
     class="st1"
     inkscape:connector-curvature="0"
     style="fill:#feec00;stroke-width:0.67782849" /><path
     id="path894"
     d="m 154.41,215.43 -11.86,19.92 c 0,0 -4.31,6.91 -6.09,10.28 -0.22,0.42 -0.42,0.75 -0.68,1.15 -0.21,0.31 -0.43,0.57 -0.72,0.93 -0.29,0.36 -0.74,0.6 -1.12,0.85 -0.88,0.56 -1.44,0.62 -3.04,0.56 0,0 -0.94,0 -1.4,0 -27.39,0.15 -82.35,0 -82.35,0 -1.36,-0.02 -1.67,-0.2 -2.4,-0.58 -0.16,-0.08 -0.74,-0.53 -1,-0.79 -0.37,-0.38 -0.52,-0.64 -0.52,-0.64 -6.47,-10.74 -12.51,-21.84 -18.66,-32.78 h 0.89 c 0,0 19.65,-0.01 29.9,0 32.89,0.02 66.73,-0.04 99.61,0 z"
     class="st2"
     inkscape:connector-curvature="0"
     style="fill:#750786;stroke-width:0.67782849" /><path
     id="path896"
     d="m 154.38,214.32 c -32.89,-0.04 -65.77,0.02 -98.66,0 -10.25,-0.01 -31.17,0 -31.17,0 l -0.03,-0.05 C 16.69,200.85 8.74,187.42 0.96,173.97 0.7,173.52 0.41,172.92 0.23,172.36 c -0.15,-0.44 -0.18,-1.09 -0.18,-1.09 15.11,0 44.91,0.05 44.91,0.05 0,0 -0.01,0.57 0.22,1.24 0.23,0.67 0.41,0.85 0.66,1.31 1.51,2.74 3.23,5.51 4.74,8.17 4.78,8.4 14.47,24.67 14.47,24.67 0,0 0.46,0.98 1.25,1.82 0.28,0.29 0.54,0.47 0.92,0.71 1.02,0.64 2.38,0.58 3.21,0.6 l 37.97,-0.01 c 1.97,0.03 2.3,-0.16 3.08,-0.48 1.54,-0.64 2.72,-3.08 2.72,-3.08 0.85,-1.42 1.59,-2.64 2.09,-3.48 4.64,-7.84 9.81,-15.52 14.47,-23.37 1.64,-2.77 3.03,-3.42 5.94,-3.42 10.26,0.02 20.53,-0.14 30.79,0.13 1.05,0.03 2.9,-0.22 4.16,0.16 1.25,0.38 1.91,1.39 2.31,2.18 0.32,0.63 0.7,1.5 0.56,2.45 -0.21,1.42 -1.16,3.01 -1.81,4.14 -5.65,9.84 -11.92,19.53 -17.75,29.26 z"
     class="st3"
     inkscape:connector-curvature="0"
     style="fill:#004dfe;stroke-width:0.67782849" /><path
     id="path898"
     d="m 103.59,69.09 c 5.27,-9.13 15.89,-27.31 15.89,-27.31 -14.86,-0.03 -29.3,-0.15 -44.16,-0.18 h -0.66 c -4.64,7.84 -9.43,15.94 -14,23.82 -3.7,6.37 -7.91,13.71 -11.54,20.12 0,0 29.99,0.05 44.86,0.05 z"
     class="st4"
     inkscape:connector-curvature="0"
     style="fill:#fe8b00;stroke-width:0.67782849" /><path
     id="path900"
     d="M 119.51,41.73 C 104.65,41.7 89.4,41.83 74.54,41.81 l 0.55,-0.94 c 4.49,-7.99 9.27,-15.84 13.8,-23.8 2.73,-4.79 5.58,-9.52 8.34,-14.29 0.48,-0.87 0.88,-1.84 1.62,-2.31 1.14,-0.72 2.25,-0.56 3.22,0.22 0.5,0.4 0.75,1.1 1.23,1.93 6.05,10.46 11.99,21 18.13,31.4 1.61,2.82 -0.31,4.96 -1.92,7.71 z"
     class="st5"
     inkscape:connector-curvature="0"
     style="fill:#e30303;stroke-width:0.67782849" /><path
     id="path902"
     d="M 36.14,85.55 H 24.64 C 27.81,71 31.09,56.36 34.26,41.81 h 25.15 z"
     class="st4"
     inkscape:connector-curvature="0"
     style="fill:#fe8b00;stroke-width:0.67782849" /><path
     id="path904"
     d="m 8.52,41.81 c 4.08,3.53 9.49,8.59 9.49,8.59 0.84,0.66 1.48,1.2 1.91,1.65 0.33,0.34 0.54,0.58 0.78,1.41 0.26,0.88 -0.05,2.04 -0.25,2.91 -0.3,1.37 -0.89,4.19 -0.89,4.19 -1.6,8.2 -3.41,16.82 -5.17,24.98 -4.98,0 -9.3,0 -14.27,0 0,-14.5 0,-29.24 0,-43.74 h 8.4 z"
     class="st4"
     inkscape:connector-curvature="0"
     style="fill:#fe8b00;stroke-width:0.67782849" /><path
     id="path906"
     d="m 59.41,41.81 c -8.54,-0.06 -25.15,0 -25.15,0 2.39,-11.54 5.09,-23.31 7.65,-34.8 0.16,-0.71 0.37,-1.78 0.73,-2.16 0.24,-0.26 0.53,-0.43 0.84,-0.52 0.38,-0.11 0.8,-0.09 1.24,0.08 0.51,0.19 1.12,1.1 1.65,1.7 C 51.06,11.38 60,22.3 60,22.3 l 3.31,3.93 c 0.65,0.78 1.88,2.03 1.99,3.22 0.12,1.21 -0.41,2.05 -0.88,2.91 -1.44,2.68 -4.34,8.17 -4.34,8.17 z"
     class="st5"
     inkscape:connector-curvature="0"
     style="fill:#e30303;stroke-width:0.67782849" /><path
     id="path908"
     d="m 0.12,85.55 c 4.98,0 9.3,0 14.27,0 -2.93,14.23 -6.01,28.36 -8.94,42.58 -2.04,0 -3.3,0 -5.34,0 0,-14.23 0.01,-28.36 0.01,-42.58 z"
     class="st1"
     inkscape:connector-curvature="0"
     style="fill:#feec00;stroke-width:0.67782849" /><path
     id="path910"
     d="m 24.64,85.55 h 11.51 l -6.67,12.61 -8.19,15.35 -1.37,2.56 c -0.45,0.56 -0.85,0.45 -1.04,0.41 -0.31,-0.07 -1,-0.34 -0.73,-1.41 l 0.45,-2.09 c 2.06,-9.21 3.86,-18.25 6.04,-27.43 z"
     class="st1"
     inkscape:connector-curvature="0"
     style="fill:#feec00;stroke-width:0.67782849" /><path
     id="path914"
     d="m 8.52,41.81 h -8.4 v -2.82 c 0,0 -0.01,-0.93 0,-1.34 0.01,-0.31 0.12,-0.54 0.16,-0.62 0.09,-0.2 0.09,-0.21 0.25,-0.36 0.19,-0.19 0.36,-0.32 0.68,-0.41 0.34,-0.11 0.64,-0.09 0.98,0.02 0.3,0.1 0.54,0.32 0.81,0.56 1.23,1.08 3.85,3.47 3.85,3.47 0,0 1.14,1.02 1.67,1.5 z"
     class="st5"
     inkscape:connector-curvature="0"
     style="fill:#e30303;stroke-width:0.67782849" /></g>
</svg>